<svg xmlns="http://www.w3.org/2000/svg" width="375" viewBox="0 0 375 375" height="375" version="1.0"><defs><clipPath id="a"><path d="M 124 69.242188 L 284 69.242188 L 284 192 L 124 192 Z M 124 69.242188"/></clipPath><clipPath id="b"><path d="M 273 126 L 314.996094 126 L 314.996094 197 L 273 197 Z M 273 126"/></clipPath><clipPath id="c"><path d="M 60 190 L 89 190 L 89 305.492188 L 60 305.492188 Z M 60 190"/></clipPath></defs><path fill="#FFF" d="M-37.5 -37.5H412.5V412.5H-37.5z"/><path fill="#26AFD9" d="M-37.5 -37.5H412.5V412.5H-37.5z"/><path fill="#094978" d="M 221.097656 176.21875 L 255.617188 188.070312 L 280.167969 116.71875 L 152.710938 72.949219 L 128.160156 144.300781 L 165.742188 157.210938 L 221.097656 176.21875"/><g clip-path="url(#a)"><path fill="#063251" d="M 132.324219 142.265625 L 253.566406 183.894531 L 276.003906 118.753906 L 154.761719 77.125 Z M 255.617188 191.347656 C 255.238281 191.347656 254.894531 191.285156 254.546875 191.175781 L 127.085938 147.40625 C 126.269531 147.121094 125.605469 146.523438 125.226562 145.75 C 124.816406 144.960938 124.785156 144.0625 125.066406 143.246094 L 149.617188 71.894531 C 150.1875 70.175781 152.082031 69.261719 153.785156 69.84375 L 281.242188 113.613281 C 282.945312 114.199219 283.859375 116.070312 283.261719 117.773438 L 258.710938 189.125 C 258.425781 189.960938 257.824219 190.636719 257.039062 191.015625 C 256.597656 191.238281 256.089844 191.347656 255.617188 191.347656"/></g><path fill="#063251" d="M 272.628906 173.726562 C 272.28125 173.726562 271.933594 173.664062 271.554688 173.554688 C 269.847656 172.953125 268.933594 171.09375 269.535156 169.378906 L 280.609375 137.207031 C 281.175781 135.488281 283.070312 134.574219 284.777344 135.160156 C 286.480469 135.757812 287.394531 137.617188 286.828125 139.335938 L 275.75 171.503906 C 275.277344 172.875 273.984375 173.726562 272.628906 173.726562"/><path fill="#097BAD" d="M 291.4375 193.207031 L 276.414062 188.039062 L 296.582031 129.390625 L 311.597656 134.546875 L 291.4375 193.207031"/><g clip-path="url(#b)"><path fill="#063251" d="M 280.578125 186.003906 L 289.382812 189.03125 L 307.433594 136.59375 L 298.628906 133.566406 Z M 291.4375 196.484375 C 291.058594 196.484375 290.707031 196.421875 290.359375 196.296875 L 275.339844 191.144531 C 273.605469 190.558594 272.691406 188.683594 273.289062 186.96875 L 293.484375 128.320312 C 294.054688 126.617188 295.945312 125.703125 297.652344 126.285156 L 312.671875 131.453125 C 313.492188 131.738281 314.1875 132.324219 314.566406 133.109375 C 314.945312 133.898438 315.007812 134.796875 314.722656 135.617188 L 294.527344 194.261719 C 294.242188 195.082031 293.644531 195.761719 292.886719 196.15625 C 292.414062 196.375 291.910156 196.484375 291.4375 196.484375"/></g><path fill="#063251" d="M 124.847656 125.324219 C 124.5 125.324219 124.152344 125.277344 123.773438 125.148438 C 122.070312 124.570312 121.15625 122.691406 121.753906 120.988281 L 135.578125 80.769531 C 136.175781 79.046875 138.035156 78.136719 139.773438 78.71875 C 141.476562 79.316406 142.394531 81.179688 141.792969 82.894531 L 127.96875 123.117188 C 127.5 124.472656 126.203125 125.324219 124.847656 125.324219"/><path fill="#063251" d="M 204.84375 145.449219 C 204.496094 145.449219 204.117188 145.40625 203.769531 145.277344 C 202.066406 144.695312 201.152344 142.820312 201.75 141.101562 L 206.230469 128.035156 L 141.414062 105.78125 C 139.707031 105.195312 138.796875 103.324219 139.363281 101.621094 C 139.960938 99.898438 141.855469 98.984375 143.558594 99.585938 L 211.46875 122.898438 C 213.207031 123.496094 214.121094 125.355469 213.519531 127.074219 L 207.964844 143.246094 C 207.496094 144.601562 206.203125 145.449219 204.84375 145.449219"/><path fill="#A3E3F3" d="M 154.320312 128.429688 L 144.09375 124.914062 L 147.632812 114.71875 L 157.824219 118.230469 L 154.320312 128.429688"/><path fill="#063251" d="M 148.296875 122.882812 L 152.269531 124.25 L 153.660156 120.265625 L 149.652344 118.894531 Z M 156.339844 132.589844 L 139.933594 126.960938 L 145.578125 110.558594 L 161.988281 116.199219 L 156.339844 132.589844"/><path fill="#A3E3F3" d="M 174.011719 135.191406 L 163.820312 131.691406 L 167.324219 121.496094 L 177.546875 124.992188 L 174.011719 135.191406"/><path fill="#063251" d="M 167.984375 129.660156 L 171.992188 131.03125 L 173.347656 127.027344 L 169.371094 125.652344 Z M 176.0625 139.367188 L 159.621094 133.726562 L 165.304688 117.320312 L 181.714844 122.960938 L 176.0625 139.367188"/><path fill="#097BAD" d="M 213.394531 168.320312 C 213.394531 179.226562 204.558594 188.070312 193.640625 188.070312 C 182.722656 188.070312 173.886719 179.226562 173.886719 168.320312 C 173.886719 157.414062 182.722656 148.570312 193.640625 148.570312 C 204.558594 148.570312 213.394531 157.414062 213.394531 168.320312"/><path fill="#063251" d="M 193.640625 151.851562 C 184.554688 151.851562 177.167969 159.242188 177.167969 168.320312 C 177.167969 177.398438 184.554688 184.792969 193.640625 184.792969 C 202.730469 184.792969 210.113281 177.398438 210.113281 168.320312 C 210.113281 159.242188 202.730469 151.851562 193.640625 151.851562 Z M 193.640625 191.347656 C 180.921875 191.347656 170.574219 181.023438 170.574219 168.320312 C 170.574219 155.617188 180.921875 145.292969 193.640625 145.292969 C 206.359375 145.292969 216.675781 155.617188 216.675781 168.320312 C 216.675781 181.023438 206.359375 191.347656 193.640625 191.347656"/><path fill="#063251" d="M 200.046875 168.320312 C 200.046875 171.867188 197.175781 174.734375 193.640625 174.734375 C 190.074219 174.734375 187.203125 171.867188 187.203125 168.320312 C 187.203125 164.773438 190.074219 161.90625 193.640625 161.90625 C 197.175781 161.90625 200.046875 164.773438 200.046875 168.320312"/><path fill="#063251" d="M 151.984375 253.195312 L 96.949219 253.195312 C 95.152344 253.195312 93.667969 251.730469 93.667969 249.917969 C 93.667969 248.105469 95.152344 246.636719 96.949219 246.636719 L 151.984375 246.636719 C 153.816406 246.636719 155.269531 248.105469 155.269531 249.917969 C 155.269531 251.730469 153.816406 253.195312 151.984375 253.195312"/><path fill="#063251" d="M 178.617188 234.375 C 178.367188 234.375 178.082031 234.34375 177.828125 234.28125 C 176.0625 233.839844 174.992188 232.042969 175.433594 230.292969 L 183.855469 196.847656 C 184.300781 195.082031 186.097656 194.011719 187.863281 194.46875 C 189.601562 194.910156 190.675781 196.691406 190.230469 198.4375 L 181.808594 231.902344 C 181.429688 233.382812 180.101562 234.375 178.617188 234.375"/><path fill="#094978" d="M 84.867188 302.179688 L 63.3125 302.179688 L 63.3125 193.949219 L 84.867188 193.949219 L 84.867188 302.179688"/><g clip-path="url(#c)"><path fill="#063251" d="M 66.625 298.902344 L 81.582031 298.902344 L 81.582031 197.226562 L 66.625 197.226562 Z M 84.867188 305.476562 L 63.3125 305.476562 C 61.511719 305.476562 60.027344 303.992188 60.027344 302.179688 L 60.027344 193.949219 C 60.027344 192.136719 61.511719 190.667969 63.3125 190.667969 L 84.867188 190.667969 C 86.660156 190.667969 88.148438 192.136719 88.148438 193.949219 L 88.148438 302.179688 C 88.148438 303.992188 86.660156 305.476562 84.867188 305.476562"/></g><path fill="#063251" d="M 171.675781 242.367188 C 167.480469 242.367188 164.101562 245.753906 164.101562 249.917969 C 164.101562 254.078125 167.480469 257.464844 171.675781 257.464844 C 175.84375 257.464844 179.21875 254.078125 179.21875 249.917969 C 179.21875 245.753906 175.84375 242.367188 171.675781 242.367188 Z M 171.675781 264.023438 C 163.882812 264.023438 157.542969 257.703125 157.542969 249.917969 C 157.542969 242.128906 163.882812 235.8125 171.675781 235.8125 C 179.441406 235.8125 185.78125 242.128906 185.78125 249.917969 C 185.78125 257.703125 179.441406 264.023438 171.675781 264.023438"/><path fill="#FFF" d="M 173.917969 249.917969 C 173.917969 251.160156 172.910156 252.183594 171.675781 252.183594 C 170.417969 252.183594 169.40625 251.160156 169.40625 249.917969 C 169.40625 248.65625 170.417969 247.644531 171.675781 247.644531 C 172.910156 247.644531 173.917969 248.65625 173.917969 249.917969"/><path fill="#063251" d="M 171.675781 248.007812 C 170.605469 248.007812 169.75 248.859375 169.75 249.917969 C 169.75 250.957031 170.605469 251.824219 171.675781 251.824219 C 172.71875 251.824219 173.570312 250.957031 173.570312 249.917969 C 173.570312 248.859375 172.71875 248.007812 171.675781 248.007812 Z M 171.675781 252.546875 C 170.195312 252.546875 169.027344 251.367188 169.027344 249.917969 C 169.027344 248.464844 170.195312 247.28125 171.675781 247.28125 C 173.128906 247.28125 174.296875 248.464844 174.296875 249.917969 C 174.296875 251.367188 173.128906 252.546875 171.675781 252.546875"/></svg>