<svg xmlns="http://www.w3.org/2000/svg" width="375" viewBox="0 0 375 375" height="375" version="1.0"><defs><clipPath id="a"><path d="M 37.5 37.5 L 337.5 37.5 L 337.5 337.5 L 37.5 337.5 Z M 37.5 37.5"/></clipPath></defs><path fill="#FFF" d="M-37.5 -37.5H412.5V412.5H-37.5z"/><path fill="#FFF" d="M-37.5 -37.5H412.5V412.5H-37.5z"/><path fill="#26AFD9" d="M-37.5 -37.5H412.5V412.5H-37.5z"/><path fill="#097BAD" d="M 187.5 332.5625 L 42.4375 187.5 L 187.5 42.4375 L 332.5625 187.5 Z M 187.5 332.5625"/><g clip-path="url(#a)"><path stroke-linecap="round" transform="matrix(2.3511 0 0 2.3511 36.09 33.503)" fill="none" d="M 64.399999 127.199918 L 2.700083 65.500001 L 64.399999 3.800085 L 126.099916 65.500001 Z M 64.399999 127.199918" stroke="#37474F" stroke-width="3" stroke-miterlimit="10"/></g><path stroke-linecap="round" transform="matrix(2.3511 0 0 2.3511 36.09 33.503)" fill="#06507A" stroke-linejoin="round" d="M 18.000453 78.000814 L 47.999744 78.000814 L 47.999744 93.00046 L 18.000453 93.00046 Z M 18.000453 78.000814" stroke="#37474F" stroke-width="3" stroke-miterlimit="10"/><path transform="matrix(2.3511 0 0 2.3511 36.09 33.503)" fill="#A3E3F3" d="M 48.999942 78.000814 L 79.999432 78.000814 L 79.999432 93.00046 L 48.999942 93.00046 Z M 48.999942 78.000814" stroke="#37474F" stroke-width="3" stroke-miterlimit="10"/><path stroke-linecap="round" transform="matrix(2.3511 0 0 2.3511 36.09 33.503)" fill="#FFF" stroke-linejoin="round" d="M 80.99963 78.000814 L 111.000583 78.000814 L 111.000583 93.00046 L 80.99963 93.00046 Z M 80.99963 78.000814" stroke="#37474F" stroke-width="3" stroke-miterlimit="10"/><path stroke-linecap="round" transform="matrix(2.3511 0 0 2.3511 36.09 33.503)" fill="#FFF" stroke-linejoin="round" d="M 33.000098 61.999309 L 63.999588 61.999309 L 63.999588 77.000616 L 33.000098 77.000616 Z M 33.000098 61.999309" stroke="#37474F" stroke-width="3" stroke-miterlimit="10"/><path stroke-linecap="round" transform="matrix(2.3511 0 0 2.3511 36.09 33.503)" fill="#06507A" stroke-linejoin="round" d="M 64.999786 61.999309 L 95.000739 61.999309 L 95.000739 77.000616 L 64.999786 77.000616 Z M 64.999786 61.999309" stroke="#37474F" stroke-width="3" stroke-miterlimit="10"/><path transform="matrix(2.3511 0 0 2.3511 36.09 33.503)" fill="#A3E3F3" d="M 48.999942 44.999267 L 79.999432 44.999267 L 79.999432 60.000574 L 48.999942 60.000574 Z M 48.999942 44.999267" stroke="#37474F" stroke-width="3" stroke-miterlimit="10"/><path transform="matrix(2.3511 0 0 2.3511 36.09 33.503)" fill="#063251" d="M 64.399999 35.50071 C 63.700525 35.50071 63.100739 36.100496 63.100739 36.79997 C 63.100739 37.499444 63.700525 38.099231 64.399999 38.099231 C 65.099473 38.099231 65.69926 37.499444 65.69926 36.79997 C 65.69926 36.100496 65.099473 35.50071 64.399999 35.50071 Z M 64.399999 35.50071" stroke="#37474F" stroke-miterlimit="10"/><path transform="matrix(2.3511 0 0 2.3511 36.09 33.503)" fill="#063251" d="M 64.399999 26.199866 C 63.700525 26.199866 63.100739 26.799652 63.100739 27.500788 C 63.100739 28.200262 63.700525 28.800048 64.399999 28.800048 C 65.099473 28.800048 65.69926 28.200262 65.69926 27.500788 C 65.69926 26.799652 65.099473 26.199866 64.399999 26.199866 Z M 64.399999 26.199866" stroke="#37474F" stroke-miterlimit="10"/><path transform="matrix(2.3511 0 0 2.3511 36.09 33.503)" fill="#063251" d="M 64.399999 16.900684 C 63.700525 16.900684 63.100739 17.50047 63.100739 18.199944 C 63.100739 18.899418 63.700525 19.499205 64.399999 19.499205 C 65.099473 19.499205 65.69926 18.899418 65.69926 18.199944 C 65.69926 17.50047 65.099473 16.900684 64.399999 16.900684 Z M 64.399999 16.900684" stroke="#37474F" stroke-miterlimit="10"/></svg>