<svg xmlns="http://www.w3.org/2000/svg" width="375" viewBox="0 0 375 375" height="375" version="1.0"><defs><clipPath id="a"><path d="M 81 314 L 308.871094 314 L 308.871094 322.355469 L 81 322.355469 Z M 81 314"/></clipPath><clipPath id="b"><path d="M 234 52.355469 L 283 52.355469 L 283 104 L 234 104 Z M 234 52.355469"/></clipPath></defs><path fill="#FFF" d="M-37.5 -37.5H412.5V412.5H-37.5z"/><path fill="#26AFD9" d="M-37.5 -37.5H412.5V412.5H-37.5z"/><path fill="#A3E3F3" d="M 106.304688 223.625 L 151.25 223.625 L 151.25 318.332031 L 106.304688 318.332031 Z M 106.304688 223.625"/><path fill="#A3E3F3" d="M 173.71875 180.285156 L 218.664062 180.285156 L 218.664062 318.332031 L 173.71875 318.332031 Z M 173.71875 180.285156"/><path fill="#A3E3F3" d="M 241.136719 126.242188 L 286.082031 126.242188 L 286.082031 318.332031 L 241.136719 318.332031 Z M 241.136719 126.242188"/><g clip-path="url(#a)"><path fill="#063251" d="M 304.542969 322.324219 L 85.035156 322.324219 C 82.828125 322.324219 81.042969 320.539062 81.042969 318.332031 C 81.042969 316.125 82.828125 314.335938 85.035156 314.335938 L 304.542969 314.335938 C 306.746094 314.335938 308.535156 316.125 308.535156 318.332031 C 308.535156 320.539062 306.746094 322.324219 304.542969 322.324219 Z M 304.542969 322.324219"/></g><path fill="#063251" d="M 70.59375 230.230469 C 69.683594 230.230469 68.769531 229.917969 68.019531 229.285156 C 66.332031 227.863281 66.121094 225.34375 67.542969 223.65625 L 100.039062 185.195312 C 101.324219 183.675781 103.523438 183.335938 105.207031 184.386719 L 122.605469 195.257812 L 170.65625 137.855469 C 171.90625 136.363281 174.050781 135.988281 175.734375 136.96875 L 195.300781 148.382812 L 256.035156 76.183594 C 257.457031 74.492188 259.972656 74.277344 261.664062 75.695312 C 263.351562 77.117188 263.570312 79.636719 262.148438 81.324219 L 199.25 156.101562 C 197.996094 157.585938 195.859375 157.957031 194.179688 156.980469 L 174.621094 145.566406 L 126.5 203.050781 C 125.21875 204.582031 123.011719 204.929688 121.320312 203.875 L 103.910156 192.992188 L 73.648438 228.8125 C 72.855469 229.75 71.730469 230.230469 70.59375 230.230469 Z M 70.59375 230.230469"/><g clip-path="url(#b)"><path fill="#063251" d="M 282.207031 52.355469 L 265.765625 103.429688 L 257.820312 81.34375 L 234.707031 77.304688 Z M 282.207031 52.355469"/></g></svg>