<svg xmlns="http://www.w3.org/2000/svg" width="375" viewBox="0 0 375 375" height="375" version="1.0"><defs><clipPath id="a"><path d="M 136 255 L 256 255 L 256 314.941406 L 136 314.941406 Z M 136 255"/></clipPath><clipPath id="b"><path d="M 255 255 L 314.941406 255 L 314.941406 314.941406 L 255 314.941406 Z M 255 255"/></clipPath><clipPath id="c"><path d="M 59.941406 157 L 179 157 L 179 301 L 59.941406 301 Z M 59.941406 157"/></clipPath><clipPath id="d"><path d="M 59.941406 59.941406 L 179 59.941406 L 179 120 L 59.941406 120 Z M 59.941406 59.941406"/></clipPath><clipPath id="e"><path d="M 178 59.941406 L 314.941406 59.941406 L 314.941406 204 L 178 204 Z M 178 59.941406"/></clipPath></defs><path fill="#FFF" d="M-37.5 -37.5H412.5V412.5H-37.5z"/><path fill="#FFF" d="M-37.5 -37.5H412.5V412.5H-37.5z"/><path fill="#26AFD9" d="M-37.5 -37.5H412.5V412.5H-37.5z"/><path fill="#147CAE" d="M 115.191406 89.691406 C 115.191406 90.527344 115.148438 91.359375 115.070312 92.191406 C 114.988281 93.023438 114.863281 93.847656 114.703125 94.667969 C 114.539062 95.484375 114.335938 96.292969 114.09375 97.09375 C 113.851562 97.894531 113.570312 98.679688 113.25 99.449219 C 112.929688 100.222656 112.574219 100.976562 112.179688 101.710938 C 111.785156 102.449219 111.359375 103.164062 110.894531 103.859375 C 110.429688 104.550781 109.933594 105.222656 109.402344 105.867188 C 108.875 106.515625 108.3125 107.132812 107.722656 107.722656 C 107.132812 108.3125 106.515625 108.875 105.867188 109.402344 C 105.222656 109.933594 104.550781 110.429688 103.859375 110.894531 C 103.164062 111.359375 102.449219 111.785156 101.710938 112.179688 C 100.976562 112.574219 100.222656 112.929688 99.449219 113.25 C 98.679688 113.570312 97.894531 113.851562 97.09375 114.09375 C 96.292969 114.335938 95.484375 114.539062 94.667969 114.703125 C 93.847656 114.863281 93.023438 114.988281 92.191406 115.070312 C 91.359375 115.148438 90.527344 115.191406 89.691406 115.191406 C 88.855469 115.191406 88.023438 115.148438 87.191406 115.070312 C 86.359375 114.988281 85.535156 114.863281 84.714844 114.703125 C 83.898438 114.539062 83.089844 114.335938 82.289062 114.09375 C 81.488281 113.851562 80.703125 113.570312 79.933594 113.25 C 79.160156 112.929688 78.40625 112.574219 77.671875 112.179688 C 76.933594 111.785156 76.21875 111.359375 75.523438 110.894531 C 74.828125 110.429688 74.160156 109.933594 73.515625 109.402344 C 72.867188 108.875 72.25 108.3125 71.660156 107.722656 C 71.070312 107.132812 70.507812 106.515625 69.980469 105.867188 C 69.449219 105.222656 68.953125 104.550781 68.488281 103.859375 C 68.023438 103.164062 67.597656 102.449219 67.203125 101.710938 C 66.808594 100.976562 66.453125 100.222656 66.132812 99.449219 C 65.8125 98.679688 65.53125 97.894531 65.289062 97.09375 C 65.046875 96.292969 64.84375 95.484375 64.679688 94.667969 C 64.519531 93.847656 64.394531 93.023438 64.3125 92.191406 C 64.230469 91.359375 64.191406 90.527344 64.191406 89.691406 C 64.191406 88.855469 64.230469 88.023438 64.3125 87.191406 C 64.394531 86.359375 64.519531 85.535156 64.679688 84.714844 C 64.84375 83.898438 65.046875 83.089844 65.289062 82.289062 C 65.53125 81.488281 65.8125 80.703125 66.132812 79.933594 C 66.453125 79.160156 66.808594 78.40625 67.203125 77.671875 C 67.597656 76.933594 68.023438 76.21875 68.488281 75.523438 C 68.953125 74.828125 69.449219 74.160156 69.980469 73.515625 C 70.507812 72.867188 71.070312 72.25 71.660156 71.660156 C 72.25 71.070312 72.867188 70.507812 73.515625 69.980469 C 74.160156 69.449219 74.828125 68.953125 75.523438 68.488281 C 76.21875 68.023438 76.933594 67.597656 77.671875 67.203125 C 78.40625 66.808594 79.160156 66.453125 79.933594 66.132812 C 80.703125 65.8125 81.488281 65.53125 82.289062 65.289062 C 83.089844 65.046875 83.898438 64.84375 84.714844 64.679688 C 85.535156 64.519531 86.359375 64.394531 87.191406 64.3125 C 88.023438 64.230469 88.855469 64.191406 89.691406 64.191406 C 90.527344 64.191406 91.359375 64.230469 92.191406 64.3125 C 93.023438 64.394531 93.847656 64.519531 94.667969 64.679688 C 95.484375 64.84375 96.292969 65.046875 97.09375 65.289062 C 97.894531 65.53125 98.679688 65.8125 99.449219 66.132812 C 100.222656 66.453125 100.976562 66.808594 101.710938 67.203125 C 102.449219 67.597656 103.164062 68.023438 103.859375 68.488281 C 104.550781 68.953125 105.222656 69.449219 105.867188 69.980469 C 106.515625 70.507812 107.132812 71.070312 107.722656 71.660156 C 108.3125 72.25 108.875 72.867188 109.402344 73.515625 C 109.933594 74.160156 110.429688 74.828125 110.894531 75.523438 C 111.359375 76.21875 111.785156 76.933594 112.179688 77.671875 C 112.574219 78.40625 112.929688 79.160156 113.25 79.933594 C 113.570312 80.703125 113.851562 81.488281 114.09375 82.289062 C 114.335938 83.089844 114.539062 83.898438 114.703125 84.714844 C 114.863281 85.535156 114.988281 86.359375 115.070312 87.191406 C 115.148438 88.023438 115.191406 88.855469 115.191406 89.691406 Z M 115.191406 89.691406"/><path fill="#147CAE" d="M 234.191406 89.691406 C 234.191406 90.527344 234.148438 91.359375 234.070312 92.191406 C 233.988281 93.023438 233.863281 93.847656 233.703125 94.667969 C 233.539062 95.484375 233.335938 96.292969 233.09375 97.09375 C 232.851562 97.894531 232.570312 98.679688 232.25 99.449219 C 231.929688 100.222656 231.574219 100.976562 231.179688 101.710938 C 230.785156 102.449219 230.359375 103.164062 229.894531 103.859375 C 229.429688 104.550781 228.933594 105.222656 228.402344 105.867188 C 227.875 106.515625 227.3125 107.132812 226.722656 107.722656 C 226.132812 108.3125 225.515625 108.875 224.867188 109.402344 C 224.222656 109.933594 223.550781 110.429688 222.859375 110.894531 C 222.164062 111.359375 221.449219 111.785156 220.710938 112.179688 C 219.976562 112.574219 219.222656 112.929688 218.449219 113.25 C 217.679688 113.570312 216.894531 113.851562 216.09375 114.09375 C 215.292969 114.335938 214.484375 114.539062 213.667969 114.703125 C 212.847656 114.863281 212.023438 114.988281 211.191406 115.070312 C 210.359375 115.148438 209.527344 115.191406 208.691406 115.191406 C 207.855469 115.191406 207.023438 115.148438 206.191406 115.070312 C 205.359375 114.988281 204.535156 114.863281 203.714844 114.703125 C 202.898438 114.539062 202.089844 114.335938 201.289062 114.09375 C 200.488281 113.851562 199.703125 113.570312 198.933594 113.25 C 198.160156 112.929688 197.40625 112.574219 196.671875 112.179688 C 195.933594 111.785156 195.21875 111.359375 194.523438 110.894531 C 193.828125 110.429688 193.160156 109.933594 192.515625 109.402344 C 191.867188 108.875 191.25 108.3125 190.660156 107.722656 C 190.070312 107.132812 189.507812 106.515625 188.980469 105.867188 C 188.449219 105.222656 187.953125 104.550781 187.488281 103.859375 C 187.023438 103.164062 186.597656 102.449219 186.203125 101.710938 C 185.808594 100.976562 185.453125 100.222656 185.132812 99.449219 C 184.8125 98.679688 184.53125 97.894531 184.289062 97.09375 C 184.046875 96.292969 183.84375 95.484375 183.679688 94.667969 C 183.519531 93.847656 183.394531 93.023438 183.3125 92.191406 C 183.230469 91.359375 183.191406 90.527344 183.191406 89.691406 C 183.191406 88.855469 183.230469 88.023438 183.3125 87.191406 C 183.394531 86.359375 183.519531 85.535156 183.679688 84.714844 C 183.84375 83.898438 184.046875 83.089844 184.289062 82.289062 C 184.53125 81.488281 184.8125 80.703125 185.132812 79.933594 C 185.453125 79.160156 185.808594 78.40625 186.203125 77.671875 C 186.597656 76.933594 187.023438 76.21875 187.488281 75.523438 C 187.953125 74.828125 188.449219 74.160156 188.980469 73.515625 C 189.507812 72.867188 190.070312 72.25 190.660156 71.660156 C 191.25 71.070312 191.867188 70.507812 192.515625 69.980469 C 193.160156 69.449219 193.828125 68.953125 194.523438 68.488281 C 195.21875 68.023438 195.933594 67.597656 196.671875 67.203125 C 197.40625 66.808594 198.160156 66.453125 198.933594 66.132812 C 199.703125 65.8125 200.488281 65.53125 201.289062 65.289062 C 202.089844 65.046875 202.898438 64.84375 203.714844 64.679688 C 204.535156 64.519531 205.359375 64.394531 206.191406 64.3125 C 207.023438 64.230469 207.855469 64.191406 208.691406 64.191406 C 209.527344 64.191406 210.359375 64.230469 211.191406 64.3125 C 212.023438 64.394531 212.847656 64.519531 213.667969 64.679688 C 214.484375 64.84375 215.292969 65.046875 216.09375 65.289062 C 216.894531 65.53125 217.679688 65.8125 218.449219 66.132812 C 219.222656 66.453125 219.976562 66.808594 220.710938 67.203125 C 221.449219 67.597656 222.164062 68.023438 222.859375 68.488281 C 223.550781 68.953125 224.222656 69.449219 224.867188 69.980469 C 225.515625 70.507812 226.132812 71.070312 226.722656 71.660156 C 227.3125 72.25 227.875 72.867188 228.402344 73.515625 C 228.933594 74.160156 229.429688 74.828125 229.894531 75.523438 C 230.359375 76.21875 230.785156 76.933594 231.179688 77.671875 C 231.574219 78.40625 231.929688 79.160156 232.25 79.933594 C 232.570312 80.703125 232.851562 81.488281 233.09375 82.289062 C 233.335938 83.089844 233.539062 83.898438 233.703125 84.714844 C 233.863281 85.535156 233.988281 86.359375 234.070312 87.191406 C 234.148438 88.023438 234.191406 88.855469 234.191406 89.691406 Z M 234.191406 89.691406"/><path fill="#147CAE" d="M 191.691406 285.191406 C 191.691406 286.027344 191.648438 286.859375 191.570312 287.691406 C 191.488281 288.523438 191.363281 289.347656 191.203125 290.167969 C 191.039062 290.984375 190.835938 291.792969 190.59375 292.59375 C 190.351562 293.394531 190.070312 294.179688 189.75 294.949219 C 189.429688 295.722656 189.074219 296.476562 188.679688 297.210938 C 188.285156 297.949219 187.859375 298.664062 187.394531 299.359375 C 186.929688 300.050781 186.433594 300.722656 185.902344 301.367188 C 185.375 302.015625 184.8125 302.632812 184.222656 303.222656 C 183.632812 303.8125 183.015625 304.375 182.367188 304.902344 C 181.722656 305.433594 181.050781 305.929688 180.359375 306.394531 C 179.664062 306.859375 178.949219 307.285156 178.210938 307.679688 C 177.476562 308.074219 176.722656 308.429688 175.949219 308.75 C 175.179688 309.070312 174.394531 309.351562 173.59375 309.59375 C 172.792969 309.835938 171.984375 310.039062 171.167969 310.203125 C 170.347656 310.363281 169.523438 310.488281 168.691406 310.570312 C 167.859375 310.648438 167.027344 310.691406 166.191406 310.691406 C 165.355469 310.691406 164.523438 310.648438 163.691406 310.570312 C 162.859375 310.488281 162.035156 310.363281 161.214844 310.203125 C 160.398438 310.039062 159.589844 309.835938 158.789062 309.59375 C 157.988281 309.351562 157.203125 309.070312 156.433594 308.75 C 155.660156 308.429688 154.90625 308.074219 154.171875 307.679688 C 153.433594 307.285156 152.71875 306.859375 152.023438 306.394531 C 151.328125 305.929688 150.660156 305.433594 150.015625 304.902344 C 149.367188 304.375 148.75 303.8125 148.160156 303.222656 C 147.570312 302.632812 147.007812 302.015625 146.480469 301.367188 C 145.949219 300.722656 145.453125 300.050781 144.988281 299.359375 C 144.523438 298.664062 144.097656 297.949219 143.703125 297.210938 C 143.308594 296.476562 142.953125 295.722656 142.632812 294.949219 C 142.3125 294.179688 142.03125 293.394531 141.789062 292.59375 C 141.546875 291.792969 141.34375 290.984375 141.179688 290.167969 C 141.019531 289.347656 140.894531 288.523438 140.8125 287.691406 C 140.730469 286.859375 140.691406 286.027344 140.691406 285.191406 C 140.691406 284.355469 140.730469 283.523438 140.8125 282.691406 C 140.894531 281.859375 141.019531 281.035156 141.179688 280.214844 C 141.34375 279.398438 141.546875 278.589844 141.789062 277.789062 C 142.03125 276.988281 142.3125 276.203125 142.632812 275.433594 C 142.953125 274.660156 143.308594 273.90625 143.703125 273.171875 C 144.097656 272.433594 144.523438 271.71875 144.988281 271.023438 C 145.453125 270.328125 145.949219 269.660156 146.480469 269.015625 C 147.007812 268.367188 147.570312 267.75 148.160156 267.160156 C 148.75 266.570312 149.367188 266.007812 150.015625 265.480469 C 150.660156 264.949219 151.328125 264.453125 152.023438 263.988281 C 152.71875 263.523438 153.433594 263.097656 154.171875 262.703125 C 154.90625 262.308594 155.660156 261.953125 156.433594 261.632812 C 157.203125 261.3125 157.988281 261.03125 158.789062 260.789062 C 159.589844 260.546875 160.398438 260.34375 161.214844 260.179688 C 162.035156 260.019531 162.859375 259.894531 163.691406 259.8125 C 164.523438 259.730469 165.355469 259.691406 166.191406 259.691406 C 167.027344 259.691406 167.859375 259.730469 168.691406 259.8125 C 169.523438 259.894531 170.347656 260.019531 171.167969 260.179688 C 171.984375 260.34375 172.792969 260.546875 173.59375 260.789062 C 174.394531 261.03125 175.179688 261.3125 175.949219 261.632812 C 176.722656 261.953125 177.476562 262.308594 178.210938 262.703125 C 178.949219 263.097656 179.664062 263.523438 180.359375 263.988281 C 181.050781 264.453125 181.722656 264.949219 182.367188 265.480469 C 183.015625 266.007812 183.632812 266.570312 184.222656 267.160156 C 184.8125 267.75 185.375 268.367188 185.902344 269.015625 C 186.433594 269.660156 186.929688 270.328125 187.394531 271.023438 C 187.859375 271.71875 188.285156 272.433594 188.679688 273.171875 C 189.074219 273.90625 189.429688 274.660156 189.75 275.433594 C 190.070312 276.203125 190.351562 276.988281 190.59375 277.789062 C 190.835938 278.589844 191.039062 279.398438 191.203125 280.214844 C 191.363281 281.035156 191.488281 281.859375 191.570312 282.691406 C 191.648438 283.523438 191.691406 284.355469 191.691406 285.191406 Z M 191.691406 285.191406"/><path fill="#FFF" d="M 310.691406 285.191406 C 310.691406 286.027344 310.648438 286.859375 310.570312 287.691406 C 310.488281 288.523438 310.363281 289.347656 310.203125 290.167969 C 310.039062 290.984375 309.835938 291.792969 309.59375 292.59375 C 309.351562 293.394531 309.070312 294.179688 308.75 294.949219 C 308.429688 295.722656 308.074219 296.476562 307.679688 297.210938 C 307.285156 297.949219 306.859375 298.664062 306.394531 299.359375 C 305.929688 300.050781 305.433594 300.722656 304.902344 301.367188 C 304.375 302.015625 303.8125 302.632812 303.222656 303.222656 C 302.632812 303.8125 302.015625 304.375 301.367188 304.902344 C 300.722656 305.433594 300.050781 305.929688 299.359375 306.394531 C 298.664062 306.859375 297.949219 307.285156 297.210938 307.679688 C 296.476562 308.074219 295.722656 308.429688 294.949219 308.75 C 294.179688 309.070312 293.394531 309.351562 292.59375 309.59375 C 291.792969 309.835938 290.984375 310.039062 290.167969 310.203125 C 289.347656 310.363281 288.523438 310.488281 287.691406 310.570312 C 286.859375 310.648438 286.027344 310.691406 285.191406 310.691406 C 284.355469 310.691406 283.523438 310.648438 282.691406 310.570312 C 281.859375 310.488281 281.035156 310.363281 280.214844 310.203125 C 279.398438 310.039062 278.589844 309.835938 277.789062 309.59375 C 276.988281 309.351562 276.203125 309.070312 275.433594 308.75 C 274.660156 308.429688 273.90625 308.074219 273.171875 307.679688 C 272.433594 307.285156 271.71875 306.859375 271.023438 306.394531 C 270.328125 305.929688 269.660156 305.433594 269.015625 304.902344 C 268.367188 304.375 267.75 303.8125 267.160156 303.222656 C 266.570312 302.632812 266.007812 302.015625 265.480469 301.367188 C 264.949219 300.722656 264.453125 300.050781 263.988281 299.359375 C 263.523438 298.664062 263.097656 297.949219 262.703125 297.210938 C 262.308594 296.476562 261.953125 295.722656 261.632812 294.949219 C 261.3125 294.179688 261.03125 293.394531 260.789062 292.59375 C 260.546875 291.792969 260.34375 290.984375 260.179688 290.167969 C 260.019531 289.347656 259.894531 288.523438 259.8125 287.691406 C 259.730469 286.859375 259.691406 286.027344 259.691406 285.191406 C 259.691406 284.355469 259.730469 283.523438 259.8125 282.691406 C 259.894531 281.859375 260.019531 281.035156 260.179688 280.214844 C 260.34375 279.398438 260.546875 278.589844 260.789062 277.789062 C 261.03125 276.988281 261.3125 276.203125 261.632812 275.433594 C 261.953125 274.660156 262.308594 273.90625 262.703125 273.171875 C 263.097656 272.433594 263.523438 271.71875 263.988281 271.023438 C 264.453125 270.328125 264.949219 269.660156 265.480469 269.015625 C 266.007812 268.367188 266.570312 267.75 267.160156 267.160156 C 267.75 266.570312 268.367188 266.007812 269.015625 265.480469 C 269.660156 264.949219 270.328125 264.453125 271.023438 263.988281 C 271.71875 263.523438 272.433594 263.097656 273.171875 262.703125 C 273.90625 262.308594 274.660156 261.953125 275.433594 261.632812 C 276.203125 261.3125 276.988281 261.03125 277.789062 260.789062 C 278.589844 260.546875 279.398438 260.34375 280.214844 260.179688 C 281.035156 260.019531 281.859375 259.894531 282.691406 259.8125 C 283.523438 259.730469 284.355469 259.691406 285.191406 259.691406 C 286.027344 259.691406 286.859375 259.730469 287.691406 259.8125 C 288.523438 259.894531 289.347656 260.019531 290.167969 260.179688 C 290.984375 260.34375 291.792969 260.546875 292.59375 260.789062 C 293.394531 261.03125 294.179688 261.3125 294.949219 261.632812 C 295.722656 261.953125 296.476562 262.308594 297.210938 262.703125 C 297.949219 263.097656 298.664062 263.523438 299.359375 263.988281 C 300.050781 264.453125 300.722656 264.949219 301.367188 265.480469 C 302.015625 266.007812 302.632812 266.570312 303.222656 267.160156 C 303.8125 267.75 304.375 268.367188 304.902344 269.015625 C 305.433594 269.660156 305.929688 270.328125 306.394531 271.023438 C 306.859375 271.71875 307.285156 272.433594 307.679688 273.171875 C 308.074219 273.90625 308.429688 274.660156 308.75 275.433594 C 309.070312 276.203125 309.351562 276.988281 309.59375 277.789062 C 309.835938 278.589844 310.039062 279.398438 310.203125 280.214844 C 310.363281 281.035156 310.488281 281.859375 310.570312 282.691406 C 310.648438 283.523438 310.691406 284.355469 310.691406 285.191406 Z M 310.691406 285.191406"/><path fill="#147CAE" d="M 174.691406 187.441406 C 174.691406 188.277344 174.648438 189.109375 174.570312 189.941406 C 174.488281 190.773438 174.363281 191.597656 174.203125 192.417969 C 174.039062 193.234375 173.835938 194.042969 173.59375 194.84375 C 173.351562 195.644531 173.070312 196.429688 172.75 197.199219 C 172.429688 197.972656 172.074219 198.726562 171.679688 199.460938 C 171.285156 200.199219 170.859375 200.914062 170.394531 201.609375 C 169.929688 202.300781 169.433594 202.972656 168.902344 203.617188 C 168.375 204.265625 167.8125 204.882812 167.222656 205.472656 C 166.632812 206.0625 166.015625 206.625 165.367188 207.152344 C 164.722656 207.683594 164.050781 208.179688 163.359375 208.644531 C 162.664062 209.109375 161.949219 209.535156 161.210938 209.929688 C 160.476562 210.324219 159.722656 210.679688 158.949219 211 C 158.179688 211.320312 157.394531 211.601562 156.59375 211.84375 C 155.792969 212.085938 154.984375 212.289062 154.167969 212.453125 C 153.347656 212.613281 152.523438 212.738281 151.691406 212.820312 C 150.859375 212.898438 150.027344 212.941406 149.191406 212.941406 C 148.355469 212.941406 147.523438 212.898438 146.691406 212.820312 C 145.859375 212.738281 145.035156 212.613281 144.214844 212.453125 C 143.398438 212.289062 142.589844 212.085938 141.789062 211.84375 C 140.988281 211.601562 140.203125 211.320312 139.433594 211 C 138.660156 210.679688 137.90625 210.324219 137.171875 209.929688 C 136.433594 209.535156 135.71875 209.109375 135.023438 208.644531 C 134.328125 208.179688 133.660156 207.683594 133.015625 207.152344 C 132.367188 206.625 131.75 206.0625 131.160156 205.472656 C 130.570312 204.882812 130.007812 204.265625 129.480469 203.617188 C 128.949219 202.972656 128.453125 202.300781 127.988281 201.609375 C 127.523438 200.914062 127.097656 200.199219 126.703125 199.460938 C 126.308594 198.726562 125.953125 197.972656 125.632812 197.199219 C 125.3125 196.429688 125.03125 195.644531 124.789062 194.84375 C 124.546875 194.042969 124.34375 193.234375 124.179688 192.417969 C 124.019531 191.597656 123.894531 190.773438 123.8125 189.941406 C 123.730469 189.109375 123.691406 188.277344 123.691406 187.441406 C 123.691406 186.605469 123.730469 185.773438 123.8125 184.941406 C 123.894531 184.109375 124.019531 183.285156 124.179688 182.464844 C 124.34375 181.648438 124.546875 180.839844 124.789062 180.039062 C 125.03125 179.238281 125.3125 178.453125 125.632812 177.683594 C 125.953125 176.910156 126.308594 176.15625 126.703125 175.421875 C 127.097656 174.683594 127.523438 173.96875 127.988281 173.273438 C 128.453125 172.578125 128.949219 171.910156 129.480469 171.265625 C 130.007812 170.617188 130.570312 170 131.160156 169.410156 C 131.75 168.820312 132.367188 168.257812 133.015625 167.730469 C 133.660156 167.199219 134.328125 166.703125 135.023438 166.238281 C 135.71875 165.773438 136.433594 165.347656 137.171875 164.953125 C 137.90625 164.558594 138.660156 164.203125 139.433594 163.882812 C 140.203125 163.5625 140.988281 163.28125 141.789062 163.039062 C 142.589844 162.796875 143.398438 162.59375 144.214844 162.429688 C 145.035156 162.269531 145.859375 162.144531 146.691406 162.0625 C 147.523438 161.980469 148.355469 161.941406 149.191406 161.941406 C 150.027344 161.941406 150.859375 161.980469 151.691406 162.0625 C 152.523438 162.144531 153.347656 162.269531 154.167969 162.429688 C 154.984375 162.59375 155.792969 162.796875 156.59375 163.039062 C 157.394531 163.28125 158.179688 163.5625 158.949219 163.882812 C 159.722656 164.203125 160.476562 164.558594 161.210938 164.953125 C 161.949219 165.347656 162.664062 165.773438 163.359375 166.238281 C 164.050781 166.703125 164.722656 167.199219 165.367188 167.730469 C 166.015625 168.257812 166.632812 168.820312 167.222656 169.410156 C 167.8125 170 168.375 170.617188 168.902344 171.265625 C 169.433594 171.910156 169.929688 172.578125 170.394531 173.273438 C 170.859375 173.96875 171.285156 174.683594 171.679688 175.421875 C 172.074219 176.15625 172.429688 176.910156 172.75 177.683594 C 173.070312 178.453125 173.351562 179.238281 173.59375 180.039062 C 173.835938 180.839844 174.039062 181.648438 174.203125 182.464844 C 174.363281 183.285156 174.488281 184.109375 174.570312 184.941406 C 174.648438 185.773438 174.691406 186.605469 174.691406 187.441406 Z M 174.691406 187.441406"/><path fill="#06507A" d="M 102.945312 67.9375 C 105.304688 71.804688 106.691406 76.328125 106.691406 81.191406 C 106.691406 95.273438 95.273438 106.691406 81.191406 106.691406 C 76.328125 106.691406 71.804688 105.304688 67.9375 102.945312 C 72.414062 110.277344 80.46875 115.191406 89.691406 115.191406 C 103.773438 115.191406 115.191406 103.773438 115.191406 89.691406 C 115.191406 80.46875 110.277344 72.414062 102.945312 67.9375 Z M 102.945312 67.9375"/><path fill="#06507A" d="M 221.945312 67.9375 C 224.304688 71.804688 225.691406 76.328125 225.691406 81.191406 C 225.691406 95.273438 214.273438 106.691406 200.191406 106.691406 C 195.328125 106.691406 190.804688 105.304688 186.9375 102.945312 C 191.414062 110.277344 199.46875 115.191406 208.691406 115.191406 C 222.773438 115.191406 234.191406 103.773438 234.191406 89.691406 C 234.191406 80.46875 229.277344 72.414062 221.945312 67.9375 Z M 221.945312 67.9375"/><path fill="#06507A" d="M 179.445312 263.4375 C 181.804688 267.304688 183.191406 271.828125 183.191406 276.691406 C 183.191406 290.773438 171.773438 302.191406 157.691406 302.191406 C 152.828125 302.191406 148.304688 300.804688 144.4375 298.445312 C 148.914062 305.777344 156.96875 310.691406 166.191406 310.691406 C 180.273438 310.691406 191.691406 299.273438 191.691406 285.191406 C 191.691406 275.96875 186.777344 267.914062 179.445312 263.4375 Z M 179.445312 263.4375"/><path fill="#A3E3F3" d="M 298.445312 263.4375 C 300.804688 267.304688 302.191406 271.828125 302.191406 276.691406 C 302.191406 290.773438 290.773438 302.191406 276.691406 302.191406 C 271.828125 302.191406 267.304688 300.804688 263.4375 298.445312 C 267.914062 305.777344 275.96875 310.691406 285.191406 310.691406 C 299.273438 310.691406 310.691406 299.273438 310.691406 285.191406 C 310.691406 275.96875 305.777344 267.914062 298.445312 263.4375 Z M 298.445312 263.4375"/><path fill="#06507A" d="M 162.445312 165.6875 C 164.804688 169.554688 166.191406 174.078125 166.191406 178.941406 C 166.191406 193.023438 154.773438 204.441406 140.691406 204.441406 C 135.828125 204.441406 131.304688 203.054688 127.4375 200.695312 C 131.914062 208.027344 139.96875 212.941406 149.191406 212.941406 C 163.273438 212.941406 174.691406 201.523438 174.691406 187.441406 C 174.691406 178.21875 169.777344 170.164062 162.445312 165.6875 Z M 162.445312 165.6875"/><g clip-path="url(#a)"><path fill="#063251" d="M 166.191406 314.941406 C 181.148438 314.941406 193.527344 303.835938 195.601562 289.441406 L 240.929688 289.441406 L 235.4375 294.9375 L 241.445312 300.945312 L 254.195312 288.195312 C 255.027344 287.367188 255.441406 286.277344 255.441406 285.191406 C 255.441406 284.105469 255.027344 283.015625 254.195312 282.1875 L 241.445312 269.4375 L 235.4375 275.445312 L 240.929688 280.941406 L 195.601562 280.941406 C 193.527344 266.546875 181.148438 255.441406 166.191406 255.441406 C 149.789062 255.441406 136.441406 268.785156 136.441406 285.191406 C 136.441406 301.59375 149.789062 314.941406 166.191406 314.941406 Z M 166.191406 263.941406 C 177.90625 263.941406 187.441406 273.476562 187.441406 285.191406 C 187.441406 296.90625 177.90625 306.441406 166.191406 306.441406 C 154.476562 306.441406 144.941406 296.90625 144.941406 285.191406 C 144.941406 273.476562 154.476562 263.941406 166.191406 263.941406 Z M 166.191406 263.941406"/></g><g clip-path="url(#b)"><path fill="#063251" d="M 285.191406 314.941406 C 301.59375 314.941406 314.941406 301.59375 314.941406 285.191406 C 314.941406 268.785156 301.59375 255.441406 285.191406 255.441406 C 268.789062 255.441406 255.441406 268.785156 255.441406 285.191406 C 255.441406 301.59375 268.789062 314.941406 285.191406 314.941406 Z M 285.191406 263.941406 C 296.90625 263.941406 306.441406 273.476562 306.441406 285.191406 C 306.441406 296.90625 296.90625 306.441406 285.191406 306.441406 C 273.476562 306.441406 263.941406 296.90625 263.941406 285.191406 C 263.941406 273.476562 273.476562 263.941406 285.191406 263.941406 Z M 285.191406 263.941406"/></g><g clip-path="url(#c)"><path fill="#063251" d="M 149.191406 157.691406 C 134.234375 157.691406 121.855469 168.796875 119.78125 183.191406 L 113.066406 183.191406 C 83.773438 183.191406 59.941406 207.023438 59.941406 236.316406 C 59.941406 265.609375 83.773438 289.441406 113.066406 289.441406 L 121.929688 289.441406 L 116.4375 294.9375 L 122.445312 300.945312 L 135.195312 288.195312 C 136.027344 287.367188 136.441406 286.277344 136.441406 285.191406 C 136.441406 284.105469 136.027344 283.015625 135.195312 282.1875 L 122.445312 269.4375 L 116.4375 275.445312 L 121.929688 280.941406 L 113.066406 280.941406 C 88.457031 280.941406 68.441406 260.921875 68.441406 236.316406 C 68.441406 211.710938 88.457031 191.691406 113.066406 191.691406 L 119.78125 191.691406 C 121.855469 206.085938 134.234375 217.191406 149.191406 217.191406 C 165.59375 217.191406 178.941406 203.84375 178.941406 187.441406 C 178.941406 171.035156 165.59375 157.691406 149.191406 157.691406 Z M 149.191406 208.691406 C 137.476562 208.691406 127.941406 199.15625 127.941406 187.441406 C 127.941406 175.726562 137.476562 166.191406 149.191406 166.191406 C 160.90625 166.191406 170.441406 175.726562 170.441406 187.441406 C 170.441406 199.15625 160.90625 208.691406 149.191406 208.691406 Z M 149.191406 208.691406"/></g><g clip-path="url(#d)"><path fill="#063251" d="M 164.945312 73.9375 L 158.9375 79.945312 L 164.429688 85.441406 L 119.101562 85.441406 C 117.027344 71.046875 104.648438 59.941406 89.691406 59.941406 C 73.289062 59.941406 59.941406 73.285156 59.941406 89.691406 C 59.941406 106.09375 73.289062 119.441406 89.691406 119.441406 C 104.648438 119.441406 117.027344 108.335938 119.101562 93.941406 L 164.429688 93.941406 L 158.9375 99.4375 L 164.945312 105.445312 L 177.695312 92.695312 C 178.527344 91.867188 178.941406 90.777344 178.941406 89.691406 C 178.941406 88.605469 178.527344 87.515625 177.695312 86.6875 Z M 89.691406 110.941406 C 77.976562 110.941406 68.441406 101.40625 68.441406 89.691406 C 68.441406 77.976562 77.976562 68.441406 89.691406 68.441406 C 101.40625 68.441406 110.941406 77.976562 110.941406 89.691406 C 110.941406 101.40625 101.40625 110.941406 89.691406 110.941406 Z M 89.691406 110.941406"/></g><g clip-path="url(#e)"><path fill="#063251" d="M 314.941406 138.566406 C 314.941406 109.273438 291.109375 85.441406 261.816406 85.441406 L 238.101562 85.441406 C 236.027344 71.046875 223.648438 59.941406 208.691406 59.941406 C 192.289062 59.941406 178.941406 73.285156 178.941406 89.691406 C 178.941406 106.09375 192.289062 119.441406 208.691406 119.441406 C 223.648438 119.441406 236.027344 108.335938 238.101562 93.941406 L 261.816406 93.941406 C 286.425781 93.941406 306.441406 113.960938 306.441406 138.566406 C 306.441406 163.171875 286.425781 183.191406 261.816406 183.191406 L 193.449219 183.191406 L 198.945312 177.695312 L 192.9375 171.6875 L 180.1875 184.4375 C 179.355469 185.265625 178.941406 186.355469 178.941406 187.441406 C 178.941406 188.527344 179.355469 189.617188 180.1875 190.445312 L 192.9375 203.195312 L 198.945312 197.1875 L 193.449219 191.691406 L 261.816406 191.691406 C 291.109375 191.691406 314.941406 167.859375 314.941406 138.566406 Z M 208.691406 110.941406 C 196.976562 110.941406 187.441406 101.40625 187.441406 89.691406 C 187.441406 77.976562 196.976562 68.441406 208.691406 68.441406 C 220.40625 68.441406 229.941406 77.976562 229.941406 89.691406 C 229.941406 101.40625 220.40625 110.941406 208.691406 110.941406 Z M 208.691406 110.941406"/></g></svg>