<svg xmlns="http://www.w3.org/2000/svg" width="375" viewBox="0 0 375 375" height="375" version="1.0"><defs><clipPath id="a"><path d="M 154 42.1875 L 221 42.1875 L 221 108 L 154 108 Z M 154 42.1875"/></clipPath><clipPath id="b"><path d="M 42 103 L 333 103 L 333 333.1875 L 42 333.1875 Z M 42 103"/></clipPath></defs><path fill="#FFF" d="M-37.5 -37.5H412.5V412.5H-37.5z"/><path fill="#FFF" d="M-37.5 -37.5H412.5V412.5H-37.5z"/><path fill="#26AFD9" d="M-37.5 -37.5H412.5V412.5H-37.5z"/><g clip-path="url(#a)"><path fill="#FFF" d="M 187.519531 65.65625 C 182.335938 65.65625 178.144531 69.871094 178.144531 75.042969 C 178.144531 80.210938 182.335938 84.429688 187.519531 84.429688 C 192.683594 84.429688 196.894531 80.210938 196.894531 75.042969 C 196.894531 69.871094 192.683594 65.65625 187.519531 65.65625 Z M 187.519531 107.898438 C 169.410156 107.898438 154.707031 93.15625 154.707031 75.042969 C 154.707031 56.929688 169.410156 42.1875 187.519531 42.1875 C 205.609375 42.1875 220.332031 56.929688 220.332031 75.042969 C 220.332031 93.15625 205.609375 107.898438 187.519531 107.898438"/></g><path fill="#FFF" d="M 74.980469 234.621094 C 73.371094 234.621094 71.777344 235.042969 70.332031 235.886719 C 65.863281 238.472656 64.324219 244.210938 66.90625 248.683594 C 69.488281 253.160156 75.21875 254.699219 79.6875 252.113281 C 84.15625 249.527344 85.691406 243.789062 83.113281 239.316406 C 81.867188 237.132812 79.832031 235.59375 77.433594 234.953125 C 76.628906 234.734375 75.804688 234.621094 74.980469 234.621094 Z M 75.054688 276.847656 C 63.703125 276.847656 52.660156 270.960938 46.582031 260.4375 C 37.535156 244.742188 42.9375 224.613281 58.59375 215.554688 C 66.191406 211.15625 75.035156 210 83.496094 212.273438 C 91.957031 214.527344 99.042969 219.972656 103.417969 227.582031 C 112.464844 243.277344 107.078125 263.40625 91.40625 272.464844 C 86.261719 275.433594 80.621094 276.847656 75.054688 276.847656"/><path fill="#FFF" d="M 295.332031 252.113281 C 299.796875 254.699219 305.546875 253.175781 308.113281 248.683594 C 310.710938 244.210938 309.171875 238.472656 304.6875 235.886719 C 302.527344 234.621094 300 234.292969 297.582031 234.953125 C 295.183594 235.59375 293.152344 237.132812 291.90625 239.316406 C 289.324219 243.789062 290.863281 249.527344 295.332031 252.113281 Z M 299.964844 276.847656 C 294.398438 276.847656 288.757812 275.433594 283.613281 272.464844 C 267.9375 263.40625 262.554688 243.277344 271.601562 227.582031 C 275.976562 219.972656 283.0625 214.527344 291.523438 212.273438 C 300 209.980469 308.824219 211.171875 316.425781 215.554688 C 332.078125 224.613281 337.480469 244.742188 328.4375 260.4375 C 322.355469 270.960938 311.316406 276.847656 299.964844 276.847656"/><path fill="#063251" d="M 187.519531 70.347656 C 190.101562 70.347656 192.207031 72.457031 192.207031 75.042969 C 192.207031 77.628906 190.101562 79.734375 187.519531 79.734375 C 184.917969 79.734375 182.832031 77.628906 182.832031 75.042969 C 182.832031 72.457031 184.917969 70.347656 187.519531 70.347656 Z M 187.519531 89.121094 C 195.261719 89.121094 201.582031 82.816406 201.582031 75.042969 C 201.582031 67.269531 195.261719 60.960938 187.519531 60.960938 C 179.753906 60.960938 173.457031 67.269531 173.457031 75.042969 C 173.457031 82.816406 179.753906 89.121094 187.519531 89.121094"/><path fill="#063251" d="M 77.34375 248.0625 C 75.109375 249.382812 72.234375 248.59375 70.953125 246.355469 C 69.652344 244.121094 70.421875 241.222656 72.65625 239.941406 C 74.910156 238.636719 77.78125 239.425781 79.066406 241.664062 C 80.363281 243.898438 79.578125 246.777344 77.34375 248.0625 Z M 67.96875 231.816406 C 61.265625 235.6875 58.960938 244.320312 62.824219 251.050781 C 65.421875 255.5625 70.164062 258.074219 75.035156 258.074219 C 77.417969 258.074219 79.832031 257.46875 82.03125 256.203125 C 88.75 252.316406 91.058594 243.679688 87.175781 236.96875 C 83.3125 230.242188 74.6875 227.929688 67.96875 231.816406"/><path fill="#063251" d="M 304.066406 246.355469 C 302.78125 248.59375 299.910156 249.363281 297.675781 248.0625 C 295.441406 246.777344 294.652344 243.898438 295.953125 241.664062 C 297.253906 239.425781 300.128906 238.636719 302.363281 239.941406 C 304.597656 241.222656 305.363281 244.121094 304.066406 246.355469 Z M 307.050781 231.816406 C 300.328125 227.929688 291.707031 230.257812 287.839844 236.96875 C 283.960938 243.679688 286.265625 252.316406 292.988281 256.203125 C 295.183594 257.46875 297.601562 258.074219 299.980469 258.074219 C 304.851562 258.074219 309.59375 255.5625 312.195312 251.050781 C 316.058594 244.320312 313.75 235.6875 307.050781 231.816406"/><g clip-path="url(#b)"><path fill="#063251" d="M 322.960938 130.320312 C 321.992188 133.949219 319.664062 136.992188 316.425781 138.863281 C 309.703125 142.75 301.082031 140.441406 297.199219 133.710938 C 295.332031 130.449219 294.835938 126.652344 295.808594 123.023438 C 296.777344 119.394531 299.101562 116.347656 302.363281 114.480469 C 304.558594 113.195312 306.976562 112.589844 309.355469 112.589844 C 314.226562 112.589844 318.953125 115.121094 321.570312 119.632812 C 323.4375 122.894531 323.933594 126.691406 322.960938 130.320312 Z M 229.707031 239.316406 L 145.332031 239.316406 L 145.332031 136.058594 L 229.707031 136.058594 Z M 201.582031 309.71875 C 201.582031 317.492188 195.261719 323.800781 187.519531 323.800781 C 179.753906 323.800781 173.457031 317.492188 173.457031 309.71875 C 173.457031 301.945312 179.753906 295.640625 187.519531 295.640625 C 195.261719 295.640625 201.582031 301.945312 201.582031 309.71875 Z M 77.820312 133.710938 C 73.9375 140.441406 65.3125 142.75 58.613281 138.863281 C 55.351562 136.992188 53.027344 133.949219 52.058594 130.320312 C 51.085938 126.691406 51.582031 122.894531 53.46875 119.632812 C 56.066406 115.121094 60.792969 112.589844 65.660156 112.589844 C 68.042969 112.589844 70.457031 113.195312 72.675781 114.480469 C 75.914062 116.347656 78.242188 119.394531 79.210938 123.023438 C 80.183594 126.652344 79.6875 130.449219 77.820312 133.710938 Z M 329.679688 114.9375 C 326.550781 109.511719 321.496094 105.625 315.453125 104.011719 C 309.410156 102.378906 303.09375 103.222656 297.675781 106.339844 C 292.234375 109.492188 288.371094 114.535156 286.742188 120.601562 C 285.664062 124.636719 285.773438 128.78125 286.835938 132.703125 L 239.082031 156.628906 L 239.082031 126.671875 L 192.207031 126.671875 L 192.207031 107.511719 C 190.667969 107.75 189.109375 107.898438 187.519531 107.898438 C 185.90625 107.898438 184.351562 107.75 182.832031 107.511719 L 182.832031 126.671875 L 135.957031 126.671875 L 135.957031 156.628906 L 88.183594 132.703125 C 89.246094 128.78125 89.355469 124.636719 88.273438 120.601562 C 86.644531 114.535156 82.78125 109.492188 77.363281 106.339844 C 71.921875 103.222656 65.605469 102.378906 59.5625 104.011719 C 53.523438 105.625 48.46875 109.511719 45.335938 114.9375 C 42.207031 120.363281 41.382812 126.691406 42.992188 132.738281 C 44.621094 138.808594 48.488281 143.851562 53.925781 147.003906 C 57.53125 149.074219 61.542969 150.15625 65.589844 150.15625 C 67.640625 150.15625 69.691406 149.882812 71.703125 149.332031 C 76.667969 147.992188 80.894531 145.078125 83.992188 141.117188 L 135.957031 167.117188 L 135.957031 208.257812 L 101.933594 225.273438 C 102.449219 226.023438 102.960938 226.777344 103.417969 227.582031 C 104.554688 229.542969 105.46875 231.578125 106.144531 233.652344 L 135.957031 218.746094 L 135.957031 248.703125 L 182.832031 248.703125 L 182.832031 286.730469 C 172.136719 288.910156 164.082031 298.390625 164.082031 309.71875 C 164.082031 322.664062 174.589844 333.1875 187.519531 333.1875 C 200.425781 333.1875 210.957031 322.664062 210.957031 309.71875 C 210.957031 298.390625 202.878906 288.910156 192.207031 286.730469 L 192.207031 248.703125 L 239.082031 248.703125 L 239.082031 218.746094 L 268.871094 233.652344 C 269.550781 231.578125 270.464844 229.542969 271.601562 227.582031 C 272.058594 226.777344 272.570312 226.023438 273.082031 225.273438 L 239.082031 208.257812 L 239.082031 167.117188 L 291.027344 141.117188 C 294.121094 145.078125 298.351562 147.992188 303.3125 149.332031 C 305.347656 149.882812 307.378906 150.15625 309.429688 150.15625 C 313.476562 150.15625 317.488281 149.074219 321.113281 147.003906 C 326.53125 143.851562 330.394531 138.808594 332.023438 132.738281 C 333.636719 126.691406 332.8125 120.363281 329.679688 114.9375"/></g><path fill="#063251" d="M 210.957031 220.542969 L 201.582031 220.542969 L 201.582031 192.382812 L 210.957031 192.382812 Z M 182.832031 220.542969 L 182.832031 201.769531 L 192.207031 201.769531 L 192.207031 220.542969 Z M 164.082031 211.15625 L 173.457031 211.15625 L 173.457031 220.542969 L 164.082031 220.542969 Z M 220.332031 182.992188 L 192.207031 182.992188 L 192.207031 192.382812 L 173.457031 192.382812 L 173.457031 201.769531 L 154.707031 201.769531 L 154.707031 229.929688 L 220.332031 229.929688 L 220.332031 182.992188"/><path fill="#063251" d="M 164.082031 145.445312 L 154.707031 145.445312 L 154.707031 154.832031 L 164.082031 154.832031 L 164.082031 145.445312"/><path fill="#063251" d="M 220.332031 145.445312 L 173.457031 145.445312 L 173.457031 154.832031 L 220.332031 154.832031 L 220.332031 145.445312"/><path fill="#063251" d="M 220.332031 164.21875 L 154.707031 164.21875 L 154.707031 173.605469 L 220.332031 173.605469 L 220.332031 164.21875"/></svg>