<svg xmlns="http://www.w3.org/2000/svg" width="375" viewBox="0 0 375 375" height="375" version="1.0"><defs><clipPath id="a"><path d="M 37.5 90.683594 L 337.5 90.683594 L 337.5 284.183594 L 37.5 284.183594 Z M 37.5 90.683594"/></clipPath></defs><path fill="#FFF" d="M-37.5 -37.5H412.5V412.5H-37.5z"/><path fill="#26AFD9" d="M-37.5 -37.5H412.5V412.5H-37.5z"/><g clip-path="url(#a)"><path fill="#147CAE" d="M 338.019531 187.433594 C 338.019531 216.480469 270.789062 284.140625 187.871094 284.140625 C 104.941406 284.140625 37.71875 224.789062 37.71875 187.433594 C 37.71875 158.304688 104.953125 90.722656 187.871094 90.722656 C 270.789062 90.722656 338.019531 158.296875 338.019531 187.433594 Z M 338.019531 187.433594"/></g><path fill="#FFF" d="M 327.09375 187.433594 C 327.09375 212.964844 264.742188 272.421875 187.859375 272.421875 C 110.96875 272.421875 48.636719 220.242188 48.636719 187.433594 C 48.636719 161.832031 110.96875 102.449219 187.859375 102.449219 C 264.742188 102.441406 327.09375 161.832031 327.09375 187.433594 Z M 327.09375 187.433594"/><path fill="#094978" d="M 262.351562 187.433594 C 262.351562 188.648438 262.320312 189.863281 262.261719 191.082031 C 262.199219 192.296875 262.113281 193.507812 261.992188 194.71875 C 261.871094 195.929688 261.722656 197.140625 261.546875 198.34375 C 261.367188 199.546875 261.160156 200.746094 260.921875 201.9375 C 260.683594 203.132812 260.417969 204.320312 260.121094 205.5 C 259.824219 206.679688 259.5 207.851562 259.144531 209.019531 C 258.792969 210.183594 258.410156 211.335938 258 212.484375 C 257.589844 213.628906 257.152344 214.765625 256.6875 215.886719 C 256.21875 217.011719 255.726562 218.125 255.207031 219.226562 C 254.683594 220.324219 254.136719 221.410156 253.5625 222.484375 C 252.988281 223.558594 252.390625 224.617188 251.765625 225.660156 C 251.136719 226.703125 250.488281 227.734375 249.808594 228.746094 C 249.132812 229.757812 248.433594 230.75 247.707031 231.730469 C 246.980469 232.707031 246.234375 233.664062 245.460938 234.605469 C 244.6875 235.546875 243.890625 236.46875 243.074219 237.371094 C 242.257812 238.269531 241.417969 239.152344 240.554688 240.011719 C 239.695312 240.875 238.8125 241.710938 237.910156 242.53125 C 237.007812 243.347656 236.085938 244.140625 235.144531 244.914062 C 234.203125 245.6875 233.246094 246.433594 232.265625 247.160156 C 231.289062 247.882812 230.292969 248.585938 229.28125 249.261719 C 228.265625 249.9375 227.238281 250.585938 226.195312 251.214844 C 225.148438 251.839844 224.089844 252.4375 223.015625 253.011719 C 221.941406 253.585938 220.855469 254.132812 219.753906 254.652344 C 218.652344 255.171875 217.539062 255.667969 216.414062 256.132812 C 215.289062 256.597656 214.15625 257.035156 213.007812 257.445312 C 211.863281 257.855469 210.707031 258.238281 209.539062 258.589844 C 208.375 258.945312 207.203125 259.269531 206.019531 259.5625 C 204.839844 259.859375 203.652344 260.125 202.457031 260.363281 C 201.261719 260.601562 200.0625 260.808594 198.859375 260.988281 C 197.652344 261.167969 196.445312 261.316406 195.234375 261.433594 C 194.019531 261.554688 192.808594 261.644531 191.589844 261.703125 C 190.375 261.761719 189.15625 261.792969 187.941406 261.792969 C 186.722656 261.792969 185.503906 261.761719 184.289062 261.703125 C 183.074219 261.644531 181.859375 261.554688 180.644531 261.433594 C 179.433594 261.316406 178.226562 261.167969 177.023438 260.988281 C 175.816406 260.808594 174.617188 260.601562 173.421875 260.363281 C 172.230469 260.125 171.039062 259.859375 169.859375 259.5625 C 168.679688 259.269531 167.503906 258.945312 166.339844 258.589844 C 165.175781 258.238281 164.019531 257.855469 162.871094 257.445312 C 161.726562 257.035156 160.589844 256.597656 159.464844 256.132812 C 158.339844 255.667969 157.226562 255.171875 156.125 254.652344 C 155.023438 254.132812 153.9375 253.585938 152.863281 253.011719 C 151.789062 252.4375 150.730469 251.839844 149.683594 251.214844 C 148.640625 250.585938 147.613281 249.9375 146.597656 249.261719 C 145.585938 248.585938 144.589844 247.882812 143.613281 247.160156 C 142.636719 246.433594 141.675781 245.6875 140.734375 244.914062 C 139.792969 244.140625 138.871094 243.347656 137.96875 242.53125 C 137.066406 241.710938 136.183594 240.875 135.324219 240.011719 C 134.460938 239.152344 133.625 238.269531 132.804688 237.371094 C 131.988281 236.46875 131.191406 235.546875 130.417969 234.605469 C 129.648438 233.664062 128.898438 232.707031 128.171875 231.730469 C 127.449219 230.75 126.746094 229.757812 126.070312 228.746094 C 125.394531 227.734375 124.742188 226.703125 124.117188 225.660156 C 123.488281 224.617188 122.890625 223.558594 122.316406 222.484375 C 121.742188 221.410156 121.195312 220.324219 120.671875 219.226562 C 120.152344 218.125 119.660156 217.011719 119.195312 215.886719 C 118.726562 214.765625 118.289062 213.628906 117.878906 212.484375 C 117.46875 211.335938 117.085938 210.183594 116.734375 209.019531 C 116.378906 207.851562 116.054688 206.679688 115.757812 205.5 C 115.464844 204.320312 115.195312 203.132812 114.960938 201.9375 C 114.722656 200.746094 114.511719 199.546875 114.335938 198.34375 C 114.15625 197.140625 114.007812 195.929688 113.886719 194.71875 C 113.769531 193.507812 113.679688 192.296875 113.617188 191.082031 C 113.558594 189.863281 113.53125 188.648438 113.53125 187.433594 C 113.53125 186.214844 113.558594 185 113.617188 183.78125 C 113.679688 182.566406 113.769531 181.355469 113.886719 180.144531 C 114.007812 178.933594 114.15625 177.722656 114.335938 176.519531 C 114.511719 175.316406 114.722656 174.117188 114.960938 172.925781 C 115.195312 171.730469 115.464844 170.542969 115.757812 169.363281 C 116.054688 168.183594 116.378906 167.011719 116.734375 165.847656 C 117.085938 164.679688 117.46875 163.527344 117.878906 162.378906 C 118.289062 161.234375 118.726562 160.097656 119.195312 158.976562 C 119.660156 157.851562 120.152344 156.738281 120.671875 155.636719 C 121.195312 154.539062 121.742188 153.453125 122.316406 152.378906 C 122.890625 151.304688 123.488281 150.246094 124.117188 149.203125 C 124.742188 148.160156 125.394531 147.132812 126.070312 146.117188 C 126.746094 145.105469 127.449219 144.113281 128.171875 143.136719 C 128.898438 142.15625 129.648438 141.199219 130.417969 140.257812 C 131.191406 139.316406 131.988281 138.394531 132.804688 137.492188 C 133.625 136.59375 134.460938 135.710938 135.324219 134.851562 C 136.183594 133.988281 137.066406 133.152344 137.96875 132.332031 C 138.871094 131.515625 139.792969 130.722656 140.734375 129.949219 C 141.675781 129.179688 142.636719 128.429688 143.613281 127.703125 C 144.589844 126.980469 145.585938 126.277344 146.597656 125.601562 C 147.613281 124.925781 148.640625 124.277344 149.683594 123.648438 C 150.730469 123.023438 151.789062 122.425781 152.863281 121.851562 C 153.9375 121.277344 155.023438 120.730469 156.125 120.210938 C 157.226562 119.691406 158.339844 119.195312 159.464844 118.730469 C 160.589844 118.265625 161.726562 117.828125 162.871094 117.417969 C 164.019531 117.007812 165.175781 116.625 166.339844 116.273438 C 167.503906 115.917969 168.679688 115.59375 169.859375 115.300781 C 171.039062 115.003906 172.230469 114.738281 173.421875 114.5 C 174.617188 114.261719 175.816406 114.054688 177.023438 113.875 C 178.226562 113.695312 179.433594 113.546875 180.644531 113.429688 C 181.859375 113.308594 183.074219 113.21875 184.289062 113.160156 C 185.503906 113.101562 186.722656 113.070312 187.941406 113.070312 C 189.15625 113.070312 190.375 113.101562 191.589844 113.160156 C 192.808594 113.21875 194.019531 113.308594 195.234375 113.429688 C 196.445312 113.546875 197.652344 113.695312 198.859375 113.875 C 200.0625 114.054688 201.261719 114.261719 202.457031 114.5 C 203.652344 114.738281 204.839844 115.003906 206.019531 115.300781 C 207.203125 115.59375 208.375 115.917969 209.539062 116.273438 C 210.707031 116.625 211.863281 117.007812 213.007812 117.417969 C 214.15625 117.828125 215.289062 118.265625 216.414062 118.730469 C 217.539062 119.195312 218.652344 119.691406 219.753906 120.210938 C 220.855469 120.730469 221.941406 121.277344 223.015625 121.851562 C 224.089844 122.425781 225.148438 123.023438 226.195312 123.648438 C 227.238281 124.277344 228.265625 124.925781 229.28125 125.601562 C 230.292969 126.277344 231.289062 126.980469 232.265625 127.703125 C 233.246094 128.429688 234.203125 129.179688 235.144531 129.949219 C 236.085938 130.722656 237.007812 131.515625 237.910156 132.332031 C 238.8125 133.152344 239.695312 133.988281 240.554688 134.851562 C 241.417969 135.710938 242.257812 136.59375 243.074219 137.492188 C 243.890625 138.394531 244.6875 139.316406 245.460938 140.257812 C 246.234375 141.199219 246.980469 142.15625 247.707031 143.136719 C 248.433594 144.113281 249.132812 145.105469 249.808594 146.117188 C 250.488281 147.132812 251.136719 148.160156 251.765625 149.203125 C 252.390625 150.246094 252.988281 151.304688 253.5625 152.378906 C 254.136719 153.453125 254.683594 154.539062 255.207031 155.636719 C 255.726562 156.738281 256.21875 157.851562 256.6875 158.976562 C 257.152344 160.097656 257.589844 161.234375 258 162.378906 C 258.410156 163.527344 258.792969 164.679688 259.144531 165.847656 C 259.5 167.011719 259.824219 168.183594 260.121094 169.363281 C 260.417969 170.542969 260.683594 171.730469 260.921875 172.925781 C 261.160156 174.117188 261.367188 175.316406 261.546875 176.519531 C 261.722656 177.722656 261.871094 178.933594 261.992188 180.144531 C 262.113281 181.355469 262.199219 182.566406 262.261719 183.78125 C 262.320312 185 262.351562 186.214844 262.351562 187.433594 Z M 262.351562 187.433594"/><path fill="#063251" d="M 229.359375 187.433594 C 229.359375 188.789062 229.292969 190.140625 229.160156 191.488281 C 229.027344 192.839844 228.828125 194.175781 228.5625 195.507812 C 228.296875 196.835938 227.96875 198.148438 227.574219 199.445312 C 227.183594 200.746094 226.726562 202.019531 226.207031 203.273438 C 225.6875 204.523438 225.109375 205.75 224.46875 206.945312 C 223.828125 208.140625 223.132812 209.300781 222.378906 210.429688 C 221.625 211.554688 220.816406 212.640625 219.957031 213.691406 C 219.097656 214.738281 218.1875 215.742188 217.226562 216.699219 C 216.269531 217.660156 215.265625 218.566406 214.214844 219.429688 C 213.167969 220.289062 212.078125 221.09375 210.953125 221.847656 C 209.824219 222.601562 208.660156 223.296875 207.464844 223.9375 C 206.269531 224.574219 205.042969 225.152344 203.789062 225.671875 C 202.535156 226.191406 201.261719 226.648438 199.964844 227.042969 C 198.664062 227.433594 197.351562 227.765625 196.019531 228.027344 C 194.691406 228.292969 193.351562 228.492188 192 228.625 C 190.648438 228.757812 189.296875 228.824219 187.941406 228.824219 C 186.582031 228.824219 185.230469 228.757812 183.878906 228.625 C 182.53125 228.492188 181.191406 228.292969 179.859375 228.027344 C 178.527344 227.765625 177.214844 227.433594 175.917969 227.042969 C 174.617188 226.648438 173.34375 226.191406 172.089844 225.671875 C 170.835938 225.152344 169.609375 224.574219 168.414062 223.9375 C 167.21875 223.296875 166.054688 222.601562 164.929688 221.847656 C 163.800781 221.09375 162.710938 220.289062 161.664062 219.429688 C 160.613281 218.566406 159.609375 217.660156 158.652344 216.699219 C 157.691406 215.742188 156.78125 214.738281 155.921875 213.691406 C 155.0625 212.640625 154.253906 211.554688 153.5 210.429688 C 152.746094 209.300781 152.050781 208.140625 151.410156 206.945312 C 150.773438 205.75 150.191406 204.523438 149.671875 203.273438 C 149.152344 202.019531 148.699219 200.746094 148.304688 199.445312 C 147.910156 198.148438 147.582031 196.835938 147.316406 195.507812 C 147.050781 194.175781 146.851562 192.839844 146.71875 191.488281 C 146.585938 190.140625 146.519531 188.789062 146.519531 187.433594 C 146.519531 186.078125 146.585938 184.722656 146.71875 183.375 C 146.851562 182.027344 147.050781 180.6875 147.316406 179.355469 C 147.582031 178.027344 147.910156 176.714844 148.304688 175.417969 C 148.699219 174.117188 149.152344 172.84375 149.671875 171.59375 C 150.191406 170.339844 150.773438 169.117188 151.410156 167.917969 C 152.050781 166.722656 152.746094 165.5625 153.5 164.4375 C 154.253906 163.308594 155.0625 162.222656 155.921875 161.171875 C 156.78125 160.125 157.691406 159.121094 158.652344 158.164062 C 159.609375 157.203125 160.613281 156.296875 161.664062 155.433594 C 162.710938 154.574219 163.800781 153.769531 164.929688 153.015625 C 166.054688 152.261719 167.21875 151.566406 168.414062 150.925781 C 169.609375 150.289062 170.835938 149.710938 172.089844 149.191406 C 173.34375 148.671875 174.617188 148.214844 175.917969 147.824219 C 177.214844 147.429688 178.527344 147.101562 179.859375 146.835938 C 181.191406 146.570312 182.53125 146.371094 183.878906 146.238281 C 185.230469 146.105469 186.582031 146.039062 187.941406 146.039062 C 189.296875 146.039062 190.648438 146.105469 192 146.238281 C 193.351562 146.371094 194.691406 146.570312 196.019531 146.835938 C 197.351562 147.101562 198.664062 147.429688 199.964844 147.824219 C 201.261719 148.214844 202.535156 148.671875 203.789062 149.191406 C 205.042969 149.710938 206.269531 150.289062 207.464844 150.925781 C 208.660156 151.566406 209.824219 152.261719 210.953125 153.015625 C 212.078125 153.769531 213.167969 154.574219 214.214844 155.433594 C 215.265625 156.296875 216.269531 157.203125 217.226562 158.164062 C 218.1875 159.121094 219.097656 160.125 219.957031 161.171875 C 220.816406 162.222656 221.625 163.308594 222.378906 164.4375 C 223.132812 165.5625 223.828125 166.722656 224.46875 167.917969 C 225.109375 169.117188 225.6875 170.339844 226.207031 171.59375 C 226.726562 172.84375 227.183594 174.117188 227.574219 175.417969 C 227.96875 176.714844 228.296875 178.027344 228.5625 179.355469 C 228.828125 180.6875 229.027344 182.027344 229.160156 183.375 C 229.292969 184.722656 229.359375 186.078125 229.359375 187.433594 Z M 229.359375 187.433594"/><path fill="#FFF" d="M 231.929688 161.054688 C 231.929688 161.632812 231.898438 162.207031 231.84375 162.78125 C 231.785156 163.351562 231.703125 163.921875 231.589844 164.488281 C 231.476562 165.050781 231.335938 165.609375 231.171875 166.160156 C 231.003906 166.710938 230.808594 167.253906 230.589844 167.785156 C 230.367188 168.316406 230.121094 168.835938 229.851562 169.34375 C 229.578125 169.851562 229.28125 170.347656 228.960938 170.824219 C 228.644531 171.304688 228.300781 171.765625 227.933594 172.210938 C 227.570312 172.65625 227.183594 173.082031 226.773438 173.488281 C 226.367188 173.898438 225.941406 174.285156 225.496094 174.648438 C 225.050781 175.015625 224.585938 175.355469 224.109375 175.675781 C 223.628906 175.996094 223.136719 176.292969 222.628906 176.5625 C 222.117188 176.835938 221.597656 177.082031 221.066406 177.300781 C 220.535156 177.523438 219.992188 177.714844 219.441406 177.882812 C 218.890625 178.050781 218.332031 178.191406 217.765625 178.300781 C 217.199219 178.414062 216.632812 178.5 216.058594 178.554688 C 215.484375 178.613281 214.910156 178.640625 214.332031 178.640625 C 213.757812 178.640625 213.183594 178.613281 212.609375 178.554688 C 212.035156 178.5 211.464844 178.414062 210.898438 178.300781 C 210.335938 178.191406 209.777344 178.050781 209.226562 177.882812 C 208.671875 177.714844 208.132812 177.523438 207.597656 177.300781 C 207.066406 177.082031 206.546875 176.835938 206.039062 176.5625 C 205.53125 176.292969 205.035156 175.996094 204.558594 175.675781 C 204.078125 175.355469 203.617188 175.015625 203.171875 174.648438 C 202.726562 174.285156 202.296875 173.898438 201.890625 173.488281 C 201.484375 173.082031 201.097656 172.65625 200.730469 172.210938 C 200.367188 171.765625 200.023438 171.304688 199.703125 170.824219 C 199.382812 170.347656 199.085938 169.851562 198.816406 169.34375 C 198.542969 168.835938 198.296875 168.316406 198.078125 167.785156 C 197.855469 167.253906 197.664062 166.710938 197.496094 166.160156 C 197.328125 165.609375 197.1875 165.050781 197.074219 164.488281 C 196.964844 163.921875 196.878906 163.351562 196.820312 162.78125 C 196.765625 162.207031 196.738281 161.632812 196.738281 161.054688 C 196.738281 160.480469 196.765625 159.90625 196.820312 159.332031 C 196.878906 158.761719 196.964844 158.191406 197.074219 157.625 C 197.1875 157.0625 197.328125 156.503906 197.496094 155.953125 C 197.664062 155.402344 197.855469 154.859375 198.078125 154.328125 C 198.296875 153.796875 198.542969 153.277344 198.816406 152.765625 C 199.085938 152.257812 199.382812 151.765625 199.703125 151.289062 C 200.023438 150.808594 200.367188 150.347656 200.730469 149.902344 C 201.097656 149.457031 201.484375 149.03125 201.890625 148.621094 C 202.296875 148.214844 202.726562 147.828125 203.171875 147.464844 C 203.617188 147.097656 204.078125 146.757812 204.558594 146.4375 C 205.035156 146.117188 205.53125 145.820312 206.039062 145.550781 C 206.546875 145.277344 207.066406 145.03125 207.597656 144.8125 C 208.132812 144.589844 208.671875 144.398438 209.226562 144.230469 C 209.777344 144.0625 210.335938 143.921875 210.898438 143.8125 C 211.464844 143.699219 212.035156 143.613281 212.609375 143.558594 C 213.183594 143.5 213.757812 143.472656 214.332031 143.472656 C 214.910156 143.472656 215.484375 143.5 216.058594 143.558594 C 216.632812 143.613281 217.199219 143.699219 217.765625 143.8125 C 218.332031 143.921875 218.890625 144.0625 219.441406 144.230469 C 219.992188 144.398438 220.535156 144.589844 221.066406 144.8125 C 221.597656 145.03125 222.117188 145.277344 222.628906 145.550781 C 223.136719 145.820312 223.628906 146.117188 224.109375 146.4375 C 224.585938 146.757812 225.050781 147.097656 225.496094 147.464844 C 225.941406 147.828125 226.367188 148.214844 226.773438 148.621094 C 227.183594 149.03125 227.570312 149.457031 227.933594 149.902344 C 228.300781 150.347656 228.644531 150.808594 228.960938 151.289062 C 229.28125 151.765625 229.578125 152.257812 229.851562 152.765625 C 230.121094 153.277344 230.367188 153.796875 230.589844 154.328125 C 230.808594 154.859375 231.003906 155.402344 231.171875 155.953125 C 231.335938 156.503906 231.476562 157.0625 231.589844 157.625 C 231.703125 158.191406 231.785156 158.761719 231.84375 159.332031 C 231.898438 159.90625 231.929688 160.480469 231.929688 161.054688 Z M 231.929688 161.054688"/></svg>