<svg xmlns="http://www.w3.org/2000/svg" width="375" viewBox="0 0 375 375" height="375" version="1.0"><defs><clipPath id="a"><path d="M 76.359375 45.011719 L 298.359375 45.011719 L 298.359375 330 L 76.359375 330 Z M 76.359375 45.011719"/></clipPath></defs><path fill="#FFF" d="M-37.5 -37.5H412.5V412.5H-37.5z"/><path fill="#26AFD9" d="M-37.5 -37.5H412.5V412.5H-37.5z"/><path fill="#147CAE" d="M 187.359375 327.082031 C 127.664062 327.082031 79.09375 278.445312 79.09375 218.671875 L 79.09375 89.503906 C 79.09375 88.371094 79.804688 87.34375 80.878906 86.945312 L 186.417969 48.109375 C 186.71875 47.996094 187.046875 47.945312 187.359375 47.945312 C 187.671875 47.945312 187.996094 47.996094 188.296875 48.109375 L 293.839844 86.945312 C 294.910156 87.34375 295.621094 88.371094 295.621094 89.503906 L 295.621094 218.671875 C 295.621094 278.445312 247.050781 327.082031 187.359375 327.082031"/><g clip-path="url(#a)"><path fill="#0A141F" d="M 187.359375 45.210938 C 186.71875 45.210938 186.082031 45.324219 185.476562 45.542969 L 79.9375 84.375 C 77.792969 85.171875 76.371094 87.222656 76.371094 89.503906 L 76.371094 218.671875 C 76.371094 279.953125 126.15625 329.808594 187.359375 329.808594 C 248.558594 329.808594 298.347656 279.953125 298.347656 218.671875 L 298.347656 89.503906 C 298.347656 87.222656 296.925781 85.171875 294.777344 84.375 L 189.238281 45.542969 C 188.636719 45.324219 187.996094 45.210938 187.359375 45.210938 Z M 187.359375 50.671875 L 292.898438 89.503906 L 292.898438 218.671875 C 292.898438 277.035156 245.640625 324.34375 187.359375 324.34375 C 129.074219 324.34375 81.816406 277.035156 81.816406 218.671875 L 81.816406 89.503906 L 187.359375 50.671875"/></g><path fill="#06507A" d="M 180.089844 267.546875 C 139.269531 267.546875 103.257812 246.972656 81.816406 215.617188 L 81.816406 218.671875 C 81.816406 277.035156 129.074219 324.34375 187.359375 324.34375 C 245.640625 324.34375 292.898438 277.035156 292.898438 218.671875 L 292.898438 186.449219 C 277.027344 233.601562 232.519531 267.546875 180.089844 267.546875"/><path fill="#A3E3F3" d="M 187.359375 306.699219 C 136.800781 306.699219 95.664062 265.496094 95.664062 214.871094 L 95.664062 105.988281 C 95.664062 104.84375 96.378906 103.816406 97.449219 103.417969 L 186.417969 70.6875 C 186.71875 70.570312 187.046875 70.519531 187.359375 70.519531 C 187.671875 70.519531 187.996094 70.570312 188.296875 70.6875 L 277.265625 103.417969 C 278.339844 103.816406 279.050781 104.84375 279.050781 105.988281 L 279.050781 214.871094 C 279.050781 265.496094 237.917969 306.699219 187.359375 306.699219"/><path fill="#0A141F" d="M 187.359375 67.78125 C 186.71875 67.78125 186.082031 67.902344 185.476562 68.117188 L 96.507812 100.859375 C 94.363281 101.644531 92.929688 103.695312 92.929688 105.988281 L 92.929688 214.871094 C 92.929688 267.003906 135.292969 309.425781 187.359375 309.425781 C 239.421875 309.425781 281.785156 267.003906 281.785156 214.871094 L 281.785156 105.988281 C 281.785156 103.695312 280.351562 101.644531 278.207031 100.859375 L 189.238281 68.117188 C 188.636719 67.902344 187.996094 67.78125 187.359375 67.78125 Z M 187.359375 73.246094 L 276.328125 105.988281 L 276.328125 214.871094 C 276.328125 264.074219 236.496094 303.957031 187.359375 303.957031 C 138.222656 303.957031 98.390625 264.074219 98.390625 214.871094 L 98.390625 105.988281 L 187.359375 73.246094"/><path fill="#FFF" d="M 168.96875 237.378906 L 136.800781 200.617188 L 151.574219 187.65625 L 170.316406 209.078125 L 240.726562 142.519531 L 254.199219 156.832031 L 168.96875 237.378906"/><path fill="#0A141F" d="M 168.96875 237.378906 L 171.027344 235.578125 L 140.644531 200.871094 L 151.324219 191.503906 L 168.257812 210.875 C 168.75 211.429688 169.4375 211.769531 170.183594 211.804688 C 170.917969 211.839844 171.640625 211.574219 172.183594 211.054688 L 240.605469 146.382812 L 250.34375 156.710938 L 167.097656 235.398438 L 168.96875 237.378906 L 171.027344 235.578125 L 168.96875 237.378906 L 170.835938 239.367188 L 256.066406 158.8125 C 256.585938 158.316406 256.898438 157.628906 256.921875 156.90625 C 256.949219 156.179688 256.671875 155.46875 256.175781 154.949219 L 242.703125 140.648438 C 242.207031 140.128906 241.519531 139.816406 240.796875 139.792969 C 240.074219 139.78125 239.363281 140.046875 238.84375 140.539062 L 170.496094 205.144531 L 153.625 185.859375 C 152.636719 184.722656 150.914062 184.613281 149.769531 185.605469 L 135.003906 198.554688 C 133.871094 199.554688 133.761719 201.28125 134.75 202.414062 L 166.917969 239.175781 C 167.398438 239.742188 168.097656 240.082031 168.835938 240.105469 C 169.582031 240.140625 170.304688 239.875 170.835938 239.367188 L 168.96875 237.378906"/></svg>