<svg xmlns="http://www.w3.org/2000/svg" width="375" viewBox="0 0 375 375" height="375" version="1.0"><defs><clipPath id="a"><path d="M 60.019531 64 L 178 64 L 178 124 L 60.019531 124 Z M 60.019531 64"/></clipPath><clipPath id="b"><path d="M 143 280 L 237 280 L 237 329.511719 L 143 329.511719 Z M 143 280"/></clipPath><clipPath id="c"><path d="M 197 109 L 315.019531 109 L 315.019531 168 L 197 168 Z M 197 109"/></clipPath><clipPath id="d"><path d="M 60.019531 64 L 178 64 L 178 124 L 60.019531 124 Z M 60.019531 64"/></clipPath><clipPath id="e"><path d="M 60.019531 157 L 178 157 L 178 217 L 60.019531 217 Z M 60.019531 157"/></clipPath><clipPath id="f"><path d="M 177 45.261719 L 198 45.261719 L 198 281 L 177 281 Z M 177 45.261719"/></clipPath><clipPath id="g"><path d="M 177 45.261719 L 198 45.261719 L 198 65 L 177 65 Z M 177 45.261719"/></clipPath></defs><path fill="#FFF" d="M-37.5 -37.5H412.5V412.5H-37.5z"/><path fill="#26AFD9" d="M-37.5 -37.5H412.5V412.5H-37.5z"/><g clip-path="url(#a)"><path fill="#A3E3F3" d="M 177.710938 123.699219 L 89.441406 123.699219 L 60.019531 94.304688 L 89.441406 64.910156 L 177.710938 64.910156 L 177.710938 123.699219"/></g><g clip-path="url(#b)"><path fill="#097BAD" d="M 236.558594 329.460938 L 143.386719 329.460938 L 163 280.46875 L 212.039062 280.46875 L 236.558594 329.460938"/></g><g clip-path="url(#c)"><path fill="#A3E3F3" d="M 197.328125 167.789062 L 285.597656 167.789062 L 315.019531 138.394531 L 285.597656 109 L 197.328125 109 L 197.328125 167.789062"/></g><path fill="#147CAE" d="M 285.597656 167.789062 L 197.328125 167.789062 L 197.328125 109 L 226.75 109 C 226.75 141.476562 253.089844 167.789062 285.597656 167.789062"/><g clip-path="url(#d)"><path fill="#147CAE" d="M 177.710938 123.699219 L 89.441406 123.699219 L 60.019531 94.304688 L 89.441406 64.910156 L 118.867188 64.910156 C 118.867188 97.386719 145.203125 123.699219 177.710938 123.699219"/></g><g clip-path="url(#e)"><path fill="#A3E3F3" d="M 177.710938 216.78125 L 89.441406 216.78125 L 60.019531 187.386719 L 89.441406 157.992188 L 177.710938 157.992188 L 177.710938 216.78125"/><path fill="#147CAE" d="M 177.710938 216.78125 L 89.441406 216.78125 L 60.019531 187.386719 L 89.441406 157.992188 L 118.867188 157.992188 C 118.867188 190.46875 145.203125 216.78125 177.710938 216.78125"/></g><g clip-path="url(#f)"><path fill="#FFF" d="M 197.328125 280.46875 L 177.710938 280.46875 L 177.710938 45.3125 L 197.328125 45.3125 L 197.328125 280.46875"/></g><g clip-path="url(#g)"><path fill="#06507A" d="M 197.328125 64.910156 L 177.710938 64.910156 L 177.710938 45.3125 L 197.328125 45.3125 L 197.328125 64.910156"/></g><path fill="#06507A" d="M 197.328125 280.46875 L 177.710938 280.46875 L 177.710938 260.875 L 197.328125 260.875 L 197.328125 280.46875"/><path fill="#06507A" d="M 104.152344 89.40625 L 94.347656 89.40625 L 94.347656 79.605469 L 104.152344 79.605469 L 104.152344 89.40625"/><path fill="#06507A" d="M 163 89.40625 L 113.960938 89.40625 L 113.960938 79.605469 L 163 79.605469 L 163 89.40625"/><path fill="#06507A" d="M 143.386719 109 L 94.347656 109 L 94.347656 99.203125 L 143.386719 99.203125 L 143.386719 109"/><path fill="#06507A" d="M 104.152344 177.589844 L 94.347656 177.589844 L 94.347656 167.789062 L 104.152344 167.789062 L 104.152344 177.589844"/><path fill="#06507A" d="M 163 177.589844 L 113.960938 177.589844 L 113.960938 167.789062 L 163 167.789062 L 163 177.589844"/><path fill="#06507A" d="M 143.386719 197.1875 L 94.347656 197.1875 L 94.347656 187.386719 L 143.386719 187.386719 L 143.386719 197.1875"/><path fill="#06507A" d="M 221.847656 133.496094 L 212.039062 133.496094 L 212.039062 123.699219 L 221.847656 123.699219 L 221.847656 133.496094"/><path fill="#06507A" d="M 280.691406 133.496094 L 231.652344 133.496094 L 231.652344 123.699219 L 280.691406 123.699219 L 280.691406 133.496094"/><path fill="#06507A" d="M 261.078125 153.09375 L 212.039062 153.09375 L 212.039062 143.296875 L 261.078125 143.296875 L 261.078125 153.09375"/></svg>