<svg xmlns="http://www.w3.org/2000/svg" width="375" viewBox="0 0 375 375" height="375" version="1.0"><defs><clipPath id="a"><path d="M 187 37.5 L 285.449219 37.5 L 285.449219 283 L 187 283 Z M 187 37.5"/></clipPath><clipPath id="b"><path d="M 89.699219 227 L 285.449219 227 L 285.449219 337.5 L 89.699219 337.5 Z M 89.699219 227"/></clipPath><clipPath id="c"><path d="M 89.699219 37.5 L 188 37.5 L 188 283 L 89.699219 283 Z M 89.699219 37.5"/></clipPath></defs><path fill="#FFF" d="M-37.5 -37.5H412.5V412.5H-37.5z"/><path fill="#FFF" d="M-37.5 -37.5H412.5V412.5H-37.5z"/><path fill="#26AFD9" d="M-37.5 -37.5H412.5V412.5H-37.5z"/><g clip-path="url(#a)"><path fill="#147CAE" d="M 187.574219 227.902344 L 285.332031 282.699219 L 285.335938 282.695312 L 187.574219 37.5 Z M 187.574219 227.902344"/></g><g clip-path="url(#b)"><path fill="#A3E3F3" d="M 187.574219 227.902344 L 89.820312 282.699219 L 187.574219 337.5 L 285.332031 282.699219 Z M 187.574219 227.902344"/></g><g clip-path="url(#c)"><path fill="#094978" d="M 187.574219 37.5 L 89.816406 282.695312 L 89.820312 282.699219 L 187.574219 227.902344 Z M 187.574219 37.5"/></g></svg>