<svg xmlns="http://www.w3.org/2000/svg" width="375" viewBox="0 0 375 375" height="375" version="1.0"><defs><clipPath id="a"><path d="M 52.457031 86.726562 L 322.457031 86.726562 L 322.457031 288.476562 L 52.457031 288.476562 Z M 52.457031 86.726562"/></clipPath></defs><path fill="#FFF" d="M-37.5 -37.5H412.5V412.5H-37.5z"/><path fill="#26AFD9" d="M-37.5 -37.5H412.5V412.5H-37.5z"/><g clip-path="url(#a)"><path fill="#06507A" d="M 307.097656 288.429688 L 67.875 288.429688 C 59.382812 288.429688 52.492188 281.53125 52.492188 273.027344 L 52.492188 102.226562 C 52.492188 93.71875 59.382812 86.824219 67.875 86.824219 L 307.097656 86.824219 C 315.589844 86.824219 322.480469 93.71875 322.480469 102.226562 L 322.480469 273.027344 C 322.480469 281.53125 315.589844 288.429688 307.097656 288.429688"/></g><path fill="#A3E3F3" d="M 297.113281 262.554688 L 77.855469 262.554688 L 77.855469 108.789062 L 297.113281 108.789062 L 297.113281 262.554688"/><path fill="#A3E3F3" d="M 191.511719 275.492188 C 191.511719 277.714844 189.707031 279.523438 187.484375 279.523438 C 185.265625 279.523438 183.460938 277.714844 183.460938 275.492188 C 183.460938 273.265625 185.265625 271.464844 187.484375 271.464844 C 189.707031 271.464844 191.511719 273.265625 191.511719 275.492188"/><path fill="#063251" d="M 136.722656 140.066406 C 116.867188 140.066406 100.773438 156.183594 100.773438 176.0625 C 100.773438 195.949219 116.867188 212.0625 136.722656 212.0625 C 156.578125 212.0625 172.671875 195.949219 172.671875 176.0625 L 136.722656 176.0625 L 136.722656 140.066406"/><path fill="#FFF" d="M 143.464844 133.316406 L 143.464844 169.316406 L 179.414062 169.316406 C 179.414062 149.4375 163.316406 133.316406 143.464844 133.316406"/><path fill="#063251" d="M 211.285156 212.0625 L 198.703125 212.0625 L 198.703125 133.316406 L 211.285156 133.316406 L 211.285156 212.0625"/><path fill="#063251" d="M 232.253906 212.0625 L 219.675781 212.0625 L 219.675781 163.109375 L 232.253906 163.109375 L 232.253906 212.0625"/><path fill="#063251" d="M 253.226562 212.0625 L 240.644531 212.0625 L 240.644531 181.105469 L 253.226562 181.105469 L 253.226562 212.0625"/><path fill="#063251" d="M 274.199219 212.0625 L 261.617188 212.0625 L 261.617188 142.945312 L 274.199219 142.945312 L 274.199219 212.0625"/><path fill="#063251" d="M 274.199219 227 L 178.96875 227 L 178.96875 221.488281 L 274.199219 221.488281 L 274.199219 227"/><path fill="#063251" d="M 274.199219 238.023438 L 178.96875 238.023438 L 178.96875 232.511719 L 274.199219 232.511719 L 274.199219 238.023438"/><path fill="#FFF" d="M 144.980469 238.023438 L 161.496094 238.023438 L 161.496094 221.488281 L 144.980469 221.488281 L 144.980469 238.023438"/><path fill="#FFF" d="M 111.953125 238.023438 L 128.464844 238.023438 L 128.464844 221.488281 L 111.953125 221.488281 L 111.953125 238.023438"/></svg>