<svg xmlns="http://www.w3.org/2000/svg" width="375" viewBox="0 0 375 375" height="375" version="1.0"><defs><clipPath id="a"><path d="M 77 113 L 298 113 L 298 322.640625 L 77 322.640625 Z M 77 113"/></clipPath><clipPath id="b"><path d="M 297 174 L 322.640625 174 L 322.640625 256 L 297 256 Z M 297 174"/></clipPath></defs><path fill="#FFF" d="M-37.5 -37.5H412.5V412.5H-37.5z"/><path fill="#26AFD9" d="M-37.5 -37.5H412.5V412.5H-37.5z"/><g clip-path="url(#a)"><path fill="#063251" d="M 263.652344 113.921875 L 111.625 113.921875 C 110.5 113.921875 109.382812 113.976562 108.265625 114.085938 C 107.148438 114.195312 106.039062 114.359375 104.9375 114.578125 C 103.835938 114.800781 102.746094 115.070312 101.671875 115.398438 C 100.597656 115.722656 99.542969 116.101562 98.503906 116.53125 C 97.46875 116.960938 96.453125 117.441406 95.464844 117.96875 C 94.472656 118.5 93.511719 119.074219 92.578125 119.699219 C 91.644531 120.324219 90.742188 120.992188 89.875 121.703125 C 89.007812 122.414062 88.175781 123.167969 87.382812 123.960938 C 86.589844 124.757812 85.835938 125.585938 85.125 126.453125 C 84.410156 127.324219 83.742188 128.222656 83.121094 129.15625 C 82.496094 130.089844 81.917969 131.050781 81.390625 132.042969 C 80.859375 133.03125 80.382812 134.046875 79.953125 135.085938 C 79.523438 136.121094 79.144531 137.175781 78.820312 138.25 C 78.492188 139.324219 78.21875 140.414062 78 141.515625 C 77.78125 142.617188 77.617188 143.726562 77.507812 144.84375 C 77.398438 145.960938 77.34375 147.082031 77.34375 148.203125 L 77.34375 269.535156 C 77.339844 270.625 77.390625 271.714844 77.496094 272.800781 C 77.601562 273.886719 77.761719 274.964844 77.972656 276.035156 C 78.183594 277.105469 78.445312 278.164062 78.761719 279.207031 C 79.078125 280.25 79.441406 281.277344 79.859375 282.285156 C 80.273438 283.292969 80.738281 284.28125 81.253906 285.242188 C 81.765625 286.207031 82.324219 287.140625 82.929688 288.046875 C 83.535156 288.957031 84.183594 289.832031 84.875 290.675781 C 85.566406 291.519531 86.296875 292.328125 87.066406 293.097656 C 87.839844 293.871094 88.644531 294.605469 89.488281 295.296875 C 90.332031 295.988281 91.207031 296.640625 92.113281 297.246094 C 93.019531 297.851562 93.953125 298.414062 94.914062 298.929688 C 95.878906 299.441406 96.863281 299.910156 97.871094 300.328125 C 98.878906 300.746094 99.902344 301.113281 100.945312 301.429688 C 101.992188 301.746094 103.046875 302.011719 104.117188 302.222656 C 105.1875 302.4375 106.265625 302.597656 107.351562 302.703125 C 108.4375 302.8125 109.523438 302.863281 110.617188 302.863281 L 136.328125 302.863281 C 136.976562 302.863281 137.621094 302.898438 138.265625 302.960938 C 138.910156 303.023438 139.550781 303.117188 140.183594 303.246094 C 140.820312 303.371094 141.449219 303.527344 142.066406 303.714844 C 142.6875 303.90625 143.296875 304.121094 143.894531 304.371094 C 144.492188 304.617188 145.078125 304.894531 145.648438 305.199219 C 146.21875 305.503906 146.773438 305.835938 147.3125 306.199219 C 147.851562 306.558594 148.371094 306.941406 148.871094 307.355469 C 149.371094 307.765625 149.851562 308.199219 150.308594 308.65625 C 150.769531 309.113281 151.203125 309.59375 151.613281 310.09375 C 152.023438 310.59375 152.410156 311.113281 152.769531 311.652344 C 153.128906 312.191406 153.460938 312.746094 153.765625 313.316406 C 154.070312 313.890625 154.347656 314.472656 154.597656 315.070312 C 154.84375 315.671875 155.0625 316.277344 155.25 316.898438 C 155.4375 317.519531 155.59375 318.144531 155.722656 318.78125 C 155.847656 319.417969 155.941406 320.054688 156.007812 320.699219 C 156.070312 321.34375 156.101562 321.992188 156.101562 322.640625 L 219.175781 322.640625 C 219.175781 321.992188 219.207031 321.34375 219.269531 320.699219 C 219.335938 320.054688 219.429688 319.417969 219.554688 318.78125 C 219.683594 318.144531 219.839844 317.519531 220.027344 316.898438 C 220.214844 316.277344 220.433594 315.671875 220.679688 315.070312 C 220.929688 314.472656 221.207031 313.890625 221.511719 313.316406 C 221.816406 312.746094 222.148438 312.191406 222.507812 311.652344 C 222.867188 311.113281 223.253906 310.59375 223.664062 310.09375 C 224.074219 309.59375 224.511719 309.113281 224.96875 308.65625 C 225.425781 308.199219 225.90625 307.765625 226.40625 307.355469 C 226.90625 306.941406 227.425781 306.558594 227.964844 306.199219 C 228.503906 305.835938 229.058594 305.503906 229.628906 305.199219 C 230.199219 304.894531 230.785156 304.617188 231.382812 304.371094 C 231.980469 304.121094 232.589844 303.90625 233.210938 303.714844 C 233.828125 303.527344 234.457031 303.371094 235.09375 303.246094 C 235.726562 303.117188 236.367188 303.023438 237.011719 302.960938 C 237.65625 302.898438 238.300781 302.863281 238.949219 302.863281 L 264.660156 302.863281 C 265.753906 302.863281 266.839844 302.8125 267.925781 302.703125 C 269.011719 302.597656 270.089844 302.4375 271.160156 302.222656 C 272.230469 302.011719 273.285156 301.746094 274.332031 301.429688 C 275.375 301.113281 276.398438 300.746094 277.40625 300.328125 C 278.414062 299.910156 279.402344 299.441406 280.363281 298.929688 C 281.324219 298.414062 282.257812 297.851562 283.164062 297.246094 C 284.070312 296.640625 284.945312 295.988281 285.789062 295.296875 C 286.632812 294.605469 287.4375 293.871094 288.210938 293.101562 C 288.980469 292.328125 289.710938 291.519531 290.402344 290.675781 C 291.09375 289.832031 291.742188 288.957031 292.347656 288.046875 C 292.953125 287.140625 293.511719 286.207031 294.023438 285.242188 C 294.539062 284.28125 295.003906 283.292969 295.417969 282.285156 C 295.835938 281.277344 296.199219 280.25 296.515625 279.207031 C 296.832031 278.164062 297.09375 277.105469 297.304688 276.035156 C 297.515625 274.964844 297.675781 273.886719 297.78125 272.800781 C 297.886719 271.714844 297.9375 270.625 297.9375 269.535156 L 297.9375 148.203125 C 297.9375 147.082031 297.878906 145.960938 297.769531 144.84375 C 297.660156 143.726562 297.496094 142.617188 297.277344 141.515625 C 297.058594 140.414062 296.785156 139.324219 296.460938 138.25 C 296.132812 137.175781 295.753906 136.121094 295.324219 135.085938 C 294.894531 134.046875 294.417969 133.03125 293.886719 132.042969 C 293.359375 131.050781 292.78125 130.089844 292.15625 129.15625 C 291.535156 128.222656 290.867188 127.324219 290.152344 126.453125 C 289.441406 125.585938 288.6875 124.757812 287.894531 123.960938 C 287.101562 123.167969 286.269531 122.414062 285.402344 121.703125 C 284.535156 120.992188 283.632812 120.324219 282.699219 119.699219 C 281.765625 119.074219 280.804688 118.5 279.8125 117.96875 C 278.824219 117.441406 277.808594 116.960938 276.773438 116.53125 C 275.734375 116.101562 274.679688 115.722656 273.605469 115.398438 C 272.53125 115.070312 271.441406 114.800781 270.339844 114.578125 C 269.242188 114.359375 268.132812 114.195312 267.011719 114.085938 C 265.894531 113.976562 264.777344 113.921875 263.652344 113.921875 Z M 263.652344 113.921875"/></g><path fill="#A3E3F3" d="M 268.917969 302.863281 L 106.472656 302.863281 C 105.519531 302.863281 104.574219 302.820312 103.625 302.726562 C 102.679688 302.632812 101.742188 302.492188 100.808594 302.308594 C 99.878906 302.121094 98.957031 301.890625 98.046875 301.617188 C 97.136719 301.339844 96.246094 301.019531 95.367188 300.65625 C 94.488281 300.292969 93.628906 299.886719 92.792969 299.4375 C 91.953125 298.992188 91.140625 298.503906 90.351562 297.976562 C 89.558594 297.445312 88.796875 296.882812 88.0625 296.277344 C 87.328125 295.675781 86.625 295.039062 85.953125 294.367188 C 85.28125 293.695312 84.644531 292.992188 84.039062 292.257812 C 83.4375 291.523438 82.871094 290.757812 82.34375 289.96875 C 81.816406 289.179688 81.328125 288.363281 80.878906 287.527344 C 80.433594 286.6875 80.027344 285.832031 79.664062 284.953125 C 79.300781 284.074219 78.980469 283.179688 78.703125 282.273438 C 78.429688 281.363281 78.195312 280.441406 78.011719 279.507812 C 77.828125 278.578125 77.6875 277.636719 77.59375 276.691406 C 77.5 275.746094 77.453125 274.800781 77.453125 273.847656 L 77.453125 148.203125 C 77.453125 147.082031 77.507812 145.960938 77.621094 144.84375 C 77.730469 143.726562 77.894531 142.617188 78.113281 141.515625 C 78.332031 140.414062 78.605469 139.324219 78.929688 138.25 C 79.257812 137.175781 79.632812 136.121094 80.0625 135.085938 C 80.492188 134.046875 80.972656 133.03125 81.503906 132.042969 C 82.03125 131.050781 82.609375 130.089844 83.230469 129.15625 C 83.855469 128.222656 84.523438 127.324219 85.234375 126.453125 C 85.949219 125.585938 86.703125 124.757812 87.496094 123.960938 C 88.289062 123.167969 89.121094 122.414062 89.988281 121.703125 C 90.855469 120.992188 91.757812 120.324219 92.691406 119.699219 C 93.625 119.074219 94.585938 118.5 95.574219 117.96875 C 96.566406 117.441406 97.578125 116.960938 98.617188 116.53125 C 99.65625 116.101562 100.710938 115.722656 101.785156 115.398438 C 102.859375 115.070312 103.945312 114.800781 105.046875 114.578125 C 106.148438 114.359375 107.257812 114.195312 108.375 114.085938 C 109.492188 113.976562 110.613281 113.921875 111.738281 113.921875 L 263.652344 113.921875 C 264.777344 113.921875 265.894531 113.976562 267.011719 114.085938 C 268.132812 114.195312 269.242188 114.359375 270.339844 114.578125 C 271.441406 114.800781 272.53125 115.070312 273.605469 115.398438 C 274.679688 115.722656 275.734375 116.101562 276.773438 116.53125 C 277.808594 116.960938 278.824219 117.441406 279.8125 117.96875 C 280.804688 118.5 281.765625 119.074219 282.699219 119.699219 C 283.632812 120.324219 284.535156 120.992188 285.402344 121.703125 C 286.269531 122.414062 287.101562 123.167969 287.894531 123.960938 C 288.6875 124.757812 289.441406 125.585938 290.152344 126.453125 C 290.867188 127.324219 291.535156 128.222656 292.15625 129.15625 C 292.78125 130.089844 293.359375 131.050781 293.886719 132.042969 C 294.417969 133.03125 294.894531 134.046875 295.324219 135.085938 C 295.753906 136.121094 296.132812 137.175781 296.460938 138.25 C 296.785156 139.324219 297.058594 140.414062 297.277344 141.515625 C 297.496094 142.617188 297.660156 143.726562 297.769531 144.84375 C 297.878906 145.960938 297.9375 147.082031 297.9375 148.203125 L 297.9375 273.847656 C 297.9375 274.800781 297.890625 275.746094 297.796875 276.691406 C 297.703125 277.636719 297.5625 278.578125 297.378906 279.507812 C 297.191406 280.441406 296.960938 281.363281 296.6875 282.273438 C 296.410156 283.179688 296.089844 284.074219 295.726562 284.953125 C 295.363281 285.832031 294.957031 286.6875 294.507812 287.527344 C 294.0625 288.363281 293.574219 289.179688 293.046875 289.96875 C 292.515625 290.757812 291.953125 291.523438 291.347656 292.257812 C 290.746094 292.992188 290.109375 293.695312 289.4375 294.367188 C 288.765625 295.039062 288.0625 295.675781 287.328125 296.277344 C 286.59375 296.882812 285.828125 297.445312 285.039062 297.976562 C 284.25 298.503906 283.433594 298.992188 282.597656 299.4375 C 281.757812 299.886719 280.902344 300.292969 280.023438 300.65625 C 279.144531 301.019531 278.25 301.339844 277.34375 301.617188 C 276.433594 301.890625 275.511719 302.121094 274.578125 302.308594 C 273.648438 302.492188 272.707031 302.632812 271.761719 302.726562 C 270.816406 302.820312 269.871094 302.863281 268.917969 302.863281 Z M 268.917969 302.863281"/><path fill="#147CAE" d="M 268.917969 252.84375 L 106.472656 252.84375 C 105.519531 252.84375 104.574219 252.796875 103.625 252.703125 C 102.679688 252.609375 101.742188 252.46875 100.808594 252.285156 C 99.878906 252.097656 98.957031 251.867188 98.046875 251.59375 C 97.136719 251.316406 96.246094 250.996094 95.367188 250.632812 C 94.488281 250.269531 93.628906 249.863281 92.792969 249.417969 C 91.953125 248.96875 91.140625 248.480469 90.351562 247.953125 C 89.558594 247.425781 88.796875 246.859375 88.0625 246.253906 C 87.328125 245.652344 86.625 245.015625 85.953125 244.34375 C 85.28125 243.671875 84.644531 242.96875 84.039062 242.234375 C 83.4375 241.5 82.871094 240.738281 82.34375 239.945312 C 81.816406 239.15625 81.328125 238.34375 80.878906 237.503906 C 80.433594 236.664062 80.027344 235.808594 79.664062 234.929688 C 79.300781 234.050781 78.980469 233.15625 78.703125 232.25 C 78.429688 231.339844 78.195312 230.417969 78.011719 229.488281 C 77.828125 228.554688 77.6875 227.617188 77.59375 226.667969 C 77.5 225.722656 77.453125 224.777344 77.453125 223.824219 L 77.453125 273.847656 C 77.453125 274.800781 77.5 275.746094 77.59375 276.691406 C 77.6875 277.636719 77.828125 278.578125 78.011719 279.507812 C 78.195312 280.441406 78.429688 281.363281 78.703125 282.273438 C 78.980469 283.179688 79.300781 284.074219 79.664062 284.953125 C 80.027344 285.832031 80.433594 286.6875 80.878906 287.527344 C 81.328125 288.363281 81.816406 289.179688 82.34375 289.96875 C 82.871094 290.757812 83.4375 291.523438 84.039062 292.257812 C 84.644531 292.992188 85.28125 293.695312 85.953125 294.367188 C 86.625 295.039062 87.328125 295.675781 88.0625 296.277344 C 88.796875 296.882812 89.558594 297.445312 90.351562 297.976562 C 91.140625 298.503906 91.953125 298.992188 92.792969 299.4375 C 93.628906 299.886719 94.488281 300.292969 95.367188 300.65625 C 96.246094 301.019531 97.136719 301.339844 98.046875 301.617188 C 98.957031 301.890625 99.878906 302.121094 100.808594 302.308594 C 101.742188 302.492188 102.679688 302.632812 103.625 302.726562 C 104.574219 302.820312 105.519531 302.863281 106.472656 302.863281 L 268.917969 302.863281 C 269.871094 302.863281 270.816406 302.820312 271.761719 302.726562 C 272.707031 302.632812 273.648438 302.492188 274.578125 302.308594 C 275.511719 302.121094 276.433594 301.890625 277.34375 301.617188 C 278.25 301.339844 279.144531 301.019531 280.023438 300.65625 C 280.902344 300.292969 281.757812 299.886719 282.597656 299.4375 C 283.433594 298.992188 284.25 298.503906 285.039062 297.976562 C 285.828125 297.445312 286.59375 296.882812 287.328125 296.277344 C 288.0625 295.675781 288.765625 295.039062 289.4375 294.367188 C 290.109375 293.695312 290.746094 292.992188 291.347656 292.257812 C 291.953125 291.523438 292.515625 290.757812 293.046875 289.96875 C 293.574219 289.179688 294.0625 288.363281 294.507812 287.527344 C 294.957031 286.6875 295.363281 285.832031 295.726562 284.953125 C 296.089844 284.074219 296.410156 283.179688 296.6875 282.273438 C 296.960938 281.363281 297.191406 280.441406 297.378906 279.507812 C 297.5625 278.578125 297.703125 277.636719 297.796875 276.691406 C 297.890625 275.746094 297.9375 274.800781 297.9375 273.847656 L 297.9375 223.824219 C 297.9375 224.777344 297.890625 225.722656 297.796875 226.667969 C 297.703125 227.617188 297.5625 228.554688 297.378906 229.488281 C 297.191406 230.417969 296.960938 231.339844 296.6875 232.25 C 296.410156 233.15625 296.089844 234.050781 295.726562 234.929688 C 295.363281 235.808594 294.957031 236.664062 294.507812 237.503906 C 294.0625 238.34375 293.574219 239.15625 293.046875 239.945312 C 292.515625 240.738281 291.953125 241.5 291.347656 242.234375 C 290.746094 242.96875 290.109375 243.671875 289.4375 244.34375 C 288.765625 245.015625 288.0625 245.652344 287.328125 246.253906 C 286.59375 246.859375 285.828125 247.425781 285.039062 247.953125 C 284.25 248.480469 283.433594 248.96875 282.597656 249.417969 C 281.757812 249.863281 280.902344 250.269531 280.023438 250.632812 C 279.144531 250.996094 278.25 251.316406 277.34375 251.59375 C 276.433594 251.867188 275.511719 252.097656 274.578125 252.285156 C 273.648438 252.46875 272.707031 252.609375 271.761719 252.703125 C 270.816406 252.796875 269.871094 252.84375 268.917969 252.84375 Z M 268.917969 252.84375"/><path fill="#063251" d="M 65.296875 173.914062 L 77.34375 173.914062 L 77.34375 255.417969 L 65.296875 255.417969 C 64.515625 255.417969 63.742188 255.34375 62.972656 255.195312 C 62.203125 255.042969 61.457031 254.820312 60.730469 254.527344 C 60.007812 254.230469 59.316406 253.867188 58.664062 253.4375 C 58.007812 253.011719 57.402344 252.523438 56.839844 251.976562 C 56.28125 251.425781 55.777344 250.832031 55.332031 250.1875 C 54.890625 249.542969 54.511719 248.863281 54.199219 248.144531 C 53.886719 247.425781 53.648438 246.683594 53.480469 245.921875 C 53.308594 245.15625 53.21875 244.382812 53.199219 243.597656 L 53.199219 186.015625 C 53.199219 185.21875 53.277344 184.433594 53.429688 183.652344 C 53.585938 182.875 53.816406 182.117188 54.121094 181.382812 C 54.425781 180.648438 54.796875 179.953125 55.238281 179.292969 C 55.679688 178.632812 56.179688 178.019531 56.742188 177.457031 C 57.304688 176.898438 57.914062 176.394531 58.578125 175.953125 C 59.238281 175.511719 59.933594 175.140625 60.667969 174.835938 C 61.402344 174.53125 62.160156 174.300781 62.9375 174.148438 C 63.71875 173.992188 64.503906 173.914062 65.296875 173.914062 Z M 65.296875 173.914062"/><g clip-path="url(#b)"><path fill="#063251" d="M 309.980469 255.699219 L 297.9375 255.699219 L 297.9375 174.195312 L 309.980469 174.195312 C 310.773438 174.195312 311.558594 174.273438 312.339844 174.425781 C 313.117188 174.582031 313.875 174.8125 314.609375 175.117188 C 315.34375 175.421875 316.039062 175.792969 316.703125 176.234375 C 317.363281 176.675781 317.972656 177.175781 318.535156 177.738281 C 319.097656 178.300781 319.597656 178.910156 320.039062 179.574219 C 320.480469 180.234375 320.855469 180.929688 321.15625 181.664062 C 321.460938 182.398438 321.691406 183.15625 321.847656 183.933594 C 322 184.714844 322.078125 185.5 322.078125 186.292969 L 322.078125 243.597656 C 322.078125 244.394531 322 245.179688 321.847656 245.960938 C 321.691406 246.738281 321.460938 247.496094 321.15625 248.230469 C 320.855469 248.964844 320.480469 249.660156 320.039062 250.320312 C 319.597656 250.980469 319.097656 251.59375 318.535156 252.15625 C 317.972656 252.71875 317.363281 253.21875 316.703125 253.660156 C 316.039062 254.101562 315.34375 254.472656 314.609375 254.777344 C 313.875 255.082031 313.117188 255.3125 312.339844 255.464844 C 311.558594 255.621094 310.773438 255.699219 309.980469 255.699219 Z M 309.980469 255.699219"/></g><path fill="#147CAE" d="M 165.566406 202.089844 C 165.566406 203.007812 165.523438 203.921875 165.433594 204.835938 C 165.34375 205.75 165.210938 206.65625 165.03125 207.554688 C 164.851562 208.453125 164.628906 209.34375 164.363281 210.222656 C 164.097656 211.097656 163.789062 211.960938 163.4375 212.808594 C 163.085938 213.65625 162.695312 214.484375 162.261719 215.292969 C 161.828125 216.101562 161.359375 216.890625 160.847656 217.652344 C 160.339844 218.414062 159.792969 219.152344 159.210938 219.859375 C 158.628906 220.570312 158.011719 221.246094 157.363281 221.894531 C 156.714844 222.542969 156.039062 223.160156 155.328125 223.742188 C 154.621094 224.324219 153.882812 224.871094 153.121094 225.378906 C 152.359375 225.890625 151.570312 226.359375 150.761719 226.792969 C 149.953125 227.226562 149.125 227.617188 148.277344 227.96875 C 147.429688 228.320312 146.566406 228.628906 145.691406 228.894531 C 144.8125 229.160156 143.925781 229.382812 143.023438 229.5625 C 142.125 229.742188 141.21875 229.875 140.304688 229.964844 C 139.390625 230.054688 138.476562 230.097656 137.558594 230.097656 C 136.644531 230.097656 135.726562 230.054688 134.816406 229.964844 C 133.902344 229.875 132.996094 229.742188 132.097656 229.5625 C 131.195312 229.382812 130.308594 229.160156 129.429688 228.894531 C 128.550781 228.628906 127.6875 228.320312 126.839844 227.96875 C 125.996094 227.617188 125.164062 227.226562 124.355469 226.792969 C 123.546875 226.359375 122.761719 225.890625 122 225.378906 C 121.238281 224.871094 120.5 224.324219 119.792969 223.742188 C 119.082031 223.160156 118.402344 222.542969 117.753906 221.894531 C 117.105469 221.246094 116.492188 220.570312 115.910156 219.859375 C 115.328125 219.152344 114.78125 218.414062 114.273438 217.652344 C 113.761719 216.890625 113.292969 216.101562 112.859375 215.292969 C 112.425781 214.484375 112.035156 213.65625 111.683594 212.808594 C 111.332031 211.960938 111.023438 211.097656 110.757812 210.222656 C 110.492188 209.34375 110.269531 208.453125 110.089844 207.554688 C 109.910156 206.65625 109.777344 205.75 109.6875 204.835938 C 109.597656 203.921875 109.550781 203.007812 109.550781 202.089844 C 109.550781 201.175781 109.597656 200.257812 109.6875 199.347656 C 109.777344 198.433594 109.910156 197.527344 110.089844 196.628906 C 110.269531 195.726562 110.492188 194.839844 110.757812 193.960938 C 111.023438 193.082031 111.332031 192.21875 111.683594 191.371094 C 112.035156 190.527344 112.425781 189.695312 112.859375 188.886719 C 113.292969 188.078125 113.761719 187.292969 114.273438 186.53125 C 114.78125 185.769531 115.328125 185.03125 115.910156 184.324219 C 116.492188 183.613281 117.105469 182.933594 117.753906 182.285156 C 118.402344 181.636719 119.082031 181.023438 119.792969 180.441406 C 120.5 179.859375 121.238281 179.3125 122 178.804688 C 122.761719 178.292969 123.546875 177.824219 124.355469 177.390625 C 125.164062 176.957031 125.996094 176.566406 126.839844 176.214844 C 127.6875 175.863281 128.550781 175.554688 129.429688 175.289062 C 130.308594 175.023438 131.195312 174.800781 132.097656 174.621094 C 132.996094 174.441406 133.902344 174.308594 134.816406 174.21875 C 135.726562 174.128906 136.644531 174.082031 137.558594 174.082031 C 138.476562 174.082031 139.390625 174.128906 140.304688 174.21875 C 141.21875 174.308594 142.125 174.441406 143.023438 174.621094 C 143.925781 174.800781 144.8125 175.023438 145.691406 175.289062 C 146.566406 175.554688 147.429688 175.863281 148.277344 176.214844 C 149.125 176.566406 149.953125 176.957031 150.761719 177.390625 C 151.570312 177.824219 152.359375 178.292969 153.121094 178.804688 C 153.882812 179.3125 154.621094 179.859375 155.328125 180.441406 C 156.039062 181.023438 156.714844 181.636719 157.363281 182.285156 C 158.011719 182.933594 158.628906 183.613281 159.210938 184.324219 C 159.792969 185.03125 160.339844 185.769531 160.847656 186.53125 C 161.359375 187.292969 161.828125 188.078125 162.261719 188.886719 C 162.695312 189.695312 163.085938 190.527344 163.4375 191.371094 C 163.789062 192.21875 164.097656 193.082031 164.363281 193.960938 C 164.628906 194.839844 164.851562 195.726562 165.03125 196.628906 C 165.210938 197.527344 165.34375 198.433594 165.433594 199.347656 C 165.523438 200.257812 165.566406 201.175781 165.566406 202.089844 Z M 165.566406 202.089844"/><path fill="#FFF" d="M 158.679688 202.089844 C 158.679688 202.789062 158.644531 203.480469 158.574219 204.175781 C 158.507812 204.867188 158.40625 205.554688 158.269531 206.238281 C 158.136719 206.917969 157.964844 207.59375 157.765625 208.261719 C 157.5625 208.925781 157.328125 209.582031 157.0625 210.222656 C 156.796875 210.867188 156.5 211.496094 156.171875 212.109375 C 155.84375 212.722656 155.488281 213.320312 155.101562 213.898438 C 154.714844 214.480469 154.300781 215.039062 153.863281 215.574219 C 153.421875 216.113281 152.953125 216.628906 152.464844 217.121094 C 151.972656 217.617188 151.457031 218.082031 150.917969 218.527344 C 150.382812 218.96875 149.824219 219.382812 149.246094 219.769531 C 148.667969 220.15625 148.074219 220.515625 147.460938 220.84375 C 146.847656 221.175781 146.21875 221.472656 145.578125 221.742188 C 144.933594 222.007812 144.28125 222.242188 143.613281 222.445312 C 142.949219 222.652344 142.273438 222.820312 141.59375 222.957031 C 140.910156 223.097656 140.222656 223.199219 139.53125 223.269531 C 138.835938 223.339844 138.144531 223.375 137.449219 223.375 C 136.75 223.378906 136.058594 223.347656 135.363281 223.28125 C 134.671875 223.214844 133.984375 223.113281 133.300781 222.980469 C 132.617188 222.847656 131.941406 222.679688 131.277344 222.480469 C 130.609375 222.28125 129.953125 222.046875 129.308594 221.78125 C 128.667969 221.519531 128.039062 221.222656 127.421875 220.898438 C 126.808594 220.570312 126.210938 220.214844 125.628906 219.832031 C 125.050781 219.449219 124.488281 219.035156 123.949219 218.597656 C 123.410156 218.15625 122.894531 217.691406 122.398438 217.203125 C 121.90625 216.710938 121.4375 216.199219 120.992188 215.660156 C 120.550781 215.125 120.132812 214.570312 119.742188 213.992188 C 119.355469 213.414062 118.996094 212.820312 118.664062 212.207031 C 118.332031 211.59375 118.03125 210.96875 117.761719 210.328125 C 117.496094 209.683594 117.257812 209.03125 117.050781 208.367188 C 116.847656 207.703125 116.675781 207.027344 116.535156 206.347656 C 116.394531 205.664062 116.289062 204.976562 116.21875 204.285156 C 116.148438 203.59375 116.109375 202.898438 116.105469 202.203125 C 116.101562 201.507812 116.132812 200.8125 116.195312 200.117188 C 116.261719 199.425781 116.359375 198.738281 116.492188 198.054688 C 116.625 197.371094 116.789062 196.695312 116.988281 196.027344 C 117.183594 195.363281 117.414062 194.707031 117.679688 194.0625 C 117.941406 193.417969 118.234375 192.785156 118.558594 192.171875 C 118.882812 191.554688 119.238281 190.957031 119.621094 190.375 C 120.003906 189.792969 120.414062 189.234375 120.851562 188.691406 C 121.289062 188.152344 121.753906 187.632812 122.242188 187.136719 C 122.730469 186.644531 123.242188 186.171875 123.777344 185.726562 C 124.3125 185.28125 124.867188 184.863281 125.445312 184.472656 C 126.019531 184.082031 126.613281 183.722656 127.226562 183.390625 C 127.835938 183.058594 128.464844 182.753906 129.105469 182.484375 C 129.746094 182.214844 130.398438 181.972656 131.0625 181.765625 C 131.726562 181.558594 132.398438 181.386719 133.082031 181.246094 C 133.761719 181.105469 134.449219 180.996094 135.140625 180.921875 C 135.832031 180.851562 136.527344 180.808594 137.222656 180.804688 C 137.925781 180.796875 138.625 180.824219 139.324219 180.886719 C 140.023438 180.949219 140.714844 181.046875 141.40625 181.175781 C 142.09375 181.304688 142.773438 181.472656 143.445312 181.667969 C 144.121094 181.867188 144.78125 182.097656 145.429688 182.363281 C 146.078125 182.625 146.714844 182.921875 147.335938 183.246094 C 147.957031 183.574219 148.558594 183.929688 149.144531 184.316406 C 149.730469 184.703125 150.292969 185.117188 150.839844 185.558594 C 151.382812 186 151.902344 186.46875 152.402344 186.964844 C 152.898438 187.457031 153.371094 187.972656 153.816406 188.515625 C 154.265625 189.054688 154.683594 189.617188 155.074219 190.199219 C 155.464844 190.78125 155.824219 191.382812 156.15625 192 C 156.488281 192.617188 156.789062 193.25 157.058594 193.898438 C 157.324219 194.546875 157.5625 195.203125 157.765625 195.875 C 157.96875 196.546875 158.136719 197.226562 158.273438 197.914062 C 158.410156 198.601562 158.511719 199.292969 158.578125 199.992188 C 158.648438 200.691406 158.679688 201.390625 158.679688 202.089844 Z M 158.679688 202.089844"/><path fill="#147CAE" d="M 266.0625 202.089844 C 266.0625 203.007812 266.015625 203.921875 265.925781 204.835938 C 265.835938 205.75 265.703125 206.65625 265.523438 207.554688 C 265.34375 208.453125 265.121094 209.34375 264.855469 210.222656 C 264.589844 211.097656 264.28125 211.960938 263.929688 212.808594 C 263.578125 213.65625 263.1875 214.484375 262.753906 215.292969 C 262.324219 216.101562 261.851562 216.890625 261.34375 217.652344 C 260.832031 218.414062 260.285156 219.152344 259.703125 219.859375 C 259.121094 220.570312 258.507812 221.246094 257.859375 221.894531 C 257.210938 222.542969 256.53125 223.160156 255.820312 223.742188 C 255.113281 224.324219 254.378906 224.871094 253.613281 225.378906 C 252.851562 225.890625 252.066406 226.359375 251.257812 226.792969 C 250.449219 227.226562 249.621094 227.617188 248.773438 227.96875 C 247.925781 228.320312 247.0625 228.628906 246.183594 228.894531 C 245.304688 229.160156 244.417969 229.382812 243.519531 229.5625 C 242.617188 229.742188 241.710938 229.875 240.800781 229.964844 C 239.886719 230.054688 238.972656 230.097656 238.054688 230.097656 C 237.136719 230.097656 236.222656 230.054688 235.308594 229.964844 C 234.394531 229.875 233.488281 229.742188 232.589844 229.5625 C 231.691406 229.382812 230.800781 229.160156 229.921875 228.894531 C 229.046875 228.628906 228.183594 228.320312 227.335938 227.96875 C 226.488281 227.617188 225.660156 227.226562 224.851562 226.792969 C 224.042969 226.359375 223.257812 225.890625 222.492188 225.378906 C 221.730469 224.871094 220.996094 224.324219 220.285156 223.742188 C 219.578125 223.160156 218.898438 222.542969 218.25 221.894531 C 217.601562 221.246094 216.984375 220.570312 216.402344 219.859375 C 215.820312 219.152344 215.273438 218.414062 214.765625 217.652344 C 214.257812 216.890625 213.785156 216.101562 213.351562 215.292969 C 212.921875 214.484375 212.527344 213.65625 212.175781 212.808594 C 211.828125 211.960938 211.519531 211.097656 211.25 210.222656 C 210.984375 209.34375 210.761719 208.453125 210.582031 207.554688 C 210.40625 206.65625 210.269531 205.75 210.179688 204.835938 C 210.089844 203.921875 210.046875 203.007812 210.046875 202.089844 C 210.046875 201.175781 210.089844 200.257812 210.179688 199.347656 C 210.269531 198.433594 210.40625 197.527344 210.582031 196.628906 C 210.761719 195.726562 210.984375 194.839844 211.25 193.960938 C 211.519531 193.082031 211.828125 192.21875 212.175781 191.371094 C 212.527344 190.527344 212.921875 189.695312 213.351562 188.886719 C 213.785156 188.078125 214.257812 187.292969 214.765625 186.53125 C 215.273438 185.769531 215.820312 185.03125 216.402344 184.324219 C 216.984375 183.613281 217.601562 182.933594 218.25 182.285156 C 218.898438 181.636719 219.578125 181.023438 220.285156 180.441406 C 220.996094 179.859375 221.730469 179.3125 222.492188 178.804688 C 223.257812 178.292969 224.042969 177.824219 224.851562 177.390625 C 225.660156 176.957031 226.488281 176.566406 227.335938 176.214844 C 228.183594 175.863281 229.046875 175.554688 229.921875 175.289062 C 230.800781 175.023438 231.691406 174.800781 232.589844 174.621094 C 233.488281 174.441406 234.394531 174.308594 235.308594 174.21875 C 236.222656 174.128906 237.136719 174.082031 238.054688 174.082031 C 238.972656 174.082031 239.886719 174.128906 240.800781 174.21875 C 241.710938 174.308594 242.617188 174.441406 243.519531 174.621094 C 244.417969 174.800781 245.304688 175.023438 246.183594 175.289062 C 247.0625 175.554688 247.925781 175.863281 248.773438 176.214844 C 249.621094 176.566406 250.449219 176.957031 251.257812 177.390625 C 252.066406 177.824219 252.851562 178.292969 253.613281 178.804688 C 254.378906 179.3125 255.113281 179.859375 255.820312 180.441406 C 256.53125 181.023438 257.210938 181.636719 257.859375 182.285156 C 258.507812 182.933594 259.121094 183.613281 259.703125 184.324219 C 260.285156 185.03125 260.832031 185.769531 261.34375 186.53125 C 261.851562 187.292969 262.324219 188.078125 262.753906 188.886719 C 263.1875 189.695312 263.578125 190.527344 263.929688 191.371094 C 264.28125 192.21875 264.589844 193.082031 264.855469 193.960938 C 265.121094 194.839844 265.34375 195.726562 265.523438 196.628906 C 265.703125 197.527344 265.835938 198.433594 265.925781 199.347656 C 266.015625 200.257812 266.0625 201.175781 266.0625 202.089844 Z M 266.0625 202.089844"/><path fill="#FFF" d="M 259.117188 202.089844 C 259.117188 202.789062 259.082031 203.484375 259.011719 204.175781 C 258.945312 204.871094 258.84375 205.558594 258.707031 206.242188 C 258.570312 206.929688 258.402344 207.601562 258.199219 208.269531 C 257.996094 208.9375 257.761719 209.59375 257.496094 210.238281 C 257.230469 210.882812 256.929688 211.511719 256.601562 212.125 C 256.273438 212.742188 255.914062 213.335938 255.527344 213.917969 C 255.140625 214.496094 254.726562 215.054688 254.285156 215.59375 C 253.84375 216.132812 253.375 216.648438 252.882812 217.144531 C 252.386719 217.636719 251.871094 218.105469 251.332031 218.546875 C 250.792969 218.988281 250.234375 219.402344 249.65625 219.789062 C 249.074219 220.175781 248.480469 220.535156 247.863281 220.863281 C 247.25 221.191406 246.621094 221.492188 245.976562 221.757812 C 245.332031 222.023438 244.675781 222.257812 244.007812 222.460938 C 243.339844 222.664062 242.667969 222.832031 241.984375 222.96875 C 241.296875 223.105469 240.609375 223.207031 239.917969 223.273438 C 239.222656 223.34375 238.527344 223.378906 237.828125 223.378906 C 237.132812 223.378906 236.4375 223.34375 235.742188 223.273438 C 235.050781 223.207031 234.359375 223.105469 233.675781 222.96875 C 232.992188 222.832031 232.316406 222.664062 231.652344 222.460938 C 230.984375 222.257812 230.328125 222.023438 229.683594 221.757812 C 229.039062 221.492188 228.410156 221.191406 227.796875 220.863281 C 227.179688 220.535156 226.582031 220.175781 226.003906 219.789062 C 225.425781 219.402344 224.863281 218.988281 224.324219 218.546875 C 223.785156 218.105469 223.269531 217.636719 222.777344 217.144531 C 222.285156 216.648438 221.816406 216.132812 221.375 215.59375 C 220.933594 215.054688 220.519531 214.496094 220.128906 213.917969 C 219.742188 213.335938 219.386719 212.742188 219.058594 212.125 C 218.726562 211.511719 218.429688 210.882812 218.164062 210.238281 C 217.898438 209.59375 217.664062 208.9375 217.460938 208.269531 C 217.257812 207.601562 217.089844 206.929688 216.953125 206.242188 C 216.816406 205.558594 216.714844 204.871094 216.644531 204.175781 C 216.578125 203.484375 216.542969 202.789062 216.542969 202.089844 C 216.542969 201.394531 216.578125 200.699219 216.644531 200.003906 C 216.714844 199.3125 216.816406 198.621094 216.953125 197.9375 C 217.089844 197.253906 217.257812 196.578125 217.460938 195.914062 C 217.664062 195.246094 217.898438 194.589844 218.164062 193.945312 C 218.429688 193.300781 218.726562 192.671875 219.058594 192.058594 C 219.386719 191.441406 219.742188 190.84375 220.128906 190.265625 C 220.519531 189.683594 220.933594 189.125 221.375 188.585938 C 221.816406 188.046875 222.285156 187.53125 222.777344 187.039062 C 223.269531 186.546875 223.785156 186.078125 224.324219 185.636719 C 224.863281 185.195312 225.425781 184.78125 226.003906 184.390625 C 226.582031 184.003906 227.179688 183.648438 227.796875 183.320312 C 228.410156 182.988281 229.039062 182.691406 229.683594 182.425781 C 230.328125 182.160156 230.984375 181.925781 231.652344 181.722656 C 232.316406 181.519531 232.992188 181.351562 233.675781 181.214844 C 234.359375 181.078125 235.050781 180.976562 235.742188 180.90625 C 236.4375 180.839844 237.132812 180.804688 237.828125 180.804688 C 238.527344 180.804688 239.222656 180.839844 239.917969 180.90625 C 240.609375 180.976562 241.296875 181.078125 241.984375 181.214844 C 242.667969 181.351562 243.339844 181.519531 244.007812 181.722656 C 244.675781 181.925781 245.332031 182.160156 245.976562 182.425781 C 246.621094 182.691406 247.25 182.988281 247.863281 183.320312 C 248.480469 183.648438 249.074219 184.003906 249.65625 184.390625 C 250.234375 184.78125 250.792969 185.195312 251.332031 185.636719 C 251.871094 186.078125 252.386719 186.546875 252.882812 187.039062 C 253.375 187.53125 253.84375 188.046875 254.285156 188.585938 C 254.726562 189.125 255.140625 189.683594 255.527344 190.265625 C 255.914062 190.84375 256.273438 191.441406 256.601562 192.058594 C 256.929688 192.671875 257.230469 193.300781 257.496094 193.945312 C 257.761719 194.589844 257.996094 195.246094 258.199219 195.914062 C 258.402344 196.578125 258.570312 197.253906 258.707031 197.9375 C 258.84375 198.621094 258.945312 199.3125 259.011719 200.003906 C 259.082031 200.699219 259.117188 201.394531 259.117188 202.089844 Z M 259.117188 202.089844"/><path fill="#063251" d="M 208.476562 74.597656 C 208.476562 73.808594 208.433594 73.023438 208.34375 72.238281 C 208.253906 71.453125 208.121094 70.679688 207.945312 69.910156 C 207.765625 69.140625 207.546875 68.382812 207.28125 67.640625 C 207.019531 66.898438 206.714844 66.171875 206.367188 65.460938 C 206.023438 64.753906 205.636719 64.066406 205.214844 63.398438 C 204.789062 62.734375 204.332031 62.09375 203.835938 61.480469 C 203.335938 60.867188 202.808594 60.285156 202.246094 59.734375 C 201.683594 59.179688 201.089844 58.660156 200.46875 58.175781 C 199.847656 57.6875 199.199219 57.238281 198.527344 56.828125 C 197.855469 56.414062 197.160156 56.042969 196.445312 55.710938 C 195.730469 55.375 195 55.082031 194.25 54.832031 C 193.503906 54.582031 192.742188 54.375 191.972656 54.210938 C 191.199219 54.046875 190.421875 53.929688 189.636719 53.851562 C 188.851562 53.777344 188.0625 53.746094 187.273438 53.757812 C 186.488281 53.773438 185.699219 53.832031 184.917969 53.933594 C 184.136719 54.039062 183.363281 54.183594 182.597656 54.375 C 181.625 54.621094 180.679688 54.9375 179.753906 55.324219 C 178.828125 55.707031 177.933594 56.160156 177.074219 56.671875 C 176.214844 57.1875 175.394531 57.761719 174.617188 58.394531 C 173.84375 59.027344 173.113281 59.714844 172.4375 60.453125 C 171.761719 61.191406 171.140625 61.972656 170.574219 62.800781 C 170.011719 63.632812 169.511719 64.496094 169.074219 65.398438 C 168.632812 66.296875 168.261719 67.226562 167.960938 68.183594 C 167.65625 69.136719 167.421875 70.109375 167.261719 71.097656 C 167.097656 72.085938 167.007812 73.082031 166.988281 74.085938 C 166.972656 75.085938 167.027344 76.085938 167.152344 77.078125 C 167.277344 78.074219 167.476562 79.050781 167.746094 80.019531 C 168.015625 80.984375 168.351562 81.925781 168.757812 82.839844 C 169.160156 83.757812 169.628906 84.640625 170.164062 85.488281 C 170.695312 86.335938 171.289062 87.144531 171.9375 87.90625 C 172.589844 88.667969 173.289062 89.378906 174.042969 90.042969 C 174.796875 90.703125 175.59375 91.304688 176.4375 91.851562 C 177.292969 92.398438 178.066406 93.042969 178.761719 93.785156 C 179.453125 94.527344 180.046875 95.34375 180.535156 96.234375 C 181.023438 97.125 181.394531 98.0625 181.652344 99.046875 C 181.90625 100.03125 182.035156 101.03125 182.039062 102.046875 L 182.039062 113.921875 L 194.136719 113.921875 L 194.136719 102.046875 C 194.125 101.054688 194.234375 100.074219 194.460938 99.109375 C 194.691406 98.140625 195.039062 97.21875 195.496094 96.339844 C 195.957031 95.460938 196.515625 94.648438 197.179688 93.910156 C 197.839844 93.167969 198.582031 92.519531 199.402344 91.960938 C 200.820312 91.003906 202.097656 89.890625 203.238281 88.613281 C 204.375 87.339844 205.34375 85.941406 206.132812 84.425781 C 206.925781 82.910156 207.519531 81.320312 207.917969 79.65625 C 208.3125 77.996094 208.5 76.308594 208.476562 74.597656 Z M 208.476562 74.597656"/><path fill="#094978" d="M 197.832031 269.757812 L 177.445312 269.757812 C 176.804688 269.757812 176.164062 269.726562 175.527344 269.664062 C 174.890625 269.601562 174.257812 269.507812 173.628906 269.382812 C 173 269.257812 172.382812 269.101562 171.769531 268.917969 C 171.15625 268.730469 170.554688 268.515625 169.960938 268.269531 C 169.371094 268.027344 168.792969 267.753906 168.226562 267.449219 C 167.664062 267.148438 167.113281 266.820312 166.582031 266.464844 C 166.050781 266.109375 165.535156 265.726562 165.042969 265.320312 C 164.546875 264.914062 164.074219 264.484375 163.621094 264.035156 C 163.167969 263.582031 162.738281 263.105469 162.332031 262.613281 C 161.925781 262.117188 161.542969 261.601562 161.1875 261.070312 C 160.832031 260.539062 160.503906 259.988281 160.203125 259.425781 C 159.902344 258.859375 159.628906 258.28125 159.382812 257.691406 C 159.136719 257.097656 158.921875 256.496094 158.734375 255.882812 C 158.550781 255.273438 158.394531 254.652344 158.269531 254.023438 C 158.144531 253.394531 158.050781 252.761719 157.988281 252.125 C 157.925781 251.488281 157.894531 250.851562 157.894531 250.210938 C 157.886719 249.8125 157.957031 249.433594 158.105469 249.0625 C 158.253906 248.695312 158.464844 248.375 158.746094 248.09375 C 159.027344 247.8125 159.351562 247.597656 159.71875 247.449219 C 160.085938 247.304688 160.46875 247.234375 160.863281 247.242188 L 214.414062 247.242188 C 214.8125 247.234375 215.191406 247.304688 215.558594 247.449219 C 215.925781 247.597656 216.25 247.8125 216.53125 248.09375 C 216.8125 248.375 217.023438 248.695312 217.171875 249.0625 C 217.320312 249.433594 217.390625 249.8125 217.382812 250.210938 C 217.382812 250.851562 217.351562 251.488281 217.289062 252.125 C 217.226562 252.761719 217.132812 253.394531 217.007812 254.023438 C 216.882812 254.652344 216.726562 255.273438 216.542969 255.882812 C 216.355469 256.496094 216.140625 257.097656 215.894531 257.691406 C 215.652344 258.28125 215.378906 258.859375 215.074219 259.425781 C 214.773438 259.988281 214.445312 260.539062 214.089844 261.070312 C 213.734375 261.601562 213.351562 262.117188 212.945312 262.613281 C 212.539062 263.105469 212.109375 263.582031 211.65625 264.035156 C 211.203125 264.484375 210.730469 264.914062 210.234375 265.320312 C 209.742188 265.726562 209.226562 266.109375 208.695312 266.464844 C 208.164062 266.820312 207.613281 267.148438 207.050781 267.449219 C 206.484375 267.753906 205.90625 268.027344 205.316406 268.269531 C 204.722656 268.515625 204.121094 268.730469 203.507812 268.917969 C 202.894531 269.101562 202.277344 269.257812 201.648438 269.382812 C 201.019531 269.507812 200.386719 269.601562 199.75 269.664062 C 199.113281 269.726562 198.472656 269.757812 197.832031 269.757812 Z M 197.832031 269.757812"/></svg>