<svg xmlns="http://www.w3.org/2000/svg" width="375" viewBox="0 0 375 375" height="375" version="1.0"><defs><clipPath id="a"><path d="M 147 311 L 158 311 L 158 322.640625 L 147 322.640625 Z M 147 311"/></clipPath><clipPath id="b"><path d="M 216 311 L 228 311 L 228 322.640625 L 216 322.640625 Z M 216 311"/></clipPath><clipPath id="c"><path d="M 311 216 L 322.640625 216 L 322.640625 228 L 311 228 Z M 311 216"/></clipPath><clipPath id="d"><path d="M 311 147 L 322.640625 147 L 322.640625 159 L 311 159 Z M 311 147"/></clipPath><clipPath id="e"><path d="M 216 52.640625 L 228 52.640625 L 228 64 L 216 64 Z M 216 52.640625"/></clipPath><clipPath id="f"><path d="M 147 52.640625 L 158 52.640625 L 158 64 L 147 64 Z M 147 52.640625"/></clipPath></defs><path fill="#FFF" d="M-37.5 -37.5H412.5V412.5H-37.5z"/><path fill="#26AFD9" d="M-37.5 -37.5H412.5V412.5H-37.5z"/><path fill="#A3E3F3" d="M 276.597656 174.226562 L 276.597656 201.050781 L 252.148438 204.085938 C 250.527344 210.445312 248.027344 216.433594 244.761719 221.917969 L 259.886719 241.367188 L 240.921875 260.332031 L 221.46875 245.210938 C 215.984375 248.476562 209.980469 250.972656 203.640625 252.597656 L 200.601562 277.042969 L 173.78125 277.042969 C 178.6875 277.042969 182.722656 273.027344 182.722656 268.101562 L 182.722656 227.609375 C 184.207031 227.785156 185.671875 227.871094 187.191406 227.871094 C 209.402344 227.871094 227.421875 209.851562 227.421875 187.640625 C 227.421875 165.425781 209.402344 147.40625 187.191406 147.40625 C 185.671875 147.40625 184.207031 147.496094 182.722656 147.667969 L 182.722656 107.175781 C 182.722656 102.25 178.6875 98.234375 173.78125 98.234375 L 200.601562 98.234375 L 203.640625 122.679688 C 209.980469 124.304688 215.984375 126.800781 221.46875 130.066406 L 240.921875 114.945312 L 259.886719 133.910156 L 244.761719 153.363281 C 248.027344 158.84375 250.527344 164.832031 252.148438 171.191406 L 276.597656 174.226562"/><path fill="#A3E3F3" d="M 303.417969 178.699219 C 303.277344 178.699219 303.191406 178.699219 303.050781 178.699219 C 298.316406 178.925781 294.476562 182.855469 294.476562 187.640625 C 294.476562 192.421875 298.316406 196.351562 303.050781 196.578125 C 303.191406 196.578125 303.277344 196.578125 303.417969 196.578125 C 308.324219 196.578125 312.359375 192.5625 312.359375 187.640625 C 312.359375 182.714844 308.324219 178.699219 303.417969 178.699219"/><path fill="#A3E3F3" d="M 187.191406 62.472656 C 182.285156 62.472656 178.25 66.488281 178.25 71.414062 C 178.25 71.554688 178.25 71.640625 178.25 71.78125 C 178.476562 76.511719 182.40625 80.355469 187.191406 80.355469 C 191.976562 80.355469 195.90625 76.511719 196.132812 71.78125 C 196.132812 71.640625 196.132812 71.554688 196.132812 71.414062 C 196.132812 66.488281 192.097656 62.472656 187.191406 62.472656"/><path fill="#A3E3F3" d="M 187.191406 294.921875 C 182.40625 294.921875 178.476562 298.765625 178.25 303.496094 C 178.25 303.636719 178.25 303.722656 178.25 303.863281 C 178.25 308.789062 182.285156 312.804688 187.191406 312.804688 C 192.097656 312.804688 196.132812 308.789062 196.132812 303.863281 C 196.132812 303.722656 196.132812 303.636719 196.132812 303.496094 C 195.90625 298.765625 191.976562 294.921875 187.191406 294.921875"/><path fill="#A3E3F3" d="M 133.550781 227.871094 L 133.550781 254.691406 L 155.902344 254.691406 C 158.363281 254.691406 160.371094 252.683594 160.371094 250.222656 L 160.371094 227.871094 L 133.550781 227.871094"/><path fill="#A3E3F3" d="M 149.28125 201.050781 L 133.550781 201.050781 L 133.550781 227.871094 L 160.371094 227.871094 L 160.371094 201.050781 L 149.28125 201.050781"/><path fill="#A3E3F3" d="M 155.902344 174.226562 L 133.550781 174.226562 L 133.550781 201.050781 L 160.371094 201.050781 L 160.371094 178.699219 C 160.371094 176.238281 158.363281 174.226562 155.902344 174.226562"/><path fill="#A3E3F3" d="M 133.550781 174.226562 L 133.550781 201.050781 L 106.726562 201.050781 L 106.726562 174.226562 L 133.550781 174.226562"/><path fill="#A3E3F3" d="M 106.726562 201.050781 L 106.726562 227.871094 L 133.550781 227.871094 L 133.550781 201.050781 L 106.726562 201.050781"/><path fill="#A3E3F3" d="M 125.011719 227.871094 L 106.726562 227.871094 L 106.726562 254.691406 L 133.550781 254.691406 L 133.550781 227.871094 L 125.011719 227.871094"/><path fill="#A3E3F3" d="M 160.371094 227.871094 L 160.371094 250.222656 C 160.371094 252.683594 158.363281 254.691406 155.902344 254.691406 L 84.378906 254.691406 C 81.914062 254.691406 79.90625 252.683594 79.90625 250.222656 L 79.90625 178.699219 C 79.90625 176.238281 81.914062 174.226562 84.378906 174.226562 L 155.902344 174.226562 C 158.363281 174.226562 160.371094 176.238281 160.371094 178.699219 Z M 79.90625 125.054688 C 79.90625 122.59375 81.914062 120.585938 84.378906 120.585938 L 155.902344 120.585938 C 158.363281 120.585938 160.371094 122.59375 160.371094 125.054688 L 160.371094 151.878906 C 160.371094 154.339844 158.363281 156.347656 155.902344 156.347656 L 84.378906 156.347656 C 81.914062 156.347656 79.90625 154.339844 79.90625 151.878906 Z M 173.78125 98.234375 L 66.496094 98.234375 C 61.574219 98.234375 57.554688 102.25 57.554688 107.175781 L 57.554688 268.101562 C 57.554688 273.027344 61.574219 277.042969 66.496094 277.042969 L 173.78125 277.042969 C 178.6875 277.042969 182.722656 273.027344 182.722656 268.101562 L 182.722656 107.175781 C 182.722656 102.25 178.6875 98.234375 173.78125 98.234375"/><path fill="#A3E3F3" d="M 97.789062 201.050781 L 79.90625 201.050781 L 79.90625 227.871094 L 106.726562 227.871094 L 106.726562 201.050781 L 97.789062 201.050781"/><path fill="#A3E3F3" d="M 97.789062 174.226562 L 84.378906 174.226562 C 81.914062 174.226562 79.90625 176.238281 79.90625 178.699219 L 79.90625 201.050781 L 106.726562 201.050781 L 106.726562 174.226562 L 97.789062 174.226562"/><path fill="#A3E3F3" d="M 79.90625 227.871094 L 79.90625 250.222656 C 79.90625 252.683594 81.914062 254.691406 84.378906 254.691406 L 106.726562 254.691406 L 106.726562 227.871094 L 79.90625 227.871094"/><path fill="#063251" d="M 138.019531 250.222656 L 138.019531 232.339844 L 155.902344 232.339844 L 155.902344 250.222656 Z M 84.378906 232.339844 L 102.257812 232.339844 L 102.257812 250.222656 L 84.378906 250.222656 Z M 102.257812 178.699219 L 102.257812 196.578125 L 84.378906 196.578125 L 84.378906 178.699219 Z M 138.019531 205.519531 L 155.902344 205.519531 L 155.902344 223.402344 L 138.019531 223.402344 Z M 111.199219 196.578125 L 111.199219 178.699219 L 129.078125 178.699219 L 129.078125 196.578125 Z M 102.257812 223.402344 L 84.378906 223.402344 L 84.378906 205.519531 L 102.257812 205.519531 Z M 129.078125 232.339844 L 129.078125 250.222656 L 111.199219 250.222656 L 111.199219 232.339844 Z M 111.199219 223.402344 L 111.199219 205.519531 L 129.078125 205.519531 L 129.078125 223.402344 Z M 155.902344 196.578125 L 138.019531 196.578125 L 138.019531 178.699219 L 155.902344 178.699219 Z M 155.902344 169.757812 L 84.378906 169.757812 C 79.453125 169.757812 75.4375 173.773438 75.4375 178.699219 L 75.4375 250.222656 C 75.4375 255.144531 79.453125 259.160156 84.378906 259.160156 L 155.902344 259.160156 C 160.824219 259.160156 164.839844 255.144531 164.839844 250.222656 L 164.839844 178.699219 C 164.839844 173.773438 160.824219 169.757812 155.902344 169.757812"/><path fill="#063251" d="M 155.902344 151.878906 L 84.378906 151.878906 L 84.378906 125.054688 L 155.902344 125.054688 Z M 155.902344 116.117188 L 84.378906 116.117188 C 79.453125 116.117188 75.4375 120.132812 75.4375 125.054688 L 75.4375 151.878906 C 75.4375 156.800781 79.453125 160.816406 84.378906 160.816406 L 155.902344 160.816406 C 160.824219 160.816406 164.839844 156.800781 164.839844 151.878906 L 164.839844 125.054688 C 164.839844 120.132812 160.824219 116.117188 155.902344 116.117188"/><path fill="#063251" d="M 142.488281 133.996094 L 133.550781 133.996094 L 133.550781 142.9375 L 142.488281 142.9375 L 142.488281 133.996094"/><path fill="#063251" d="M 124.609375 133.996094 L 115.667969 133.996094 L 115.667969 142.9375 L 124.609375 142.9375 L 124.609375 133.996094"/><path fill="#063251" d="M 106.726562 133.996094 L 97.789062 133.996094 L 97.789062 142.9375 L 106.726562 142.9375 L 106.726562 133.996094"/><path fill="#063251" d="M 187.191406 223.402344 L 187.191406 151.878906 C 206.90625 151.878906 222.953125 167.925781 222.953125 187.640625 C 222.953125 207.351562 206.90625 223.402344 187.191406 223.402344 Z M 272.125 197.121094 L 251.574219 199.671875 C 249.722656 199.878906 248.253906 201.222656 247.800781 203.023438 C 246.28125 208.871094 244.011719 214.460938 240.921875 219.59375 C 239.980469 221.21875 240.082031 223.171875 241.234375 224.65625 L 253.929688 241.019531 L 240.574219 254.378906 L 224.210938 241.683594 C 222.777344 240.53125 220.769531 240.425781 219.164062 241.367188 C 214.011719 244.460938 208.425781 246.730469 202.574219 248.25 C 200.777344 248.703125 199.433594 250.167969 199.222656 252.003906 L 196.671875 272.574219 L 186.386719 272.574219 C 186.878906 271.191406 187.191406 269.675781 187.191406 268.101562 L 187.191406 232.339844 C 211.832031 232.339844 231.894531 212.277344 231.894531 187.640625 C 231.894531 163 211.832031 142.9375 187.191406 142.9375 L 187.191406 107.175781 C 187.191406 105.605469 186.878906 104.085938 186.386719 102.707031 L 196.671875 102.707031 L 199.222656 123.273438 C 199.433594 125.109375 200.777344 126.574219 202.574219 127.027344 C 208.425781 128.546875 214.011719 130.820312 219.164062 133.910156 C 220.769531 134.851562 222.777344 134.746094 224.210938 133.59375 L 240.574219 120.898438 L 253.929688 134.257812 L 241.234375 150.621094 C 240.082031 152.105469 239.980469 154.058594 240.921875 155.683594 C 244.011719 160.816406 246.28125 166.40625 247.800781 172.253906 C 248.253906 174.054688 249.722656 175.398438 251.574219 175.609375 L 272.125 178.15625 Z M 178.25 268.101562 C 178.25 270.566406 176.242188 272.574219 173.78125 272.574219 L 66.496094 272.574219 C 64.035156 272.574219 62.027344 270.566406 62.027344 268.101562 L 62.027344 107.175781 C 62.027344 104.714844 64.035156 102.707031 66.496094 102.707031 L 173.78125 102.707031 C 176.242188 102.707031 178.25 104.714844 178.25 107.175781 Z M 277.136719 169.808594 L 255.625 167.121094 C 254.246094 162.476562 252.410156 158.007812 250.140625 153.746094 L 263.414062 136.632812 C 264.792969 134.851562 264.667969 132.335938 263.046875 130.730469 L 244.097656 111.785156 C 242.492188 110.160156 239.945312 110.039062 238.199219 111.417969 L 221.085938 124.6875 C 216.824219 122.417969 212.355469 120.585938 207.710938 119.207031 L 205.019531 97.695312 C 204.757812 95.457031 202.835938 93.765625 200.601562 93.765625 L 66.496094 93.765625 C 59.128906 93.765625 53.085938 99.804688 53.085938 107.175781 L 53.085938 268.101562 C 53.085938 275.472656 59.128906 281.511719 66.496094 281.511719 L 200.601562 281.511719 C 202.835938 281.511719 204.757812 279.820312 205.019531 277.585938 L 207.710938 256.070312 C 212.355469 254.691406 216.824219 252.859375 221.085938 250.589844 L 238.199219 263.859375 C 239.945312 265.238281 242.492188 265.117188 244.097656 263.492188 L 263.046875 244.546875 C 264.667969 242.941406 264.792969 240.425781 263.414062 238.644531 L 250.140625 221.53125 C 252.410156 217.269531 254.246094 212.800781 255.625 208.15625 L 277.136719 205.46875 C 279.371094 205.207031 281.066406 203.285156 281.066406 201.050781 L 281.066406 174.226562 C 281.066406 171.992188 279.371094 170.074219 277.136719 169.808594"/><path fill="#063251" d="M 303.417969 192.109375 C 300.953125 192.109375 298.945312 190.101562 298.945312 187.640625 C 298.945312 185.175781 300.953125 183.167969 303.417969 183.167969 C 305.878906 183.167969 307.886719 185.175781 307.886719 187.640625 C 307.886719 190.101562 305.878906 192.109375 303.417969 192.109375 Z M 187.191406 308.335938 C 184.730469 308.335938 182.722656 306.324219 182.722656 303.863281 C 182.722656 301.402344 184.730469 299.394531 187.191406 299.394531 C 189.652344 299.394531 191.660156 301.402344 191.660156 303.863281 C 191.660156 306.324219 189.652344 308.335938 187.191406 308.335938 Z M 187.191406 75.882812 C 184.730469 75.882812 182.722656 73.875 182.722656 71.414062 C 182.722656 68.953125 184.730469 66.945312 187.191406 66.945312 C 189.652344 66.945312 191.660156 68.953125 191.660156 71.414062 C 191.660156 73.875 189.652344 75.882812 187.191406 75.882812 Z M 316.828125 187.640625 C 316.828125 181.527344 312.6875 176.410156 307.085938 174.804688 C 301.113281 118.804688 256.027344 73.71875 200.027344 67.746094 C 198.417969 62.140625 193.304688 58.003906 187.191406 58.003906 C 181.113281 58.003906 176.015625 62.105469 174.375 67.675781 C 159.339844 69.25 144.917969 73.5625 131.488281 80.546875 L 135.609375 88.472656 C 147.902344 82.082031 161.070312 78.117188 174.828125 76.601562 C 176.871094 81.4375 181.640625 84.824219 187.191406 84.824219 C 192.710938 84.824219 197.460938 81.472656 199.519531 76.6875 C 251.015625 82.378906 292.449219 123.816406 298.144531 175.3125 C 293.359375 177.371094 290.007812 182.121094 290.007812 187.640625 C 290.007812 193.15625 293.359375 197.90625 298.144531 199.96875 C 292.449219 251.460938 251.015625 292.898438 199.519531 298.589844 C 197.460938 293.804688 192.710938 290.453125 187.191406 290.453125 C 181.640625 290.453125 176.871094 293.839844 174.828125 298.660156 C 161.070312 297.160156 147.902344 293.195312 135.609375 286.804688 L 131.488281 294.730469 C 144.917969 301.714844 159.339844 306.027344 174.375 307.601562 C 176.015625 313.171875 181.113281 317.273438 187.191406 317.273438 C 193.304688 317.273438 198.417969 313.136719 200.027344 307.53125 C 256.027344 301.558594 301.113281 256.472656 307.085938 200.472656 C 312.6875 198.867188 316.828125 193.75 316.828125 187.640625"/><g clip-path="url(#a)"><path fill="#063251" d="M 147.011719 320.332031 L 155.636719 322.652344 L 157.960938 314.007812 L 149.316406 311.703125 L 147.011719 320.332031"/></g><path fill="#063251" d="M 114.027344 305.417969 L 121.78125 309.886719 L 126.25 302.136719 L 118.496094 297.664062 L 114.027344 305.417969"/><g clip-path="url(#b)"><path fill="#063251" d="M 216.421875 314.007812 L 218.746094 322.652344 L 227.371094 320.332031 L 225.066406 311.703125 L 216.421875 314.007812"/></g><path fill="#063251" d="M 248.132812 302.136719 L 252.601562 309.886719 L 260.355469 305.417969 L 255.886719 297.664062 L 248.132812 302.136719"/><path fill="#063251" d="M 275.6875 282.472656 L 282.027344 288.792969 L 288.347656 282.472656 L 282.027344 276.136719 L 275.6875 282.472656"/><path fill="#063251" d="M 297.21875 256.332031 L 304.972656 260.804688 L 309.441406 253.050781 L 301.6875 248.582031 L 297.21875 256.332031"/><g clip-path="url(#c)"><path fill="#063251" d="M 311.257812 225.511719 L 319.882812 227.816406 L 322.207031 219.191406 L 313.5625 216.871094 L 311.257812 225.511719"/></g><g clip-path="url(#d)"><path fill="#063251" d="M 322.207031 156.085938 L 319.882812 147.460938 L 311.257812 149.765625 L 313.5625 158.40625 L 322.207031 156.085938"/></g><path fill="#063251" d="M 309.441406 122.226562 L 304.972656 114.472656 L 297.21875 118.945312 L 301.6875 126.699219 L 309.441406 122.226562"/><path fill="#063251" d="M 288.347656 92.804688 L 282.027344 86.484375 L 275.6875 92.804688 L 282.027344 99.144531 L 288.347656 92.804688"/><path fill="#063251" d="M 260.355469 69.859375 L 252.601562 65.390625 L 248.132812 73.140625 L 255.886719 77.613281 L 260.355469 69.859375"/><g clip-path="url(#e)"><path fill="#063251" d="M 227.371094 54.949219 L 218.746094 52.625 L 216.421875 61.269531 L 225.066406 63.574219 L 227.371094 54.949219"/></g><g clip-path="url(#f)"><path fill="#063251" d="M 157.960938 61.269531 L 155.636719 52.625 L 147.011719 54.949219 L 149.316406 63.574219 L 157.960938 61.269531"/></g><path fill="#063251" d="M 126.25 73.140625 L 121.78125 65.390625 L 114.027344 69.859375 L 118.496094 77.613281 L 126.25 73.140625"/></svg>