<svg xmlns="http://www.w3.org/2000/svg" width="375" viewBox="0 0 375 375" height="375" version="1.0"><defs><clipPath id="a"><path d="M 167 301 L 212 301 L 212 337.5 L 167 337.5 Z M 167 301"/></clipPath><clipPath id="b"><path d="M 163 37.5 L 208 37.5 L 208 74 L 163 74 Z M 163 37.5"/></clipPath></defs><path fill="#FFF" d="M-37.5 -37.5H412.5V412.5H-37.5z"/><path fill="#26AFD9" d="M-37.5 -37.5H412.5V412.5H-37.5z"/><path fill="#A3E3F3" d="M 289.191406 248.324219 C 286.289062 253.171875 283.015625 257.84375 279.453125 262.21875 L 301.265625 279.921875 C 305.667969 274.507812 309.726562 268.722656 313.320312 262.722656 L 289.191406 248.324219"/><path fill="#A3E3F3" d="M 124.605469 319.773438 C 135.699219 325.023438 147.433594 328.871094 159.484375 331.222656 L 164.871094 303.675781 C 155.113281 301.773438 145.617188 298.660156 136.640625 294.410156 L 124.605469 319.773438"/><path fill="#A3E3F3" d="M 187.609375 305.875 C 183.226562 305.875 178.792969 305.628906 174.433594 305.140625 L 171.308594 333.035156 C 176.703125 333.636719 182.1875 333.941406 187.609375 333.941406 C 194.429688 333.941406 201.304688 333.457031 208.050781 332.507812 L 204.113281 304.71875 C 198.667969 305.484375 193.117188 305.875 187.609375 305.875"/><path fill="#A3E3F3" d="M 213.617188 302.972656 L 219.832031 330.34375 C 231.761719 327.644531 243.375 323.425781 254.347656 317.808594 L 241.527344 292.835938 C 232.648438 297.378906 223.257812 300.789062 213.617188 302.972656"/><path fill="#A3E3F3" d="M 249.96875 288.078125 L 264.757812 311.945312 C 275.230469 305.476562 284.847656 297.714844 293.335938 288.886719 L 273.054688 269.449219 C 266.203125 276.578125 258.433594 282.847656 249.96875 288.078125"/><path fill="#A3E3F3" d="M 128.066406 289.917969 C 127.1875 289.410156 126.3125 288.886719 125.441406 288.351562 L 142.265625 273.390625 L 70.433594 249.640625 L 85.746094 323.640625 L 103.699219 307.679688 C 107.046875 310 110.488281 312.1875 114.003906 314.21875 L 128.066406 289.917969"/><path fill="#A3E3F3" d="M 95.535156 112.765625 L 73.722656 95.0625 C 69.316406 100.476562 65.261719 106.261719 61.671875 112.261719 L 85.796875 126.660156 C 88.699219 121.8125 91.972656 117.136719 95.535156 112.765625"/><path fill="#A3E3F3" d="M 161.371094 72.011719 L 155.160156 44.640625 C 143.226562 47.339844 131.613281 51.558594 120.640625 57.171875 L 133.460938 82.148438 C 142.339844 77.605469 151.730469 74.195312 161.371094 72.011719"/><path fill="#A3E3F3" d="M 125.019531 86.90625 L 110.230469 63.039062 C 99.753906 69.511719 90.140625 77.269531 81.652344 86.101562 L 101.933594 105.535156 C 108.785156 98.40625 116.550781 92.136719 125.019531 86.90625"/><path fill="#A3E3F3" d="M 200.554688 69.84375 L 203.679688 41.949219 C 198.285156 41.347656 192.804688 41.042969 187.382812 41.042969 C 180.558594 41.042969 173.679688 41.527344 166.9375 42.476562 L 170.878906 70.269531 C 176.316406 69.5 181.871094 69.109375 187.382812 69.109375 C 191.761719 69.109375 196.191406 69.355469 200.554688 69.84375"/><path fill="#A3E3F3" d="M 250.382812 55.210938 C 239.292969 49.960938 227.558594 46.109375 215.503906 43.761719 L 210.121094 71.308594 C 219.875 73.210938 229.371094 76.328125 238.347656 80.574219 L 250.382812 55.210938"/><path fill="#A3E3F3" d="M 246.917969 85.066406 C 247.804688 85.574219 248.675781 86.097656 249.546875 86.632812 L 232.722656 101.59375 L 304.554688 125.339844 L 289.242188 51.34375 L 271.289062 67.304688 C 267.941406 64.984375 264.5 62.796875 260.984375 60.765625 L 246.917969 85.066406"/><path fill="#147CAE" d="M 187.496094 213.292969 C 173.226562 213.292969 161.65625 201.742188 161.65625 187.492188 C 161.65625 173.242188 173.226562 161.691406 187.496094 161.691406 C 201.765625 161.691406 213.332031 173.242188 213.332031 187.492188 C 213.332031 201.742188 201.765625 213.292969 187.496094 213.292969 Z M 254.070312 196.640625 L 243.191406 193.109375 C 243.375 191.261719 243.472656 189.386719 243.472656 187.492188 C 243.472656 185.59375 243.375 183.71875 243.191406 181.875 L 254.070312 178.34375 C 256.0625 177.699219 257.160156 175.542969 256.515625 173.558594 L 251.535156 158.257812 C 250.890625 156.269531 248.734375 155.171875 246.738281 155.816406 L 235.863281 159.347656 C 233.960938 156.09375 231.742188 153.054688 229.242188 150.261719 L 235.972656 141.015625 C 237.203125 139.324219 236.824219 136.933594 235.128906 135.707031 L 222.097656 126.25 C 220.40625 125.023438 218.011719 125.398438 216.78125 127.09375 L 210.058594 136.328125 C 206.65625 134.828125 203.074219 133.660156 199.355469 132.859375 L 199.355469 121.4375 C 199.355469 119.347656 197.640625 117.640625 195.546875 117.640625 L 179.4375 117.640625 C 177.347656 117.640625 175.632812 119.347656 175.632812 121.4375 L 175.632812 132.859375 C 171.914062 133.660156 168.332031 134.828125 164.925781 136.328125 L 158.207031 127.09375 C 156.976562 125.398438 154.585938 125.023438 152.894531 126.25 L 139.859375 135.707031 C 138.167969 136.933594 137.789062 139.324219 139.015625 141.015625 L 145.746094 150.261719 C 143.25 153.054688 141.027344 156.09375 139.125 159.347656 L 128.246094 155.816406 C 126.257812 155.171875 124.097656 156.269531 123.453125 158.257812 L 118.472656 173.558594 C 117.828125 175.542969 118.925781 177.699219 120.917969 178.34375 L 131.796875 181.875 C 131.613281 183.71875 131.515625 185.59375 131.515625 187.492188 C 131.515625 189.386719 131.613281 191.261719 131.796875 193.109375 L 120.917969 196.640625 C 118.925781 197.285156 117.828125 199.441406 118.472656 201.429688 L 123.453125 216.730469 C 124.097656 218.714844 126.257812 219.8125 128.246094 219.167969 L 139.125 215.636719 C 141.027344 218.890625 143.25 221.929688 145.746094 224.71875 L 139.015625 233.96875 C 137.789062 235.660156 138.167969 238.050781 139.859375 239.277344 L 152.894531 248.734375 C 154.585938 249.960938 156.976562 249.582031 158.207031 247.890625 L 164.925781 238.65625 C 168.332031 240.15625 171.914062 241.324219 175.632812 242.125 L 175.632812 253.546875 C 175.632812 255.636719 177.347656 257.34375 179.4375 257.34375 L 195.546875 257.34375 C 197.640625 257.34375 199.355469 255.636719 199.355469 253.546875 L 199.355469 242.125 C 203.074219 241.324219 206.65625 240.15625 210.058594 238.65625 L 216.78125 247.890625 C 218.011719 249.582031 220.40625 249.960938 222.097656 248.734375 L 235.128906 239.277344 C 236.824219 238.050781 237.203125 235.660156 235.972656 233.96875 L 229.242188 224.71875 C 231.742188 221.929688 233.960938 218.890625 235.863281 215.636719 L 246.738281 219.167969 C 248.734375 219.8125 250.890625 218.714844 251.535156 216.730469 L 256.515625 201.429688 C 257.160156 199.441406 256.0625 197.285156 254.070312 196.640625"/><path fill="#063251" d="M 187.496094 165.234375 C 175.203125 165.234375 165.203125 175.21875 165.203125 187.492188 C 165.203125 199.765625 175.203125 209.75 187.496094 209.75 C 199.785156 209.75 209.78125 199.765625 209.78125 187.492188 C 209.78125 175.21875 199.785156 165.234375 187.496094 165.234375 Z M 187.496094 216.839844 C 171.289062 216.839844 158.105469 203.671875 158.105469 187.492188 C 158.105469 171.308594 171.289062 158.144531 187.496094 158.144531 C 203.703125 158.144531 216.886719 171.308594 216.886719 187.492188 C 216.886719 203.671875 203.703125 216.839844 187.496094 216.839844 Z M 164.929688 235.109375 C 165.410156 235.109375 165.898438 235.207031 166.363281 235.414062 C 169.574219 236.828125 172.945312 237.917969 176.382812 238.660156 C 178.015625 239.011719 179.183594 240.457031 179.183594 242.125 L 179.183594 253.546875 C 179.183594 253.675781 179.308594 253.800781 179.4375 253.800781 L 195.546875 253.800781 C 195.679688 253.800781 195.804688 253.675781 195.804688 253.546875 L 195.804688 242.125 C 195.804688 240.457031 196.96875 239.011719 198.605469 238.660156 C 202.042969 237.917969 205.414062 236.828125 208.628906 235.414062 C 210.15625 234.738281 211.949219 235.21875 212.929688 236.570312 L 219.65625 245.808594 C 219.695312 245.863281 219.75 245.894531 219.820312 245.90625 C 219.894531 245.917969 219.953125 245.902344 220.011719 245.867188 L 233.039062 236.410156 C 233.148438 236.332031 233.175781 236.160156 233.097656 236.054688 L 226.371094 226.808594 C 225.386719 225.457031 225.480469 223.605469 226.59375 222.359375 C 228.941406 219.742188 231.027344 216.875 232.796875 213.851562 C 233.636719 212.410156 235.371094 211.75 236.960938 212.265625 L 247.839844 215.792969 C 247.902344 215.816406 247.964844 215.808594 248.03125 215.773438 C 248.097656 215.742188 248.140625 215.695312 248.160156 215.632812 L 253.136719 200.335938 C 253.175781 200.210938 253.097656 200.054688 252.972656 200.011719 L 242.089844 196.480469 C 240.503906 195.96875 239.488281 194.417969 239.65625 192.757812 C 239.832031 191.011719 239.921875 189.242188 239.921875 187.492188 C 239.921875 185.746094 239.832031 183.972656 239.65625 182.226562 C 239.488281 180.570312 240.503906 179.015625 242.089844 178.5 L 252.972656 174.972656 C 253.097656 174.929688 253.175781 174.773438 253.136719 174.652344 L 248.160156 159.351562 C 248.140625 159.292969 248.097656 159.242188 248.03125 159.210938 C 247.964844 159.175781 247.902344 159.171875 247.839844 159.1875 L 236.960938 162.71875 C 235.371094 163.234375 233.636719 162.574219 232.796875 161.132812 C 231.027344 158.109375 228.941406 155.246094 226.59375 152.625 C 225.480469 151.378906 225.386719 149.527344 226.371094 148.179688 L 233.097656 138.929688 C 233.136719 138.878906 233.152344 138.8125 233.140625 138.742188 C 233.128906 138.671875 233.097656 138.613281 233.039062 138.574219 L 220.011719 129.121094 C 219.957031 129.082031 219.894531 129.066406 219.820312 129.078125 C 219.75 129.089844 219.695312 129.125 219.65625 129.175781 L 212.929688 138.414062 C 211.949219 139.765625 210.15625 140.246094 208.628906 139.570312 C 205.414062 138.160156 202.042969 137.0625 198.605469 136.324219 C 196.96875 135.96875 195.804688 134.527344 195.804688 132.859375 L 195.804688 121.4375 C 195.804688 121.308594 195.679688 121.183594 195.546875 121.183594 L 179.4375 121.183594 C 179.308594 121.183594 179.183594 121.308594 179.183594 121.4375 L 179.183594 132.859375 C 179.183594 134.527344 178.015625 135.96875 176.382812 136.324219 C 172.945312 137.0625 169.574219 138.160156 166.363281 139.570312 C 164.828125 140.246094 163.039062 139.765625 162.054688 138.414062 L 155.335938 129.175781 C 155.257812 129.074219 155.085938 129.042969 154.980469 129.121094 L 141.945312 138.574219 C 141.894531 138.613281 141.859375 138.671875 141.851562 138.742188 C 141.839844 138.8125 141.851562 138.878906 141.890625 138.929688 L 148.617188 148.179688 C 149.601562 149.527344 149.507812 151.378906 148.394531 152.625 C 146.046875 155.246094 143.960938 158.109375 142.191406 161.132812 C 141.347656 162.574219 139.617188 163.234375 138.027344 162.71875 L 127.152344 159.1875 C 127.085938 159.171875 127.023438 159.175781 126.957031 159.210938 C 126.894531 159.242188 126.851562 159.292969 126.828125 159.351562 L 121.851562 174.652344 C 121.832031 174.710938 121.835938 174.777344 121.871094 174.84375 C 121.902344 174.90625 121.953125 174.953125 122.015625 174.972656 L 132.894531 178.5 C 134.484375 179.015625 135.496094 180.570312 135.332031 182.226562 C 135.15625 183.972656 135.066406 185.742188 135.066406 187.492188 C 135.066406 189.242188 135.15625 191.011719 135.332031 192.757812 C 135.496094 194.417969 134.484375 195.96875 132.894531 196.480469 L 122.015625 200.011719 C 121.953125 200.035156 121.902344 200.074219 121.871094 200.140625 C 121.835938 200.207031 121.832031 200.273438 121.851562 200.335938 L 126.828125 215.632812 C 126.871094 215.753906 127.027344 215.832031 127.152344 215.792969 L 138.027344 212.265625 C 139.617188 211.75 141.347656 212.410156 142.191406 213.851562 C 143.960938 216.875 146.046875 219.742188 148.394531 222.359375 C 149.507812 223.605469 149.601562 225.457031 148.617188 226.808594 L 141.890625 236.054688 C 141.8125 236.160156 141.839844 236.328125 141.945312 236.410156 L 154.980469 245.863281 C 155.085938 245.941406 155.257812 245.914062 155.335938 245.808594 L 162.054688 236.570312 C 162.742188 235.628906 163.820312 235.109375 164.929688 235.109375 Z M 195.546875 260.890625 L 179.4375 260.890625 C 175.382812 260.890625 172.082031 257.59375 172.082031 253.546875 L 172.082031 244.914062 C 170.078125 244.378906 168.097656 243.738281 166.160156 242.996094 L 161.082031 249.976562 C 158.695312 253.253906 154.085938 253.980469 150.804688 251.601562 L 137.773438 242.144531 C 134.492188 239.765625 133.761719 235.160156 136.144531 231.886719 L 141.230469 224.894531 C 139.925781 223.285156 138.703125 221.605469 137.570312 219.871094 L 129.34375 222.539062 C 125.484375 223.789062 121.328125 221.671875 120.074219 217.824219 L 115.097656 202.523438 C 114.492188 200.664062 114.648438 198.671875 115.542969 196.921875 C 116.4375 195.167969 117.957031 193.875 119.820312 193.269531 L 128.046875 190.597656 C 127.996094 189.558594 127.96875 188.523438 127.96875 187.492188 C 127.96875 186.460938 127.996094 185.421875 128.046875 184.382812 L 119.820312 181.714844 C 117.957031 181.109375 116.4375 179.8125 115.542969 178.0625 C 114.648438 176.308594 114.492188 174.320312 115.097656 172.460938 L 120.074219 157.160156 C 120.679688 155.300781 121.980469 153.78125 123.734375 152.890625 C 125.488281 151.996094 127.480469 151.839844 129.34375 152.445312 L 137.570312 155.113281 C 138.703125 153.378906 139.925781 151.699219 141.230469 150.089844 L 136.144531 143.097656 C 134.992188 141.515625 134.527344 139.574219 134.835938 137.632812 C 135.144531 135.691406 136.1875 133.988281 137.773438 132.839844 L 150.804688 123.382812 C 154.085938 121 158.695312 121.730469 161.082031 125.011719 L 166.160156 131.988281 C 168.097656 131.246094 170.074219 130.601562 172.082031 130.070312 L 172.082031 121.4375 C 172.082031 117.386719 175.382812 114.09375 179.4375 114.09375 L 195.546875 114.09375 C 199.609375 114.09375 202.90625 117.386719 202.90625 121.4375 L 202.90625 130.070312 C 204.910156 130.601562 206.890625 131.246094 208.832031 131.988281 L 213.910156 125.011719 C 215.0625 123.425781 216.765625 122.382812 218.710938 122.074219 C 220.652344 121.765625 222.597656 122.234375 224.183594 123.382812 L 237.21875 132.839844 C 238.800781 133.988281 239.84375 135.691406 240.152344 137.632812 C 240.460938 139.574219 239.996094 141.515625 238.84375 143.097656 L 233.757812 150.089844 C 235.066406 151.699219 236.289062 153.378906 237.417969 155.113281 L 245.644531 152.445312 C 247.507812 151.839844 249.503906 151.996094 251.257812 152.890625 C 253.007812 153.78125 254.308594 155.300781 254.914062 157.160156 L 259.894531 172.460938 C 261.144531 176.308594 259.027344 180.464844 255.167969 181.714844 L 246.941406 184.382812 C 246.996094 185.421875 247.023438 186.460938 247.023438 187.492188 C 247.023438 188.523438 246.996094 189.558594 246.941406 190.597656 L 255.167969 193.269531 C 259.027344 194.519531 261.144531 198.671875 259.894531 202.523438 L 254.914062 217.824219 C 254.308594 219.683594 253.007812 221.203125 251.257812 222.09375 C 249.503906 222.984375 247.511719 223.144531 245.644531 222.539062 L 237.417969 219.871094 C 236.289062 221.605469 235.0625 223.285156 233.757812 224.894531 L 238.84375 231.886719 C 241.226562 235.160156 240.496094 239.765625 237.21875 242.144531 L 224.183594 251.601562 C 220.902344 253.980469 216.292969 253.253906 213.910156 249.976562 L 208.832031 242.996094 C 206.890625 243.738281 204.910156 244.378906 202.90625 244.914062 L 202.90625 253.546875 C 202.90625 257.59375 199.609375 260.890625 195.546875 260.890625"/><path fill="#063251" d="M 284.410156 261.667969 L 300.714844 274.90625 C 303.445312 271.375 306.019531 267.703125 308.410156 263.925781 L 290.375 253.160156 C 288.507812 256.078125 286.511719 258.925781 284.410156 261.667969 Z M 301.261719 283.46875 C 300.476562 283.46875 299.683594 283.207031 299.027344 282.671875 L 277.214844 264.96875 C 275.695312 263.730469 275.464844 261.5 276.699219 259.980469 C 280.152344 255.742188 283.328125 251.207031 286.140625 246.507812 C 287.148438 244.824219 289.328125 244.277344 291.011719 245.28125 L 315.136719 259.679688 C 316.824219 260.679688 317.371094 262.859375 316.367188 264.539062 C 312.6875 270.6875 308.53125 276.613281 304.019531 282.160156 C 303.320312 283.023438 302.296875 283.46875 301.261719 283.46875"/><path fill="#063251" d="M 129.351562 318.046875 C 138.136719 321.941406 147.300781 324.949219 156.6875 327.019531 L 160.714844 306.425781 C 153.042969 304.699219 145.546875 302.238281 138.351562 299.089844 Z M 159.484375 334.769531 C 159.257812 334.769531 159.03125 334.746094 158.804688 334.703125 C 146.460938 332.296875 134.445312 328.351562 123.085938 322.976562 C 121.3125 322.140625 120.554688 320.023438 121.398438 318.257812 L 133.433594 292.890625 C 133.835938 292.042969 134.558594 291.386719 135.449219 291.070312 C 136.335938 290.753906 137.3125 290.800781 138.160156 291.207031 C 146.871094 295.328125 156.085938 298.351562 165.546875 300.195312 C 167.472656 300.574219 168.730469 302.433594 168.355469 304.355469 L 162.96875 331.902344 C 162.789062 332.824219 162.25 333.640625 161.46875 334.164062 C 160.875 334.558594 160.183594 334.769531 159.484375 334.769531"/><g clip-path="url(#a)"><path fill="#063251" d="M 175.238281 329.859375 C 179.351562 330.21875 183.5 330.394531 187.609375 330.394531 C 193.078125 330.394531 198.585938 330.078125 204.03125 329.445312 L 201.085938 308.671875 C 196.617188 309.167969 192.097656 309.421875 187.609375 309.421875 C 184.277344 309.421875 180.914062 309.28125 177.574219 309.007812 Z M 187.609375 337.488281 C 182.058594 337.488281 176.4375 337.175781 170.914062 336.554688 C 168.964844 336.335938 167.5625 334.585938 167.78125 332.640625 L 170.902344 304.746094 C 171.121094 302.800781 172.878906 301.398438 174.828125 301.617188 C 179.058594 302.089844 183.359375 302.328125 187.609375 302.328125 C 192.949219 302.328125 198.335938 301.949219 203.613281 301.203125 C 204.546875 301.074219 205.496094 301.316406 206.246094 301.882812 C 206.996094 302.445312 207.496094 303.289062 207.628906 304.21875 L 211.566406 332.007812 C 211.839844 333.949219 210.488281 335.742188 208.546875 336.015625 C 201.636719 336.992188 194.597656 337.488281 187.609375 337.488281"/></g><path fill="#063251" d="M 217.855469 305.59375 L 222.496094 326.058594 C 231.789062 323.710938 240.859375 320.414062 249.546875 316.234375 L 239.960938 297.5625 C 232.847656 300.949219 225.433594 303.640625 217.855469 305.59375 Z M 219.828125 333.890625 C 218.203125 333.890625 216.738281 332.773438 216.367188 331.128906 L 210.152344 303.757812 C 209.945312 302.839844 210.113281 301.875 210.613281 301.078125 C 211.117188 300.285156 211.914062 299.722656 212.832031 299.515625 C 222.179688 297.398438 231.289062 294.089844 239.90625 289.679688 C 240.746094 289.25 241.71875 289.171875 242.617188 289.460938 C 243.511719 289.746094 244.257812 290.378906 244.6875 291.21875 L 257.507812 316.195312 C 258.402344 317.9375 257.710938 320.074219 255.96875 320.964844 C 244.734375 326.71875 232.835938 331.039062 220.617188 333.800781 C 220.347656 333.863281 220.085938 333.890625 219.828125 333.890625"/><path fill="#063251" d="M 254.828125 289.183594 L 265.886719 307.027344 C 273.953125 301.765625 281.460938 295.703125 288.28125 288.957031 L 273.117188 274.425781 C 267.53125 279.910156 261.402344 284.855469 254.828125 289.183594 Z M 264.761719 315.492188 C 263.570312 315.492188 262.410156 314.894531 261.738281 313.808594 L 246.949219 289.945312 C 246.453125 289.140625 246.296875 288.179688 246.511719 287.265625 C 246.730469 286.347656 247.300781 285.558594 248.101562 285.0625 C 256.316406 279.988281 263.847656 273.910156 270.492188 266.996094 C 271.144531 266.316406 272.039062 265.921875 272.984375 265.902344 C 273.929688 265.882812 274.835938 266.238281 275.511719 266.890625 L 295.792969 286.324219 C 296.472656 286.976562 296.867188 287.871094 296.886719 288.808594 C 296.90625 289.75 296.546875 290.660156 295.894531 291.339844 C 287.203125 300.386719 277.355469 308.332031 266.625 314.960938 C 266.042969 315.320312 265.398438 315.492188 264.761719 315.492188"/><path fill="#063251" d="M 75.15625 254.9375 L 87.980469 316.910156 L 101.339844 305.03125 C 102.566406 303.941406 104.378906 303.832031 105.726562 304.769531 C 108.027344 306.363281 110.371094 307.894531 112.726562 309.332031 L 123.257812 291.144531 C 122.484375 290.546875 121.992188 289.648438 121.90625 288.664062 C 121.804688 287.546875 122.242188 286.449219 123.082031 285.703125 L 135.3125 274.828125 Z M 85.746094 327.1875 C 85.375 327.1875 84.996094 327.128906 84.628906 327.007812 C 83.425781 326.605469 82.527344 325.597656 82.269531 324.355469 L 66.957031 250.363281 C 66.699219 249.117188 67.125 247.835938 68.074219 246.996094 C 69.023438 246.152344 70.347656 245.878906 71.550781 246.277344 L 143.382812 270.023438 C 144.589844 270.421875 145.488281 271.429688 145.746094 272.675781 C 146 273.917969 145.578125 275.199219 144.628906 276.039062 L 131.097656 288.066406 C 131.753906 289.140625 131.8125 290.527344 131.140625 291.691406 L 117.078125 315.996094 C 116.097656 317.6875 113.925781 318.265625 112.226562 317.289062 C 109.46875 315.695312 106.707031 313.980469 103.992188 312.167969 L 88.109375 326.289062 C 87.449219 326.878906 86.605469 327.1875 85.746094 327.1875"/><path fill="#063251" d="M 66.578125 111.058594 L 84.617188 121.824219 C 86.480469 118.90625 88.476562 116.058594 90.578125 113.316406 L 74.273438 100.078125 C 71.542969 103.609375 68.96875 107.285156 66.578125 111.058594 Z M 85.796875 130.207031 C 85.160156 130.207031 84.53125 130.035156 83.976562 129.703125 L 59.847656 115.304688 C 59.039062 114.824219 58.457031 114.042969 58.226562 113.128906 C 57.996094 112.214844 58.140625 111.25 58.621094 110.445312 C 62.300781 104.296875 66.453125 98.371094 70.96875 92.824219 C 71.5625 92.09375 72.421875 91.628906 73.359375 91.535156 C 74.296875 91.4375 75.234375 91.71875 75.964844 92.308594 L 97.773438 110.015625 C 99.292969 111.25 99.527344 113.484375 98.289062 115 C 94.835938 119.242188 91.660156 123.777344 88.847656 128.480469 C 88.363281 129.289062 87.578125 129.867188 86.664062 130.097656 C 86.378906 130.167969 86.089844 130.207031 85.796875 130.207031"/><path fill="#063251" d="M 125.441406 58.75 L 135.023438 77.421875 C 142.144531 74.035156 149.550781 71.339844 157.136719 69.386719 L 152.492188 48.921875 C 143.199219 51.273438 134.128906 54.570312 125.441406 58.75 Z M 133.460938 85.695312 C 133.09375 85.695312 132.730469 85.636719 132.371094 85.523438 C 131.476562 85.234375 130.730469 84.605469 130.300781 83.769531 L 117.480469 58.789062 C 116.585938 57.046875 117.277344 54.910156 119.019531 54.019531 C 130.257812 48.265625 142.152344 43.945312 154.375 41.183594 C 156.289062 40.75 158.1875 41.945312 158.621094 43.855469 L 164.832031 71.226562 C 165.042969 72.144531 164.875 73.109375 164.375 73.902344 C 163.871094 74.699219 163.074219 75.261719 162.15625 75.46875 C 152.804688 77.585938 143.695312 80.894531 135.082031 85.304688 C 134.574219 85.5625 134.019531 85.695312 133.460938 85.695312"/><path fill="#063251" d="M 86.707031 86.027344 L 101.867188 100.558594 C 107.457031 95.074219 113.585938 90.128906 120.160156 85.800781 L 109.101562 67.957031 C 101.035156 73.21875 93.523438 79.28125 86.707031 86.027344 Z M 101.933594 109.082031 C 101.015625 109.082031 100.136719 108.726562 99.476562 108.09375 L 79.195312 88.65625 C 77.78125 87.304688 77.734375 85.058594 79.09375 83.644531 C 87.785156 74.601562 97.632812 66.648438 108.363281 60.023438 C 110.03125 58.992188 112.21875 59.507812 113.25 61.175781 L 128.039062 85.042969 C 128.535156 85.839844 128.691406 86.804688 128.476562 87.722656 C 128.261719 88.636719 127.6875 89.425781 126.886719 89.921875 C 118.675781 94.996094 111.140625 101.074219 104.496094 107.988281 C 103.84375 108.667969 102.949219 109.058594 102.007812 109.082031 C 101.980469 109.082031 101.957031 109.082031 101.933594 109.082031"/><g clip-path="url(#b)"><path fill="#063251" d="M 170.960938 45.539062 L 173.902344 66.316406 C 178.371094 65.816406 182.890625 65.5625 187.382812 65.5625 C 190.714844 65.5625 194.074219 65.703125 197.414062 65.976562 L 199.75 45.125 C 195.636719 44.769531 191.488281 44.585938 187.382812 44.585938 C 181.910156 44.585938 176.398438 44.90625 170.960938 45.539062 Z M 170.878906 73.816406 C 170.109375 73.816406 169.359375 73.566406 168.742188 73.101562 C 167.988281 72.535156 167.492188 71.695312 167.359375 70.765625 L 163.425781 42.976562 C 163.292969 42.046875 163.535156 41.101562 164.101562 40.347656 C 164.667969 39.597656 165.507812 39.097656 166.441406 38.96875 C 173.347656 37.992188 180.394531 37.496094 187.382812 37.496094 C 192.933594 37.496094 198.550781 37.808594 204.074219 38.429688 C 205.007812 38.53125 205.867188 39.003906 206.453125 39.738281 C 207.042969 40.472656 207.3125 41.410156 207.210938 42.34375 L 204.082031 70.238281 C 203.980469 71.171875 203.507812 72.027344 202.769531 72.613281 C 202.035156 73.199219 201.097656 73.472656 200.160156 73.367188 C 195.929688 72.894531 191.628906 72.65625 187.382812 72.65625 C 182.039062 72.65625 176.65625 73.035156 171.375 73.78125 C 171.207031 73.804688 171.039062 73.816406 170.878906 73.816406"/></g><path fill="#063251" d="M 214.273438 68.558594 C 221.945312 70.285156 229.441406 72.746094 236.636719 75.898438 L 245.636719 56.9375 C 236.851562 53.042969 227.6875 50.035156 218.300781 47.964844 Z M 238.34375 84.121094 C 237.835938 84.121094 237.320312 84.007812 236.828125 83.777344 C 228.117188 79.65625 218.90625 76.632812 209.441406 74.789062 C 208.515625 74.605469 207.703125 74.070312 207.175781 73.289062 C 206.648438 72.511719 206.457031 71.554688 206.636719 70.628906 L 212.019531 43.082031 C 212.398438 41.160156 214.261719 39.90625 216.183594 40.28125 C 228.527344 42.6875 240.546875 46.632812 251.90625 52.007812 C 252.757812 52.410156 253.410156 53.132812 253.726562 54.019531 C 254.042969 54.90625 253.996094 55.882812 253.59375 56.726562 L 241.558594 82.089844 C 240.949219 83.371094 239.675781 84.121094 238.34375 84.121094"/><path fill="#063251" d="M 239.675781 100.15625 L 299.832031 120.046875 L 287.007812 58.074219 L 273.648438 69.957031 C 272.421875 71.042969 270.609375 71.152344 269.257812 70.21875 C 266.960938 68.621094 264.617188 67.09375 262.257812 65.652344 L 251.734375 83.839844 C 252.5 84.4375 252.996094 85.335938 253.085938 86.320312 C 253.183594 87.4375 252.746094 88.535156 251.910156 89.28125 Z M 304.550781 128.886719 C 304.179688 128.886719 303.800781 128.828125 303.4375 128.707031 L 231.605469 104.957031 C 230.402344 104.5625 229.5 103.550781 229.242188 102.3125 C 228.988281 101.070312 229.414062 99.785156 230.359375 98.945312 L 243.890625 86.914062 C 243.234375 85.839844 243.175781 84.457031 243.84375 83.292969 L 257.910156 58.992188 C 258.382812 58.175781 259.160156 57.585938 260.070312 57.339844 C 260.976562 57.097656 261.945312 57.226562 262.761719 57.699219 C 265.523438 59.289062 268.28125 61.003906 270.996094 62.816406 L 286.882812 48.695312 C 287.828125 47.851562 289.15625 47.578125 290.355469 47.976562 C 291.5625 48.378906 292.464844 49.386719 292.71875 50.625 L 308.03125 124.625 C 308.289062 125.867188 307.863281 127.148438 306.914062 127.988281 C 306.253906 128.578125 305.414062 128.886719 304.550781 128.886719"/></svg>