<svg xmlns="http://www.w3.org/2000/svg" width="375" viewBox="0 0 375 375" height="375" version="1.0"><defs><clipPath id="a"><path d="M 59.90625 59.90625 L 314.90625 59.90625 L 314.90625 314.90625 L 59.90625 314.90625 Z M 59.90625 59.90625"/></clipPath></defs><path fill="#FFF" d="M-37.5 -37.5H412.5V412.5H-37.5z"/><path fill="#26AFD9" d="M-37.5 -37.5H412.5V412.5H-37.5z"/><path fill="#A3E3F3" d="M 261.4375 195.632812 L 277.890625 195.632812 L 277.890625 212.085938 L 261.4375 212.085938 Z M 261.4375 195.632812"/><path fill="#A3E3F3" d="M 96.921875 195.632812 L 113.375 195.632812 L 113.375 212.085938 L 96.921875 212.085938 Z M 96.921875 195.632812"/><path fill="#A3E3F3" d="M 96.921875 96.921875 L 113.375 96.921875 L 113.375 113.375 L 96.921875 113.375 Z M 96.921875 96.921875"/><path fill="#A3E3F3" d="M 150.390625 150.390625 L 187.40625 129.824219 L 224.421875 150.390625 L 187.40625 170.957031 Z M 150.390625 150.390625"/><path fill="#A3E3F3" d="M 150.390625 150.390625 L 150.390625 191.519531 L 187.40625 212.085938 L 187.40625 170.957031 Z M 150.390625 150.390625"/><path fill="#A3E3F3" d="M 224.421875 191.519531 L 224.421875 150.390625 L 187.40625 170.957031 L 187.40625 212.085938 Z M 224.421875 191.519531"/><path fill="#A3E3F3" d="M 261.4375 96.921875 L 277.890625 96.921875 L 277.890625 113.375 L 261.4375 113.375 Z M 261.4375 96.921875"/><g clip-path="url(#a)"><path fill="#063251" d="M 294.34375 59.90625 L 80.472656 59.90625 C 79.796875 59.90625 79.125 59.941406 78.457031 60.003906 C 77.785156 60.070312 77.121094 60.171875 76.460938 60.300781 C 75.796875 60.433594 75.144531 60.597656 74.5 60.792969 C 73.855469 60.988281 73.222656 61.214844 72.601562 61.472656 C 71.980469 61.730469 71.371094 62.015625 70.777344 62.335938 C 70.183594 62.652344 69.605469 63 69.046875 63.371094 C 68.484375 63.746094 67.945312 64.148438 67.425781 64.574219 C 66.90625 65.003906 66.40625 65.453125 65.929688 65.929688 C 65.453125 66.40625 65.003906 66.90625 64.574219 67.425781 C 64.148438 67.945312 63.746094 68.484375 63.371094 69.046875 C 63 69.605469 62.652344 70.183594 62.335938 70.777344 C 62.015625 71.371094 61.730469 71.980469 61.472656 72.601562 C 61.214844 73.222656 60.988281 73.855469 60.792969 74.5 C 60.597656 75.144531 60.433594 75.796875 60.300781 76.460938 C 60.171875 77.121094 60.070312 77.785156 60.003906 78.457031 C 59.941406 79.125 59.90625 79.796875 59.90625 80.472656 L 59.90625 244.988281 C 59.90625 245.660156 59.941406 246.332031 60.003906 247.003906 C 60.070312 247.671875 60.171875 248.339844 60.300781 249 C 60.433594 249.660156 60.597656 250.3125 60.792969 250.957031 C 60.988281 251.601562 61.214844 252.234375 61.472656 252.855469 C 61.730469 253.480469 62.015625 254.085938 62.335938 254.679688 C 62.652344 255.277344 63 255.851562 63.371094 256.414062 C 63.746094 256.972656 64.148438 257.511719 64.574219 258.035156 C 65.003906 258.554688 65.453125 259.050781 65.929688 259.527344 C 66.40625 260.003906 66.90625 260.457031 67.425781 260.882812 C 67.945312 261.3125 68.484375 261.710938 69.046875 262.085938 C 69.605469 262.460938 70.183594 262.804688 70.777344 263.125 C 71.371094 263.441406 71.980469 263.730469 72.601562 263.988281 C 73.222656 264.246094 73.855469 264.472656 74.5 264.667969 C 75.144531 264.863281 75.796875 265.023438 76.460938 265.15625 C 77.121094 265.289062 77.785156 265.386719 78.457031 265.453125 C 79.125 265.519531 79.796875 265.550781 80.472656 265.550781 L 147.839844 265.550781 L 135.5 290.230469 L 125.714844 290.230469 C 125.441406 290.230469 125.175781 290.253906 124.910156 290.308594 C 124.644531 290.359375 124.390625 290.4375 124.140625 290.542969 C 123.890625 290.644531 123.652344 290.773438 123.429688 290.921875 C 123.203125 291.074219 122.996094 291.242188 122.804688 291.433594 C 122.613281 291.625 122.445312 291.832031 122.292969 292.058594 C 122.144531 292.28125 122.015625 292.519531 121.914062 292.769531 C 121.808594 293.019531 121.730469 293.273438 121.679688 293.539062 C 121.625 293.804688 121.601562 294.070312 121.601562 294.34375 L 121.601562 310.792969 C 121.601562 311.0625 121.625 311.332031 121.679688 311.597656 C 121.730469 311.859375 121.808594 312.117188 121.914062 312.367188 C 122.015625 312.617188 122.144531 312.855469 122.292969 313.078125 C 122.445312 313.304688 122.613281 313.511719 122.804688 313.703125 C 122.996094 313.894531 123.203125 314.0625 123.429688 314.214844 C 123.652344 314.363281 123.890625 314.492188 124.140625 314.59375 C 124.390625 314.695312 124.644531 314.773438 124.910156 314.828125 C 125.175781 314.878906 125.441406 314.90625 125.714844 314.90625 L 249.101562 314.90625 C 249.371094 314.90625 249.636719 314.878906 249.902344 314.828125 C 250.167969 314.773438 250.425781 314.695312 250.675781 314.59375 C 250.921875 314.492188 251.160156 314.363281 251.386719 314.214844 C 251.609375 314.0625 251.816406 313.894531 252.007812 313.703125 C 252.199219 313.511719 252.371094 313.304688 252.519531 313.078125 C 252.671875 312.855469 252.796875 312.617188 252.898438 312.367188 C 253.003906 312.117188 253.082031 311.859375 253.132812 311.597656 C 253.1875 311.332031 253.214844 311.0625 253.214844 310.792969 L 253.214844 294.34375 C 253.214844 294.070312 253.1875 293.804688 253.132812 293.539062 C 253.082031 293.273438 253.003906 293.019531 252.898438 292.769531 C 252.796875 292.519531 252.671875 292.28125 252.519531 292.058594 C 252.371094 291.832031 252.199219 291.625 252.007812 291.433594 C 251.816406 291.242188 251.609375 291.074219 251.386719 290.921875 C 251.160156 290.773438 250.921875 290.644531 250.675781 290.542969 C 250.425781 290.4375 250.167969 290.359375 249.902344 290.308594 C 249.636719 290.253906 249.371094 290.230469 249.101562 290.230469 L 239.3125 290.230469 L 226.972656 265.550781 L 294.34375 265.550781 C 295.015625 265.550781 295.6875 265.519531 296.359375 265.453125 C 297.027344 265.386719 297.695312 265.289062 298.355469 265.15625 C 299.015625 265.023438 299.667969 264.863281 300.3125 264.667969 C 300.957031 264.472656 301.589844 264.246094 302.210938 263.988281 C 302.835938 263.730469 303.441406 263.441406 304.035156 263.125 C 304.628906 262.804688 305.207031 262.460938 305.765625 262.085938 C 306.328125 261.710938 306.867188 261.3125 307.386719 260.882812 C 307.910156 260.457031 308.40625 260.003906 308.882812 259.527344 C 309.359375 259.050781 309.8125 258.554688 310.238281 258.035156 C 310.667969 257.511719 311.066406 256.972656 311.441406 256.414062 C 311.816406 255.851562 312.160156 255.277344 312.480469 254.679688 C 312.796875 254.085938 313.082031 253.480469 313.339844 252.855469 C 313.597656 252.234375 313.824219 251.601562 314.019531 250.957031 C 314.214844 250.3125 314.378906 249.660156 314.511719 249 C 314.644531 248.339844 314.742188 247.671875 314.808594 247.003906 C 314.875 246.332031 314.90625 245.660156 314.90625 244.988281 L 314.90625 80.472656 C 314.90625 79.796875 314.875 79.125 314.808594 78.457031 C 314.742188 77.785156 314.644531 77.121094 314.511719 76.460938 C 314.378906 75.796875 314.214844 75.144531 314.019531 74.5 C 313.824219 73.855469 313.597656 73.222656 313.339844 72.601562 C 313.082031 71.980469 312.796875 71.371094 312.480469 70.777344 C 312.160156 70.183594 311.816406 69.605469 311.441406 69.046875 C 311.066406 68.484375 310.667969 67.945312 310.238281 67.425781 C 309.8125 66.90625 309.359375 66.40625 308.882812 65.929688 C 308.40625 65.453125 307.910156 65.003906 307.386719 64.574219 C 306.867188 64.148438 306.328125 63.746094 305.765625 63.371094 C 305.207031 63 304.628906 62.652344 304.035156 62.335938 C 303.441406 62.015625 302.835938 61.730469 302.210938 61.472656 C 301.589844 61.214844 300.957031 60.988281 300.3125 60.792969 C 299.667969 60.597656 299.015625 60.433594 298.355469 60.300781 C 297.695312 60.171875 297.027344 60.070312 296.359375 60.003906 C 295.6875 59.941406 295.015625 59.90625 294.34375 59.90625 Z M 244.988281 306.679688 L 129.824219 306.679688 L 129.824219 298.457031 L 244.988281 298.457031 Z M 230.097656 290.230469 L 144.714844 290.230469 L 157.054688 265.550781 L 217.761719 265.550781 Z M 306.679688 244.988281 C 306.679688 245.796875 306.601562 246.601562 306.445312 247.394531 C 306.285156 248.1875 306.050781 248.960938 305.742188 249.710938 C 305.433594 250.457031 305.050781 251.167969 304.601562 251.84375 C 304.152344 252.515625 303.640625 253.140625 303.066406 253.710938 C 302.496094 254.285156 301.871094 254.796875 301.195312 255.246094 C 300.523438 255.695312 299.8125 256.078125 299.0625 256.386719 C 298.316406 256.695312 297.542969 256.929688 296.75 257.089844 C 295.953125 257.246094 295.152344 257.324219 294.34375 257.324219 L 80.472656 257.324219 C 79.660156 257.324219 78.859375 257.246094 78.0625 257.089844 C 77.269531 256.929688 76.496094 256.695312 75.75 256.386719 C 75 256.078125 74.289062 255.695312 73.617188 255.246094 C 72.941406 254.796875 72.320312 254.285156 71.746094 253.710938 C 71.171875 253.140625 70.664062 252.515625 70.210938 251.84375 C 69.761719 251.167969 69.382812 250.457031 69.070312 249.710938 C 68.761719 248.960938 68.527344 248.1875 68.371094 247.394531 C 68.210938 246.601562 68.132812 245.796875 68.132812 244.988281 L 68.132812 80.472656 C 68.132812 79.660156 68.210938 78.859375 68.371094 78.0625 C 68.527344 77.269531 68.761719 76.496094 69.070312 75.75 C 69.382812 75 69.761719 74.289062 70.210938 73.617188 C 70.664062 72.941406 71.171875 72.320312 71.746094 71.746094 C 72.320312 71.171875 72.941406 70.664062 73.617188 70.210938 C 74.289062 69.761719 75 69.382812 75.75 69.070312 C 76.496094 68.761719 77.269531 68.527344 78.0625 68.371094 C 78.859375 68.210938 79.660156 68.132812 80.472656 68.132812 L 294.34375 68.132812 C 295.152344 68.132812 295.953125 68.210938 296.75 68.371094 C 297.542969 68.527344 298.316406 68.761719 299.0625 69.070312 C 299.8125 69.382812 300.523438 69.761719 301.195312 70.210938 C 301.871094 70.664062 302.496094 71.171875 303.066406 71.746094 C 303.640625 72.320312 304.152344 72.941406 304.601562 73.617188 C 305.050781 74.289062 305.433594 75 305.742188 75.75 C 306.050781 76.496094 306.285156 77.269531 306.445312 78.0625 C 306.601562 78.859375 306.679688 79.660156 306.679688 80.472656 Z M 306.679688 244.988281"/></g><path fill="#063251" d="M 294.34375 76.359375 L 80.472656 76.359375 C 80.203125 76.359375 79.933594 76.382812 79.667969 76.4375 C 79.402344 76.488281 79.148438 76.566406 78.898438 76.671875 C 78.648438 76.773438 78.410156 76.902344 78.1875 77.050781 C 77.960938 77.203125 77.753906 77.371094 77.5625 77.5625 C 77.371094 77.753906 77.203125 77.960938 77.050781 78.1875 C 76.902344 78.410156 76.773438 78.648438 76.671875 78.898438 C 76.566406 79.148438 76.488281 79.402344 76.4375 79.667969 C 76.382812 79.933594 76.359375 80.203125 76.359375 80.472656 L 76.359375 228.535156 C 76.359375 228.804688 76.382812 229.074219 76.4375 229.339844 C 76.488281 229.601562 76.566406 229.859375 76.671875 230.109375 C 76.773438 230.359375 76.902344 230.597656 77.050781 230.820312 C 77.203125 231.046875 77.371094 231.253906 77.5625 231.445312 C 77.753906 231.636719 77.960938 231.804688 78.1875 231.957031 C 78.410156 232.105469 78.648438 232.230469 78.898438 232.335938 C 79.148438 232.4375 79.402344 232.515625 79.667969 232.570312 C 79.933594 232.621094 80.203125 232.648438 80.472656 232.648438 L 294.34375 232.648438 C 294.613281 232.648438 294.878906 232.621094 295.144531 232.570312 C 295.410156 232.515625 295.667969 232.4375 295.917969 232.335938 C 296.164062 232.230469 296.402344 232.105469 296.628906 231.957031 C 296.851562 231.804688 297.058594 231.636719 297.25 231.445312 C 297.441406 231.253906 297.613281 231.046875 297.761719 230.820312 C 297.910156 230.597656 298.039062 230.359375 298.140625 230.109375 C 298.246094 229.859375 298.324219 229.601562 298.375 229.339844 C 298.429688 229.074219 298.457031 228.804688 298.457031 228.535156 L 298.457031 80.472656 C 298.457031 80.203125 298.429688 79.933594 298.375 79.667969 C 298.324219 79.402344 298.246094 79.148438 298.140625 78.898438 C 298.039062 78.648438 297.910156 78.410156 297.761719 78.1875 C 297.613281 77.960938 297.441406 77.753906 297.25 77.5625 C 297.058594 77.371094 296.851562 77.203125 296.628906 77.050781 C 296.402344 76.902344 296.164062 76.773438 295.917969 76.671875 C 295.667969 76.566406 295.410156 76.488281 295.144531 76.4375 C 294.878906 76.382812 294.613281 76.359375 294.34375 76.359375 Z M 290.230469 224.421875 L 84.585938 224.421875 L 84.585938 84.585938 L 290.230469 84.585938 Z M 290.230469 224.421875"/><path fill="#063251" d="M 282.003906 240.875 L 290.230469 240.875 L 290.230469 249.101562 L 282.003906 249.101562 Z M 282.003906 240.875"/><path fill="#063251" d="M 265.550781 240.875 L 273.777344 240.875 L 273.777344 249.101562 L 265.550781 249.101562 Z M 265.550781 240.875"/><path fill="#063251" d="M 228.535156 150.390625 C 228.535156 149.648438 228.347656 148.957031 227.972656 148.316406 C 227.597656 147.679688 227.085938 147.175781 226.4375 146.8125 L 189.421875 126.246094 C 188.785156 125.878906 188.101562 125.695312 187.367188 125.695312 C 186.632812 125.695312 185.945312 125.878906 185.308594 126.246094 L 148.292969 146.8125 C 147.664062 147.1875 147.167969 147.691406 146.808594 148.332031 C 146.445312 148.972656 146.269531 149.65625 146.277344 150.390625 L 146.277344 191.519531 C 146.277344 192.261719 146.46875 192.953125 146.84375 193.59375 C 147.21875 194.234375 147.730469 194.734375 148.375 195.097656 L 185.390625 215.664062 C 186.027344 216.03125 186.714844 216.214844 187.449219 216.214844 C 188.183594 216.214844 188.867188 216.03125 189.503906 215.664062 L 226.519531 195.097656 C 227.152344 194.722656 227.648438 194.21875 228.007812 193.578125 C 228.367188 192.9375 228.542969 192.253906 228.535156 191.519531 Z M 187.40625 134.515625 L 215.949219 150.390625 L 187.40625 166.265625 L 158.863281 150.390625 Z M 154.503906 157.382812 L 183.292969 173.382812 L 183.292969 205.09375 L 154.503906 189.09375 Z M 191.519531 205.09375 L 191.519531 173.382812 L 220.308594 157.382812 L 220.308594 189.09375 Z M 191.519531 205.09375"/><path fill="#063251" d="M 183.292969 106.835938 L 183.292969 121.601562 L 191.519531 121.601562 L 191.519531 106.835938 L 196.824219 112.183594 L 202.664062 106.339844 L 190.328125 94.003906 C 190.136719 93.808594 189.925781 93.636719 189.703125 93.488281 C 189.476562 93.335938 189.238281 93.207031 188.988281 93.101562 C 188.738281 93 188.480469 92.917969 188.214844 92.867188 C 187.945312 92.8125 187.679688 92.785156 187.40625 92.785156 C 187.136719 92.785156 186.867188 92.8125 186.601562 92.867188 C 186.335938 92.917969 186.074219 93 185.824219 93.101562 C 185.574219 93.207031 185.335938 93.335938 185.109375 93.488281 C 184.886719 93.636719 184.679688 93.808594 184.488281 94.003906 L 172.148438 106.339844 L 177.988281 112.183594 Z M 183.292969 106.835938"/><path fill="#063251" d="M 232.648438 170.957031 L 247.414062 170.957031 L 242.066406 176.261719 L 247.90625 182.101562 L 260.246094 169.761719 C 260.4375 169.570312 260.609375 169.363281 260.761719 169.136719 C 260.914062 168.914062 261.042969 168.675781 261.148438 168.425781 C 261.25 168.171875 261.328125 167.914062 261.382812 167.648438 C 261.4375 167.382812 261.460938 167.113281 261.460938 166.84375 C 261.460938 166.570312 261.4375 166.300781 261.382812 166.035156 C 261.328125 165.769531 261.25 165.511719 261.148438 165.261719 C 261.042969 165.011719 260.914062 164.773438 260.761719 164.546875 C 260.609375 164.320312 260.4375 164.113281 260.246094 163.921875 L 247.90625 151.582031 L 242.066406 157.421875 L 247.414062 162.730469 L 232.648438 162.730469 Z M 232.648438 170.957031"/><path fill="#063251" d="M 142.164062 162.730469 L 127.398438 162.730469 L 132.746094 157.421875 L 126.90625 151.582031 L 114.566406 163.921875 C 114.375 164.113281 114.203125 164.320312 114.050781 164.546875 C 113.898438 164.773438 113.769531 165.011719 113.667969 165.261719 C 113.5625 165.511719 113.484375 165.769531 113.429688 166.035156 C 113.378906 166.300781 113.351562 166.570312 113.351562 166.84375 C 113.351562 167.113281 113.378906 167.382812 113.429688 167.648438 C 113.484375 167.914062 113.5625 168.171875 113.667969 168.425781 C 113.769531 168.675781 113.898438 168.914062 114.050781 169.136719 C 114.203125 169.363281 114.375 169.570312 114.566406 169.761719 L 126.90625 182.101562 L 132.746094 176.261719 L 127.398438 170.957031 L 142.164062 170.957031 Z M 142.164062 162.730469"/><path fill="#063251" d="M 96.921875 117.488281 L 101.035156 117.488281 L 101.035156 125.714844 L 109.261719 125.714844 L 109.261719 117.488281 L 113.375 117.488281 C 113.644531 117.488281 113.910156 117.460938 114.175781 117.410156 C 114.441406 117.355469 114.699219 117.277344 114.949219 117.175781 C 115.199219 117.070312 115.433594 116.945312 115.660156 116.792969 C 115.882812 116.644531 116.09375 116.472656 116.28125 116.28125 C 116.472656 116.09375 116.644531 115.882812 116.792969 115.660156 C 116.945312 115.433594 117.070312 115.199219 117.175781 114.949219 C 117.277344 114.699219 117.355469 114.441406 117.410156 114.175781 C 117.460938 113.910156 117.488281 113.644531 117.488281 113.375 L 117.488281 109.261719 L 162.730469 109.261719 L 162.730469 101.035156 L 117.488281 101.035156 L 117.488281 96.921875 C 117.488281 96.652344 117.460938 96.386719 117.410156 96.121094 C 117.355469 95.855469 117.277344 95.597656 117.175781 95.347656 C 117.070312 95.097656 116.945312 94.863281 116.792969 94.636719 C 116.644531 94.414062 116.472656 94.207031 116.28125 94.015625 C 116.09375 93.824219 115.882812 93.652344 115.660156 93.503906 C 115.433594 93.351562 115.199219 93.226562 114.949219 93.125 C 114.699219 93.019531 114.441406 92.941406 114.175781 92.890625 C 113.910156 92.835938 113.644531 92.808594 113.375 92.808594 L 96.921875 92.808594 C 96.652344 92.808594 96.386719 92.835938 96.121094 92.890625 C 95.855469 92.941406 95.597656 93.019531 95.347656 93.125 C 95.097656 93.226562 94.863281 93.351562 94.636719 93.503906 C 94.414062 93.652344 94.207031 93.824219 94.015625 94.015625 C 93.824219 94.207031 93.652344 94.414062 93.503906 94.636719 C 93.351562 94.863281 93.226562 95.097656 93.125 95.347656 C 93.019531 95.597656 92.941406 95.855469 92.890625 96.121094 C 92.835938 96.386719 92.808594 96.652344 92.808594 96.921875 L 92.808594 113.375 C 92.808594 113.644531 92.835938 113.910156 92.890625 114.175781 C 92.941406 114.441406 93.019531 114.699219 93.125 114.949219 C 93.226562 115.199219 93.351562 115.433594 93.503906 115.660156 C 93.652344 115.882812 93.824219 116.09375 94.015625 116.28125 C 94.207031 116.472656 94.414062 116.644531 94.636719 116.792969 C 94.863281 116.945312 95.097656 117.070312 95.347656 117.175781 C 95.597656 117.277344 95.855469 117.355469 96.121094 117.410156 C 96.386719 117.460938 96.652344 117.488281 96.921875 117.488281 Z M 101.035156 101.035156 L 109.261719 101.035156 L 109.261719 109.261719 L 101.035156 109.261719 Z M 101.035156 101.035156"/><path fill="#063251" d="M 96.921875 216.195312 L 113.375 216.195312 C 113.644531 216.195312 113.910156 216.171875 114.175781 216.117188 C 114.441406 216.066406 114.699219 215.988281 114.949219 215.882812 C 115.199219 215.78125 115.433594 215.652344 115.660156 215.503906 C 115.882812 215.355469 116.09375 215.183594 116.28125 214.992188 C 116.472656 214.800781 116.644531 214.59375 116.792969 214.371094 C 116.945312 214.144531 117.070312 213.90625 117.175781 213.65625 C 117.277344 213.410156 117.355469 213.152344 117.410156 212.886719 C 117.460938 212.621094 117.488281 212.355469 117.488281 212.085938 L 117.488281 207.972656 L 146.277344 207.972656 L 146.277344 199.746094 L 117.488281 199.746094 L 117.488281 195.632812 C 117.488281 195.363281 117.460938 195.09375 117.410156 194.832031 C 117.355469 194.566406 117.277344 194.308594 117.175781 194.058594 C 117.070312 193.808594 116.945312 193.570312 116.792969 193.347656 C 116.644531 193.121094 116.472656 192.914062 116.28125 192.722656 C 116.09375 192.535156 115.882812 192.363281 115.660156 192.210938 C 115.433594 192.0625 115.199219 191.9375 114.949219 191.832031 C 114.699219 191.730469 114.441406 191.652344 114.175781 191.597656 C 113.910156 191.546875 113.644531 191.519531 113.375 191.519531 L 109.261719 191.519531 L 109.261719 183.292969 L 101.035156 183.292969 L 101.035156 191.519531 L 96.921875 191.519531 C 96.652344 191.519531 96.386719 191.546875 96.121094 191.597656 C 95.855469 191.652344 95.597656 191.730469 95.347656 191.832031 C 95.097656 191.9375 94.863281 192.0625 94.636719 192.210938 C 94.414062 192.363281 94.207031 192.535156 94.015625 192.722656 C 93.824219 192.914062 93.652344 193.121094 93.503906 193.347656 C 93.351562 193.570312 93.226562 193.808594 93.125 194.058594 C 93.019531 194.308594 92.941406 194.566406 92.890625 194.832031 C 92.835938 195.09375 92.808594 195.363281 92.808594 195.632812 L 92.808594 212.085938 C 92.808594 212.355469 92.835938 212.621094 92.890625 212.886719 C 92.941406 213.152344 93.019531 213.410156 93.125 213.65625 C 93.226562 213.90625 93.351562 214.144531 93.503906 214.371094 C 93.652344 214.59375 93.824219 214.800781 94.015625 214.992188 C 94.207031 215.183594 94.414062 215.355469 94.636719 215.503906 C 94.863281 215.652344 95.097656 215.78125 95.347656 215.882812 C 95.597656 215.988281 95.855469 216.066406 96.121094 216.117188 C 96.386719 216.171875 96.652344 216.195312 96.921875 216.195312 Z M 101.035156 199.746094 L 109.261719 199.746094 L 109.261719 207.972656 L 101.035156 207.972656 Z M 101.035156 199.746094"/><path fill="#063251" d="M 257.324219 113.375 C 257.324219 113.644531 257.351562 113.910156 257.40625 114.175781 C 257.457031 114.441406 257.535156 114.699219 257.640625 114.949219 C 257.742188 115.199219 257.871094 115.433594 258.019531 115.660156 C 258.167969 115.882812 258.339844 116.09375 258.53125 116.28125 C 258.722656 116.472656 258.929688 116.644531 259.152344 116.792969 C 259.378906 116.945312 259.617188 117.070312 259.863281 117.175781 C 260.113281 117.277344 260.371094 117.355469 260.636719 117.410156 C 260.902344 117.460938 261.167969 117.488281 261.4375 117.488281 L 265.550781 117.488281 L 265.550781 125.714844 L 273.777344 125.714844 L 273.777344 117.488281 L 277.890625 117.488281 C 278.160156 117.488281 278.429688 117.460938 278.691406 117.410156 C 278.957031 117.355469 279.214844 117.277344 279.464844 117.175781 C 279.714844 117.070312 279.949219 116.945312 280.175781 116.792969 C 280.398438 116.644531 280.609375 116.472656 280.800781 116.28125 C 280.988281 116.09375 281.160156 115.882812 281.308594 115.660156 C 281.460938 115.433594 281.585938 115.199219 281.691406 114.949219 C 281.792969 114.699219 281.871094 114.441406 281.925781 114.175781 C 281.976562 113.910156 282.003906 113.644531 282.003906 113.375 L 282.003906 96.921875 C 282.003906 96.652344 281.976562 96.386719 281.925781 96.121094 C 281.871094 95.855469 281.792969 95.597656 281.691406 95.347656 C 281.585938 95.097656 281.460938 94.863281 281.308594 94.636719 C 281.160156 94.414062 280.988281 94.207031 280.800781 94.015625 C 280.609375 93.824219 280.398438 93.652344 280.175781 93.503906 C 279.949219 93.351562 279.714844 93.226562 279.464844 93.125 C 279.214844 93.019531 278.957031 92.941406 278.691406 92.890625 C 278.429688 92.835938 278.160156 92.808594 277.890625 92.808594 L 261.4375 92.808594 C 261.167969 92.808594 260.902344 92.835938 260.636719 92.890625 C 260.371094 92.941406 260.113281 93.019531 259.863281 93.125 C 259.617188 93.226562 259.378906 93.351562 259.152344 93.503906 C 258.929688 93.652344 258.722656 93.824219 258.53125 94.015625 C 258.339844 94.207031 258.167969 94.414062 258.019531 94.636719 C 257.871094 94.863281 257.742188 95.097656 257.640625 95.347656 C 257.535156 95.597656 257.457031 95.855469 257.40625 96.121094 C 257.351562 96.386719 257.324219 96.652344 257.324219 96.921875 L 257.324219 101.035156 L 212.085938 101.035156 L 212.085938 109.261719 L 257.324219 109.261719 Z M 265.550781 101.035156 L 273.777344 101.035156 L 273.777344 109.261719 L 265.550781 109.261719 Z M 265.550781 101.035156"/><path fill="#063251" d="M 277.890625 191.519531 L 273.777344 191.519531 L 273.777344 183.292969 L 265.550781 183.292969 L 265.550781 191.519531 L 261.4375 191.519531 C 261.167969 191.519531 260.902344 191.546875 260.636719 191.597656 C 260.371094 191.652344 260.113281 191.730469 259.863281 191.832031 C 259.617188 191.9375 259.378906 192.0625 259.152344 192.210938 C 258.929688 192.363281 258.722656 192.535156 258.53125 192.722656 C 258.339844 192.914062 258.167969 193.121094 258.019531 193.347656 C 257.871094 193.570312 257.742188 193.808594 257.640625 194.058594 C 257.535156 194.308594 257.457031 194.566406 257.40625 194.832031 C 257.351562 195.09375 257.324219 195.363281 257.324219 195.632812 L 257.324219 199.746094 L 228.535156 199.746094 L 228.535156 207.972656 L 257.324219 207.972656 L 257.324219 212.085938 C 257.324219 212.355469 257.351562 212.621094 257.40625 212.886719 C 257.457031 213.152344 257.535156 213.410156 257.640625 213.65625 C 257.742188 213.90625 257.871094 214.144531 258.019531 214.371094 C 258.167969 214.59375 258.339844 214.800781 258.53125 214.992188 C 258.722656 215.183594 258.929688 215.355469 259.152344 215.503906 C 259.378906 215.652344 259.617188 215.78125 259.863281 215.882812 C 260.113281 215.988281 260.371094 216.066406 260.636719 216.117188 C 260.902344 216.171875 261.167969 216.195312 261.4375 216.195312 L 277.890625 216.195312 C 278.160156 216.195312 278.429688 216.171875 278.691406 216.117188 C 278.957031 216.066406 279.214844 215.988281 279.464844 215.882812 C 279.714844 215.78125 279.949219 215.652344 280.175781 215.503906 C 280.398438 215.355469 280.609375 215.183594 280.800781 214.992188 C 280.988281 214.800781 281.160156 214.59375 281.308594 214.371094 C 281.460938 214.144531 281.585938 213.90625 281.691406 213.65625 C 281.792969 213.410156 281.871094 213.152344 281.925781 212.886719 C 281.976562 212.621094 282.003906 212.355469 282.003906 212.085938 L 282.003906 195.632812 C 282.003906 195.363281 281.976562 195.09375 281.925781 194.832031 C 281.871094 194.566406 281.792969 194.308594 281.691406 194.058594 C 281.585938 193.808594 281.460938 193.570312 281.308594 193.347656 C 281.160156 193.121094 280.988281 192.914062 280.800781 192.722656 C 280.609375 192.535156 280.398438 192.363281 280.175781 192.210938 C 279.949219 192.0625 279.714844 191.9375 279.464844 191.832031 C 279.214844 191.730469 278.957031 191.652344 278.691406 191.597656 C 278.429688 191.546875 278.160156 191.519531 277.890625 191.519531 Z M 273.777344 207.972656 L 265.550781 207.972656 L 265.550781 199.746094 L 273.777344 199.746094 Z M 273.777344 207.972656"/><path fill="#063251" d="M 265.550781 133.9375 L 273.777344 133.9375 L 273.777344 142.164062 L 265.550781 142.164062 Z M 265.550781 133.9375"/><path fill="#063251" d="M 265.550781 150.390625 L 273.777344 150.390625 L 273.777344 158.617188 L 265.550781 158.617188 Z M 265.550781 150.390625"/><path fill="#063251" d="M 265.550781 166.84375 L 273.777344 166.84375 L 273.777344 175.066406 L 265.550781 175.066406 Z M 265.550781 166.84375"/><path fill="#063251" d="M 101.035156 133.9375 L 109.261719 133.9375 L 109.261719 142.164062 L 101.035156 142.164062 Z M 101.035156 133.9375"/><path fill="#063251" d="M 101.035156 150.390625 L 109.261719 150.390625 L 109.261719 158.617188 L 101.035156 158.617188 Z M 101.035156 150.390625"/><path fill="#063251" d="M 101.035156 166.84375 L 109.261719 166.84375 L 109.261719 175.066406 L 101.035156 175.066406 Z M 101.035156 166.84375"/></svg>