<?xml version="1.0" encoding="UTF-8"?><svg xmlns="http://www.w3.org/2000/svg" xmlns:xlink="http://www.w3.org/1999/xlink" contentScriptType="text/ecmascript" width="375" zoomAndPan="magnify" contentStyleType="text/css" viewBox="0 0 375 374.999991" height="374.999991" preserveAspectRatio="xMidYMid meet" version="1.0"><defs><clipPath id="clip-0"><path d="M 53.0625 37.5 L 230 37.5 L 230 215 L 53.0625 215 Z M 53.0625 37.5 " clip-rule="nonzero"/></clipPath><clipPath id="clip-1"><path d="M 204 99 L 322.3125 99 L 322.3125 216 L 204 216 Z M 204 99 " clip-rule="nonzero"/></clipPath><clipPath id="clip-2"><path d="M 107 189 L 259 189 L 259 337.5 L 107 337.5 Z M 107 189 " clip-rule="nonzero"/></clipPath><clipPath id="clip-3"><path d="M 219 37.5 L 279 37.5 L 279 100 L 219 100 Z M 219 37.5 " clip-rule="nonzero"/></clipPath></defs><rect x="-37.5" width="450" fill="rgb(100%, 100%, 100%)" y="-37.499999" height="449.999989" fill-opacity="1"/><rect x="-37.5" width="450" fill="rgb(14.898682%, 68.629456%, 85.099792%)" y="-37.499999" height="449.999989" fill-opacity="1"/><g clip-path="url(#clip-0)"><path fill="rgb(3.529358%, 28.62854%, 47.059631%)" d="M 132.898438 155.101562 C 116.890625 150.488281 107.660156 133.789062 112.28125 117.808594 C 116.898438 101.824219 133.621094 92.605469 149.628906 97.21875 C 165.632812 101.832031 174.863281 118.53125 170.242188 134.515625 C 165.621094 150.5 148.902344 159.71875 132.898438 155.101562 Z M 201.984375 157.632812 C 204.023438 153.703125 205.710938 149.519531 206.984375 145.105469 C 208.628906 139.410156 209.5 133.679688 209.65625 128.019531 L 229.496094 120.539062 L 221.277344 87.386719 L 198.902344 89.382812 C 193.417969 80.800781 186.007812 73.417969 177.070312 67.945312 L 180.503906 47.046875 L 147.644531 37.574219 L 138.199219 57.902344 C 127.757812 58.367188 117.679688 61.234375 108.691406 66.097656 L 92.269531 52.667969 L 67.628906 76.347656 L 80.539062 94.6875 C 78.503906 98.621094 76.816406 102.800781 75.539062 107.214844 C 73.894531 112.910156 73.027344 118.640625 72.867188 124.304688 L 53.03125 131.785156 L 61.246094 164.933594 L 83.621094 162.9375 C 89.109375 171.519531 96.515625 178.902344 105.453125 184.378906 L 102.019531 205.277344 L 134.878906 214.746094 L 144.324219 194.417969 C 154.769531 193.953125 164.84375 191.089844 173.832031 186.226562 L 190.253906 199.65625 L 214.898438 175.976562 L 201.984375 157.632812 " fill-opacity="1" fill-rule="nonzero"/></g><g clip-path="url(#clip-1)"><path fill="rgb(7.839966%, 48.629761%, 68.238831%)" d="M 268.730469 176.992188 C 258.09375 179.839844 247.167969 173.539062 244.316406 162.917969 C 241.464844 152.300781 247.777344 141.382812 258.410156 138.539062 C 269.042969 135.691406 279.972656 141.996094 282.824219 152.613281 C 285.671875 163.230469 279.363281 174.148438 268.730469 176.992188 Z M 308.6875 154.875 C 308.496094 151.957031 308.019531 149.011719 307.230469 146.082031 C 306.214844 142.296875 304.75 138.757812 302.902344 135.5 L 311.570312 124.507812 L 295.589844 108.550781 L 283.613281 117.308594 C 277.574219 114.320312 270.859375 112.667969 263.929688 112.621094 L 258.726562 99.625 L 236.902344 105.46875 L 238.503906 120.1875 C 232.753906 124.007812 228.03125 129.066406 224.609375 134.882812 L 210.726562 132.882812 L 204.878906 154.679688 L 218.453125 160.65625 C 218.644531 163.574219 219.121094 166.515625 219.90625 169.453125 C 220.921875 173.230469 222.390625 176.773438 224.238281 180.027344 L 215.570312 191.023438 L 231.546875 206.980469 L 243.527344 198.222656 C 249.566406 201.207031 256.28125 202.863281 263.207031 202.910156 L 268.410156 215.90625 L 290.238281 210.066406 L 288.636719 195.34375 C 294.386719 191.519531 299.105469 186.464844 302.53125 180.648438 L 316.414062 182.648438 L 322.261719 160.851562 L 308.6875 154.875 " fill-opacity="1" fill-rule="nonzero"/></g><g clip-path="url(#clip-2)"><path fill="rgb(63.919067%, 89.019775%, 95.289612%)" d="M 165.652344 281.882812 C 155.382812 272.253906 154.867188 256.132812 164.507812 245.875 C 174.152344 235.617188 190.292969 235.109375 200.566406 244.734375 C 210.839844 254.363281 211.347656 270.484375 201.707031 280.742188 C 192.066406 291 175.925781 291.511719 165.652344 281.882812 Z M 216.691406 310.355469 C 219.746094 308.175781 222.625 305.675781 225.289062 302.84375 C 228.722656 299.191406 231.585938 295.207031 233.886719 291.007812 L 251.707031 293 L 258.304688 264.882812 L 240.6875 257.78125 C 239.867188 249.210938 237.136719 240.804688 232.515625 233.242188 L 243.15625 218.828125 L 222.070312 199.066406 L 207.121094 210.738281 C 199.078125 207.074219 190.386719 205.359375 181.742188 205.5625 L 174.558594 189.136719 L 146.875 197.492188 L 149.523438 216.265625 C 146.476562 218.441406 143.589844 220.945312 140.929688 223.777344 C 137.496094 227.429688 134.628906 231.410156 132.328125 235.613281 L 114.507812 233.617188 L 107.914062 261.734375 L 125.53125 268.839844 C 126.351562 277.40625 129.082031 285.816406 133.699219 293.375 L 123.058594 307.792969 L 144.144531 327.554688 L 159.097656 315.882812 C 167.136719 319.546875 175.828125 321.257812 184.472656 321.054688 L 191.660156 337.480469 L 219.339844 329.128906 L 216.691406 310.355469 " fill-opacity="1" fill-rule="nonzero"/></g><g clip-path="url(#clip-3)"><path fill="rgb(2.349854%, 19.60907%, 31.759644%)" d="M 248.707031 79.082031 C 242.855469 79.082031 238.113281 74.34375 238.113281 68.5 C 238.113281 62.660156 242.855469 57.921875 248.707031 57.921875 C 254.554688 57.921875 259.296875 62.660156 259.296875 68.5 C 259.296875 74.34375 254.554688 79.082031 248.707031 79.082031 Z M 272.261719 73.214844 C 272.566406 71.691406 272.730469 70.113281 272.730469 68.5 C 272.730469 66.417969 272.460938 64.398438 271.964844 62.476562 L 277.929688 58.023438 L 271.925781 47.636719 L 264.570312 50.488281 C 261.882812 48.125 258.660156 46.355469 255.109375 45.375 L 254.230469 37.992188 L 242.21875 37.992188 L 241.015625 45.765625 C 237.539062 46.941406 234.417969 48.886719 231.859375 51.402344 L 225.007812 48.464844 L 219.003906 58.855469 L 225.148438 63.785156 C 224.847656 65.3125 224.683594 66.886719 224.683594 68.5 C 224.683594 70.582031 224.949219 72.601562 225.449219 74.527344 L 219.484375 78.976562 L 225.488281 89.367188 L 232.84375 86.515625 C 235.53125 88.878906 238.75 90.648438 242.304688 91.625 L 243.183594 99.011719 L 255.191406 99.011719 L 256.394531 91.234375 C 259.875 90.058594 262.992188 88.113281 265.554688 85.597656 L 272.402344 88.535156 L 278.40625 78.144531 L 272.261719 73.214844 " fill-opacity="1" fill-rule="nonzero"/></g></svg>