<?xml version="1.0" encoding="UTF-8"?><svg xmlns="http://www.w3.org/2000/svg" xmlns:xlink="http://www.w3.org/1999/xlink" contentScriptType="text/ecmascript" width="375" zoomAndPan="magnify" contentStyleType="text/css" viewBox="0 0 375 374.999991" height="374.999991" preserveAspectRatio="xMidYMid meet" version="1.0"><defs><clipPath id="clip-0"><path d="M 56.265625 127 L 197 127 L 197 309.558594 L 56.265625 309.558594 Z M 56.265625 127 " clip-rule="nonzero"/></clipPath><clipPath id="clip-1"><path d="M 178 127 L 318.765625 127 L 318.765625 309.558594 L 178 309.558594 Z M 178 127 " clip-rule="nonzero"/></clipPath><clipPath id="clip-2"><path d="M 178 127 L 318.765625 127 L 318.765625 309.558594 L 178 309.558594 Z M 178 127 " clip-rule="nonzero"/></clipPath><clipPath id="clip-3"><path d="M 103 65.808594 L 197 65.808594 L 197 309.558594 L 103 309.558594 Z M 103 65.808594 " clip-rule="nonzero"/></clipPath></defs><rect x="-37.5" width="450" fill="rgb(100%, 100%, 100%)" y="-37.499999" height="449.999989" fill-opacity="1"/><rect x="-37.5" width="450" fill="rgb(14.898682%, 68.629456%, 85.099792%)" y="-37.499999" height="449.999989" fill-opacity="1"/><path fill="rgb(100%, 100%, 100%)" d="M 65.808594 304.921875 C 65.207031 304.921875 64.601562 304.808594 64.03125 304.570312 C 62.289062 303.84375 61.15625 302.144531 61.15625 300.261719 L 61.15625 149.808594 C 61.15625 148.574219 61.644531 147.382812 62.519531 146.515625 C 71.800781 137.226562 87.765625 132.515625 109.984375 132.515625 C 146.308594 132.515625 187.152344 144.828125 188.871094 145.355469 C 190.824219 145.945312 192.167969 147.757812 192.167969 149.808594 L 192.167969 300.261719 C 192.167969 301.730469 191.476562 303.128906 190.285156 304 C 189.480469 304.609375 188.5 304.921875 187.515625 304.921875 C 187.0625 304.921875 186.605469 304.847656 186.160156 304.714844 C 185.746094 304.589844 144.902344 292.277344 109.984375 292.277344 C 90.328125 292.277344 76.566406 296.078125 69.097656 303.554688 C 68.210938 304.445312 67.019531 304.921875 65.808594 304.921875 " fill-opacity="1" fill-rule="nonzero"/><g clip-path="url(#clip-0)"><path fill="rgb(3.529358%, 28.62854%, 47.059631%)" d="M 109.984375 127.855469 C 86.480469 127.855469 69.410156 133.023438 59.226562 143.222656 C 57.480469 144.972656 56.503906 147.34375 56.503906 149.808594 L 56.503906 300.261719 C 56.503906 304.03125 58.769531 307.425781 62.246094 308.867188 C 63.398438 309.34375 64.605469 309.582031 65.808594 309.582031 C 68.230469 309.582031 70.609375 308.628906 72.386719 306.847656 C 78.863281 300.363281 91.859375 296.9375 109.984375 296.9375 C 144.261719 296.9375 184.402344 309.054688 184.808594 309.175781 C 185.695312 309.445312 186.605469 309.582031 187.515625 309.582031 C 189.492188 309.582031 191.433594 308.949219 193.058594 307.75 C 195.425781 305.988281 196.820312 303.210938 196.820312 300.261719 L 196.820312 149.808594 C 196.820312 145.707031 194.144531 142.09375 190.226562 140.890625 C 188.476562 140.363281 147.003906 127.855469 109.984375 127.855469 Z M 109.984375 137.175781 C 146.042969 137.175781 187.515625 149.808594 187.515625 149.808594 L 187.515625 300.261719 C 187.515625 300.261719 146.042969 287.617188 109.984375 287.617188 C 91.953125 287.617188 75.273438 290.777344 65.808594 300.261719 L 65.808594 149.808594 C 75.273438 140.332031 91.953125 137.175781 109.984375 137.175781 " fill-opacity="1" fill-rule="nonzero"/></g><path fill="rgb(100%, 100%, 100%)" d="M 309.21875 304.921875 C 308.011719 304.921875 306.820312 304.445312 305.929688 303.554688 C 298.464844 296.078125 284.714844 292.277344 265.058594 292.277344 C 230.085938 292.277344 189.273438 304.589844 188.871094 304.714844 C 188.425781 304.847656 187.972656 304.921875 187.515625 304.921875 C 186.535156 304.921875 185.5625 304.609375 184.746094 304 C 183.554688 303.128906 182.863281 301.730469 182.863281 300.261719 L 182.863281 149.808594 C 182.863281 147.757812 184.195312 145.945312 186.160156 145.355469 C 187.878906 144.828125 228.722656 132.515625 265.058594 132.515625 C 287.265625 132.515625 303.234375 137.226562 312.507812 146.515625 C 313.386719 147.382812 313.871094 148.574219 313.871094 149.808594 L 313.871094 300.261719 C 313.871094 302.144531 312.746094 303.84375 311 304.570312 C 310.429688 304.808594 309.820312 304.921875 309.21875 304.921875 " fill-opacity="1" fill-rule="nonzero"/><g clip-path="url(#clip-1)"><path fill="rgb(3.529358%, 28.62854%, 47.059631%)" d="M 265.058594 127.855469 L 265.058594 137.175781 L 265.058594 127.855469 C 228.039062 127.855469 186.554688 140.363281 184.808594 140.890625 C 180.886719 142.09375 178.210938 145.707031 178.210938 149.808594 L 178.210938 300.261719 C 178.210938 303.210938 179.605469 305.988281 181.972656 307.75 C 183.597656 308.949219 185.550781 309.582031 187.515625 309.582031 C 188.425781 309.582031 189.335938 309.445312 190.226562 309.175781 C 190.628906 309.054688 230.839844 296.9375 265.058594 296.9375 C 283.171875 296.9375 296.171875 300.363281 302.644531 306.847656 C 304.421875 308.628906 306.800781 309.582031 309.21875 309.582031 C 310.417969 309.582031 311.628906 309.34375 312.785156 308.867188 C 316.261719 307.425781 318.527344 304.03125 318.527344 300.261719 L 318.527344 149.808594 C 318.527344 147.34375 317.554688 144.972656 315.804688 143.222656 C 305.621094 133.023438 288.550781 127.855469 265.058594 127.855469 Z M 265.058594 137.175781 C 283.078125 137.175781 299.757812 140.332031 309.21875 149.808594 L 309.21875 300.261719 C 299.757812 290.777344 283.078125 287.617188 265.058594 287.617188 C 228.992188 287.617188 187.515625 300.261719 187.515625 300.261719 L 187.515625 149.808594 C 187.515625 149.808594 228.992188 137.175781 265.058594 137.175781 " fill-opacity="1" fill-rule="nonzero"/></g><path fill="rgb(100%, 100%, 100%)" d="M 309.21875 304.921875 C 308.011719 304.921875 306.820312 304.445312 305.929688 303.554688 C 298.464844 296.078125 284.714844 292.277344 265.058594 292.277344 C 230.085938 292.277344 189.273438 304.589844 188.871094 304.714844 C 188.425781 304.847656 187.972656 304.921875 187.515625 304.921875 C 186.535156 304.921875 185.5625 304.609375 184.746094 304 C 183.554688 303.128906 182.863281 301.730469 182.863281 300.261719 L 182.863281 149.808594 C 182.863281 147.757812 184.195312 145.945312 186.160156 145.355469 C 187.878906 144.828125 228.722656 132.515625 265.058594 132.515625 C 287.265625 132.515625 303.234375 137.226562 312.507812 146.515625 C 313.386719 147.382812 313.871094 148.574219 313.871094 149.808594 L 313.871094 300.261719 C 313.871094 302.144531 312.746094 303.84375 311 304.570312 C 310.429688 304.808594 309.820312 304.921875 309.21875 304.921875 " fill-opacity="1" fill-rule="nonzero"/><g clip-path="url(#clip-2)"><path fill="rgb(3.529358%, 28.62854%, 47.059631%)" d="M 265.058594 127.855469 L 265.058594 137.175781 L 265.058594 127.855469 C 228.039062 127.855469 186.554688 140.363281 184.808594 140.890625 C 180.886719 142.09375 178.210938 145.707031 178.210938 149.808594 L 178.210938 300.261719 C 178.210938 303.210938 179.605469 305.988281 181.972656 307.75 C 183.597656 308.949219 185.550781 309.582031 187.515625 309.582031 C 188.425781 309.582031 189.335938 309.445312 190.226562 309.175781 C 190.628906 309.054688 230.839844 296.9375 265.058594 296.9375 C 283.171875 296.9375 296.171875 300.363281 302.644531 306.847656 C 304.421875 308.628906 306.800781 309.582031 309.21875 309.582031 C 310.417969 309.582031 311.628906 309.34375 312.785156 308.867188 C 316.261719 307.425781 318.527344 304.03125 318.527344 300.261719 L 318.527344 149.808594 C 318.527344 147.34375 317.554688 144.972656 315.804688 143.222656 C 305.621094 133.023438 288.550781 127.855469 265.058594 127.855469 Z M 265.058594 137.175781 C 283.078125 137.175781 299.757812 140.332031 309.21875 149.808594 L 309.21875 300.261719 C 299.757812 290.777344 283.078125 287.617188 265.058594 287.617188 C 228.992188 287.617188 187.515625 300.261719 187.515625 300.261719 L 187.515625 149.808594 C 187.515625 149.808594 228.992188 137.175781 265.058594 137.175781 " fill-opacity="1" fill-rule="nonzero"/></g><path fill="rgb(100%, 100%, 100%)" d="M 210.347656 187.683594 C 210.347656 187.683594 268.65625 169.917969 286.398438 187.683594 " fill-opacity="1" fill-rule="nonzero"/><path fill="rgb(3.529358%, 28.62854%, 47.059631%)" d="M 211.703125 192.136719 L 211.710938 192.136719 C 212.011719 192.042969 218.464844 190.109375 227.511719 188.203125 C 236.558594 186.296875 248.234375 184.445312 258.789062 184.445312 C 264.148438 184.445312 269.222656 184.929688 273.433594 186.027344 C 275.542969 186.566406 277.421875 187.269531 279.046875 188.097656 C 280.671875 188.925781 282.015625 189.890625 283.101562 190.976562 C 284.921875 192.800781 287.867188 192.800781 289.6875 190.976562 C 291.496094 189.15625 291.496094 186.214844 289.6875 184.390625 C 287.816406 182.519531 285.644531 181.007812 283.296875 179.804688 C 279.769531 178.003906 275.839844 176.855469 271.714844 176.140625 C 267.578125 175.414062 263.226562 175.125 258.789062 175.125 C 246.992188 175.136719 234.644531 177.164062 225.152344 179.171875 C 215.671875 181.191406 209.085938 183.203125 208.992188 183.222656 C 206.53125 183.976562 205.144531 186.578125 205.902344 189.042969 C 206.644531 191.507812 209.242188 192.894531 211.703125 192.136719 " fill-opacity="1" fill-rule="nonzero"/><path fill="rgb(100%, 100%, 100%)" d="M 210.347656 217.246094 C 210.347656 217.246094 268.65625 199.480469 286.398438 217.246094 " fill-opacity="1" fill-rule="nonzero"/><path fill="rgb(3.529358%, 28.62854%, 47.059631%)" d="M 211.703125 221.710938 L 211.710938 221.699219 C 212.011719 221.605469 218.464844 219.671875 227.511719 217.765625 C 236.558594 215.859375 248.234375 214.007812 258.789062 214.015625 C 264.148438 214.007812 269.222656 214.492188 273.433594 215.589844 C 275.542969 216.140625 277.421875 216.832031 279.046875 217.660156 C 280.671875 218.5 282.015625 219.464844 283.101562 220.539062 C 284.921875 222.363281 287.867188 222.363281 289.6875 220.550781 C 291.496094 218.730469 291.496094 215.777344 289.6875 213.953125 C 287.816406 212.082031 285.644531 210.570312 283.296875 209.367188 C 279.769531 207.566406 275.839844 206.417969 271.714844 205.703125 C 267.578125 204.976562 263.226562 204.699219 258.789062 204.699219 C 246.992188 204.699219 234.644531 206.738281 225.152344 208.746094 C 215.671875 210.753906 209.085938 212.765625 208.992188 212.796875 C 206.53125 213.539062 205.144531 216.148438 205.902344 218.605469 C 206.644531 221.070312 209.242188 222.457031 211.703125 221.710938 " fill-opacity="1" fill-rule="nonzero"/><path fill="rgb(100%, 100%, 100%)" d="M 210.347656 246.8125 C 210.347656 246.8125 268.65625 229.042969 286.398438 246.8125 " fill-opacity="1" fill-rule="nonzero"/><path fill="rgb(3.529358%, 28.62854%, 47.059631%)" d="M 211.703125 251.273438 L 211.710938 251.261719 C 212.011719 251.167969 218.464844 249.234375 227.511719 247.328125 C 236.558594 245.421875 248.234375 243.570312 258.789062 243.570312 C 264.15625 243.570312 269.222656 244.054688 273.433594 245.152344 C 275.542969 245.703125 277.421875 246.394531 279.046875 247.226562 C 280.671875 248.0625 282.015625 249.015625 283.101562 250.101562 C 284.921875 251.925781 287.867188 251.925781 289.6875 250.101562 C 291.496094 248.28125 291.496094 245.339844 289.6875 243.519531 C 287.816406 241.644531 285.644531 240.132812 283.296875 238.929688 C 279.761719 237.128906 275.839844 235.980469 271.714844 235.265625 C 267.578125 234.550781 263.226562 234.25 258.789062 234.25 C 246.992188 234.261719 234.644531 236.300781 225.152344 238.300781 C 215.671875 240.316406 209.085938 242.328125 208.992188 242.347656 C 206.53125 243.105469 205.144531 245.703125 205.902344 248.167969 C 206.644531 250.632812 209.242188 252.019531 211.703125 251.273438 " fill-opacity="1" fill-rule="nonzero"/><path fill="rgb(100%, 100%, 100%)" d="M 187.515625 304.921875 C 186.304688 304.921875 185.117188 304.445312 184.226562 303.554688 L 109.570312 228.855469 C 108.703125 227.984375 108.207031 226.804688 108.207031 225.5625 L 108.207031 75.109375 C 108.207031 73.222656 109.34375 71.527344 111.082031 70.808594 C 111.648438 70.570312 112.261719 70.453125 112.859375 70.453125 C 114.070312 70.453125 115.257812 70.925781 116.148438 71.816406 L 190.804688 146.515625 C 191.671875 147.382812 192.167969 148.574219 192.167969 149.808594 L 192.167969 300.261719 C 192.167969 302.144531 191.03125 303.84375 189.292969 304.570312 C 188.726562 304.808594 188.117188 304.921875 187.515625 304.921875 " fill-opacity="1" fill-rule="nonzero"/><g clip-path="url(#clip-3)"><path fill="rgb(3.529358%, 28.62854%, 47.059631%)" d="M 112.859375 65.792969 C 111.660156 65.792969 110.449219 66.023438 109.292969 66.5 C 105.816406 67.945312 103.554688 71.339844 103.554688 75.109375 L 103.554688 225.5625 C 103.554688 228.039062 104.535156 230.410156 106.285156 232.160156 L 180.941406 306.847656 C 182.71875 308.628906 185.097656 309.582031 187.515625 309.582031 C 188.714844 309.582031 189.925781 309.34375 191.082031 308.867188 C 194.558594 307.425781 196.820312 304.03125 196.820312 300.261719 L 196.820312 149.808594 C 196.820312 147.34375 195.839844 144.960938 194.09375 143.222656 L 119.4375 68.519531 C 117.65625 66.738281 115.28125 65.792969 112.859375 65.792969 Z M 112.859375 75.109375 L 187.515625 149.808594 L 187.515625 300.261719 L 112.859375 225.5625 L 112.859375 75.109375 " fill-opacity="1" fill-rule="nonzero"/></g><path fill="rgb(3.529358%, 28.62854%, 47.059631%)" d="M 122.011719 124.75 L 122.011719 187.683594 C 122.011719 190.261719 124.089844 192.34375 126.664062 192.34375 C 129.226562 192.34375 131.316406 190.261719 131.316406 187.683594 L 131.316406 124.75 C 131.316406 122.179688 129.226562 120.089844 126.664062 120.089844 C 124.089844 120.089844 122.011719 122.179688 122.011719 124.75 " fill-opacity="1" fill-rule="nonzero"/><path fill="rgb(3.529358%, 28.62854%, 47.059631%)" d="M 74.714844 183.449219 L 74.714844 246.386719 C 74.714844 248.953125 76.804688 251.046875 79.367188 251.046875 C 81.941406 251.046875 84.019531 248.953125 84.019531 246.386719 L 84.019531 183.449219 C 84.019531 180.871094 81.941406 178.789062 79.367188 178.789062 C 76.804688 178.789062 74.714844 180.871094 74.714844 183.449219 " fill-opacity="1" fill-rule="nonzero"/></svg>