<?xml version="1.0" encoding="UTF-8"?><svg xmlns="http://www.w3.org/2000/svg" xmlns:xlink="http://www.w3.org/1999/xlink" contentScriptType="text/ecmascript" width="375" zoomAndPan="magnify" contentStyleType="text/css" viewBox="0 0 375 374.999991" height="374.999991" preserveAspectRatio="xMidYMid meet" version="1.0"><defs><clipPath id="clip-0"><path d="M 65.566406 58.8125 L 242 58.8125 L 242 316.0625 L 65.566406 316.0625 Z M 65.566406 58.8125 " clip-rule="nonzero"/></clipPath><clipPath id="clip-1"><path d="M 187 65 L 309.316406 65 L 309.316406 310 L 187 310 Z M 187 65 " clip-rule="nonzero"/></clipPath></defs><rect x="-37.5" width="450" fill="rgb(100%, 100%, 100%)" y="-37.499999" height="449.999989" fill-opacity="1"/><rect x="-37.5" width="450" fill="rgb(100%, 100%, 100%)" y="-37.499999" height="449.999989" fill-opacity="1"/><rect x="-37.5" width="450" fill="rgb(14.898682%, 68.629456%, 85.099792%)" y="-37.499999" height="449.999989" fill-opacity="1"/><path fill="rgb(3.529358%, 48.239136%, 67.83905%)" d="M 140.054688 163.742188 C 139.277344 163.742188 138.503906 163.78125 137.730469 163.855469 C 136.957031 163.933594 136.191406 164.046875 135.429688 164.199219 C 134.667969 164.347656 133.917969 164.539062 133.175781 164.761719 C 132.433594 164.988281 131.703125 165.25 130.984375 165.546875 C 130.269531 165.84375 129.566406 166.175781 128.882812 166.539062 C 128.199219 166.90625 127.535156 167.304688 126.890625 167.734375 C 126.242188 168.167969 125.621094 168.628906 125.019531 169.121094 C 124.421875 169.613281 123.847656 170.132812 123.296875 170.683594 C 122.75 171.230469 122.230469 171.804688 121.738281 172.40625 C 121.246094 173.003906 120.78125 173.628906 120.351562 174.273438 C 119.921875 174.917969 119.523438 175.582031 119.15625 176.265625 C 118.789062 176.953125 118.460938 177.652344 118.164062 178.367188 C 117.863281 179.085938 117.605469 179.816406 117.378906 180.558594 C 117.152344 181.300781 116.964844 182.050781 116.8125 182.8125 C 116.664062 183.574219 116.546875 184.339844 116.472656 185.113281 C 116.398438 185.886719 116.359375 186.660156 116.359375 187.4375 C 116.359375 188.210938 116.398438 188.988281 116.472656 189.757812 C 116.546875 190.53125 116.664062 191.296875 116.8125 192.058594 C 116.964844 192.820312 117.152344 193.570312 117.378906 194.3125 C 117.605469 195.058594 117.863281 195.785156 118.164062 196.503906 C 118.460938 197.21875 118.789062 197.921875 119.15625 198.605469 C 119.523438 199.289062 119.921875 199.953125 120.351562 200.601562 C 120.78125 201.246094 121.246094 201.867188 121.738281 202.46875 C 122.230469 203.066406 122.75 203.640625 123.296875 204.191406 C 123.847656 204.738281 124.421875 205.257812 125.019531 205.753906 C 125.621094 206.246094 126.242188 206.707031 126.890625 207.136719 C 127.535156 207.566406 128.199219 207.964844 128.882812 208.332031 C 129.566406 208.699219 130.269531 209.03125 130.984375 209.328125 C 131.703125 209.625 132.433594 209.882812 133.175781 210.109375 C 133.917969 210.335938 134.667969 210.523438 135.429688 210.675781 C 136.191406 210.828125 136.957031 210.941406 137.730469 211.015625 C 138.503906 211.09375 139.277344 211.128906 140.054688 211.128906 C 140.828125 211.128906 141.601562 211.09375 142.375 211.015625 C 143.148438 210.941406 143.914062 210.828125 144.675781 210.675781 C 145.4375 210.523438 146.1875 210.335938 146.929688 210.109375 C 147.675781 209.882812 148.402344 209.625 149.121094 209.328125 C 149.835938 209.03125 150.539062 208.699219 151.222656 208.332031 C 151.90625 207.964844 152.570312 207.566406 153.21875 207.136719 C 153.863281 206.707031 154.484375 206.246094 155.085938 205.753906 C 155.683594 205.257812 156.257812 204.738281 156.808594 204.191406 C 157.355469 203.640625 157.878906 203.066406 158.371094 202.46875 C 158.863281 201.867188 159.324219 201.246094 159.753906 200.601562 C 160.1875 199.953125 160.585938 199.289062 160.949219 198.605469 C 161.316406 197.921875 161.648438 197.21875 161.945312 196.503906 C 162.242188 195.785156 162.503906 195.058594 162.726562 194.3125 C 162.953125 193.570312 163.140625 192.820312 163.292969 192.058594 C 163.445312 191.296875 163.558594 190.53125 163.632812 189.757812 C 163.710938 188.988281 163.746094 188.210938 163.746094 187.4375 C 163.746094 186.660156 163.710938 185.886719 163.632812 185.113281 C 163.558594 184.339844 163.445312 183.574219 163.292969 182.8125 C 163.140625 182.050781 162.953125 181.300781 162.726562 180.558594 C 162.503906 179.816406 162.242188 179.085938 161.945312 178.367188 C 161.648438 177.652344 161.316406 176.953125 160.949219 176.265625 C 160.585938 175.582031 160.1875 174.917969 159.753906 174.273438 C 159.324219 173.628906 158.863281 173.003906 158.371094 172.40625 C 157.878906 171.804688 157.355469 171.230469 156.808594 170.683594 C 156.257812 170.132812 155.683594 169.613281 155.085938 169.121094 C 154.484375 168.628906 153.863281 168.167969 153.21875 167.734375 C 152.570312 167.304688 151.90625 166.90625 151.222656 166.539062 C 150.539062 166.175781 149.835938 165.84375 149.121094 165.546875 C 148.402344 165.25 147.675781 164.988281 146.929688 164.761719 C 146.1875 164.539062 145.4375 164.347656 144.675781 164.199219 C 143.914062 164.046875 143.148438 163.933594 142.375 163.855469 C 141.601562 163.78125 140.828125 163.742188 140.054688 163.742188 Z M 140.054688 163.742188 " fill-opacity="1" fill-rule="nonzero"/><path fill="rgb(3.529358%, 28.62854%, 47.059631%)" d="M 140.054688 167.128906 C 151.25 167.128906 160.363281 176.238281 160.363281 187.4375 C 160.363281 198.632812 151.25 207.746094 140.054688 207.746094 C 128.855469 207.746094 119.742188 198.632812 119.742188 187.4375 C 119.742188 176.238281 128.855469 167.128906 140.054688 167.128906 M 140.054688 160.355469 C 125.097656 160.355469 112.972656 172.480469 112.972656 187.4375 C 112.972656 202.390625 125.097656 214.515625 140.054688 214.515625 C 155.007812 214.515625 167.132812 202.390625 167.132812 187.4375 C 167.132812 172.480469 155.007812 160.355469 140.054688 160.355469 Z M 140.054688 160.355469 " fill-opacity="1" fill-rule="nonzero"/><path fill="rgb(100%, 100%, 100%)" d="M 68.96875 312.675781 L 68.96875 62.195312 L 112.972656 62.195312 C 126.039062 62.195312 136.667969 72.824219 136.667969 85.890625 L 136.667969 288.980469 C 136.667969 302.046875 126.039062 312.675781 112.972656 312.675781 Z M 68.96875 312.675781 " fill-opacity="1" fill-rule="nonzero"/><g clip-path="url(#clip-0)"><path fill="rgb(3.529358%, 28.62854%, 47.059631%)" d="M 112.972656 65.582031 C 124.171875 65.582031 133.285156 74.691406 133.285156 85.890625 L 133.285156 288.980469 C 133.285156 300.179688 124.171875 309.292969 112.972656 309.292969 L 72.355469 309.292969 L 72.355469 65.582031 L 112.972656 65.582031 M 112.972656 58.8125 L 65.585938 58.8125 L 65.585938 316.0625 L 112.972656 316.0625 C 127.929688 316.0625 140.054688 303.9375 140.054688 288.980469 L 140.054688 85.890625 C 140.054688 70.9375 127.929688 58.8125 112.972656 58.8125 Z M 187.441406 140.582031 C 187.441406 143.925781 189.894531 146.757812 193.203125 147.222656 C 212.882812 150.035156 228.0625 166.992188 228.0625 187.4375 C 228.0625 207.878906 212.882812 224.839844 193.203125 227.648438 C 189.894531 228.121094 187.441406 230.945312 187.441406 234.289062 C 187.441406 238.390625 191.078125 241.628906 195.140625 241.050781 C 221.40625 237.316406 241.601562 214.730469 241.601562 187.4375 C 241.601562 160.140625 221.40625 137.558594 195.140625 133.820312 C 191.078125 133.246094 187.441406 136.480469 187.441406 140.582031 Z M 187.441406 140.582031 " fill-opacity="1" fill-rule="nonzero"/></g><path fill="rgb(3.529358%, 48.239136%, 67.83905%)" d="M 187.441406 106.511719 C 187.441406 109.984375 190.070312 112.933594 193.535156 113.21875 C 231.757812 116.328125 261.910156 148.421875 261.910156 187.4375 C 261.910156 226.449219 231.757812 258.546875 193.535156 261.660156 C 190.074219 261.945312 187.441406 264.894531 187.441406 268.367188 C 187.441406 272.375 190.910156 275.46875 194.902344 275.136719 C 240.015625 271.347656 275.449219 233.53125 275.449219 187.4375 C 275.449219 141.347656 240.015625 103.523438 194.902344 99.742188 C 190.910156 99.410156 187.441406 102.503906 187.441406 106.511719 Z M 187.441406 106.511719 " fill-opacity="1" fill-rule="nonzero"/><g clip-path="url(#clip-1)"><path fill="rgb(63.919067%, 89.019775%, 95.289612%)" d="M 187.441406 72.371094 L 187.441406 72.761719 C 187.441406 76.304688 190.265625 79.101562 193.800781 79.304688 C 250.578125 82.605469 295.761719 129.847656 295.761719 187.4375 C 295.761719 245.027344 250.578125 292.265625 193.800781 295.570312 C 190.265625 295.773438 187.441406 298.566406 187.441406 302.109375 L 187.441406 302.5 C 187.441406 306.21875 190.523438 309.3125 194.234375 309.109375 C 258.378906 305.582031 309.300781 252.460938 309.300781 187.4375 C 309.300781 122.414062 258.378906 69.289062 194.234375 65.765625 C 190.523438 65.5625 187.441406 68.65625 187.441406 72.371094 Z M 187.441406 72.371094 " fill-opacity="1" fill-rule="nonzero"/></g></svg>