<?xml version="1.0" encoding="UTF-8"?><svg xmlns="http://www.w3.org/2000/svg" xmlns:xlink="http://www.w3.org/1999/xlink" contentScriptType="text/ecmascript" width="375" zoomAndPan="magnify" contentStyleType="text/css" viewBox="0 0 375 374.999991" height="374.999991" preserveAspectRatio="xMidYMid meet" version="1.0"><defs><clipPath id="clip-0"><path d="M 60 215 L 165 215 L 165 337.5 L 60 337.5 Z M 60 215 " clip-rule="nonzero"/></clipPath><clipPath id="clip-1"><path d="M 210 215 L 315.5625 215 L 315.5625 337.5 L 210 337.5 Z M 210 215 " clip-rule="nonzero"/></clipPath></defs><rect x="-37.5" width="450" fill="rgb(100%, 100%, 100%)" y="-37.499999" height="449.999989" fill-opacity="1"/><rect x="-37.5" width="450" fill="rgb(14.898682%, 68.629456%, 85.099792%)" y="-37.499999" height="449.999989" fill-opacity="1"/><path fill="rgb(63.919067%, 89.019775%, 95.289612%)" d="M 289.601562 149.109375 C 289.601562 150.773438 289.5625 152.4375 289.480469 154.101562 C 289.402344 155.765625 289.277344 157.421875 289.117188 159.082031 C 288.953125 160.738281 288.75 162.390625 288.507812 164.035156 C 288.261719 165.683594 287.976562 167.320312 287.652344 168.953125 C 287.328125 170.585938 286.964844 172.210938 286.558594 173.828125 C 286.15625 175.441406 285.710938 177.046875 285.230469 178.636719 C 284.746094 180.230469 284.222656 181.8125 283.664062 183.378906 C 283.101562 184.945312 282.503906 186.5 281.863281 188.039062 C 281.226562 189.574219 280.550781 191.097656 279.839844 192.601562 C 279.128906 194.109375 278.378906 195.59375 277.59375 197.0625 C 276.808594 198.53125 275.988281 199.980469 275.132812 201.40625 C 274.273438 202.835938 273.382812 204.242188 272.457031 205.625 C 271.53125 207.011719 270.574219 208.371094 269.578125 209.707031 C 268.585938 211.046875 267.5625 212.359375 266.503906 213.644531 C 265.449219 214.933594 264.359375 216.191406 263.242188 217.425781 C 262.121094 218.660156 260.972656 219.867188 259.792969 221.042969 C 258.613281 222.21875 257.410156 223.367188 256.171875 224.484375 C 254.9375 225.605469 253.675781 226.691406 252.386719 227.746094 C 251.101562 228.804688 249.785156 229.828125 248.449219 230.820312 C 247.109375 231.8125 245.746094 232.769531 244.359375 233.695312 C 242.972656 234.621094 241.566406 235.511719 240.136719 236.367188 C 238.707031 237.222656 237.257812 238.042969 235.789062 238.828125 C 234.316406 239.613281 232.828125 240.363281 231.320312 241.074219 C 229.816406 241.785156 228.292969 242.460938 226.75 243.097656 C 225.210938 243.734375 223.65625 244.332031 222.085938 244.894531 C 220.515625 245.457031 218.933594 245.976562 217.339844 246.460938 C 215.746094 246.945312 214.136719 247.390625 212.519531 247.792969 C 210.902344 248.199219 209.277344 248.5625 207.644531 248.886719 C 206.007812 249.210938 204.367188 249.496094 202.714844 249.742188 C 201.066406 249.984375 199.414062 250.1875 197.753906 250.351562 C 196.09375 250.515625 194.433594 250.636719 192.769531 250.71875 C 191.101562 250.800781 189.4375 250.84375 187.769531 250.84375 C 178.894531 250.84375 170.167969 249.710938 161.585938 247.449219 C 160.066406 247.046875 158.554688 246.605469 157.050781 246.132812 C 155.550781 245.65625 154.058594 245.148438 152.582031 244.601562 C 151.105469 244.058594 149.640625 243.480469 148.1875 242.871094 C 146.738281 242.257812 145.300781 241.613281 143.878906 240.9375 C 142.457031 240.257812 141.054688 239.546875 139.664062 238.804688 C 138.277344 238.0625 136.90625 237.285156 135.554688 236.480469 C 134.203125 235.671875 132.867188 234.835938 131.554688 233.964844 C 130.242188 233.097656 128.949219 232.199219 127.679688 231.273438 C 126.40625 230.34375 125.15625 229.386719 123.929688 228.398438 C 122.703125 227.414062 121.5 226.398438 120.320312 225.359375 C 119.140625 224.316406 117.984375 223.246094 116.851562 222.152344 C 115.722656 221.058594 114.617188 219.9375 113.539062 218.789062 C 112.460938 217.644531 111.410156 216.472656 110.386719 215.277344 C 109.363281 214.082031 108.367188 212.863281 107.398438 211.621094 C 106.433594 210.382812 105.492188 209.117188 104.585938 207.832031 C 103.675781 206.546875 102.796875 205.242188 101.949219 203.917969 C 101.101562 202.59375 100.285156 201.25 99.5 199.886719 C 98.714844 198.523438 97.960938 197.140625 97.238281 195.742188 C 96.515625 194.34375 95.828125 192.929688 95.171875 191.5 C 94.515625 190.070312 93.894531 188.625 93.304688 187.167969 C 92.71875 185.707031 92.164062 184.234375 91.640625 182.75 C 91.121094 181.265625 90.636719 179.769531 90.183594 178.265625 C 89.734375 176.757812 89.320312 175.242188 88.9375 173.714844 C 88.558594 172.1875 88.214844 170.652344 87.902344 169.109375 C 87.59375 167.570312 87.320312 166.019531 87.085938 164.464844 C 86.847656 162.910156 86.644531 161.351562 86.480469 159.785156 C 86.316406 158.222656 86.1875 156.65625 86.097656 155.085938 C 86.003906 153.515625 85.949219 151.941406 85.929688 150.371094 C 85.910156 148.796875 85.929688 147.226562 85.980469 145.652344 C 86.035156 144.082031 86.125 142.511719 86.253906 140.945312 C 86.378906 139.375 86.542969 137.8125 86.742188 136.253906 C 86.941406 134.691406 87.179688 133.136719 87.449219 131.585938 C 87.722656 130.039062 88.03125 128.496094 88.375 126.960938 C 88.71875 125.425781 89.097656 123.898438 89.511719 122.382812 C 89.925781 120.863281 90.375 119.359375 90.859375 117.859375 C 91.34375 116.363281 91.863281 114.878906 92.414062 113.40625 C 92.96875 111.933594 93.554688 110.476562 94.175781 109.03125 C 94.796875 107.585938 95.453125 106.15625 96.140625 104.738281 C 96.828125 103.324219 97.546875 101.925781 98.300781 100.542969 C 99.050781 99.164062 99.835938 97.796875 100.652344 96.453125 C 101.46875 95.109375 102.316406 93.78125 103.191406 92.476562 C 104.070312 91.167969 104.976562 89.882812 105.914062 88.621094 C 106.851562 87.355469 107.816406 86.113281 108.8125 84.894531 C 109.808594 83.675781 110.828125 82.480469 111.878906 81.308594 C 112.929688 80.132812 114.007812 78.988281 115.109375 77.863281 C 116.214844 76.742188 117.34375 75.648438 118.5 74.578125 C 119.652344 73.507812 120.832031 72.464844 122.035156 71.449219 C 123.238281 70.433594 124.464844 69.445312 125.710938 68.488281 C 126.960938 67.53125 128.230469 66.601562 129.523438 65.699219 C 130.816406 64.800781 132.128906 63.929688 133.460938 63.09375 C 134.792969 62.253906 136.144531 61.445312 137.515625 60.667969 C 138.882812 59.894531 140.269531 59.148438 141.675781 58.4375 C 143.082031 57.722656 144.5 57.046875 145.9375 56.398438 C 147.371094 55.753906 148.824219 55.140625 150.289062 54.5625 C 151.75 53.980469 153.230469 53.4375 154.71875 52.925781 C 156.207031 52.414062 157.710938 51.9375 159.222656 51.496094 C 160.734375 51.054688 162.253906 50.648438 163.785156 50.28125 C 165.316406 49.910156 166.855469 49.574219 168.402344 49.273438 C 169.949219 48.972656 171.5 48.710938 173.058594 48.484375 C 174.617188 48.253906 176.179688 48.0625 177.746094 47.910156 C 179.316406 47.753906 180.886719 47.636719 182.457031 47.550781 C 184.03125 47.46875 185.605469 47.421875 187.179688 47.414062 C 188.757812 47.40625 190.332031 47.429688 191.90625 47.496094 C 193.476562 47.558594 195.050781 47.65625 196.621094 47.792969 C 198.1875 47.929688 199.753906 48.101562 201.316406 48.3125 C 202.878906 48.519531 204.433594 48.765625 205.984375 49.046875 C 207.535156 49.328125 209.078125 49.644531 210.613281 49.996094 C 212.148438 50.347656 213.671875 50.734375 215.191406 51.160156 C 216.707031 51.582031 218.214844 52.039062 219.710938 52.53125 C 221.207031 53.027344 222.691406 53.550781 224.164062 54.113281 C 225.632812 54.675781 227.09375 55.269531 228.535156 55.898438 C 229.980469 56.527344 231.410156 57.191406 232.824219 57.886719 C 234.234375 58.582031 235.632812 59.308594 237.011719 60.066406 C 238.390625 60.828125 239.753906 61.617188 241.09375 62.441406 C 242.4375 63.265625 243.761719 64.117188 245.0625 65 C 246.367188 65.886719 247.648438 66.800781 248.910156 67.742188 C 250.167969 68.6875 251.40625 69.660156 252.621094 70.660156 C 253.839844 71.660156 255.03125 72.6875 256.195312 73.742188 C 257.363281 74.800781 258.507812 75.882812 259.625 76.992188 C 260.742188 78.097656 261.832031 79.234375 262.898438 80.390625 C 263.960938 81.550781 265 82.734375 266.007812 83.941406 C 267.019531 85.148438 268 86.378906 268.953125 87.632812 C 269.90625 88.882812 270.828125 90.160156 271.722656 91.453125 C 272.613281 92.75 273.476562 94.066406 274.308594 95.398438 C 275.140625 96.734375 275.941406 98.089844 276.710938 99.460938 C 277.480469 100.835938 278.21875 102.222656 278.921875 103.628906 C 279.628906 105.035156 280.296875 106.457031 280.9375 107.894531 C 281.574219 109.332031 282.179688 110.785156 282.753906 112.25 C 283.324219 113.714844 283.859375 115.195312 284.363281 116.683594 C 284.863281 118.175781 285.332031 119.675781 285.765625 121.1875 C 286.199219 122.703125 286.59375 124.222656 286.957031 125.753906 C 287.320312 127.285156 287.644531 128.820312 287.9375 130.367188 C 288.226562 131.914062 288.480469 133.464844 288.699219 135.023438 C 288.917969 136.578125 289.101562 138.140625 289.246094 139.707031 C 289.394531 141.273438 289.503906 142.839844 289.574219 144.410156 C 289.648438 145.984375 289.683594 147.554688 289.683594 149.128906 Z M 289.601562 149.109375 " fill-opacity="1" fill-rule="nonzero"/><path fill="rgb(0%, 0%, 0%)" d="M 187.769531 254.101562 C 178.613281 254.105469 169.609375 252.9375 160.757812 250.59375 L 160.527344 250.59375 C 158.398438 250.03125 156.285156 249.402344 154.195312 248.707031 C 152.105469 248.007812 150.039062 247.25 147.996094 246.425781 C 145.953125 245.597656 143.9375 244.710938 141.949219 243.757812 C 139.964844 242.808594 138.007812 241.792969 136.085938 240.71875 C 134.160156 239.648438 132.273438 238.511719 130.421875 237.320312 C 128.570312 236.128906 126.757812 234.878906 124.984375 233.574219 C 123.207031 232.269531 121.476562 230.90625 119.789062 229.492188 C 118.101562 228.078125 116.460938 226.613281 114.863281 225.097656 C 113.265625 223.578125 111.71875 222.011719 110.222656 220.398438 C 108.726562 218.785156 107.277344 217.125 105.886719 215.421875 C 104.492188 213.714844 103.152344 211.96875 101.871094 210.179688 C 100.585938 208.394531 99.359375 206.566406 98.191406 204.699219 C 97.023438 202.835938 95.914062 200.933594 94.863281 199 C 93.8125 197.066406 92.824219 195.097656 91.898438 193.101562 C 90.972656 191.105469 90.113281 189.082031 89.3125 187.03125 C 88.515625 184.980469 87.78125 182.90625 87.113281 180.808594 C 86.445312 178.710938 85.839844 176.597656 85.304688 174.460938 C 84.769531 172.328125 84.300781 170.179688 83.902344 168.015625 C 83.5 165.851562 83.167969 163.675781 82.90625 161.492188 C 82.640625 159.308594 82.445312 157.117188 82.320312 154.921875 C 82.195312 152.722656 82.136719 150.523438 82.148438 148.324219 C 82.160156 146.125 82.242188 143.925781 82.390625 141.730469 C 82.542969 139.535156 82.761719 137.347656 83.046875 135.164062 C 83.335938 132.984375 83.691406 130.8125 84.117188 128.652344 C 84.539062 126.496094 85.03125 124.351562 85.589844 122.222656 C 86.148438 120.09375 86.773438 117.984375 87.464844 115.894531 C 88.15625 113.804688 88.914062 111.738281 89.734375 109.699219 C 90.554688 107.65625 91.4375 105.640625 92.386719 103.65625 C 93.335938 101.667969 94.34375 99.714844 95.414062 97.789062 C 96.484375 95.867188 97.613281 93.976562 98.804688 92.125 C 99.992188 90.273438 101.238281 88.460938 102.542969 86.683594 C 103.84375 84.910156 105.203125 83.179688 106.613281 81.488281 C 108.027344 79.800781 109.488281 78.15625 111.003906 76.558594 C 112.519531 74.960938 114.082031 73.410156 115.695312 71.910156 C 117.308594 70.410156 118.96875 68.964844 120.671875 67.566406 C 122.375 66.171875 124.121094 64.832031 125.90625 63.542969 C 127.695312 62.257812 129.523438 61.027344 131.386719 59.855469 C 133.25 58.683594 135.152344 57.570312 137.085938 56.519531 C 139.023438 55.464844 140.988281 54.472656 142.984375 53.542969 C 144.984375 52.613281 147.007812 51.746094 149.058594 50.945312 C 151.109375 50.140625 153.183594 49.402344 155.285156 48.730469 C 157.382812 48.058594 159.5 47.449219 161.636719 46.910156 C 163.769531 46.371094 165.921875 45.898438 168.089844 45.492188 C 170.253906 45.085938 172.429688 44.75 174.617188 44.480469 C 176.804688 44.210938 179 44.007812 181.199219 43.878906 C 183.398438 43.746094 185.597656 43.683594 187.804688 43.6875 C 190.007812 43.695312 192.207031 43.769531 194.40625 43.914062 C 196.605469 44.058594 198.796875 44.273438 200.984375 44.554688 C 203.167969 44.835938 205.34375 45.183594 207.507812 45.601562 C 209.671875 46.019531 211.820312 46.503906 213.953125 47.054688 C 216.085938 47.609375 218.199219 48.226562 220.292969 48.910156 C 222.386719 49.597656 224.460938 50.347656 226.507812 51.160156 C 228.554688 51.976562 230.574219 52.851562 232.566406 53.792969 C 234.558594 54.734375 236.519531 55.738281 238.445312 56.800781 C 240.375 57.863281 242.269531 58.988281 244.128906 60.171875 C 245.988281 61.351562 247.804688 62.59375 249.585938 63.890625 C 251.367188 65.1875 253.105469 66.535156 254.800781 67.941406 C 256.496094 69.347656 258.148438 70.804688 259.75 72.3125 C 261.355469 73.820312 262.910156 75.378906 264.417969 76.984375 C 265.921875 78.59375 267.378906 80.242188 268.78125 81.941406 C 270.183594 83.636719 271.53125 85.378906 272.824219 87.160156 C 274.117188 88.941406 275.351562 90.761719 276.53125 92.621094 C 277.710938 94.480469 278.828125 96.375 279.886719 98.304688 C 280.949219 100.234375 281.945312 102.195312 282.882812 104.1875 C 283.820312 106.179688 284.691406 108.195312 285.5 110.242188 C 286.3125 112.289062 287.054688 114.359375 287.734375 116.453125 C 288.414062 118.546875 289.027344 120.660156 289.574219 122.789062 C 290.121094 124.921875 290.601562 127.070312 291.011719 129.230469 C 291.425781 131.390625 291.769531 133.566406 292.042969 135.75 C 292.320312 137.929688 292.527344 140.121094 292.664062 142.316406 C 292.800781 144.511719 292.871094 146.710938 292.871094 148.914062 C 292.871094 151.113281 292.800781 153.3125 292.660156 155.507812 C 292.523438 157.703125 292.316406 159.894531 292.039062 162.074219 C 291.765625 164.257812 291.417969 166.429688 291.007812 168.59375 C 290.59375 170.753906 290.113281 172.902344 289.566406 175.03125 C 289.019531 177.164062 288.40625 179.277344 287.726562 181.371094 C 287.046875 183.460938 286.300781 185.53125 285.488281 187.578125 C 284.679688 189.625 283.804688 191.644531 282.867188 193.636719 C 281.929688 195.625 280.933594 197.585938 279.871094 199.515625 C 278.8125 201.445312 277.691406 203.339844 276.511719 205.199219 C 275.332031 207.058594 274.097656 208.875 272.804688 210.660156 C 271.511719 212.441406 270.160156 214.179688 268.757812 215.875 C 267.355469 217.574219 265.902344 219.222656 264.394531 220.828125 C 262.886719 222.433594 261.332031 223.992188 259.726562 225.5 C 258.121094 227.007812 256.472656 228.464844 254.777344 229.871094 C 253.078125 231.273438 251.339844 232.625 249.558594 233.921875 C 247.777344 235.21875 245.960938 236.457031 244.101562 237.636719 C 242.242188 238.820312 240.347656 239.941406 238.417969 241.007812 C 236.488281 242.070312 234.527344 243.070312 232.535156 244.011719 C 230.542969 244.953125 228.523438 245.828125 226.476562 246.644531 C 224.429688 247.457031 222.359375 248.207031 220.261719 248.890625 C 218.167969 249.574219 216.054688 250.191406 213.921875 250.742188 C 211.789062 251.292969 209.640625 251.777344 207.476562 252.195312 C 205.3125 252.613281 203.136719 252.960938 200.953125 253.242188 C 198.765625 253.523438 196.574219 253.734375 194.375 253.878906 C 192.175781 254.023438 189.972656 254.097656 187.769531 254.101562 Z M 162.546875 244.339844 C 170.828125 246.507812 179.25 247.589844 187.8125 247.589844 C 196.371094 247.589844 204.792969 246.507812 213.074219 244.339844 C 214.980469 243.832031 216.867188 243.269531 218.734375 242.648438 C 220.605469 242.03125 222.457031 241.355469 224.285156 240.621094 C 226.113281 239.890625 227.917969 239.105469 229.703125 238.269531 C 231.484375 237.429688 233.238281 236.539062 234.96875 235.59375 C 236.695312 234.648438 238.394531 233.652344 240.0625 232.605469 C 241.730469 231.5625 243.367188 230.464844 244.972656 229.320312 C 246.574219 228.175781 248.140625 226.984375 249.671875 225.746094 C 251.203125 224.507812 252.695312 223.226562 254.148438 221.898438 C 255.605469 220.570312 257.015625 219.203125 258.386719 217.789062 C 259.761719 216.375 261.089844 214.925781 262.371094 213.433594 C 263.65625 211.941406 264.894531 210.410156 266.085938 208.84375 C 267.28125 207.277344 268.425781 205.679688 269.519531 204.042969 C 270.617188 202.410156 271.664062 200.742188 272.660156 199.042969 C 273.65625 197.347656 274.597656 195.621094 275.492188 193.867188 C 276.382812 192.113281 277.222656 190.332031 278.007812 188.53125 C 278.792969 186.726562 279.523438 184.898438 280.199219 183.050781 C 280.875 181.203125 281.492188 179.335938 282.054688 177.449219 C 282.621094 175.566406 283.125 173.664062 283.574219 171.75 C 284.023438 169.832031 284.414062 167.90625 284.746094 165.964844 C 285.078125 164.027344 285.355469 162.078125 285.570312 160.125 C 285.785156 158.167969 285.945312 156.207031 286.042969 154.242188 C 286.140625 152.277344 286.179688 150.3125 286.160156 148.34375 C 286.136719 146.378906 286.058594 144.414062 285.921875 142.449219 C 285.78125 140.488281 285.585938 138.53125 285.328125 136.578125 C 285.074219 134.628906 284.757812 132.6875 284.386719 130.757812 C 284.011719 128.824219 283.582031 126.90625 283.09375 125 C 282.605469 123.09375 282.0625 121.203125 281.460938 119.328125 C 280.859375 117.457031 280.203125 115.601562 279.488281 113.769531 C 278.773438 111.933594 278.007812 110.125 277.183594 108.335938 C 276.363281 106.546875 275.488281 104.785156 274.558594 103.050781 C 273.632812 101.3125 272.652344 99.609375 271.621094 97.929688 C 270.589844 96.253906 269.511719 94.609375 268.382812 92.996094 C 267.253906 91.386719 266.074219 89.808594 264.851562 88.265625 C 263.628906 86.726562 262.359375 85.222656 261.042969 83.757812 C 259.726562 82.292969 258.371094 80.867188 256.96875 79.484375 C 255.570312 78.097656 254.128906 76.757812 252.648438 75.460938 C 251.167969 74.164062 249.648438 72.910156 248.09375 71.703125 C 246.535156 70.496094 244.945312 69.339844 243.320312 68.226562 C 241.695312 67.117188 240.035156 66.054688 238.347656 65.042969 C 236.65625 64.03125 234.9375 63.070312 233.191406 62.160156 C 231.441406 61.253906 229.667969 60.398438 227.871094 59.59375 C 226.070312 58.792969 224.25 58.042969 222.40625 57.351562 C 220.5625 56.65625 218.699219 56.019531 216.816406 55.4375 C 214.933594 54.855469 213.035156 54.332031 211.121094 53.863281 C 209.207031 53.394531 207.28125 52.984375 205.34375 52.632812 C 203.40625 52.28125 201.457031 51.988281 199.503906 51.75 C 197.546875 51.515625 195.585938 51.339844 193.617188 51.222656 C 191.652344 51.101562 189.683594 51.042969 187.710938 51.042969 C 185.742188 51.042969 183.773438 51.101562 181.808594 51.222656 C 179.839844 51.339844 177.878906 51.515625 175.921875 51.75 C 173.964844 51.988281 172.019531 52.28125 170.082031 52.632812 C 168.140625 52.984375 166.214844 53.394531 164.300781 53.863281 C 162.386719 54.332031 160.488281 54.855469 158.609375 55.4375 C 156.726562 56.019531 154.863281 56.65625 153.019531 57.351562 C 151.175781 58.042969 149.351562 58.792969 147.554688 59.59375 C 145.753906 60.398438 143.980469 61.253906 142.234375 62.160156 C 140.488281 63.070312 138.769531 64.03125 137.078125 65.042969 C 135.390625 66.054688 133.730469 67.117188 132.105469 68.226562 C 130.480469 69.339844 128.886719 70.496094 127.332031 71.703125 C 125.777344 72.910156 124.257812 74.164062 122.777344 75.460938 C 121.296875 76.757812 119.855469 78.097656 118.453125 79.484375 C 117.054688 80.867188 115.695312 82.292969 114.382812 83.757812 C 113.066406 85.222656 111.796875 86.726562 110.574219 88.265625 C 109.347656 89.808594 108.171875 91.386719 107.042969 92.996094 C 105.914062 94.609375 104.832031 96.253906 103.800781 97.929688 C 102.773438 99.609375 101.792969 101.3125 100.863281 103.050781 C 99.9375 104.785156 99.0625 106.546875 98.238281 108.335938 C 97.417969 110.125 96.648438 111.933594 95.9375 113.769531 C 95.222656 115.601562 94.566406 117.457031 93.964844 119.328125 C 93.363281 121.203125 92.816406 123.09375 92.328125 125 C 91.839844 126.90625 91.410156 128.824219 91.039062 130.757812 C 90.664062 132.6875 90.351562 134.628906 90.09375 136.578125 C 89.839844 138.53125 89.640625 140.488281 89.503906 142.449219 C 89.367188 144.414062 89.285156 146.378906 89.265625 148.34375 C 89.246094 150.3125 89.285156 152.277344 89.382812 154.242188 C 89.480469 156.207031 89.636719 158.167969 89.855469 160.125 C 90.070312 162.078125 90.34375 164.027344 90.675781 165.964844 C 91.011719 167.90625 91.402344 169.832031 91.851562 171.75 C 92.300781 173.664062 92.804688 175.566406 93.367188 177.449219 C 93.933594 179.335938 94.550781 181.203125 95.226562 183.050781 C 95.902344 184.898438 96.632812 186.726562 97.417969 188.53125 C 98.203125 190.332031 99.042969 192.113281 99.933594 193.867188 C 100.824219 195.621094 101.769531 197.347656 102.765625 199.042969 C 103.761719 200.742188 104.808594 202.410156 105.90625 204.042969 C 107 205.679688 108.144531 207.277344 109.335938 208.84375 C 110.53125 210.410156 111.769531 211.941406 113.050781 213.433594 C 114.335938 214.925781 115.664062 216.375 117.035156 217.789062 C 118.410156 219.203125 119.820312 220.570312 121.273438 221.898438 C 122.730469 223.226562 124.222656 224.507812 125.753906 225.746094 C 127.285156 226.984375 128.851562 228.175781 130.453125 229.320312 C 132.058594 230.464844 133.691406 231.5625 135.359375 232.605469 C 137.03125 233.652344 138.726562 234.648438 140.457031 235.59375 C 142.183594 236.539062 143.941406 237.429688 145.722656 238.269531 C 147.503906 239.105469 149.3125 239.890625 151.140625 240.621094 C 152.96875 241.355469 154.820312 242.03125 156.6875 242.648438 C 158.558594 243.269531 160.445312 243.832031 162.351562 244.339844 Z M 162.546875 244.339844 " fill-opacity="1" fill-rule="nonzero"/><path fill="rgb(94.509888%, 94.898987%, 94.898987%)" d="M 187.769531 84.363281 C 188.832031 84.363281 189.890625 84.386719 190.953125 84.441406 C 192.011719 84.492188 193.070312 84.570312 194.125 84.675781 C 195.179688 84.78125 196.234375 84.910156 197.285156 85.066406 C 198.332031 85.222656 199.378906 85.40625 200.417969 85.613281 C 201.460938 85.820312 202.496094 86.050781 203.523438 86.308594 C 204.550781 86.566406 205.574219 86.851562 206.589844 87.160156 C 207.605469 87.464844 208.613281 87.800781 209.613281 88.15625 C 210.609375 88.515625 211.601562 88.894531 212.578125 89.300781 C 213.558594 89.707031 214.53125 90.136719 215.488281 90.589844 C 216.449219 91.042969 217.394531 91.519531 218.332031 92.019531 C 219.265625 92.519531 220.1875 93.042969 221.097656 93.589844 C 222.007812 94.132812 222.90625 94.699219 223.785156 95.289062 C 224.667969 95.878906 225.535156 96.488281 226.386719 97.121094 C 227.238281 97.753906 228.074219 98.40625 228.894531 99.078125 C 229.714844 99.75 230.519531 100.441406 231.304688 101.152344 C 232.089844 101.867188 232.859375 102.597656 233.609375 103.34375 C 234.359375 104.09375 235.089844 104.863281 235.800781 105.648438 C 236.515625 106.433594 237.207031 107.234375 237.878906 108.054688 C 238.550781 108.875 239.203125 109.710938 239.835938 110.5625 C 240.46875 111.414062 241.078125 112.277344 241.667969 113.160156 C 242.257812 114.039062 242.824219 114.9375 243.371094 115.84375 C 243.914062 116.753906 244.4375 117.675781 244.9375 118.609375 C 245.4375 119.546875 245.914062 120.492188 246.367188 121.449219 C 246.820312 122.40625 247.25 123.375 247.65625 124.355469 C 248.058594 125.335938 248.441406 126.324219 248.800781 127.320312 C 249.15625 128.316406 249.488281 129.324219 249.796875 130.339844 C 250.105469 131.351562 250.386719 132.371094 250.644531 133.402344 C 250.902344 134.429688 251.132812 135.460938 251.339844 136.5 C 251.546875 137.539062 251.726562 138.585938 251.882812 139.632812 C 252.039062 140.679688 252.167969 141.730469 252.269531 142.785156 C 252.375 143.839844 252.453125 144.898438 252.503906 145.957031 C 252.554688 147.015625 252.582031 148.074219 252.582031 149.132812 C 252.582031 150.191406 252.554688 151.25 252.503906 152.308594 C 252.449219 153.367188 252.371094 154.421875 252.269531 155.476562 C 252.164062 156.53125 252.035156 157.582031 251.878906 158.628906 C 251.722656 159.679688 251.539062 160.722656 251.332031 161.761719 C 251.125 162.800781 250.894531 163.832031 250.636719 164.859375 C 250.378906 165.886719 250.09375 166.910156 249.785156 167.921875 C 249.476562 168.9375 249.144531 169.941406 248.789062 170.9375 C 248.429688 171.9375 248.046875 172.925781 247.640625 173.902344 C 247.234375 174.882812 246.804688 175.851562 246.351562 176.808594 C 245.898438 177.765625 245.421875 178.710938 244.921875 179.644531 C 244.421875 180.578125 243.898438 181.5 243.351562 182.410156 C 242.804688 183.320312 242.238281 184.214844 241.648438 185.09375 C 241.058594 185.976562 240.449219 186.839844 239.816406 187.691406 C 239.183594 188.542969 238.53125 189.375 237.859375 190.195312 C 237.183594 191.015625 236.492188 191.816406 235.78125 192.601562 C 235.066406 193.386719 234.335938 194.152344 233.585938 194.902344 C 232.835938 195.652344 232.066406 196.382812 231.28125 197.09375 C 230.492188 197.804688 229.691406 198.496094 228.871094 199.167969 C 228.050781 199.839844 227.214844 200.492188 226.359375 201.121094 C 225.507812 201.753906 224.640625 202.363281 223.757812 202.953125 C 222.875 203.539062 221.980469 204.105469 221.070312 204.652344 C 220.160156 205.195312 219.238281 205.71875 218.300781 206.21875 C 217.367188 206.714844 216.417969 207.191406 215.457031 207.644531 C 214.5 208.097656 213.53125 208.527344 212.550781 208.933594 C 211.570312 209.339844 210.578125 209.71875 209.582031 210.074219 C 208.582031 210.433594 207.574219 210.765625 206.558594 211.074219 C 205.542969 211.378906 204.519531 211.664062 203.492188 211.917969 C 202.460938 212.175781 201.425781 212.410156 200.386719 212.617188 C 199.34375 212.824219 198.300781 213.003906 197.25 213.160156 C 196.199219 213.316406 195.148438 213.445312 194.09375 213.546875 C 193.035156 213.652344 191.976562 213.730469 190.917969 213.78125 C 189.859375 213.832031 188.796875 213.859375 187.738281 213.859375 C 186.675781 213.859375 185.617188 213.832031 184.554688 213.78125 C 183.496094 213.730469 182.4375 213.652344 181.382812 213.546875 C 180.324219 213.441406 179.273438 213.3125 178.222656 213.15625 C 177.171875 213 176.128906 212.820312 175.085938 212.613281 C 174.046875 212.40625 173.011719 212.175781 171.980469 211.917969 C 170.953125 211.660156 169.929688 211.375 168.914062 211.070312 C 167.898438 210.761719 166.890625 210.429688 165.890625 210.070312 C 164.890625 209.714844 163.902344 209.332031 162.921875 208.925781 C 161.941406 208.523438 160.972656 208.09375 160.011719 207.640625 C 159.050781 207.1875 158.105469 206.710938 157.167969 206.210938 C 156.234375 205.710938 155.308594 205.1875 154.398438 204.644531 C 153.488281 204.097656 152.59375 203.53125 151.710938 202.945312 C 150.828125 202.355469 149.960938 201.746094 149.109375 201.113281 C 148.257812 200.480469 147.421875 199.832031 146.601562 199.160156 C 145.78125 198.484375 144.976562 197.792969 144.191406 197.082031 C 143.402344 196.371094 142.636719 195.640625 141.886719 194.890625 C 141.132812 194.140625 140.402344 193.375 139.691406 192.589844 C 138.976562 191.804688 138.285156 191.003906 137.613281 190.183594 C 136.9375 189.363281 136.285156 188.527344 135.652344 187.679688 C 135.019531 186.828125 134.410156 185.960938 133.820312 185.078125 C 133.230469 184.199219 132.664062 183.304688 132.117188 182.394531 C 131.574219 181.484375 131.050781 180.566406 130.550781 179.628906 C 130.050781 178.695312 129.570312 177.75 129.117188 176.792969 C 128.664062 175.832031 128.234375 174.867188 127.828125 173.886719 C 127.421875 172.90625 127.039062 171.917969 126.683594 170.921875 C 126.324219 169.925781 125.992188 168.917969 125.683594 167.902344 C 125.378906 166.890625 125.09375 165.871094 124.835938 164.839844 C 124.578125 163.8125 124.347656 162.78125 124.140625 161.742188 C 123.933594 160.703125 123.75 159.660156 123.59375 158.609375 C 123.4375 157.5625 123.308594 156.511719 123.207031 155.457031 C 123.101562 154.402344 123.023438 153.34375 122.972656 152.289062 C 122.917969 151.230469 122.894531 150.171875 122.894531 149.109375 C 122.894531 148.050781 122.917969 146.992188 122.972656 145.933594 C 123.023438 144.875 123.101562 143.816406 123.207031 142.761719 C 123.3125 141.707031 123.441406 140.65625 123.597656 139.609375 C 123.753906 138.558594 123.933594 137.515625 124.144531 136.476562 C 124.351562 135.4375 124.582031 134.402344 124.839844 133.375 C 125.097656 132.347656 125.382812 131.324219 125.691406 130.3125 C 126 129.296875 126.332031 128.289062 126.691406 127.292969 C 127.046875 126.292969 127.429688 125.304688 127.835938 124.328125 C 128.242188 123.347656 128.671875 122.378906 129.128906 121.421875 C 129.582031 120.464844 130.058594 119.515625 130.558594 118.582031 C 131.058594 117.648438 131.582031 116.726562 132.128906 115.816406 C 132.675781 114.90625 133.242188 114.011719 133.832031 113.132812 C 134.421875 112.25 135.035156 111.382812 135.667969 110.53125 C 136.300781 109.683594 136.953125 108.847656 137.625 108.027344 C 138.300781 107.207031 138.992188 106.40625 139.707031 105.621094 C 140.417969 104.835938 141.152344 104.070312 141.902344 103.320312 C 142.652344 102.570312 143.421875 101.839844 144.207031 101.128906 C 144.996094 100.417969 145.796875 99.722656 146.621094 99.050781 C 147.441406 98.378906 148.277344 97.726562 149.128906 97.097656 C 149.980469 96.464844 150.851562 95.855469 151.734375 95.265625 C 152.617188 94.679688 153.511719 94.113281 154.421875 93.566406 C 155.332031 93.023438 156.257812 92.5 157.191406 92 C 158.128906 91.5 159.078125 91.027344 160.039062 90.574219 C 160.996094 90.121094 161.96875 89.691406 162.949219 89.285156 C 163.929688 88.878906 164.917969 88.5 165.917969 88.140625 C 166.917969 87.785156 167.925781 87.453125 168.941406 87.144531 C 169.957031 86.839844 170.980469 86.554688 172.011719 86.296875 C 173.039062 86.042969 174.074219 85.808594 175.117188 85.601562 C 176.15625 85.394531 177.203125 85.214844 178.253906 85.058594 C 179.304688 84.90625 180.355469 84.777344 181.414062 84.671875 C 182.46875 84.566406 183.527344 84.492188 184.585938 84.4375 C 185.648438 84.386719 186.707031 84.359375 187.769531 84.363281 Z M 187.769531 84.363281 " fill-opacity="1" fill-rule="nonzero"/><path fill="rgb(0%, 0%, 0%)" d="M 187.769531 217.101562 C 186.65625 217.101562 185.539062 217.074219 184.425781 217.023438 C 183.3125 216.96875 182.203125 216.886719 181.09375 216.777344 C 179.980469 216.667969 178.875 216.53125 177.773438 216.367188 C 176.667969 216.207031 175.570312 216.015625 174.476562 215.800781 C 173.382812 215.582031 172.296875 215.339844 171.214844 215.066406 C 170.132812 214.796875 169.058594 214.5 167.992188 214.179688 C 166.921875 213.855469 165.867188 213.507812 164.816406 213.132812 C 163.765625 212.757812 162.726562 212.355469 161.695312 211.929688 C 160.664062 211.503906 159.644531 211.054688 158.636719 210.578125 C 157.628906 210.101562 156.632812 209.601562 155.648438 209.078125 C 154.667969 208.554688 153.695312 208.003906 152.738281 207.433594 C 151.78125 206.859375 150.839844 206.265625 149.914062 205.648438 C 148.988281 205.027344 148.074219 204.386719 147.179688 203.726562 C 146.285156 203.0625 145.40625 202.378906 144.542969 201.671875 C 143.679688 200.964844 142.835938 200.238281 142.011719 199.492188 C 141.183594 198.742188 140.375 197.976562 139.585938 197.1875 C 138.800781 196.402344 138.03125 195.597656 137.28125 194.773438 C 136.53125 193.945312 135.804688 193.105469 135.097656 192.242188 C 134.390625 191.382812 133.703125 190.507812 133.039062 189.613281 C 132.375 188.71875 131.734375 187.808594 131.113281 186.882812 C 130.492188 185.957031 129.898438 185.015625 129.324219 184.0625 C 128.75 183.109375 128.199219 182.140625 127.675781 181.15625 C 127.148438 180.175781 126.648438 179.183594 126.171875 178.175781 C 125.695312 177.167969 125.242188 176.152344 124.816406 175.125 C 124.390625 174.09375 123.988281 173.058594 123.613281 172.007812 C 123.238281 170.960938 122.886719 169.902344 122.5625 168.839844 C 122.238281 167.773438 121.941406 166.699219 121.671875 165.621094 C 121.398438 164.542969 121.15625 163.457031 120.9375 162.363281 C 120.71875 161.273438 120.53125 160.175781 120.367188 159.074219 C 120.203125 157.972656 120.066406 156.867188 119.957031 155.761719 C 119.847656 154.652344 119.765625 153.542969 119.710938 152.429688 C 119.65625 151.320312 119.628906 150.207031 119.628906 149.09375 C 119.628906 147.980469 119.65625 146.867188 119.710938 145.757812 C 119.765625 144.644531 119.847656 143.535156 119.953125 142.429688 C 120.0625 141.320312 120.199219 140.214844 120.363281 139.117188 C 120.527344 138.015625 120.71875 136.917969 120.933594 135.828125 C 121.152344 134.734375 121.394531 133.648438 121.667969 132.570312 C 121.9375 131.492188 122.234375 130.417969 122.558594 129.351562 C 122.878906 128.289062 123.230469 127.230469 123.605469 126.183594 C 123.980469 125.136719 124.382812 124.097656 124.808594 123.070312 C 125.234375 122.042969 125.6875 121.023438 126.164062 120.019531 C 126.640625 119.011719 127.140625 118.019531 127.664062 117.035156 C 128.191406 116.054688 128.738281 115.085938 129.3125 114.132812 C 129.886719 113.175781 130.480469 112.238281 131.101562 111.3125 C 131.71875 110.386719 132.363281 109.476562 133.027344 108.582031 C 133.691406 107.6875 134.375 106.8125 135.082031 105.949219 C 135.789062 105.089844 136.515625 104.246094 137.265625 103.421875 C 138.015625 102.597656 138.78125 101.792969 139.570312 101.003906 C 140.359375 100.21875 141.167969 99.453125 141.992188 98.703125 C 142.820312 97.957031 143.664062 97.230469 144.523438 96.523438 C 145.386719 95.816406 146.265625 95.132812 147.160156 94.46875 C 148.054688 93.804688 148.964844 93.164062 149.894531 92.546875 C 150.820312 91.929688 151.761719 91.332031 152.71875 90.761719 C 153.671875 90.1875 154.644531 89.640625 155.625 89.117188 C 156.609375 88.589844 157.605469 88.089844 158.613281 87.613281 C 159.621094 87.140625 160.640625 86.6875 161.667969 86.261719 C 162.699219 85.835938 163.738281 85.4375 164.789062 85.0625 C 165.839844 84.6875 166.898438 84.335938 167.964844 84.015625 C 169.03125 83.691406 170.105469 83.394531 171.1875 83.125 C 172.265625 82.851562 173.355469 82.609375 174.449219 82.390625 C 175.542969 82.175781 176.640625 81.984375 177.742188 81.820312 C 178.84375 81.65625 179.949219 81.523438 181.058594 81.414062 C 182.167969 81.304688 183.28125 81.222656 184.394531 81.167969 C 185.507812 81.113281 186.621094 81.085938 187.738281 81.085938 C 188.851562 81.085938 189.964844 81.113281 191.078125 81.167969 C 192.191406 81.222656 193.304688 81.300781 194.414062 81.410156 C 195.523438 81.519531 196.628906 81.65625 197.730469 81.820312 C 198.832031 81.984375 199.929688 82.171875 201.023438 82.390625 C 202.117188 82.605469 203.203125 82.851562 204.285156 83.121094 C 205.367188 83.390625 206.441406 83.6875 207.507812 84.011719 C 208.574219 84.332031 209.632812 84.683594 210.679688 85.058594 C 211.730469 85.433594 212.769531 85.832031 213.800781 86.257812 C 214.828125 86.683594 215.847656 87.136719 216.855469 87.609375 C 217.863281 88.085938 218.859375 88.585938 219.84375 89.113281 C 220.824219 89.636719 221.792969 90.183594 222.75 90.757812 C 223.707031 91.328125 224.648438 91.925781 225.574219 92.542969 C 226.5 93.164062 227.414062 93.804688 228.308594 94.464844 C 229.203125 95.128906 230.082031 95.8125 230.945312 96.519531 C 231.804688 97.226562 232.648438 97.953125 233.476562 98.703125 C 234.300781 99.449219 235.109375 100.214844 235.894531 101.003906 C 236.683594 101.789062 237.453125 102.597656 238.203125 103.421875 C 238.949219 104.246094 239.679688 105.089844 240.386719 105.949219 C 241.09375 106.8125 241.777344 107.6875 242.441406 108.582031 C 243.105469 109.476562 243.746094 110.386719 244.367188 111.3125 C 244.984375 112.238281 245.582031 113.179688 246.15625 114.132812 C 246.726562 115.089844 247.277344 116.058594 247.804688 117.039062 C 248.328125 118.019531 248.828125 119.015625 249.304688 120.023438 C 249.78125 121.027344 250.234375 122.046875 250.660156 123.074219 C 251.085938 124.101562 251.488281 125.140625 251.863281 126.191406 C 252.238281 127.238281 252.589844 128.296875 252.914062 129.359375 C 253.238281 130.425781 253.535156 131.5 253.804688 132.578125 C 254.074219 133.660156 254.320312 134.746094 254.535156 135.835938 C 254.753906 136.929688 254.945312 138.027344 255.109375 139.128906 C 255.273438 140.230469 255.410156 141.332031 255.519531 142.441406 C 255.628906 143.550781 255.710938 144.660156 255.765625 145.773438 C 255.820312 146.882812 255.847656 147.996094 255.847656 149.109375 C 255.84375 150.222656 255.816406 151.335938 255.761719 152.445312 C 255.707031 153.554688 255.621094 154.664062 255.511719 155.773438 C 255.402344 156.878906 255.265625 157.980469 255.101562 159.082031 C 254.9375 160.183594 254.746094 161.277344 254.527344 162.367188 C 254.308594 163.460938 254.0625 164.542969 253.792969 165.621094 C 253.523438 166.703125 253.222656 167.773438 252.898438 168.835938 C 252.574219 169.902344 252.226562 170.957031 251.851562 172.003906 C 251.472656 173.050781 251.074219 174.089844 250.648438 175.117188 C 250.21875 176.144531 249.769531 177.160156 249.292969 178.164062 C 248.816406 179.171875 248.3125 180.164062 247.789062 181.144531 C 247.261719 182.125 246.714844 183.09375 246.140625 184.046875 C 245.566406 185 244.972656 185.941406 244.351562 186.863281 C 243.734375 187.789062 243.09375 188.699219 242.429688 189.589844 C 241.765625 190.484375 241.082031 191.359375 240.375 192.222656 C 239.667969 193.082031 238.941406 193.921875 238.191406 194.746094 C 237.445312 195.570312 236.675781 196.375 235.890625 197.164062 C 235.101562 197.949219 234.292969 198.714844 233.46875 199.464844 C 232.644531 200.210938 231.800781 200.9375 230.941406 201.644531 C 230.078125 202.347656 229.203125 203.035156 228.308594 203.695312 C 227.414062 204.359375 226.503906 205 225.578125 205.617188 C 224.652344 206.238281 223.710938 206.832031 222.753906 207.402344 C 221.800781 207.976562 220.832031 208.523438 219.847656 209.050781 C 218.867188 209.574219 217.871094 210.074219 216.867188 210.550781 C 215.859375 211.027344 214.839844 211.476562 213.8125 211.90625 C 212.785156 212.332031 211.746094 212.730469 210.695312 213.109375 C 209.648438 213.484375 208.589844 213.832031 207.523438 214.15625 C 206.460938 214.480469 205.386719 214.777344 204.304688 215.046875 C 203.226562 215.320312 202.140625 215.566406 201.046875 215.78125 C 199.957031 216 198.859375 216.191406 197.757812 216.355469 C 196.65625 216.519531 195.550781 216.65625 194.441406 216.769531 C 193.332031 216.878906 192.222656 216.960938 191.109375 217.015625 C 189.996094 217.074219 188.882812 217.101562 187.769531 217.101562 Z M 187.769531 87.621094 C 185.753906 87.621094 183.742188 87.71875 181.734375 87.917969 C 179.726562 88.113281 177.730469 88.410156 175.753906 88.800781 C 173.773438 89.195312 171.820312 89.683594 169.890625 90.269531 C 167.960938 90.851562 166.0625 91.53125 164.199219 92.300781 C 162.335938 93.070312 160.515625 93.929688 158.734375 94.878906 C 156.957031 95.828125 155.226562 96.863281 153.550781 97.980469 C 151.871094 99.101562 150.253906 100.300781 148.695312 101.578125 C 147.136719 102.855469 145.640625 104.207031 144.214844 105.628906 C 142.789062 107.054688 141.4375 108.542969 140.15625 110.101562 C 138.875 111.65625 137.675781 113.273438 136.554688 114.949219 C 135.433594 116.621094 134.398438 118.347656 133.449219 120.125 C 132.496094 121.898438 131.636719 123.71875 130.863281 125.578125 C 130.089844 127.4375 129.414062 129.332031 128.828125 131.261719 C 128.242188 133.1875 127.75 135.140625 127.359375 137.113281 C 126.964844 139.089844 126.667969 141.078125 126.472656 143.082031 C 126.273438 145.085938 126.175781 147.097656 126.175781 149.109375 C 126.175781 151.125 126.273438 153.132812 126.46875 155.136719 C 126.667969 157.140625 126.964844 159.132812 127.355469 161.105469 C 127.75 163.082031 128.238281 165.03125 128.824219 166.960938 C 129.410156 168.886719 130.089844 170.78125 130.859375 172.640625 C 131.632812 174.5 132.492188 176.320312 133.445312 178.097656 C 134.394531 179.871094 135.429688 181.597656 136.550781 183.273438 C 137.671875 184.945312 138.871094 186.5625 140.148438 188.117188 C 141.429688 189.675781 142.78125 191.164062 144.207031 192.589844 C 145.632812 194.015625 147.128906 195.363281 148.6875 196.640625 C 150.246094 197.917969 151.863281 199.117188 153.539062 200.238281 C 155.21875 201.355469 156.945312 202.390625 158.722656 203.339844 C 160.503906 204.289062 162.324219 205.148438 164.1875 205.917969 C 166.050781 206.691406 167.945312 207.367188 169.878906 207.953125 C 171.808594 208.535156 173.761719 209.027344 175.738281 209.417969 C 177.71875 209.8125 179.710938 210.105469 181.71875 210.304688 C 183.726562 210.5 185.738281 210.601562 187.753906 210.601562 C 189.769531 210.601562 191.78125 210.5 193.789062 210.304688 C 195.796875 210.105469 197.789062 209.8125 199.765625 209.417969 C 201.746094 209.027344 203.699219 208.539062 205.628906 207.953125 C 207.558594 207.367188 209.457031 206.691406 211.320312 205.921875 C 213.183594 205.148438 215.003906 204.289062 216.78125 203.339844 C 218.558594 202.390625 220.289062 201.359375 221.964844 200.238281 C 223.640625 199.121094 225.261719 197.921875 226.820312 196.644531 C 228.378906 195.367188 229.871094 194.015625 231.296875 192.59375 C 232.722656 191.167969 234.074219 189.675781 235.355469 188.121094 C 236.632812 186.5625 237.835938 184.949219 238.953125 183.273438 C 240.074219 181.597656 241.109375 179.875 242.0625 178.097656 C 243.011719 176.320312 243.875 174.503906 244.644531 172.644531 C 245.417969 170.78125 246.097656 168.886719 246.683594 166.960938 C 247.265625 165.035156 247.757812 163.082031 248.148438 161.105469 C 248.542969 159.132812 248.839844 157.140625 249.035156 155.136719 C 249.234375 153.132812 249.332031 151.125 249.332031 149.109375 C 249.332031 147.097656 249.230469 145.089844 249.03125 143.085938 C 248.832031 141.082031 248.535156 139.09375 248.140625 137.121094 C 247.746094 135.148438 247.253906 133.199219 246.667969 131.273438 C 246.082031 129.34375 245.402344 127.453125 244.628906 125.59375 C 243.859375 123.734375 242.996094 121.917969 242.046875 120.140625 C 241.09375 118.367188 240.058594 116.644531 238.9375 114.96875 C 237.816406 113.296875 236.617188 111.679688 235.339844 110.125 C 234.0625 108.570312 232.707031 107.078125 231.285156 105.65625 C 229.859375 104.234375 228.367188 102.882812 226.808594 101.605469 C 225.25 100.328125 223.632812 99.128906 221.957031 98.011719 C 220.28125 96.890625 218.554688 95.855469 216.777344 94.90625 C 215 93.957031 213.183594 93.097656 211.320312 92.324219 C 209.457031 91.550781 207.5625 90.875 205.636719 90.289062 C 203.707031 89.703125 201.753906 89.210938 199.777344 88.816406 C 197.800781 88.421875 195.808594 88.125 193.804688 87.925781 C 191.796875 87.726562 189.785156 87.625 187.769531 87.621094 Z M 187.769531 87.621094 " fill-opacity="1" fill-rule="nonzero"/><path fill="rgb(3.529358%, 28.62854%, 47.059631%)" d="M 161.539062 247.449219 L 111.441406 334.074219 L 101.300781 296.265625 L 63.484375 306.40625 L 113.929688 219.171875 C 117.148438 222.558594 120.585938 225.710938 124.242188 228.625 C 127.898438 231.539062 131.738281 234.1875 135.757812 236.574219 C 139.78125 238.960938 143.945312 241.0625 148.257812 242.875 C 152.570312 244.6875 156.984375 246.195312 161.503906 247.402344 Z M 161.539062 247.449219 " fill-opacity="1" fill-rule="nonzero"/><g clip-path="url(#clip-0)"><path fill="rgb(0%, 0%, 0%)" d="M 111.441406 337.335938 L 111.011719 337.335938 C 110.34375 337.25 109.757812 336.988281 109.25 336.550781 C 108.746094 336.109375 108.402344 335.566406 108.226562 334.917969 L 98.929688 300.167969 L 64.28125 309.550781 C 63.644531 309.699219 63.023438 309.664062 62.410156 309.445312 C 61.796875 309.226562 61.292969 308.859375 60.894531 308.34375 C 60.5 307.832031 60.273438 307.25 60.222656 306.601562 C 60.167969 305.953125 60.292969 305.34375 60.601562 304.769531 L 111.042969 217.53125 C 111.527344 216.71875 112.226562 216.207031 113.148438 215.996094 C 114.074219 215.789062 114.929688 215.949219 115.71875 216.472656 C 115.921875 216.621094 116.117188 216.78125 116.296875 216.953125 C 119.414062 220.238281 122.738281 223.296875 126.277344 226.125 C 129.8125 228.949219 133.527344 231.519531 137.421875 233.835938 C 141.3125 236.152344 145.347656 238.1875 149.523438 239.945312 C 153.695312 241.707031 157.972656 243.171875 162.351562 244.339844 C 162.5625 244.394531 162.765625 244.472656 162.960938 244.570312 C 163.796875 245 164.347656 245.660156 164.621094 246.558594 C 164.910156 247.453125 164.816406 248.308594 164.339844 249.121094 L 114.257812 335.695312 C 113.964844 336.195312 113.570312 336.59375 113.066406 336.886719 C 112.566406 337.175781 112.023438 337.328125 111.441406 337.335938 Z M 101.300781 293.003906 C 101.890625 293 102.445312 293.144531 102.957031 293.433594 C 103.738281 293.890625 104.246094 294.550781 104.480469 295.421875 L 112.585938 325.636719 L 156.664062 249.417969 C 148.765625 246.972656 141.261719 243.644531 134.148438 239.429688 C 127.035156 235.214844 120.511719 230.234375 114.574219 224.484375 L 70.195312 301.230469 L 100.457031 293.121094 C 100.730469 293.042969 101.011719 293.003906 101.300781 293.003906 Z M 101.300781 293.003906 " fill-opacity="1" fill-rule="nonzero"/></g><path fill="rgb(3.529358%, 28.62854%, 47.059631%)" d="M 312.054688 306.40625 L 274.207031 296.265625 L 264 334.074219 L 213.921875 247.433594 C 218.445312 246.230469 222.863281 244.722656 227.179688 242.910156 C 231.492188 241.097656 235.664062 238.996094 239.6875 236.609375 C 243.710938 234.222656 247.554688 231.570312 251.210938 228.652344 C 254.867188 225.734375 258.308594 222.578125 261.53125 219.1875 Z M 312.054688 306.40625 " fill-opacity="1" fill-rule="nonzero"/><g clip-path="url(#clip-1)"><path fill="rgb(0%, 0%, 0%)" d="M 264 337.335938 C 263.414062 337.328125 262.867188 337.175781 262.363281 336.882812 C 261.855469 336.585938 261.457031 336.1875 261.164062 335.679688 L 211.085938 249.054688 C 210.96875 248.839844 210.875 248.609375 210.804688 248.371094 C 210.738281 248.132812 210.699219 247.890625 210.683594 247.644531 C 210.671875 247.394531 210.6875 247.148438 210.730469 246.90625 C 210.773438 246.660156 210.839844 246.425781 210.9375 246.195312 C 211.03125 245.96875 211.152344 245.753906 211.292969 245.550781 C 211.4375 245.347656 211.601562 245.164062 211.789062 245 C 211.972656 244.835938 212.175781 244.691406 212.390625 244.574219 C 212.609375 244.453125 212.835938 244.359375 213.074219 244.289062 C 217.453125 243.125 221.734375 241.664062 225.910156 239.910156 C 230.085938 238.15625 234.125 236.121094 238.019531 233.808594 C 241.917969 231.496094 245.632812 228.929688 249.175781 226.101562 C 252.714844 223.277344 256.042969 220.222656 259.160156 216.9375 C 259.328125 216.761719 259.515625 216.605469 259.722656 216.472656 C 260.519531 215.953125 261.378906 215.792969 262.308594 215.996094 C 263.21875 216.207031 263.914062 216.714844 264.398438 217.515625 L 314.824219 304.769531 C 315.128906 305.339844 315.253906 305.949219 315.203125 306.59375 C 315.148438 307.242188 314.925781 307.820312 314.53125 308.335938 C 314.136719 308.851562 313.636719 309.21875 313.023438 309.4375 C 312.414062 309.65625 311.792969 309.695312 311.160156 309.550781 L 276.460938 300.253906 L 267.164062 335 C 266.988281 335.632812 266.652344 336.164062 266.160156 336.59375 C 265.667969 337.027344 265.09375 337.289062 264.445312 337.382812 Z M 218.824219 249.417969 L 262.90625 325.636719 L 271.007812 295.421875 C 271.230469 294.546875 271.734375 293.886719 272.515625 293.433594 C 273.300781 292.992188 274.132812 292.886719 275.003906 293.121094 L 305.246094 301.230469 L 260.882812 224.484375 C 254.957031 230.234375 248.4375 235.21875 241.332031 239.433594 C 234.222656 243.648438 226.722656 246.976562 218.824219 249.417969 Z M 218.824219 249.417969 " fill-opacity="1" fill-rule="nonzero"/></g><path fill="rgb(63.919067%, 89.019775%, 95.289612%)" d="M 187.71875 102.859375 L 198.128906 134.8125 L 231.765625 134.8125 L 204.539062 154.554688 L 214.949219 186.507812 L 187.71875 166.765625 L 160.511719 186.507812 L 170.902344 154.554688 L 143.671875 134.8125 L 177.332031 134.8125 Z M 187.71875 102.859375 " fill-opacity="1" fill-rule="nonzero"/><path fill="rgb(0%, 0%, 0%)" d="M 160.511719 189.734375 C 159.804688 189.734375 159.164062 189.53125 158.589844 189.121094 C 158.308594 188.917969 158.070312 188.675781 157.867188 188.394531 C 157.667969 188.117188 157.511719 187.8125 157.40625 187.484375 C 157.296875 187.15625 157.242188 186.820312 157.242188 186.476562 C 157.238281 186.128906 157.292969 185.792969 157.394531 185.464844 L 167.054688 155.679688 L 141.75 137.460938 C 141.484375 137.253906 141.257812 137.007812 141.066406 136.726562 C 140.875 136.449219 140.730469 136.148438 140.628906 135.824219 C 140.53125 135.5 140.484375 135.167969 140.488281 134.828125 C 140.492188 134.492188 140.542969 134.160156 140.648438 133.839844 C 140.753906 133.515625 140.90625 133.21875 141.101562 132.941406 C 141.296875 132.664062 141.53125 132.425781 141.800781 132.222656 C 142.074219 132.015625 142.367188 131.859375 142.6875 131.746094 C 143.007812 131.628906 143.335938 131.566406 143.671875 131.554688 L 174.960938 131.554688 L 184.605469 101.769531 C 184.722656 101.445312 184.886719 101.148438 185.101562 100.878906 C 185.3125 100.609375 185.558594 100.375 185.839844 100.179688 C 186.125 99.988281 186.429688 99.839844 186.761719 99.742188 C 187.089844 99.640625 187.425781 99.597656 187.769531 99.601562 C 188.113281 99.605469 188.449219 99.660156 188.773438 99.769531 C 189.097656 99.878906 189.402344 100.03125 189.679688 100.234375 C 189.957031 100.4375 190.195312 100.675781 190.398438 100.949219 C 190.601562 101.226562 190.757812 101.527344 190.871094 101.851562 L 200.546875 131.636719 L 231.816406 131.636719 C 232.160156 131.640625 232.496094 131.695312 232.820312 131.804688 C 233.144531 131.914062 233.449219 132.066406 233.726562 132.269531 C 234.003906 132.472656 234.242188 132.710938 234.445312 132.984375 C 234.648438 133.261719 234.804688 133.5625 234.917969 133.886719 C 235.019531 134.214844 235.070312 134.554688 235.070312 134.898438 C 235.066406 135.242188 235.011719 135.578125 234.90625 135.90625 C 234.800781 136.234375 234.644531 136.539062 234.441406 136.816406 C 234.242188 137.097656 234 137.339844 233.722656 137.542969 L 208.367188 155.796875 L 218.046875 185.582031 C 218.148438 185.910156 218.199219 186.242188 218.195312 186.585938 C 218.191406 186.929688 218.136719 187.265625 218.03125 187.589844 C 217.925781 187.917969 217.769531 188.21875 217.570312 188.496094 C 217.367188 188.777344 217.128906 189.015625 216.851562 189.222656 C 216.574219 189.417969 216.269531 189.570312 215.945312 189.671875 C 215.617188 189.777344 215.28125 189.828125 214.9375 189.828125 C 214.597656 189.828125 214.261719 189.777344 213.933594 189.671875 C 213.609375 189.570312 213.304688 189.417969 213.023438 189.222656 L 187.769531 170.804688 L 162.417969 189.15625 C 161.839844 189.546875 161.207031 189.742188 160.511719 189.734375 Z M 187.769531 163.507812 C 188.472656 163.515625 189.109375 163.722656 189.675781 164.136719 L 208.734375 177.984375 L 201.425781 155.5625 C 201.324219 155.234375 201.273438 154.902344 201.277344 154.558594 C 201.277344 154.214844 201.332031 153.878906 201.441406 153.554688 C 201.546875 153.226562 201.703125 152.925781 201.902344 152.648438 C 202.105469 152.367188 202.34375 152.128906 202.617188 151.921875 L 221.707031 138.074219 L 198.128906 138.074219 C 197.78125 138.070312 197.445312 138.015625 197.121094 137.910156 C 196.792969 137.800781 196.488281 137.648438 196.210938 137.445312 C 195.929688 137.242188 195.6875 137.003906 195.484375 136.726562 C 195.28125 136.449219 195.121094 136.148438 195.011719 135.824219 L 187.769531 113.402344 L 180.480469 135.824219 C 180.367188 136.148438 180.210938 136.449219 180.007812 136.722656 C 179.804688 137 179.566406 137.238281 179.289062 137.441406 C 179.011719 137.640625 178.710938 137.796875 178.382812 137.90625 C 178.058594 138.011719 177.722656 138.070312 177.378906 138.074219 L 153.714844 138.074219 L 172.855469 151.921875 C 173.132812 152.128906 173.371094 152.367188 173.570312 152.648438 C 173.773438 152.925781 173.925781 153.226562 174.035156 153.554688 C 174.140625 153.878906 174.195312 154.214844 174.199219 154.558594 C 174.199219 154.902344 174.152344 155.234375 174.050781 155.5625 L 166.707031 177.984375 L 185.796875 164.136719 C 186.386719 163.710938 187.042969 163.5 187.769531 163.507812 Z M 187.769531 163.507812 " fill-opacity="1" fill-rule="nonzero"/></svg>