<svg xmlns="http://www.w3.org/2000/svg" width="375" viewBox="0 0 375 375" height="375" version="1.0"><defs><clipPath id="a"><path d="M 134 299 L 241 299 L 241 315.109375 L 134 315.109375 Z M 134 299"/></clipPath><clipPath id="b"><path d="M 179 256 L 196 256 L 196 315.109375 L 179 315.109375 Z M 179 256"/></clipPath><clipPath id="c"><path d="M 91 60.109375 L 284 60.109375 L 284 188 L 91 188 Z M 91 60.109375"/></clipPath><clipPath id="d"><path d="M 60.109375 102 L 315.109375 102 L 315.109375 273 L 60.109375 273 Z M 60.109375 102"/></clipPath></defs><path fill="#FFF" d="M-37.5 -37.5H412.5V412.5H-37.5z"/><path fill="#26AFD9" d="M-37.5 -37.5H412.5V412.5H-37.5z"/><path fill="#FFF" d="M 307.140625 121.203125 L 307.140625 254.015625 C 307.140625 259.878906 302.378906 264.640625 296.515625 264.640625 L 78.703125 264.640625 C 72.835938 264.640625 68.078125 259.878906 68.078125 254.015625 L 68.078125 121.203125 C 68.078125 115.359375 72.859375 110.578125 78.703125 110.578125 L 296.515625 110.578125 C 302.359375 110.578125 307.140625 115.359375 307.140625 121.203125 Z M 307.140625 121.203125"/><path fill="#A3E3F3" d="M 272.726562 120.300781 C 253.453125 86.609375 221.640625 66.484375 187.609375 66.484375 C 153.578125 66.484375 121.765625 86.609375 102.492188 120.300781 C 101.226562 122.5 101.226562 125.207031 102.492188 127.417969 C 121.765625 161.109375 153.578125 181.234375 187.609375 181.234375 C 221.640625 181.234375 253.453125 161.109375 272.726562 127.417969 C 273.992188 125.207031 273.992188 122.507812 272.726562 120.300781 Z M 272.726562 120.300781"/><path fill="#FFF" d="M 210.847656 123.859375 C 210.847656 124.621094 210.808594 125.378906 210.734375 126.136719 C 210.660156 126.894531 210.546875 127.644531 210.398438 128.390625 C 210.25 129.140625 210.066406 129.875 209.84375 130.605469 C 209.625 131.332031 209.367188 132.046875 209.078125 132.75 C 208.785156 133.453125 208.460938 134.140625 208.101562 134.8125 C 207.742188 135.484375 207.351562 136.136719 206.929688 136.769531 C 206.507812 137.402344 206.054688 138.011719 205.570312 138.601562 C 205.089844 139.1875 204.578125 139.75 204.039062 140.289062 C 203.5 140.828125 202.9375 141.339844 202.351562 141.820312 C 201.761719 142.304688 201.152344 142.757812 200.519531 143.179688 C 199.886719 143.601562 199.234375 143.992188 198.5625 144.351562 C 197.890625 144.710938 197.203125 145.035156 196.5 145.328125 C 195.796875 145.617188 195.082031 145.875 194.355469 146.09375 C 193.625 146.316406 192.890625 146.5 192.140625 146.648438 C 191.394531 146.796875 190.644531 146.910156 189.886719 146.984375 C 189.128906 147.058594 188.371094 147.097656 187.609375 147.097656 C 186.847656 147.097656 186.089844 147.058594 185.332031 146.984375 C 184.574219 146.910156 183.820312 146.796875 183.074219 146.648438 C 182.328125 146.5 181.59375 146.316406 180.863281 146.09375 C 180.136719 145.875 179.417969 145.617188 178.714844 145.328125 C 178.011719 145.035156 177.328125 144.710938 176.65625 144.351562 C 175.984375 143.992188 175.332031 143.601562 174.699219 143.179688 C 174.066406 142.757812 173.457031 142.304688 172.867188 141.820312 C 172.28125 141.339844 171.714844 140.828125 171.179688 140.289062 C 170.640625 139.75 170.128906 139.1875 169.648438 138.601562 C 169.164062 138.011719 168.710938 137.402344 168.289062 136.769531 C 167.867188 136.136719 167.476562 135.484375 167.117188 134.8125 C 166.757812 134.140625 166.433594 133.453125 166.140625 132.75 C 165.851562 132.046875 165.59375 131.332031 165.371094 130.605469 C 165.152344 129.875 164.96875 129.140625 164.820312 128.390625 C 164.671875 127.644531 164.558594 126.894531 164.484375 126.136719 C 164.410156 125.378906 164.371094 124.621094 164.371094 123.859375 C 164.371094 123.097656 164.410156 122.339844 164.484375 121.582031 C 164.558594 120.824219 164.671875 120.070312 164.820312 119.324219 C 164.96875 118.578125 165.152344 117.84375 165.371094 117.113281 C 165.59375 116.386719 165.851562 115.667969 166.140625 114.964844 C 166.433594 114.261719 166.757812 113.578125 167.117188 112.90625 C 167.476562 112.234375 167.867188 111.582031 168.289062 110.949219 C 168.710938 110.316406 169.164062 109.707031 169.648438 109.117188 C 170.128906 108.53125 170.640625 107.964844 171.179688 107.429688 C 171.714844 106.890625 172.28125 106.378906 172.867188 105.898438 C 173.457031 105.414062 174.066406 104.960938 174.699219 104.539062 C 175.332031 104.117188 175.984375 103.726562 176.65625 103.367188 C 177.328125 103.007812 178.011719 102.683594 178.714844 102.390625 C 179.417969 102.101562 180.136719 101.84375 180.863281 101.621094 C 181.59375 101.402344 182.328125 101.21875 183.074219 101.070312 C 183.820312 100.921875 184.574219 100.808594 185.332031 100.734375 C 186.089844 100.660156 186.847656 100.621094 187.609375 100.621094 C 188.371094 100.621094 189.128906 100.660156 189.886719 100.734375 C 190.644531 100.808594 191.394531 100.921875 192.140625 101.070312 C 192.890625 101.21875 193.625 101.402344 194.355469 101.621094 C 195.082031 101.84375 195.796875 102.101562 196.5 102.390625 C 197.203125 102.683594 197.890625 103.007812 198.5625 103.367188 C 199.234375 103.726562 199.886719 104.117188 200.519531 104.539062 C 201.152344 104.960938 201.761719 105.414062 202.351562 105.898438 C 202.9375 106.378906 203.5 106.890625 204.039062 107.429688 C 204.578125 107.964844 205.089844 108.53125 205.570312 109.117188 C 206.054688 109.707031 206.507812 110.316406 206.929688 110.949219 C 207.351562 111.582031 207.742188 112.234375 208.101562 112.90625 C 208.460938 113.578125 208.785156 114.261719 209.078125 114.964844 C 209.367188 115.667969 209.625 116.386719 209.84375 117.113281 C 210.066406 117.84375 210.25 118.578125 210.398438 119.324219 C 210.546875 120.070312 210.660156 120.824219 210.734375 121.582031 C 210.808594 122.339844 210.847656 123.097656 210.847656 123.859375 Z M 210.847656 123.859375"/><g clip-path="url(#a)"><path fill="#063251" d="M 232.765625 315.109375 L 142.453125 315.109375 C 138.054688 315.109375 134.484375 311.539062 134.484375 307.140625 C 134.484375 302.742188 138.054688 299.171875 142.453125 299.171875 L 232.765625 299.171875 C 237.164062 299.171875 240.734375 302.742188 240.734375 307.140625 C 240.734375 311.539062 237.164062 315.109375 232.765625 315.109375 Z M 232.765625 315.109375"/></g><g clip-path="url(#b)"><path fill="#063251" d="M 187.609375 315.109375 C 183.210938 315.109375 179.640625 311.539062 179.640625 307.140625 L 179.640625 264.640625 C 179.640625 260.242188 183.210938 256.671875 187.609375 256.671875 C 192.007812 256.671875 195.578125 260.242188 195.578125 264.640625 L 195.578125 307.140625 C 195.578125 311.539062 192.007812 315.109375 187.609375 315.109375 Z M 187.609375 315.109375"/></g><path fill="#063251" d="M 187.609375 155.734375 C 170.035156 155.734375 155.734375 141.433594 155.734375 123.859375 C 155.734375 106.285156 170.035156 91.984375 187.609375 91.984375 C 205.183594 91.984375 219.484375 106.285156 219.484375 123.859375 C 219.484375 141.433594 205.183594 155.734375 187.609375 155.734375 Z M 187.609375 107.921875 C 178.820312 107.921875 171.671875 115.070312 171.671875 123.859375 C 171.671875 132.644531 178.820312 139.796875 187.609375 139.796875 C 196.394531 139.796875 203.546875 132.644531 203.546875 123.859375 C 203.546875 115.070312 196.394531 107.921875 187.609375 107.921875 Z M 187.609375 107.921875"/><g clip-path="url(#c)"><path fill="#063251" d="M 187.609375 187.609375 C 149.792969 187.609375 114.433594 165.253906 93.035156 127.8125 C 91.632812 125.367188 91.632812 122.351562 93.035156 119.90625 C 114.433594 82.464844 149.792969 60.109375 187.609375 60.109375 C 225.421875 60.109375 260.785156 82.464844 282.183594 119.90625 C 283.585938 122.351562 283.585938 125.367188 282.183594 127.8125 C 260.785156 165.253906 225.421875 187.609375 187.609375 187.609375 Z M 109.226562 123.859375 C 127.90625 153.886719 156.902344 171.671875 187.609375 171.671875 C 218.316406 171.671875 247.3125 153.886719 265.988281 123.859375 C 247.3125 93.832031 218.316406 76.046875 187.609375 76.046875 C 156.902344 76.046875 127.90625 93.832031 109.226562 123.859375 Z M 109.226562 123.859375"/></g><g clip-path="url(#d)"><path fill="#063251" d="M 296.515625 272.609375 L 78.703125 272.609375 C 68.449219 272.609375 60.109375 264.269531 60.109375 254.015625 L 60.109375 110.578125 C 60.109375 106.179688 63.679688 102.609375 68.078125 102.609375 C 72.476562 102.609375 76.046875 106.179688 76.046875 110.578125 L 76.046875 254.015625 C 76.046875 255.460938 77.257812 256.671875 78.703125 256.671875 L 296.515625 256.671875 C 297.960938 256.671875 299.171875 255.460938 299.171875 254.015625 L 299.171875 110.578125 C 299.171875 106.179688 302.742188 102.609375 307.140625 102.609375 C 311.539062 102.609375 315.109375 106.179688 315.109375 110.578125 L 315.109375 254.015625 C 315.109375 264.269531 306.769531 272.609375 296.515625 272.609375 Z M 296.515625 272.609375"/></g></svg>