<svg xmlns="http://www.w3.org/2000/svg" width="375" viewBox="0 0 375 375" height="375" version="1.0"><defs><clipPath id="a"><path d="M 70.957031 84 L 248 84 L 248 322.558594 L 70.957031 322.558594 Z M 70.957031 84"/></clipPath><clipPath id="b"><path d="M 182 52.558594 L 282 52.558594 L 282 255 L 182 255 Z M 182 52.558594"/></clipPath><clipPath id="c"><path d="M 186 88 L 304.207031 88 L 304.207031 289 L 186 289 Z M 186 88"/></clipPath></defs><path fill="#FFF" d="M-37.5 -37.5H412.5V412.5H-37.5z"/><path fill="#26AFD9" d="M-37.5 -37.5H412.5V412.5H-37.5z"/><path fill="#063251" d="M 187.445312 87.261719 L 97.28125 55.449219 L 97.28125 251.628906 L 187.449219 222.46875 L 187.449219 87.257812"/><path fill="#A3E3F3" d="M 185.285156 87.160156 L 278.902344 55.351562 L 278.902344 251.53125 L 185.285156 222.371094 L 185.285156 87.160156"/><path fill="#A3E3F3" d="M 73.898438 285.96875 L 185.289062 248.855469 L 185.289062 87.140625 L 73.898438 124.253906 L 73.898438 285.980469"/><path fill="#063251" d="M 236.042969 288.417969 L 251.828125 314.378906 L 260.160156 290.261719 L 236.050781 288.417969 M 111.769531 142.882812 C 111.179688 142.300781 112.539062 147.628906 114.4375 149.542969 C 117.796875 152.933594 120.421875 153.371094 121.820312 153.425781 C 124.914062 153.550781 128.730469 152.65625 131 151.707031 C 133.195312 150.773438 137.035156 148.808594 138.492188 145.949219 C 138.796875 145.335938 139.652344 144.308594 139.125 141.773438 C 138.722656 139.820312 137.476562 139.136719 135.964844 139.246094 C 134.449219 139.347656 129.859375 140.570312 127.628906 141.253906 L 118.839844 143.75 C 116.851562 144.171875 112.46875 143.539062 111.769531 142.882812 M 167.957031 206.5625 C 167.078125 206.242188 148.917969 198.722656 146.34375 197.492188 C 144.238281 196.476562 139.074219 194.292969 136.644531 193.304688 C 143.488281 182.753906 147.808594 174.789062 148.386719 173.578125 L 156.863281 156.3125 C 157.027344 155.429688 157.234375 152.164062 157.074219 151.386719 C 156.917969 150.597656 154.257812 152.117188 150.652344 153.339844 C 147.039062 154.554688 140.175781 159.019531 137.523438 159.578125 C 134.863281 160.132812 126.355469 163.355469 122.015625 164.800781 C 117.671875 166.246094 109.429688 168.753906 106.042969 169.667969 C 102.65625 170.582031 99.691406 170.65625 97.792969 171.230469 C 95.898438 171.804688 98.046875 173.886719 98.550781 174.683594 C 99.050781 175.476562 100.84375 177.429688 102.929688 177.976562 C 105.015625 178.519531 108.46875 178.304688 110.039062 177.945312 C 111.621094 177.578125 114.335938 176.25 114.699219 175.667969 C 115.070312 175.078125 114.511719 173.257812 115.121094 172.707031 C 115.75 172.164062 124.039062 170.226562 127.167969 169.28125 C 130.296875 168.320312 142.277344 164.195312 143.902344 164.40625 C 143.386719 166.113281 133.75 185.191406 130.648438 190.882812 C 127.546875 196.574219 109.515625 221.609375 105.675781 226.023438 C 102.761719 229.378906 95.703125 237.964844 93.257812 239.898438 C 93.875 240.066406 98.246094 239.695312 99.042969 239.203125 C 104.007812 236.144531 112.273438 225.855469 114.9375 222.722656 C 122.847656 213.445312 129.8125 203.699219 135.316406 195.335938 L 135.320312 195.335938 C 136.394531 195.785156 145.078125 202.855469 147.34375 204.425781 C 149.609375 205.992188 158.550781 210.980469 160.492188 211.804688 C 162.425781 212.644531 169.871094 216.074219 170.195312 214.914062 C 170.511719 213.753906 168.851562 206.894531 167.980469 206.5625"/><g clip-path="url(#a)"><path fill="#063251" d="M 126.007812 301.105469 C 127.75 302.167969 129.390625 303.039062 131.230469 303.90625 C 134.902344 305.742188 139.058594 307.675781 143.023438 309.125 C 148.328125 311.125 153.742188 312.765625 159.261719 314.054688 C 162.257812 314.730469 165.546875 315.320312 168.734375 315.792969 C 169.027344 315.792969 177.628906 316.859375 179.371094 316.859375 L 188.070312 316.859375 C 191.453125 316.566406 194.644531 316.375 198.027344 315.890625 C 200.734375 315.503906 203.730469 315.023438 206.632812 314.34375 C 208.757812 313.863281 210.980469 313.378906 213.109375 312.703125 C 215.140625 312.121094 217.457031 311.347656 219.683594 310.574219 C 221.132812 310.09375 222.679688 309.414062 224.226562 308.835938 C 225.628906 308.1875 227.046875 307.578125 228.480469 307 C 230.21875 306.226562 232.25 305.164062 234.183594 304.199219 C 235.730469 303.425781 237.46875 302.457031 239.113281 301.492188 C 240.378906 300.816406 243.269531 298.589844 244.816406 298.589844 C 246.558594 298.589844 247.71875 300.136719 247.71875 301.492188 C 247.71875 304.292969 243.949219 305.164062 242.207031 306.417969 C 240.371094 307.683594 238.148438 308.640625 236.214844 309.703125 C 232.347656 311.734375 228.382812 313.472656 224.613281 314.921875 C 219.683594 316.757812 214.273438 318.507812 209.4375 319.667969 C 207.601562 320.054688 205.765625 320.539062 203.925781 320.828125 C 202.960938 321.023438 192.90625 322.570312 190.101562 322.570312 L 177.335938 322.570312 C 173.953125 322.28125 170.378906 321.894531 166.992188 321.410156 C 163.996094 320.925781 160.808594 320.347656 157.808594 319.667969 C 155.488281 319.1875 152.976562 318.507812 150.742188 317.835938 C 146.875 316.769531 143.101562 315.410156 139.429688 313.96875 C 132.761719 311.457031 125.800781 308.171875 119.226562 303.824219 C 118.066406 303.050781 117.960938 302.277344 117.960938 301.398438 C 117.960938 299.949219 119.023438 298.59375 120.765625 298.59375 C 122.3125 298.59375 125.40625 300.816406 125.984375 301.105469 M 188.152344 86.773438 L 188.152344 249.121094 C 188.046875 249.660156 187.820312 250.144531 187.476562 250.570312 C 187.28125 250.859375 186.894531 251.246094 186.605469 251.34375 C 184.179688 252.308594 75.34375 288.839844 73.886719 288.839844 C 72.726562 288.839844 71.664062 288.066406 71.082031 286.808594 C 71.082031 286.710938 70.988281 286.617188 70.988281 286.421875 L 70.988281 123.980469 C 71.179688 123.496094 71.277344 122.820312 71.660156 122.433594 C 72.433594 121.371094 73.789062 121.167969 74.65625 120.886719 C 76.304688 120.308594 183.503906 84.359375 185.054688 84.359375 C 186.023438 84.359375 188.148438 85.039062 188.148438 86.785156 Z M 182.242188 246.707031 L 76.898438 281.785156 L 76.898438 126.398438 L 182.269531 91.320312 L 182.269531 246.71875" fill-rule="evenodd"/></g><g clip-path="url(#b)"><path fill="#063251" d="M 281.839844 55.644531 L 281.839844 251.140625 C 281.746094 253.363281 280.195312 254.328125 278.746094 254.328125 C 277.488281 254.328125 268.402344 251.238281 266.855469 250.742188 L 230.316406 239.4375 L 222.195312 236.828125 C 219.796875 236.132812 217.414062 235.390625 215.042969 234.605469 L 183.816406 224.75 C 183.433594 224.652344 182.464844 223.300781 182.464844 223.007812 L 182.464844 86.46875 C 182.65625 85.988281 182.851562 85.40625 183.335938 85.019531 C 184.109375 84.152344 217.265625 73.132812 230.316406 68.785156 C 233.796875 67.527344 277.394531 52.550781 278.746094 52.550781 C 280.488281 52.550781 281.839844 53.804688 281.839844 55.640625 Z M 275.929688 247.46875 L 188.253906 220.21875 L 188.253906 89.265625 L 275.9375 59.515625 L 275.9375 247.480469" fill-rule="evenodd"/></g><g clip-path="url(#c)"><path fill="#063251" d="M 304.089844 288.417969 L 186.960938 251.09375 L 187.453125 88.621094 L 304.09375 125.746094 L 304.09375 288.429688"/></g><path fill="#A3E3F3" d="M 238.140625 135.003906 L 253.230469 139.574219 L 280.726562 238.628906 L 265.226562 233.925781 L 259.65625 213.59375 L 227.621094 203.886719 L 220.730469 220.453125 L 205.226562 215.75 L 238.140625 135 Z M 245.039062 161.226562 L 233.542969 189.007812 L 254.679688 195.410156 L 245.039062 161.226562" fill-rule="evenodd"/></svg>