<svg xmlns="http://www.w3.org/2000/svg" width="375" viewBox="0 0 375 375" height="375" version="1.0"><defs><clipPath id="a"><path d="M 187 51.199219 L 322.5625 51.199219 L 322.5625 202 L 187 202 Z M 187 51.199219"/></clipPath><clipPath id="b"><path d="M 52.5625 58 L 226 58 L 226 157 L 52.5625 157 Z M 52.5625 58"/></clipPath></defs><path fill="#FFF" d="M-37.5 -37.5H412.5V412.5H-37.5z"/><path fill="#FFF" d="M-37.5 -37.5H412.5V412.5H-37.5z"/><path fill="#26AFD9" d="M-37.5 -37.5H412.5V412.5H-37.5z"/><g clip-path="url(#a)"><path fill="#06507A" d="M 320.652344 138.410156 C 320.261719 137.351562 318.953125 134.140625 315.722656 131.355469 C 311.191406 127.457031 306.082031 127.160156 304.546875 127.089844 C 304.398438 127.085938 304.25 127.078125 304.105469 127.078125 C 301.460938 127.023438 299.628906 124.398438 300.570312 121.933594 C 301.238281 120.183594 301.792969 118.175781 302.082031 115.933594 C 302.90625 109.4375 301.035156 104.460938 299.945312 101.660156 C 299.320312 100.058594 297.332031 95.335938 292.875 90.667969 C 289.367188 86.992188 285.945312 85.046875 283.671875 83.777344 C 280.972656 82.269531 277.273438 80.246094 272 79.347656 C 267.648438 78.601562 264.222656 78.96875 260.660156 79.347656 C 258.078125 79.621094 256.015625 79.855469 253.429688 80.824219 L 253.273438 80.882812 C 250.726562 81.84375 248.082031 79.917969 248.097656 77.199219 C 248.101562 76.519531 248.070312 75.8125 248.003906 75.082031 C 246.691406 60.644531 228.941406 51.78125 218.3125 51.457031 C 210.695312 51.21875 204.40625 51.597656 200.671875 52.273438 C 195.535156 53.207031 191.910156 54.773438 188.6875 56.3125 C 187.773438 56.746094 187.191406 57.667969 187.191406 58.683594 L 187.191406 96.800781 C 187.191406 97.863281 188.378906 98.46875 189.257812 97.871094 C 193.902344 94.699219 199.570312 92.921875 205.660156 93.148438 C 219.574219 93.671875 231.070312 104.917969 231.855469 118.796875 C 232.742188 134.523438 220.175781 147.601562 204.613281 147.601562 C 198.921875 147.601562 193.632812 145.847656 189.253906 142.859375 C 188.378906 142.257812 187.191406 142.867188 187.191406 143.925781 L 187.191406 156.460938 L 225.035156 156.460938 C 227.007812 156.460938 228.609375 158.058594 228.609375 160.03125 L 228.609375 160.035156 C 228.609375 161.347656 227.941406 162.5625 226.851562 163.300781 C 221.128906 167.179688 217.457031 173.84375 217.785156 181.34375 C 218.246094 191.886719 226.929688 200.578125 237.492188 201.066406 C 249.375 201.609375 259.183594 192.15625 259.183594 180.414062 C 259.183594 173.300781 255.582031 167.027344 250.101562 163.308594 C 249.011719 162.566406 248.332031 161.351562 248.332031 160.03125 C 248.332031 158.058594 249.9375 156.460938 251.910156 156.460938 L 315.921875 156.460938 C 316.433594 156.460938 316.949219 156.320312 317.375 156.03125 C 319.753906 154.40625 320.832031 152.644531 321.53125 150.117188 C 322.09375 148.074219 322.5 143.40625 320.652344 138.410156"/></g><path fill="#063251" d="M 320.433594 184.570312 C 319.308594 175.648438 315.816406 168.730469 312.914062 164.234375 C 312.425781 163.480469 311.59375 163.023438 310.695312 163.023438 L 262.078125 163.023438 C 261.015625 163.023438 260.40625 164.207031 261.007812 165.085938 C 264.183594 169.71875 265.964844 175.378906 265.738281 181.457031 C 265.214844 195.347656 253.949219 206.824219 240.042969 207.605469 C 224.289062 208.492188 211.1875 195.953125 211.1875 180.414062 C 211.1875 174.730469 212.945312 169.453125 215.9375 165.082031 C 216.539062 164.207031 215.933594 163.023438 214.867188 163.023438 L 187.191406 163.023438 L 187.191406 185.703125 C 187.191406 187.675781 185.589844 189.277344 183.617188 189.277344 L 183.613281 189.277344 C 182.296875 189.277344 181.078125 188.605469 180.335938 187.519531 C 176.453125 181.804688 169.777344 178.140625 162.265625 178.464844 C 151.703125 178.925781 142.996094 187.597656 142.507812 198.140625 C 141.960938 210.003906 151.433594 219.792969 163.195312 219.792969 C 170.320312 219.792969 176.605469 216.199219 180.332031 210.730469 C 181.074219 209.636719 182.292969 208.960938 183.613281 208.960938 L 183.617188 208.960938 C 185.589844 208.960938 187.191406 210.5625 187.191406 212.53125 L 187.191406 260.414062 C 187.191406 261.023438 187.605469 261.554688 188.199219 261.691406 C 190.25 262.167969 192.921875 262.882812 195.957031 263.980469 C 203.070312 266.550781 207.984375 269.675781 212.394531 272.511719 C 213.6875 273.347656 219.128906 276.890625 225.761719 282.578125 C 232.609375 288.449219 237.316406 293.6875 239.785156 296.578125 C 244.742188 302.367188 247.585938 305.753906 249.867188 311.234375 C 251.492188 315.136719 252.242188 318.675781 252.609375 321.324219 C 252.683594 321.863281 253.09375 322.289062 253.625 322.410156 C 255.625 322.863281 260.183594 323.460938 264.769531 320.859375 C 265.585938 320.398438 269.835938 317.886719 271.5625 312.765625 C 273.117188 308.160156 271.695312 304.21875 269.8125 298.984375 C 267.351562 292.164062 263.886719 287.609375 260.167969 282.792969 C 256.84375 278.496094 250.53125 272.691406 250.207031 272.46875 C 247.355469 270.488281 248.359375 266.03125 251.773438 265.398438 C 254.382812 264.917969 256.5625 264.414062 257.320312 263.980469 C 261.320312 261.699219 263.203125 258.113281 263.894531 256.761719 C 264.320312 255.929688 266.660156 251.171875 265.644531 245.167969 C 265.5 244.28125 264.847656 242.730469 263.984375 240.972656 C 262.527344 238.011719 265.214844 234.691406 268.433594 235.449219 C 271.113281 236.078125 274.164062 236.429688 277.480469 236.199219 C 283.597656 235.773438 287.898438 233.574219 292.601562 231.167969 C 302.957031 225.867188 308.941406 218.8125 310.789062 216.511719 C 313.695312 212.898438 317.777344 207.824219 319.777344 199.882812 C 321.46875 193.164062 320.832031 187.714844 320.433594 184.570312"/><path fill="#A3E3F3" d="M 163.195312 171.882812 C 168.886719 171.882812 174.175781 173.636719 178.554688 176.625 C 179.433594 177.222656 180.617188 176.617188 180.617188 175.554688 L 180.617188 163.023438 L 142.773438 163.023438 C 140.800781 163.023438 139.199219 161.425781 139.199219 159.453125 L 139.199219 159.449219 C 139.199219 158.132812 139.867188 156.921875 140.957031 156.183594 C 146.679688 152.304688 150.351562 145.640625 150.023438 138.140625 C 149.5625 127.59375 140.878906 118.90625 130.316406 118.417969 C 118.433594 117.871094 108.625 127.328125 108.625 139.070312 C 108.625 146.183594 112.226562 152.457031 117.707031 156.175781 C 118.800781 156.917969 119.476562 158.128906 119.476562 159.453125 C 119.476562 161.425781 117.875 163.023438 115.898438 163.023438 L 60.820312 163.023438 C 59.757812 163.023438 59.128906 164.207031 59.734375 165.078125 C 60.519531 166.210938 61.445312 167.511719 62.496094 168.929688 C 64.765625 171.992188 67.359375 175.476562 71.152344 179.539062 C 73.6875 182.253906 76.128906 184.847656 79.917969 187.742188 C 81.597656 189.027344 84.109375 190.925781 87.808594 192.773438 C 91.203125 194.472656 93.972656 195.320312 95.695312 195.835938 C 99.636719 197.019531 102.6875 197.457031 105.996094 197.914062 C 107.082031 198.066406 108.304688 198.214844 109.648438 198.351562 C 111.378906 198.523438 112.132812 200.628906 110.914062 201.867188 L 110.820312 201.960938 C 109.011719 203.808594 108.355469 205.785156 107.96875 206.996094 C 107.5 208.460938 106.757812 211.554688 107.75 216.183594 C 108.339844 218.929688 107.925781 223.878906 113.558594 231.386719 C 118.84375 238.4375 123.132812 240.429688 127.363281 243.527344 C 131.800781 246.773438 135.761719 248.246094 142.484375 250.746094 C 145.339844 251.808594 148.84375 252.839844 155.855469 254.902344 C 161.558594 256.582031 173.882812 258.769531 179.046875 259.816406 C 179.859375 259.984375 180.617188 259.359375 180.617188 258.53125 L 180.617188 222.683594 C 180.617188 221.617188 179.429688 221.015625 178.554688 221.617188 C 173.910156 224.785156 168.238281 226.5625 162.152344 226.335938 C 148.234375 225.8125 136.738281 214.566406 135.957031 200.683594 C 135.070312 184.957031 147.632812 171.882812 163.195312 171.882812"/><g clip-path="url(#b)"><path fill="#094978" d="M 205.542969 99.710938 C 198.03125 99.382812 191.359375 103.050781 187.472656 108.765625 C 186.730469 109.851562 185.515625 110.519531 184.199219 110.519531 L 184.195312 110.519531 C 182.21875 110.519531 180.617188 108.921875 180.617188 106.949219 L 180.753906 59.601562 C 180.753906 58.742188 179.941406 58.128906 179.105469 58.332031 C 168.214844 60.996094 159.265625 59.660156 149.554688 59.660156 C 132.40625 59.660156 114.820312 66.761719 113.898438 82.300781 C 113.8125 83.792969 112.519531 84.914062 111.027344 84.785156 C 106.609375 84.390625 97.574219 84.46875 88.410156 89.847656 C 75.054688 97.691406 74.152344 107.992188 78.652344 119.003906 C 79.683594 121.53125 77.921875 124.34375 75.191406 124.4375 C 73.730469 124.488281 72.160156 124.660156 70.660156 125.039062 C 59.929688 127.777344 52.636719 134.46875 52.636719 145.519531 C 52.636719 148.976562 53.519531 152.230469 55.070312 155.066406 C 55.535156 155.921875 56.425781 156.460938 57.402344 156.460938 L 105.730469 156.460938 C 106.796875 156.460938 107.402344 155.277344 106.804688 154.402344 C 103.808594 150.03125 102.054688 144.753906 102.054688 139.070312 C 102.054688 123.53125 115.152344 110.992188 130.90625 111.875 C 144.8125 112.660156 156.078125 124.132812 156.601562 138.027344 C 156.832031 144.105469 155.046875 149.765625 151.871094 154.398438 C 151.269531 155.273438 151.878906 156.460938 152.941406 156.460938 L 180.617188 156.460938 L 180.617188 133.777344 C 180.617188 131.808594 182.21875 130.210938 184.195312 130.210938 C 185.519531 130.210938 186.734375 130.882812 187.476562 131.972656 C 191.203125 137.445312 197.488281 141.039062 204.613281 141.039062 C 216.375 141.039062 225.847656 131.25 225.300781 119.386719 C 224.816406 108.84375 216.109375 100.175781 205.542969 99.710938"/></g></svg>