<svg xmlns="http://www.w3.org/2000/svg" width="375" viewBox="0 0 375 375" height="375" version="1.0"><defs><clipPath id="a"><path d="M 59.816406 225 L 255 225 L 255 310.980469 L 59.816406 310.980469 Z M 59.816406 225"/></clipPath><clipPath id="b"><path d="M 59.816406 206 L 255 206 L 255 252 L 59.816406 252 Z M 59.816406 206"/></clipPath><clipPath id="c"><path d="M 59.816406 153 L 255 153 L 255 239 L 59.816406 239 Z M 59.816406 153"/></clipPath><clipPath id="d"><path d="M 59.816406 134 L 255 134 L 255 180 L 59.816406 180 Z M 59.816406 134"/></clipPath><clipPath id="e"><path d="M 59.816406 83 L 255 83 L 255 169 L 59.816406 169 Z M 59.816406 83"/></clipPath><clipPath id="f"><path d="M 59.816406 64.230469 L 255 64.230469 L 255 110 L 59.816406 110 Z M 59.816406 64.230469"/></clipPath><clipPath id="g"><path d="M 187 140 L 314.816406 140 L 314.816406 267 L 187 267 Z M 187 140"/></clipPath></defs><path fill="#FFF" d="M-37.5 -37.5H412.5V412.5H-37.5z"/><path fill="#26AFD9" d="M-37.5 -37.5H412.5V412.5H-37.5z"/><path fill="#A3E3F3" d="M 251.035156 288.035156 C 251.035156 298.867188 208.929688 307.644531 157 307.644531 C 105.070312 307.644531 62.964844 298.867188 62.964844 288.035156 L 62.964844 229.179688 L 251.035156 229.179688 L 251.035156 288.035156"/><g clip-path="url(#a)"><path fill="#063251" d="M 251.035156 288.035156 L 247.847656 288.035156 C 247.835938 288.195312 247.816406 288.355469 247.675781 288.640625 C 247.433594 289.160156 246.695312 290.058594 245.3125 291.011719 C 242.914062 292.714844 238.730469 294.546875 233.257812 296.179688 C 225.039062 298.644531 213.886719 300.730469 200.851562 302.171875 C 187.804688 303.621094 172.867188 304.449219 157 304.449219 C 131.226562 304.457031 107.871094 302.265625 91.160156 298.773438 C 82.816406 297.035156 76.117188 294.949219 71.765625 292.800781 C 69.601562 291.730469 68.027344 290.640625 67.160156 289.742188 C 66.714844 289.296875 66.460938 288.914062 66.324219 288.640625 C 66.1875 288.355469 66.167969 288.195312 66.167969 288.035156 L 66.167969 232.378906 L 247.847656 232.378906 L 247.847656 288.035156 L 254.226562 288.035156 L 254.226562 229.179688 C 254.226562 228.34375 253.890625 227.519531 253.285156 226.914062 C 252.695312 226.332031 251.871094 225.984375 251.035156 225.984375 L 62.964844 225.984375 C 62.132812 225.984375 61.308594 226.332031 60.714844 226.914062 C 60.113281 227.519531 59.777344 228.34375 59.777344 229.179688 L 59.777344 288.035156 C 59.777344 289.234375 60.082031 290.410156 60.589844 291.445312 C 61.550781 293.394531 63.113281 294.90625 65.035156 296.253906 C 68.40625 298.613281 73.066406 300.550781 78.917969 302.308594 C 87.683594 304.933594 99.144531 307.050781 112.457031 308.535156 C 125.765625 310.015625 140.914062 310.851562 157 310.851562 C 183.15625 310.84375 206.816406 308.652344 224.140625 305.039062 C 232.816406 303.21875 239.890625 301.082031 245.046875 298.539062 C 247.636719 297.257812 249.757812 295.894531 251.394531 294.230469 C 252.210938 293.394531 252.90625 292.484375 253.414062 291.445312 C 253.921875 290.410156 254.226562 289.234375 254.226562 288.035156 L 251.035156 288.035156"/></g><path fill="#097BAD" d="M 251.035156 229.179688 C 251.035156 240.023438 208.929688 248.800781 157 248.800781 C 105.070312 248.800781 62.964844 240.023438 62.964844 229.179688 C 62.964844 218.351562 105.070312 209.5625 157 209.5625 C 208.929688 209.5625 251.035156 218.351562 251.035156 229.179688"/><g clip-path="url(#b)"><path fill="#063251" d="M 251.035156 229.179688 L 247.847656 229.179688 C 247.835938 229.339844 247.816406 229.507812 247.675781 229.785156 C 247.433594 230.304688 246.695312 231.203125 245.3125 232.167969 C 242.914062 233.871094 238.730469 235.703125 233.257812 237.332031 C 225.039062 239.789062 213.886719 241.875 200.851562 243.324219 C 187.804688 244.777344 172.867188 245.601562 157 245.601562 C 131.226562 245.601562 107.871094 243.410156 91.160156 239.925781 C 82.816406 238.191406 76.117188 236.105469 71.765625 233.957031 C 69.601562 232.886719 68.027344 231.796875 67.160156 230.894531 C 66.714844 230.453125 66.460938 230.058594 66.324219 229.785156 C 66.1875 229.507812 66.167969 229.339844 66.167969 229.179688 C 66.167969 229.03125 66.1875 228.863281 66.324219 228.578125 C 66.558594 228.058594 67.308594 227.160156 68.691406 226.195312 C 71.089844 224.5 75.273438 222.660156 80.746094 221.039062 C 88.960938 218.582031 100.117188 216.496094 113.164062 215.046875 C 126.199219 213.585938 141.136719 212.761719 157 212.761719 C 182.785156 212.761719 206.132812 214.953125 222.84375 218.445312 C 231.1875 220.183594 237.886719 222.265625 242.238281 224.417969 C 244.414062 225.484375 245.976562 226.578125 246.84375 227.476562 C 247.285156 227.921875 247.550781 228.300781 247.675781 228.578125 C 247.816406 228.863281 247.835938 229.03125 247.847656 229.179688 L 254.226562 229.179688 C 254.226562 227.984375 253.921875 226.808594 253.414062 225.773438 C 252.453125 223.824219 250.890625 222.320312 248.964844 220.964844 C 245.597656 218.613281 240.9375 216.667969 235.085938 214.910156 C 226.308594 212.285156 214.855469 210.164062 201.546875 208.683594 C 188.238281 207.203125 173.089844 206.363281 157 206.363281 C 130.847656 206.363281 107.183594 208.566406 89.859375 212.175781 C 81.1875 214 74.109375 216.136719 68.957031 218.679688 C 66.367188 219.960938 64.246094 221.324219 62.605469 222.988281 C 61.78125 223.8125 61.097656 224.734375 60.589844 225.773438 C 60.082031 226.808594 59.777344 227.984375 59.777344 229.179688 C 59.777344 230.378906 60.082031 231.550781 60.589844 232.589844 C 61.550781 234.539062 63.113281 236.050781 65.035156 237.40625 C 68.40625 239.757812 73.066406 241.695312 78.917969 243.464844 C 87.683594 246.078125 99.144531 248.195312 112.457031 249.679688 C 125.765625 251.160156 140.914062 251.996094 157 251.996094 C 183.15625 251.996094 206.816406 249.796875 224.140625 246.183594 C 232.816406 244.375 239.890625 242.226562 245.046875 239.683594 C 247.636719 238.414062 249.757812 237.035156 251.394531 235.375 C 252.210938 234.550781 252.90625 233.628906 253.414062 232.589844 C 253.921875 231.550781 254.226562 230.378906 254.226562 229.179688 L 251.035156 229.179688"/></g><path fill="#A3E3F3" d="M 251.035156 215.746094 C 251.035156 226.585938 208.929688 235.363281 157 235.363281 C 105.070312 235.363281 62.964844 226.585938 62.964844 215.746094 L 62.964844 156.898438 L 251.035156 156.898438 L 251.035156 215.746094"/><g clip-path="url(#c)"><path fill="#063251" d="M 251.035156 215.746094 L 247.847656 215.746094 C 247.835938 215.90625 247.816406 216.0625 247.675781 216.347656 C 247.433594 216.878906 246.695312 217.769531 245.3125 218.730469 C 242.914062 220.4375 238.730469 222.265625 233.257812 223.898438 C 225.039062 226.355469 213.886719 228.441406 200.851562 229.890625 C 187.804688 231.339844 172.867188 232.167969 157 232.167969 C 131.226562 232.175781 107.871094 229.976562 91.160156 226.492188 C 82.816406 224.753906 76.117188 222.667969 71.765625 220.519531 C 69.601562 219.453125 68.027344 218.351562 67.160156 217.460938 C 66.714844 217.015625 66.460938 216.636719 66.324219 216.347656 C 66.1875 216.0625 66.167969 215.90625 66.167969 215.746094 L 66.167969 160.097656 L 247.847656 160.097656 L 247.847656 215.746094 L 254.226562 215.746094 L 254.226562 156.898438 C 254.226562 156.054688 253.890625 155.238281 253.285156 154.632812 C 252.695312 154.042969 251.871094 153.703125 251.035156 153.703125 L 62.964844 153.703125 C 62.132812 153.703125 61.308594 154.042969 60.714844 154.632812 C 60.113281 155.238281 59.777344 156.054688 59.777344 156.898438 L 59.777344 215.746094 C 59.777344 216.953125 60.082031 218.128906 60.589844 219.15625 C 61.550781 221.113281 63.113281 222.617188 65.035156 223.972656 C 68.40625 226.324219 73.066406 228.261719 78.917969 230.027344 C 87.683594 232.644531 99.144531 234.761719 112.457031 236.253906 C 125.765625 237.734375 140.914062 238.5625 157 238.5625 C 183.15625 238.5625 206.816406 236.359375 224.140625 232.75 C 232.816406 230.9375 239.890625 228.789062 245.046875 226.257812 C 247.636719 224.976562 249.757812 223.601562 251.394531 221.949219 C 252.210938 221.113281 252.90625 220.203125 253.414062 219.15625 C 253.921875 218.128906 254.226562 216.953125 254.226562 215.746094 L 251.035156 215.746094"/></g><path fill="#097BAD" d="M 251.035156 156.902344 C 251.035156 167.730469 208.929688 176.519531 157 176.519531 C 105.070312 176.519531 62.964844 167.730469 62.964844 156.902344 C 62.964844 146.070312 105.070312 137.28125 157 137.28125 C 208.929688 137.28125 251.035156 146.070312 251.035156 156.902344"/><g clip-path="url(#d)"><path fill="#063251" d="M 251.035156 156.902344 L 247.847656 156.902344 C 247.835938 157.058594 247.816406 157.21875 247.675781 157.503906 C 247.433594 158.023438 246.695312 158.921875 245.3125 159.875 C 242.914062 161.578125 238.730469 163.421875 233.257812 165.042969 C 225.039062 167.507812 213.886719 169.59375 200.851562 171.035156 C 187.804688 172.484375 172.867188 173.320312 157 173.320312 C 131.226562 173.320312 107.871094 171.128906 91.160156 167.636719 C 82.816406 165.910156 76.117188 163.824219 71.765625 161.664062 C 69.601562 160.59375 68.027344 159.503906 67.160156 158.605469 C 66.714844 158.171875 66.460938 157.777344 66.324219 157.503906 C 66.1875 157.21875 66.167969 157.058594 66.167969 156.902344 C 66.167969 156.742188 66.1875 156.582031 66.324219 156.296875 C 66.558594 155.777344 67.308594 154.878906 68.691406 153.914062 C 71.089844 152.222656 75.273438 150.378906 80.746094 148.757812 C 88.960938 146.292969 100.117188 144.207031 113.164062 142.753906 C 126.199219 141.304688 141.136719 140.480469 157 140.480469 C 182.785156 140.480469 206.132812 142.671875 222.84375 146.152344 C 231.1875 147.890625 237.886719 149.976562 242.238281 152.136719 C 244.414062 153.207031 245.976562 154.296875 246.84375 155.183594 C 247.285156 155.628906 247.550781 156.023438 247.675781 156.296875 C 247.816406 156.582031 247.835938 156.742188 247.847656 156.902344 L 254.226562 156.902344 C 254.226562 155.703125 253.921875 154.527344 253.414062 153.492188 C 252.453125 151.542969 250.890625 150.027344 248.964844 148.675781 C 245.597656 146.324219 240.9375 144.386719 235.085938 142.617188 C 226.308594 140.003906 214.855469 137.886719 201.546875 136.402344 C 188.238281 134.921875 173.089844 134.085938 157 134.085938 C 130.847656 134.085938 107.183594 136.285156 89.859375 139.898438 C 81.1875 141.707031 74.109375 143.855469 68.957031 146.398438 C 66.367188 147.679688 64.246094 149.042969 62.605469 150.707031 C 61.78125 151.53125 61.097656 152.453125 60.589844 153.492188 C 60.082031 154.527344 59.777344 155.695312 59.777344 156.902344 C 59.777344 158.097656 60.082031 159.273438 60.589844 160.308594 C 61.550781 162.257812 63.113281 163.773438 65.035156 165.125 C 68.40625 167.476562 73.066406 169.414062 78.917969 171.171875 C 87.683594 173.796875 99.144531 175.914062 112.457031 177.398438 C 125.765625 178.878906 140.914062 179.714844 157 179.714844 C 183.15625 179.707031 206.816406 177.515625 224.140625 173.902344 C 232.816406 172.09375 239.890625 169.945312 245.046875 167.402344 C 247.636719 166.121094 249.757812 164.757812 251.394531 163.09375 C 252.210938 162.257812 252.90625 161.347656 253.414062 160.308594 C 253.921875 159.273438 254.226562 158.097656 254.226562 156.902344 L 251.035156 156.902344"/></g><path fill="#A3E3F3" d="M 251.035156 146.027344 C 251.035156 156.859375 208.929688 165.644531 157 165.644531 C 105.070312 165.644531 62.964844 156.859375 62.964844 146.027344 L 62.964844 87.171875 L 251.035156 87.171875 L 251.035156 146.027344"/><g clip-path="url(#e)"><path fill="#063251" d="M 251.035156 146.027344 L 247.847656 146.027344 C 247.835938 146.175781 247.816406 146.34375 247.675781 146.628906 C 247.433594 147.148438 246.695312 148.050781 245.3125 149.003906 C 242.914062 150.707031 238.730469 152.539062 233.257812 154.167969 C 225.039062 156.636719 213.886719 158.722656 200.851562 160.160156 C 187.804688 161.613281 172.867188 162.449219 157 162.449219 C 131.226562 162.449219 107.871094 160.257812 91.160156 156.761719 C 82.816406 155.027344 76.117188 152.941406 71.765625 150.792969 C 69.601562 149.722656 68.027344 148.632812 67.160156 147.742188 C 66.714844 147.285156 66.460938 146.90625 66.324219 146.628906 C 66.1875 146.34375 66.167969 146.175781 66.167969 146.027344 L 66.167969 90.378906 L 247.847656 90.378906 L 247.847656 146.027344 L 254.226562 146.027344 L 254.226562 87.171875 C 254.226562 86.335938 253.890625 85.507812 253.285156 84.917969 C 252.695312 84.324219 251.871094 83.972656 251.035156 83.972656 L 62.964844 83.972656 C 62.132812 83.972656 61.308594 84.324219 60.714844 84.917969 C 60.113281 85.507812 59.777344 86.335938 59.777344 87.171875 L 59.777344 146.027344 C 59.777344 147.222656 60.082031 148.398438 60.589844 149.4375 C 61.550781 151.382812 63.113281 152.886719 65.035156 154.242188 C 68.40625 156.605469 73.066406 158.542969 78.917969 160.300781 C 87.683594 162.925781 99.144531 165.042969 112.457031 166.523438 C 125.765625 168.007812 140.914062 168.84375 157 168.84375 C 183.15625 168.84375 206.816406 166.640625 224.140625 163.03125 C 232.816406 161.210938 239.890625 159.070312 245.046875 156.53125 C 247.636719 155.25 249.757812 153.882812 251.394531 152.222656 C 252.210938 151.382812 252.90625 150.472656 253.414062 149.4375 C 253.921875 148.398438 254.226562 147.222656 254.226562 146.027344 L 251.035156 146.027344"/></g><path fill="#097BAD" d="M 251.035156 87.171875 C 251.035156 98.011719 208.929688 106.789062 157 106.789062 C 105.070312 106.789062 62.964844 98.011719 62.964844 87.171875 C 62.964844 76.339844 105.070312 67.558594 157 67.558594 C 208.929688 67.558594 251.035156 76.339844 251.035156 87.171875"/><g clip-path="url(#f)"><path fill="#063251" d="M 251.035156 87.171875 L 247.847656 87.171875 C 247.835938 87.328125 247.816406 87.5 247.675781 87.773438 C 247.433594 88.292969 246.695312 89.195312 245.3125 90.15625 C 242.914062 91.851562 238.730469 93.691406 233.257812 95.324219 C 225.039062 97.78125 213.886719 99.867188 200.851562 101.316406 C 187.804688 102.765625 172.867188 103.59375 157 103.59375 C 131.226562 103.59375 107.871094 101.402344 91.160156 97.917969 C 82.816406 96.179688 76.117188 94.09375 71.765625 91.945312 C 69.601562 90.875 68.027344 89.777344 67.160156 88.886719 C 66.714844 88.441406 66.460938 88.050781 66.324219 87.773438 C 66.1875 87.5 66.167969 87.328125 66.167969 87.171875 C 66.167969 87.023438 66.1875 86.855469 66.324219 86.578125 C 66.558594 86.050781 67.308594 85.148438 68.691406 84.195312 C 71.089844 82.492188 75.273438 80.660156 80.746094 79.03125 C 88.960938 76.574219 100.117188 74.476562 113.164062 73.035156 C 126.199219 71.585938 141.136719 70.75 157 70.75 C 182.785156 70.75 206.132812 72.941406 222.84375 76.433594 C 231.1875 78.171875 237.886719 80.257812 242.238281 82.40625 C 244.414062 83.476562 245.976562 84.566406 246.84375 85.464844 C 247.285156 85.910156 247.550781 86.292969 247.675781 86.578125 C 247.816406 86.855469 247.835938 87.023438 247.847656 87.171875 L 254.226562 87.171875 C 254.226562 85.976562 253.921875 84.800781 253.414062 83.761719 C 252.453125 81.8125 250.890625 80.308594 248.964844 78.957031 C 245.597656 76.605469 240.9375 74.65625 235.085938 72.898438 C 226.308594 70.285156 214.855469 68.15625 201.546875 66.675781 C 188.238281 65.195312 173.089844 64.359375 157 64.355469 C 130.847656 64.359375 107.183594 66.5625 89.859375 70.167969 C 81.1875 71.988281 74.109375 74.128906 68.957031 76.667969 C 66.367188 77.949219 64.246094 79.316406 62.605469 80.976562 C 61.78125 81.8125 61.097656 82.722656 60.589844 83.761719 C 60.082031 84.800781 59.777344 85.976562 59.777344 87.171875 C 59.777344 88.378906 60.082031 89.542969 60.589844 90.582031 C 61.550781 92.527344 63.113281 94.042969 65.035156 95.398438 C 68.40625 97.75 73.066406 99.6875 78.917969 101.453125 C 87.683594 104.070312 99.144531 106.1875 112.457031 107.679688 C 125.765625 109.152344 140.914062 109.988281 157 109.988281 C 183.15625 109.988281 206.816406 107.785156 224.140625 104.175781 C 232.816406 102.363281 239.890625 100.214844 245.046875 97.675781 C 247.636719 96.402344 249.757812 95.027344 251.394531 93.363281 C 252.210938 92.539062 252.90625 91.628906 253.414062 90.582031 C 253.921875 89.542969 254.226562 88.378906 254.226562 87.171875 L 251.035156 87.171875"/></g><path fill="#A3E3F3" d="M 251.035156 143.773438 L 191.078125 172.464844 C 191.078125 172.464844 195.484375 254.582031 251.035156 262.488281 C 306.578125 254.582031 310.996094 172.464844 310.996094 172.464844 L 251.035156 143.773438"/><g clip-path="url(#g)"><path fill="#063251" d="M 251.035156 143.773438 L 249.441406 140.425781 L 189.484375 169.117188 C 188.132812 169.765625 187.296875 171.160156 187.382812 172.664062 C 187.382812 172.769531 187.667969 178.023438 188.976562 186.015625 C 190.953125 198.011719 195.1875 216.160156 204.441406 232.367188 C 209.066406 240.476562 214.984375 248.113281 222.566406 254.144531 C 230.152344 260.191406 239.4375 264.585938 250.507812 266.164062 C 250.855469 266.207031 251.214844 266.207031 251.554688 266.164062 C 258.9375 265.105469 265.53125 262.808594 271.339844 259.597656 C 281.53125 253.964844 289.296875 245.601562 295.203125 236.378906 C 304.066406 222.523438 308.871094 206.671875 311.53125 194.242188 C 314.195312 181.8125 314.679688 172.804688 314.691406 172.664062 C 314.765625 171.160156 313.929688 169.765625 312.589844 169.117188 L 252.632812 140.425781 C 251.617188 139.9375 250.457031 139.9375 249.441406 140.425781 L 251.035156 143.773438 L 249.441406 147.128906 L 309.398438 175.808594 L 310.996094 172.464844 L 307.296875 172.261719 L 307.296875 172.304688 C 307.265625 172.824219 306.925781 178.140625 305.597656 185.910156 C 303.621094 197.566406 299.375 214.71875 290.796875 229.382812 C 286.519531 236.71875 281.183594 243.410156 274.582031 248.589844 C 267.96875 253.753906 260.109375 257.4375 250.507812 258.816406 L 251.035156 262.488281 L 251.554688 258.816406 C 245.046875 257.882812 239.351562 255.894531 234.292969 253.097656 C 225.453125 248.21875 218.523438 240.839844 213.09375 232.367188 C 204.949219 219.671875 200.300781 204.574219 197.777344 192.6875 C 196.496094 186.746094 195.746094 181.601562 195.316406 177.96875 C 195.09375 176.148438 194.964844 174.707031 194.882812 173.722656 C 194.839844 173.238281 194.808594 172.867188 194.796875 172.621094 C 194.785156 172.496094 194.777344 172.402344 194.777344 172.335938 L 194.777344 172.261719 L 191.078125 172.464844 L 192.675781 175.808594 L 252.632812 147.128906 L 251.035156 143.773438 L 249.441406 147.128906 L 251.035156 143.773438"/></g><path fill="#FFF" d="M 251.035156 160.097656 L 207.558594 180.902344 C 207.558594 180.902344 210.757812 240.425781 251.035156 246.164062 C 291.304688 240.425781 294.503906 180.902344 294.503906 180.902344 L 251.035156 160.097656"/><path fill="#063251" d="M 251.035156 160.097656 L 249.441406 156.753906 L 205.972656 177.554688 C 204.621094 178.191406 203.785156 179.601562 203.859375 181.09375 C 203.871094 181.199219 204.082031 185.050781 205.03125 190.886719 C 206.492188 199.652344 209.566406 212.90625 216.367188 224.839844 C 219.78125 230.789062 224.140625 236.433594 229.761719 240.921875 C 235.382812 245.402344 242.300781 248.671875 250.507812 249.835938 C 250.855469 249.890625 251.214844 249.890625 251.554688 249.835938 C 257.027344 249.0625 261.925781 247.347656 266.246094 244.96875 C 273.820312 240.773438 279.558594 234.582031 283.910156 227.785156 C 290.4375 217.578125 293.945312 205.984375 295.898438 196.898438 C 297.832031 187.816406 298.191406 181.242188 298.203125 181.09375 C 298.277344 179.601562 297.453125 178.191406 296.101562 177.554688 L 252.632812 156.753906 C 251.617188 156.265625 250.457031 156.265625 249.441406 156.753906 L 251.035156 160.097656 L 249.441406 163.445312 L 292.910156 184.246094 L 294.503906 180.902344 L 290.808594 180.699219 L 290.808594 180.722656 C 290.785156 181.070312 290.542969 184.894531 289.59375 190.472656 C 288.167969 198.847656 285.101562 211.191406 278.988281 221.652344 C 275.933594 226.882812 272.140625 231.625 267.472656 235.28125 C 262.816406 238.933594 257.289062 241.515625 250.507812 242.488281 L 251.035156 246.164062 L 251.554688 242.488281 C 246.960938 241.832031 242.957031 240.4375 239.386719 238.464844 C 233.164062 235.027344 228.25 229.816406 224.386719 223.78125 C 218.574219 214.738281 215.238281 203.886719 213.410156 195.34375 C 212.5 191.078125 211.953125 187.382812 211.644531 184.765625 C 211.488281 183.464844 211.390625 182.425781 211.339844 181.726562 C 211.308594 181.378906 211.285156 181.113281 211.277344 180.933594 L 211.265625 180.742188 L 211.253906 180.710938 L 211.253906 180.699219 L 207.558594 180.902344 L 209.164062 184.246094 L 252.632812 163.445312 L 251.035156 160.097656 L 249.441406 163.445312 L 251.035156 160.097656"/></svg>