<svg xmlns="http://www.w3.org/2000/svg" width="375" viewBox="0 0 375 375" height="375" version="1.0"><defs><clipPath id="a"><path d="M 38 89.8125 L 337 89.8125 L 337 285.5625 L 38 285.5625 Z M 38 89.8125"/></clipPath><clipPath id="b"><path d="M 127 89.8125 L 249 89.8125 L 249 157 L 127 157 Z M 127 89.8125"/></clipPath></defs><path fill="#FFF" d="M-37.5 -37.5H412.5V412.5H-37.5z"/><path fill="#26AFD9" d="M-37.5 -37.5H412.5V412.5H-37.5z"/><path fill="#A3E3F3" d="M 294.9375 283.632812 C 290.835938 283.632812 286.539062 282.722656 282.160156 280.921875 C 259.242188 272.175781 231.417969 238.945312 224.636719 230.535156 L 150.363281 230.535156 C 143.582031 238.945312 115.757812 272.175781 92.792969 280.941406 C 88.464844 282.722656 84.164062 283.632812 80.0625 283.632812 C 58.769531 283.636719 45.714844 259.339844 42.59375 236.761719 C 40.238281 219.726562 39.539062 206.882812 41.925781 179.96875 C 43.175781 167.441406 47.761719 148.042969 56.570312 134.542969 C 70.992188 112.207031 97.515625 108.09375 120.910156 104.460938 C 123.199219 104.105469 125.46875 103.753906 127.714844 103.386719 C 130.535156 101.617188 147.929688 91.820312 187.5 91.820312 C 227.070312 91.820312 244.464844 101.617188 247.285156 103.386719 C 249.53125 103.753906 251.800781 104.105469 254.089844 104.460938 C 277.484375 108.09375 304.007812 112.207031 318.4375 134.554688 C 327.238281 148.042969 331.824219 167.441406 333.070312 179.949219 C 335.460938 206.882812 334.757812 219.726562 332.40625 236.761719 C 329.289062 259.335938 316.230469 283.632812 294.9375 283.632812"/><g clip-path="url(#a)"><path fill="#063251" d="M 187.5 89.839844 C 148.960938 89.839844 130.960938 99.136719 127.019531 101.492188 C 124.898438 101.835938 122.722656 102.175781 120.609375 102.503906 C 96.800781 106.195312 69.816406 110.382812 54.902344 133.476562 C 45.910156 147.257812 41.230469 167.019531 39.957031 179.75 L 39.957031 179.792969 C 37.550781 206.898438 38.257812 219.847656 40.636719 237.035156 C 43.867188 260.433594 57.582031 285.613281 80.0625 285.613281 C 84.40625 285.613281 88.941406 284.660156 93.546875 282.777344 C 116.335938 274.050781 143.550781 242.054688 151.304688 232.515625 L 223.695312 232.515625 C 231.445312 242.054688 258.664062 274.050781 281.453125 282.777344 C 286.058594 284.660156 290.59375 285.613281 294.9375 285.613281 C 317.414062 285.613281 331.132812 260.433594 334.367188 237.035156 C 336.742188 219.847656 337.449219 206.898438 335.042969 179.792969 L 335.039062 179.75 C 333.769531 167.019531 329.089844 147.257812 320.085938 133.460938 C 305.183594 110.382812 278.199219 106.195312 254.390625 102.503906 C 252.277344 102.175781 250.101562 101.835938 247.976562 101.492188 C 244.035156 99.136719 226.039062 89.839844 187.5 89.839844 Z M 187.5 93.800781 C 229.953125 93.800781 246.554688 105.277344 246.554688 105.277344 C 272.191406 109.480469 301.394531 111.816406 316.777344 135.628906 C 324.699219 147.769531 329.707031 166.140625 331.101562 180.148438 C 333.453125 206.667969 332.828125 219.257812 330.449219 236.492188 C 327.679688 256.519531 315.84375 281.652344 294.9375 281.652344 C 291.214844 281.652344 287.207031 280.855469 282.910156 279.089844 C 263.335938 271.621094 238.632812 244.894531 225.582031 228.554688 L 149.417969 228.554688 C 136.367188 244.894531 111.664062 271.621094 92.089844 279.089844 C 87.792969 280.855469 83.785156 281.652344 80.0625 281.652344 C 59.15625 281.652344 47.320312 256.519531 44.550781 236.492188 C 42.171875 219.257812 41.542969 206.667969 43.898438 180.148438 C 45.292969 166.140625 50.300781 147.769531 58.222656 135.628906 C 73.605469 111.816406 102.808594 109.480469 128.445312 105.277344 C 128.445312 105.277344 145.046875 93.800781 187.5 93.800781"/></g><path fill="#FFF" d="M 90.617188 126.410156 C 112.035156 119.335938 135.035156 123.097656 156.546875 127.609375 C 165.632812 129.515625 174.699219 131.648438 183.886719 133.035156 C 184.734375 133.136719 186.136719 133.3125 186.703125 133.363281 C 187.707031 133.457031 188.714844 133.550781 189.71875 133.617188 C 191.320312 133.726562 192.925781 133.8125 194.53125 133.851562 C 197.90625 133.929688 201.285156 133.894531 204.652344 133.710938 C 207.660156 133.542969 210.664062 133.296875 213.660156 132.957031 C 214.679688 132.804688 216.839844 132.488281 217.648438 132.34375 C 219.492188 132.023438 221.335938 131.683594 223.164062 131.296875 C 230.957031 129.65625 238.664062 127.527344 246.132812 124.75 C 247.292969 124.320312 251.753906 122.476562 251.214844 122.746094 C 252.183594 122.3125 253.152344 121.871094 254.109375 121.410156 C 257.535156 119.761719 260.90625 118.007812 264.171875 116.0625 C 267.375 114.148438 270.503906 112.113281 273.503906 109.886719 C 264.570312 107.945312 255.351562 106.71875 246.554688 105.277344 C 246.554688 105.277344 229.953125 93.800781 187.5 93.800781 C 145.046875 93.800781 128.445312 105.277344 128.445312 105.277344 C 102.808594 109.480469 73.605469 111.816406 58.222656 135.628906 C 53.445312 142.953125 49.738281 152.539062 47.230469 162.066406 C 57.582031 145.921875 72.113281 132.53125 90.617188 126.410156"/><path fill="#FFF" d="M 99.558594 216.226562 C 77.15625 216.226562 58.933594 197.96875 58.933594 175.527344 C 58.933594 153.082031 77.15625 134.824219 99.558594 134.824219 C 121.957031 134.824219 140.179688 153.082031 140.179688 175.527344 C 140.179688 197.96875 121.957031 216.226562 99.558594 216.226562"/><path fill="#063251" d="M 99.558594 133.300781 C 76.320312 133.300781 57.417969 152.242188 57.417969 175.527344 C 57.417969 198.804688 76.320312 217.746094 99.558594 217.746094 C 122.792969 217.746094 141.699219 198.804688 141.699219 175.527344 C 141.699219 152.242188 122.792969 133.300781 99.558594 133.300781 Z M 99.558594 136.347656 C 121.15625 136.347656 138.664062 153.886719 138.664062 175.527344 C 138.664062 197.164062 121.15625 214.707031 99.558594 214.707031 C 77.960938 214.707031 60.453125 197.164062 60.453125 175.527344 C 60.453125 153.886719 77.960938 136.347656 99.558594 136.347656"/><path fill="#FFF" d="M 99.558594 209.082031 C 81.089844 209.082031 66.066406 194.027344 66.066406 175.527344 C 66.066406 157.023438 81.089844 141.96875 99.558594 141.96875 C 118.023438 141.96875 133.050781 157.023438 133.050781 175.527344 C 133.050781 194.027344 118.023438 209.082031 99.558594 209.082031"/><path fill="#063251" d="M 99.558594 140.714844 C 80.398438 140.714844 64.8125 156.332031 64.8125 175.527344 C 64.8125 194.71875 80.398438 210.335938 99.558594 210.335938 C 118.714844 210.335938 134.300781 194.71875 134.300781 175.527344 C 134.300781 156.332031 118.714844 140.714844 99.558594 140.714844 Z M 99.558594 143.222656 C 117.363281 143.222656 131.796875 157.683594 131.796875 175.527344 C 131.796875 193.363281 117.363281 207.828125 99.558594 207.828125 C 81.753906 207.828125 67.316406 193.363281 67.316406 175.527344 C 67.316406 157.683594 81.753906 143.222656 99.558594 143.222656"/><path fill="#FFF" d="M 215.320312 221.019531 C 206.078125 221.019531 198.5625 213.484375 198.5625 204.230469 C 198.5625 194.972656 206.078125 187.441406 215.320312 187.441406 C 224.558594 187.441406 232.078125 194.972656 232.078125 204.230469 C 232.078125 213.484375 224.558594 221.019531 215.320312 221.019531"/><path fill="#063251" d="M 215.320312 186.25 C 205.425781 186.25 197.375 194.316406 197.375 204.230469 C 197.375 214.144531 205.425781 222.207031 215.320312 222.207031 C 225.214844 222.207031 233.265625 214.144531 233.265625 204.230469 C 233.265625 194.316406 225.214844 186.25 215.320312 186.25 Z M 215.320312 188.628906 C 223.921875 188.628906 230.890625 195.613281 230.890625 204.230469 C 230.890625 212.84375 223.921875 219.828125 215.320312 219.828125 C 206.722656 219.828125 199.746094 212.84375 199.746094 204.230469 C 199.746094 195.613281 206.722656 188.628906 215.320312 188.628906"/><path fill="#094978" d="M 302.734375 184.875 C 294.21875 184.875 287.285156 177.933594 287.285156 169.398438 C 287.285156 160.863281 294.21875 153.917969 302.734375 153.917969 C 311.25 153.917969 318.183594 160.863281 318.183594 169.398438 C 318.183594 177.933594 311.25 184.875 302.734375 184.875"/><path fill="#063251" d="M 302.734375 151.9375 C 293.121094 151.9375 285.304688 159.769531 285.304688 169.398438 C 285.304688 179.027344 293.121094 186.859375 302.734375 186.859375 C 312.34375 186.859375 320.164062 179.027344 320.164062 169.398438 C 320.164062 159.769531 312.34375 151.9375 302.734375 151.9375 Z M 302.734375 155.902344 C 310.171875 155.902344 316.199219 161.945312 316.199219 169.398438 C 316.199219 176.847656 310.171875 182.890625 302.734375 182.890625 C 295.296875 182.890625 289.265625 176.847656 289.265625 169.398438 C 289.265625 161.945312 295.296875 155.902344 302.734375 155.902344"/><path fill="#094978" d="M 271.941406 215.726562 C 263.421875 215.726562 256.492188 208.789062 256.492188 200.253906 C 256.492188 191.71875 263.421875 184.773438 271.941406 184.773438 C 280.457031 184.773438 287.386719 191.71875 287.386719 200.253906 C 287.386719 208.789062 280.457031 215.726562 271.941406 215.726562"/><path fill="#063251" d="M 271.941406 182.792969 C 262.328125 182.792969 254.507812 190.625 254.507812 200.253906 C 254.507812 209.882812 262.328125 217.714844 271.941406 217.714844 C 281.546875 217.714844 289.367188 209.882812 289.367188 200.253906 C 289.367188 190.625 281.546875 182.792969 271.941406 182.792969 Z M 271.941406 186.757812 C 279.375 186.757812 285.40625 192.800781 285.40625 200.253906 C 285.40625 207.703125 279.375 213.746094 271.941406 213.746094 C 264.5 213.746094 258.472656 207.703125 258.472656 200.253906 C 258.472656 192.800781 264.5 186.757812 271.941406 186.757812"/><path fill="#094978" d="M 263.574219 177.492188 C 255.058594 177.492188 248.128906 170.550781 248.128906 162.015625 C 248.128906 153.480469 255.058594 146.539062 263.574219 146.539062 C 272.09375 146.539062 279.023438 153.480469 279.023438 162.015625 C 279.023438 170.550781 272.09375 177.492188 263.574219 177.492188"/><path fill="#063251" d="M 263.574219 144.554688 C 253.964844 144.554688 246.148438 152.386719 246.148438 162.015625 C 246.148438 171.640625 253.964844 179.476562 263.574219 179.476562 C 273.183594 179.476562 281.007812 171.640625 281.007812 162.015625 C 281.007812 152.386719 273.183594 144.554688 263.574219 144.554688 Z M 263.574219 148.523438 C 271.015625 148.523438 277.042969 154.5625 277.042969 162.015625 C 277.042969 169.46875 271.015625 175.507812 263.574219 175.507812 C 256.136719 175.507812 250.109375 169.46875 250.109375 162.015625 C 250.109375 154.5625 256.136719 148.523438 263.574219 148.523438"/><path fill="#094978" d="M 215.449219 214.960938 C 209.675781 214.960938 204.976562 210.253906 204.976562 204.46875 C 204.976562 198.683594 209.675781 193.976562 215.449219 193.976562 C 221.226562 193.976562 225.921875 198.683594 225.921875 204.46875 C 225.921875 210.253906 221.226562 214.960938 215.449219 214.960938"/><path fill="#063251" d="M 215.449219 192.789062 C 209.019531 192.789062 203.792969 198.027344 203.792969 204.46875 C 203.792969 210.910156 209.019531 216.148438 215.449219 216.148438 C 221.875 216.148438 227.105469 210.910156 227.105469 204.46875 C 227.105469 198.027344 221.875 192.789062 215.449219 192.789062 Z M 215.449219 195.167969 C 220.574219 195.167969 224.734375 199.332031 224.734375 204.46875 C 224.734375 209.605469 220.574219 213.769531 215.449219 213.769531 C 210.324219 213.769531 206.164062 209.605469 206.164062 204.46875 C 206.164062 199.332031 210.324219 195.167969 215.449219 195.167969"/><path fill="#094978" d="M 193.101562 154.09375 C 188.558594 154.09375 183.824219 153.484375 179.027344 152.285156 C 164.183594 148.578125 151.160156 140.203125 142.351562 128.707031 C 136.957031 121.664062 133.230469 113.769531 130.589844 107.675781 C 130.195312 106.773438 129.753906 105.832031 129.210938 104.695312 C 128.742188 103.722656 129.140625 102.554688 130.101562 102.070312 C 136.175781 98.988281 153.9375 91.820312 187.5 91.820312 C 221.757812 91.820312 239.457031 99.195312 245.476562 102.367188 C 246.3125 102.804688 246.71875 103.773438 246.453125 104.683594 C 244.929688 109.855469 243.019531 114.847656 240.777344 119.519531 C 239.40625 122.375 237.816406 125.242188 235.917969 128.285156 C 233.75 131.753906 232.40625 133.496094 230.378906 135.878906 C 225.859375 141.191406 221.921875 144.558594 216.332031 147.886719 C 209.414062 152.003906 201.597656 154.09375 193.101562 154.09375"/><g clip-path="url(#b)"><path fill="#063251" d="M 187.5 89.839844 C 153.515625 89.839844 135.410156 97.152344 129.207031 100.300781 C 127.285156 101.273438 126.492188 103.609375 127.425781 105.550781 C 127.960938 106.667969 128.394531 107.589844 128.773438 108.464844 C 131.460938 114.660156 135.257812 122.699219 140.78125 129.910156 C 149.863281 141.765625 163.273438 150.394531 178.550781 154.210938 C 183.5 155.449219 188.398438 156.074219 193.101562 156.074219 C 201.957031 156.074219 210.117188 153.894531 217.34375 149.589844 C 223.136719 146.144531 227.210938 142.660156 231.886719 137.164062 C 233.972656 134.707031 235.359375 132.910156 237.59375 129.335938 C 239.53125 126.230469 241.15625 123.300781 242.558594 120.382812 C 244.847656 115.609375 246.796875 110.515625 248.347656 105.242188 C 248.882812 103.429688 248.066406 101.492188 246.394531 100.613281 C 240.246094 97.375 222.199219 89.839844 187.5 89.839844 Z M 187.5 93.800781 C 221.621094 93.800781 239.027344 101.210938 244.554688 104.121094 C 243.074219 109.15625 241.214844 114.03125 238.992188 118.664062 C 237.578125 121.609375 235.972656 124.460938 234.242188 127.230469 C 232.191406 130.511719 230.941406 132.160156 228.875 134.59375 C 224.410156 139.847656 220.574219 143.058594 215.324219 146.183594 C 208.5 150.242188 200.957031 152.109375 193.101562 152.109375 C 188.644531 152.109375 184.089844 151.507812 179.507812 150.363281 C 165.574219 146.882812 152.707031 138.96875 143.921875 127.496094 C 139.09375 121.195312 135.550781 114.140625 132.402344 106.886719 C 131.980469 105.910156 131.496094 104.890625 130.992188 103.835938 C 137.070312 100.753906 154.449219 93.800781 187.5 93.800781"/></g><path fill="#094978" d="M 99.558594 194.324219 C 89.210938 194.324219 80.792969 185.890625 80.792969 175.527344 C 80.792969 165.15625 89.210938 156.722656 99.558594 156.722656 C 109.902344 156.722656 118.324219 165.15625 118.324219 175.527344 C 118.324219 185.890625 109.902344 194.324219 99.558594 194.324219"/><path fill="#063251" d="M 99.558594 155.203125 C 88.375 155.203125 79.273438 164.320312 79.273438 175.527344 C 79.273438 186.730469 88.375 195.84375 99.558594 195.84375 C 110.742188 195.84375 119.839844 186.730469 119.839844 175.527344 C 119.839844 164.320312 110.742188 155.203125 99.558594 155.203125 Z M 99.558594 158.246094 C 109.085938 158.246094 116.804688 165.980469 116.804688 175.527344 C 116.804688 185.066406 109.085938 192.804688 99.558594 192.804688 C 90.03125 192.804688 82.308594 185.066406 82.308594 175.527344 C 82.308594 165.980469 90.03125 158.246094 99.558594 158.246094"/><path fill="#063251" d="M 125.960938 207.679688 C 125.535156 207.679688 125.109375 207.5 124.808594 207.148438 L 111.394531 191.429688 C 110.851562 190.792969 110.925781 189.832031 111.566406 189.285156 C 112.203125 188.742188 113.160156 188.816406 113.707031 189.453125 L 127.113281 205.171875 C 127.660156 205.808594 127.585938 206.769531 126.949219 207.316406 C 126.664062 207.5625 126.308594 207.679688 125.960938 207.679688"/><path fill="#063251" d="M 112.550781 162.292969 C 112.199219 162.292969 111.851562 162.171875 111.566406 161.925781 C 110.925781 161.382812 110.851562 160.421875 111.394531 159.785156 L 124.808594 144.066406 C 125.351562 143.429688 126.308594 143.351562 126.949219 143.898438 C 127.585938 144.445312 127.660156 145.40625 127.113281 146.042969 L 113.707031 161.761719 C 113.40625 162.109375 112.980469 162.292969 112.550781 162.292969"/><path fill="#063251" d="M 73.101562 207.679688 C 72.753906 207.679688 72.402344 207.5625 72.113281 207.316406 C 71.476562 206.769531 71.402344 205.808594 71.949219 205.171875 L 85.359375 189.453125 C 85.902344 188.816406 86.863281 188.742188 87.5 189.285156 C 88.136719 189.832031 88.214844 190.792969 87.667969 191.429688 L 74.257812 207.148438 C 73.957031 207.5 73.53125 207.679688 73.101562 207.679688"/><path fill="#063251" d="M 86.511719 162.292969 C 86.085938 162.292969 85.660156 162.109375 85.359375 161.761719 L 71.949219 146.042969 C 71.402344 145.40625 71.476562 144.445312 72.113281 143.898438 C 72.753906 143.351562 73.714844 143.429688 74.257812 144.066406 L 87.667969 159.785156 C 88.214844 160.421875 88.136719 161.382812 87.5 161.925781 C 87.214844 162.171875 86.863281 162.292969 86.511719 162.292969"/><path fill="#FFF" d="M 159.035156 221.019531 C 149.796875 221.019531 142.277344 213.484375 142.277344 204.230469 C 142.277344 194.972656 149.796875 187.441406 159.035156 187.441406 C 168.273438 187.441406 175.792969 194.972656 175.792969 204.230469 C 175.792969 213.484375 168.273438 221.019531 159.035156 221.019531"/><path fill="#063251" d="M 159.035156 186.25 C 149.140625 186.25 141.09375 194.316406 141.09375 204.230469 C 141.09375 214.144531 149.140625 222.207031 159.035156 222.207031 C 168.929688 222.207031 176.980469 214.144531 176.980469 204.230469 C 176.980469 194.316406 168.929688 186.25 159.035156 186.25 Z M 159.035156 188.628906 C 167.636719 188.628906 174.605469 195.613281 174.605469 204.230469 C 174.605469 212.84375 167.636719 219.828125 159.035156 219.828125 C 150.4375 219.828125 143.464844 212.84375 143.464844 204.230469 C 143.464844 195.613281 150.4375 188.628906 159.035156 188.628906"/><path fill="#094978" d="M 154.464844 219.757812 C 153.804688 219.757812 153.277344 219.226562 153.277344 218.566406 L 153.277344 210 L 144.722656 210 C 144.070312 210 143.535156 209.464844 143.535156 208.808594 L 143.535156 199.644531 C 143.535156 198.988281 144.070312 198.457031 144.722656 198.457031 L 153.277344 198.457031 L 153.277344 189.886719 C 153.277344 189.230469 153.804688 188.699219 154.464844 188.699219 L 163.605469 188.699219 C 164.261719 188.699219 164.792969 189.230469 164.792969 189.886719 L 164.792969 198.457031 L 173.347656 198.457031 C 174.003906 198.457031 174.535156 198.988281 174.535156 199.644531 L 174.535156 208.808594 C 174.535156 209.464844 174.003906 210 173.347656 210 L 164.792969 210 L 164.792969 218.566406 C 164.792969 219.226562 164.261719 219.757812 163.605469 219.757812 L 154.464844 219.757812"/><path fill="#063251" d="M 163.605469 187.507812 L 154.464844 187.507812 C 153.148438 187.507812 152.089844 188.574219 152.089844 189.886719 L 152.089844 197.265625 L 144.722656 197.265625 C 143.414062 197.265625 142.351562 198.332031 142.351562 199.644531 L 142.351562 208.808594 C 142.351562 210.121094 143.414062 211.1875 144.722656 211.1875 L 152.089844 211.1875 L 152.089844 218.566406 C 152.089844 219.882812 153.148438 220.945312 154.464844 220.945312 L 163.605469 220.945312 C 164.917969 220.945312 165.980469 219.882812 165.980469 218.566406 L 165.980469 211.1875 L 173.347656 211.1875 C 174.65625 211.1875 175.722656 210.121094 175.722656 208.808594 L 175.722656 199.644531 C 175.722656 198.332031 174.65625 197.265625 173.347656 197.265625 L 165.980469 197.265625 L 165.980469 189.886719 C 165.980469 188.574219 164.917969 187.507812 163.605469 187.507812 Z M 163.605469 189.886719 L 163.605469 199.644531 L 173.347656 199.644531 L 173.347656 208.808594 L 163.605469 208.808594 L 163.605469 218.566406 L 154.464844 218.566406 L 154.464844 208.808594 L 144.722656 208.808594 L 144.722656 199.644531 L 154.464844 199.644531 L 154.464844 189.886719 L 163.605469 189.886719"/><path fill="#063251" d="M 226.128906 105.761719 L 150.03125 105.761719 C 149.34375 105.761719 148.78125 105.199219 148.78125 104.507812 C 148.78125 103.816406 149.34375 103.25 150.03125 103.25 L 226.128906 103.25 C 226.820312 103.25 227.378906 103.816406 227.378906 104.507812 C 227.378906 105.199219 226.820312 105.761719 226.128906 105.761719"/><path fill="#063251" d="M 226.128906 114.085938 L 150.03125 114.085938 C 149.34375 114.085938 148.78125 113.523438 148.78125 112.832031 C 148.78125 112.140625 149.34375 111.578125 150.03125 111.578125 L 226.128906 111.578125 C 226.820312 111.578125 227.378906 112.140625 227.378906 112.832031 C 227.378906 113.523438 226.820312 114.085938 226.128906 114.085938"/><path fill="#063251" d="M 226.128906 122.410156 L 150.03125 122.410156 C 149.34375 122.410156 148.78125 121.847656 148.78125 121.15625 C 148.78125 120.464844 149.34375 119.902344 150.03125 119.902344 L 226.128906 119.902344 C 226.820312 119.902344 227.378906 120.464844 227.378906 121.15625 C 227.378906 121.847656 226.820312 122.410156 226.128906 122.410156"/><path fill="#063251" d="M 226.128906 130.734375 L 150.03125 130.734375 C 149.34375 130.734375 148.78125 130.171875 148.78125 129.480469 C 148.78125 128.789062 149.34375 128.226562 150.03125 128.226562 L 226.128906 128.226562 C 226.820312 128.226562 227.378906 128.789062 227.378906 129.480469 C 227.378906 130.171875 226.820312 130.734375 226.128906 130.734375"/></svg>