<?xml version="1.0" encoding="UTF-8"?><svg xmlns="http://www.w3.org/2000/svg" xmlns:xlink="http://www.w3.org/1999/xlink" contentScriptType="text/ecmascript" width="375" zoomAndPan="magnify" contentStyleType="text/css" viewBox="0 0 375 374.999991" height="374.999991" preserveAspectRatio="xMidYMid meet" version="1.0"><defs><clipPath id="clip-0"><path d="M 70.125 37.5 L 303 37.5 L 303 271 L 70.125 271 Z M 70.125 37.5 " clip-rule="nonzero"/></clipPath><clipPath id="clip-1"><path d="M 132 324 L 241 324 L 241 337.5 L 132 337.5 Z M 132 324 " clip-rule="nonzero"/></clipPath></defs><rect x="-37.5" width="450" fill="rgb(100%, 100%, 100%)" y="-37.499999" height="449.999989" fill-opacity="1"/><rect x="-37.5" width="450" fill="rgb(100%, 100%, 100%)" y="-37.499999" height="449.999989" fill-opacity="1"/><rect x="-37.5" width="450" fill="rgb(14.898682%, 68.629456%, 85.099792%)" y="-37.499999" height="449.999989" fill-opacity="1"/><g clip-path="url(#clip-0)"><path fill="rgb(2.349854%, 19.60907%, 31.759644%)" d="M 234.183594 270.523438 L 139.253906 270.523438 C 138.839844 270.523438 138.429688 270.484375 138.023438 270.402344 C 137.621094 270.324219 137.226562 270.203125 136.84375 270.046875 C 136.460938 269.890625 136.101562 269.695312 135.757812 269.464844 C 135.414062 269.238281 135.09375 268.976562 134.804688 268.683594 C 134.511719 268.390625 134.25 268.074219 134.019531 267.730469 C 133.792969 267.386719 133.597656 267.023438 133.441406 266.644531 C 133.28125 266.261719 133.164062 265.867188 133.082031 265.460938 C 133.003906 265.058594 132.964844 264.648438 132.964844 264.234375 L 132.964844 159.546875 L 77.164062 159.546875 C 76.542969 159.546875 75.9375 159.457031 75.339844 159.273438 C 74.746094 159.09375 74.191406 158.832031 73.675781 158.484375 C 73.160156 158.136719 72.703125 157.726562 72.308594 157.246094 C 71.914062 156.761719 71.601562 156.234375 71.363281 155.660156 C 71.125 155.085938 70.976562 154.492188 70.917969 153.871094 C 70.855469 153.253906 70.886719 152.640625 71.007812 152.03125 C 71.128906 151.421875 71.335938 150.839844 71.632812 150.292969 C 71.925781 149.746094 72.289062 149.253906 72.730469 148.8125 L 182.296875 39.246094 C 182.59375 38.96875 182.917969 38.71875 183.261719 38.5 C 183.609375 38.285156 183.972656 38.097656 184.351562 37.949219 C 184.734375 37.800781 185.125 37.6875 185.527344 37.609375 C 185.929688 37.535156 186.335938 37.496094 186.742188 37.496094 C 187.152344 37.496094 187.558594 37.535156 187.960938 37.609375 C 188.363281 37.6875 188.753906 37.800781 189.132812 37.949219 C 189.515625 38.097656 189.878906 38.285156 190.222656 38.5 C 190.570312 38.71875 190.890625 38.96875 191.191406 39.246094 L 299.816406 147.875 C 300.402344 148.230469 300.917969 148.671875 301.359375 149.195312 C 301.804688 149.71875 302.152344 150.300781 302.402344 150.941406 C 302.65625 151.578125 302.796875 152.242188 302.832031 152.925781 C 302.867188 153.613281 302.792969 154.285156 302.605469 154.945312 C 302.421875 155.609375 302.136719 156.222656 301.75 156.789062 C 301.363281 157.355469 300.894531 157.847656 300.347656 158.261719 C 299.800781 158.675781 299.199219 158.992188 298.550781 159.210938 C 297.898438 159.425781 297.230469 159.535156 296.542969 159.535156 L 240.457031 159.535156 L 240.457031 264.222656 C 240.457031 264.632812 240.417969 265.042969 240.339844 265.449219 C 240.261719 265.855469 240.144531 266.25 239.988281 266.628906 C 239.828125 267.011719 239.636719 267.375 239.410156 267.71875 C 239.179688 268.0625 238.917969 268.382812 238.628906 268.675781 C 238.335938 268.96875 238.019531 269.230469 237.675781 269.457031 C 237.332031 269.6875 236.972656 269.882812 236.589844 270.042969 C 236.207031 270.199219 235.816406 270.320312 235.410156 270.402344 C 235.003906 270.480469 234.59375 270.523438 234.183594 270.523438 Z M 234.183594 270.523438 " fill-opacity="1" fill-rule="nonzero"/></g><path fill="rgb(2.349854%, 19.60907%, 31.759644%)" d="M 132.976562 291.429688 L 240.46875 291.429688 L 240.46875 304.003906 L 132.976562 304.003906 Z M 132.976562 291.429688 " fill-opacity="1" fill-rule="nonzero"/><g clip-path="url(#clip-1)"><path fill="rgb(2.349854%, 19.60907%, 31.759644%)" d="M 132.964844 324.914062 L 240.46875 324.914062 L 240.46875 337.488281 L 132.964844 337.488281 Z M 132.964844 324.914062 " fill-opacity="1" fill-rule="nonzero"/></g></svg>