<svg xmlns="http://www.w3.org/2000/svg" width="1874.88" viewBox="0 0 1874.88 375" height="375" version="1.0"><defs><clipPath id="a"><path d="M 86 119 L 289 119 L 289 262.496094 L 86 262.496094 Z M 86 119"/></clipPath><clipPath id="b"><path d="M 87 129 L 289 129 L 289 262.496094 L 87 262.496094 Z M 87 129"/></clipPath><clipPath id="c"><path d="M 862.445312 112.503906 L 1012.433594 112.503906 L 1012.433594 262.496094 L 862.445312 262.496094 Z M 862.445312 112.503906"/></clipPath><clipPath id="d"><path d="M 487.46875 112.503906 L 637.460938 112.503906 L 637.460938 262.496094 L 487.46875 262.496094 Z M 487.46875 112.503906"/></clipPath><clipPath id="e"><path d="M 548 135 L 615 135 L 615 262.496094 L 548 262.496094 Z M 548 135"/></clipPath><clipPath id="f"><path d="M 1237.421875 112.503906 L 1387.410156 112.503906 L 1387.410156 262.496094 L 1237.421875 262.496094 Z M 1237.421875 112.503906"/></clipPath><clipPath id="g"><path d="M 1610.867188 112.503906 L 1763.855469 112.503906 L 1763.855469 262 L 1610.867188 262 Z M 1610.867188 112.503906"/></clipPath></defs><path fill="#F2F2F2" d="M 275.691406 261.960938 L 99.3125 261.960938 C 92.421875 261.960938 86.652344 256.507812 86.652344 249.46875 L 86.652344 127.480469 C 86.652344 126.648438 86.734375 125.828125 86.898438 125.011719 C 87.0625 124.199219 87.304688 123.410156 87.621094 122.640625 C 87.941406 121.875 88.332031 121.148438 88.792969 120.457031 C 89.253906 119.765625 89.78125 119.128906 90.367188 118.542969 C 90.957031 117.957031 91.59375 117.429688 92.285156 116.96875 C 92.976562 116.507812 93.703125 116.121094 94.472656 115.800781 C 95.238281 115.484375 96.03125 115.242188 96.84375 115.082031 C 97.65625 114.917969 98.480469 114.835938 99.3125 114.835938 L 275.691406 114.835938 C 282.582031 114.835938 288.351562 120.507812 288.351562 127.492188 L 288.351562 249.3125 C 288.191406 256.519531 282.582031 261.964844 275.691406 261.964844 Z M 275.691406 261.960938"/><path fill="#221F1F" d="M 111.867188 261.960938 L 187.332031 206.753906 L 187.808594 203.550781 L 109.976562 147.65625 L 109.820312 259.238281 Z M 111.867188 261.960938" fill-opacity=".098"/><path fill="#D44C3D" d="M 99.3125 261.960938 C 92.324219 261.960938 86.652344 256.507812 86.652344 249.46875 L 86.652344 127.316406 C 86.652344 120.269531 92.324219 118.996094 99.3125 118.996094 C 106.296875 118.996094 111.96875 120.445312 111.96875 127.316406 L 111.96875 261.953125 Z M 99.3125 261.960938"/><g clip-path="url(#a)"><path fill="#D44C3D" d="M 99.3125 120.910156 C 108.28125 120.910156 110.046875 123.632812 110.046875 127.316406 L 110.046875 260.1875 L 99.3125 260.1875 C 93.386719 260.1875 88.574219 255.386719 88.574219 249.457031 L 88.574219 127.316406 C 88.417969 123.535156 90.339844 120.910156 99.3125 120.910156 Z M 99.3125 119.148438 C 92.324219 119.152344 86.652344 120.589844 86.652344 127.316406 L 86.652344 249.296875 C 86.640625 250.132812 86.710938 250.960938 86.863281 251.78125 C 87.019531 252.601562 87.253906 253.394531 87.566406 254.167969 C 87.882812 254.941406 88.269531 255.675781 88.730469 256.371094 C 89.191406 257.066406 89.714844 257.710938 90.308594 258.300781 C 90.898438 258.890625 91.539062 259.414062 92.234375 259.875 C 92.929688 260.335938 93.664062 260.722656 94.4375 261.039062 C 95.210938 261.351562 96.007812 261.585938 96.828125 261.738281 C 97.648438 261.894531 98.476562 261.964844 99.3125 261.953125 L 111.96875 261.953125 L 111.96875 127.316406 C 111.867188 120.433594 106.359375 119.152344 99.3125 119.152344 Z M 275.691406 120.910156 C 283.863281 120.910156 286.429688 122.511719 286.429688 127 L 286.429688 249.625 C 286.429688 255.550781 281.625 260.359375 275.691406 260.359375 L 264.957031 260.359375 L 264.957031 127 C 264.796875 122.355469 267.519531 120.910156 275.691406 120.910156 Z M 275.691406 119.148438 C 268.644531 119.148438 263.03125 120.105469 263.03125 126.992188 L 263.03125 262.109375 L 275.691406 262.109375 C 282.738281 262.109375 288.351562 256.4375 288.351562 249.457031 L 288.351562 126.835938 C 288.191406 119.949219 282.582031 119.148438 275.691406 119.148438 Z M 275.691406 119.148438"/></g><path fill="#D44C3D" d="M 275.691406 261.960938 L 263.03125 261.960938 L 263.03125 127 C 263.03125 119.953125 268.707031 119.152344 275.691406 119.152344 C 282.675781 119.152344 288.351562 120.113281 288.351562 127 L 288.351562 249.625 C 288.332031 250.445312 288.238281 251.253906 288.0625 252.054688 C 287.886719 252.851562 287.636719 253.628906 287.308594 254.378906 C 286.984375 255.128906 286.585938 255.839844 286.121094 256.515625 C 285.65625 257.1875 285.132812 257.8125 284.546875 258.382812 C 283.957031 258.953125 283.324219 259.460938 282.636719 259.910156 C 281.953125 260.355469 281.230469 260.734375 280.46875 261.039062 C 279.710938 261.347656 278.929688 261.578125 278.125 261.734375 C 277.320312 261.886719 276.511719 261.964844 275.691406 261.960938 Z M 275.691406 261.960938"/><g clip-path="url(#b)"><path fill="#221F1F" d="M 221.703125 261.960938 L 87.773438 132.671875 L 94.824219 135.550781 L 188.125 202.648438 L 288.34375 129.078125 L 288.34375 249.625 C 288.339844 250.453125 288.257812 251.269531 288.09375 252.078125 C 287.925781 252.890625 287.683594 253.675781 287.363281 254.4375 C 287.042969 255.199219 286.652344 255.921875 286.1875 256.605469 C 285.726562 257.289062 285.199219 257.921875 284.613281 258.5 C 284.023438 259.082031 283.382812 259.597656 282.695312 260.054688 C 282.003906 260.507812 281.277344 260.890625 280.507812 261.199219 C 279.742188 261.511719 278.953125 261.742188 278.144531 261.898438 C 277.332031 262.050781 276.511719 262.125 275.683594 262.117188 Z M 221.703125 261.960938" fill-opacity=".078"/></g><path fill="#D44C3D" d="M 187.269531 206.910156 L 92.097656 137.890625 C 86.425781 133.730469 84.886719 125.726562 89.054688 120.117188 C 93.222656 114.507812 101.222656 113.230469 106.996094 117.394531 L 187.417969 175.847656 L 268.320312 116.601562 C 273.996094 112.441406 281.78125 113.722656 285.941406 119.480469 C 290.101562 125.152344 288.824219 132.9375 283.0625 137.09375 Z M 187.269531 206.910156"/><path fill="#D44C3D" d="M 275.691406 116.109375 C 279.058594 116.109375 282.417969 117.710938 284.503906 120.597656 C 287.871094 125.398438 286.902344 132.128906 282.109375 135.722656 L 187.269531 204.671875 L 93.222656 136.453125 C 88.417969 132.921875 87.132812 126.035156 90.433594 121.328125 C 92.355469 118.449219 95.730469 116.683594 99.40625 116.683594 C 101.800781 116.683594 104.050781 117.324219 105.8125 118.761719 L 186.0625 177.058594 L 187.1875 177.699219 L 188.308594 177.058594 L 269.128906 117.863281 C 271.210938 116.738281 273.289062 116.097656 275.699219 116.097656 Z M 275.691406 114.1875 C 273.125 114.1875 270.394531 114.832031 268.316406 116.582031 L 187.417969 175.839844 L 106.839844 117.230469 C 104.757812 115.628906 102.035156 114.835938 99.3125 114.835938 C 95.308594 114.992188 91.304688 116.757812 88.894531 120.128906 C 84.894531 125.800781 86.5 133.585938 92.097656 137.746094 L 187.269531 206.910156 L 283.0625 137.082031 C 283.730469 136.59375 284.34375 136.046875 284.902344 135.4375 C 285.464844 134.832031 285.960938 134.175781 286.394531 133.46875 C 286.824219 132.765625 287.1875 132.027344 287.472656 131.25 C 287.761719 130.476562 287.972656 129.679688 288.105469 128.863281 C 288.242188 128.050781 288.292969 127.226562 288.265625 126.402344 C 288.242188 125.574219 288.132812 124.757812 287.949219 123.953125 C 287.761719 123.148438 287.503906 122.367188 287.164062 121.613281 C 286.828125 120.859375 286.417969 120.144531 285.941406 119.46875 C 283.375 116.101562 279.539062 114.175781 275.691406 114.175781 Z M 275.691406 114.1875"/><g clip-path="url(#c)"><path fill="#1D9BF0" d="M 993.6875 262.496094 L 881.195312 262.496094 C 870.84375 262.496094 862.445312 254.097656 862.445312 243.746094 L 862.445312 131.253906 C 862.445312 120.902344 870.84375 112.503906 881.195312 112.503906 L 993.6875 112.503906 C 1004.035156 112.503906 1012.433594 120.902344 1012.433594 131.253906 L 1012.433594 243.746094 C 1012.433594 254.097656 1004.035156 262.496094 993.6875 262.496094 Z M 993.6875 262.496094"/></g><path fill="#FFF" d="M 920.042969 225.597656 C 955.402344 225.597656 974.75 196.273438 974.75 170.886719 C 974.75 170.0625 974.75 169.238281 974.710938 168.414062 C 978.460938 165.714844 981.726562 162.300781 984.3125 158.4375 C 980.863281 159.976562 977.148438 160.988281 973.25 161.476562 C 977.226562 159.113281 980.261719 155.328125 981.726562 150.828125 C 978.011719 153.039062 973.886719 154.613281 969.5 155.476562 C 965.976562 151.726562 960.988281 149.402344 955.476562 149.402344 C 944.863281 149.402344 936.238281 158.027344 936.238281 168.640625 C 936.238281 170.136719 936.425781 171.601562 936.726562 173.027344 C 920.753906 172.238281 906.578125 164.550781 897.09375 152.925781 C 895.441406 155.777344 894.503906 159.078125 894.503906 162.601562 C 894.503906 169.277344 897.917969 175.164062 903.054688 178.613281 C 899.90625 178.5 896.941406 177.636719 894.355469 176.214844 C 894.355469 176.289062 894.355469 176.363281 894.355469 176.476562 C 894.355469 185.773438 900.992188 193.574219 909.765625 195.335938 C 908.15625 195.785156 906.46875 196.011719 904.703125 196.011719 C 903.46875 196.011719 902.265625 195.898438 901.105469 195.675781 C 903.542969 203.324219 910.667969 208.875 919.066406 209.023438 C 912.464844 214.199219 904.179688 217.273438 895.179688 217.273438 C 893.644531 217.273438 892.105469 217.199219 890.605469 217.011719 C 899.078125 222.410156 909.203125 225.597656 920.042969 225.597656"/><g clip-path="url(#d)"><path fill="#4267B2" d="M 629.179688 112.503906 L 495.746094 112.503906 C 495.203125 112.503906 494.664062 112.558594 494.132812 112.664062 C 493.597656 112.769531 493.082031 112.925781 492.578125 113.136719 C 492.078125 113.34375 491.601562 113.597656 491.148438 113.898438 C 490.695312 114.203125 490.277344 114.546875 489.894531 114.929688 C 489.507812 115.3125 489.164062 115.730469 488.863281 116.183594 C 488.5625 116.636719 488.308594 117.113281 488.097656 117.617188 C 487.890625 118.117188 487.734375 118.636719 487.628906 119.167969 C 487.523438 119.703125 487.46875 120.238281 487.46875 120.785156 L 487.46875 254.214844 C 487.46875 254.761719 487.523438 255.296875 487.628906 255.832031 C 487.734375 256.363281 487.890625 256.882812 488.097656 257.382812 C 488.308594 257.886719 488.5625 258.363281 488.863281 258.816406 C 489.164062 259.269531 489.507812 259.6875 489.894531 260.070312 C 490.277344 260.453125 490.695312 260.796875 491.148438 261.101562 C 491.601562 261.402344 492.078125 261.65625 492.578125 261.863281 C 493.082031 262.074219 493.597656 262.230469 494.132812 262.335938 C 494.664062 262.441406 495.203125 262.496094 495.746094 262.496094 L 567.589844 262.496094 L 567.589844 204.492188 L 548.109375 204.492188 L 548.109375 181.789062 L 567.589844 181.789062 L 567.589844 165.089844 C 567.589844 145.714844 579.421875 135.167969 596.710938 135.167969 C 604.984375 135.167969 612.101562 135.78125 614.167969 136.046875 L 614.167969 156.292969 L 602.246094 156.292969 C 592.84375 156.292969 591.019531 160.757812 591.019531 167.320312 L 591.019531 181.789062 L 613.5 181.789062 L 610.570312 204.492188 L 591.019531 204.492188 L 591.019531 262.496094 L 629.175781 262.496094 C 629.71875 262.496094 630.257812 262.441406 630.789062 262.335938 C 631.324219 262.230469 631.84375 262.074219 632.34375 261.867188 C 632.847656 261.660156 633.324219 261.402344 633.777344 261.101562 C 634.230469 260.800781 634.648438 260.457031 635.03125 260.074219 C 635.417969 259.6875 635.761719 259.269531 636.0625 258.816406 C 636.363281 258.367188 636.621094 257.886719 636.828125 257.386719 C 637.035156 256.882812 637.195312 256.367188 637.300781 255.832031 C 637.40625 255.300781 637.460938 254.761719 637.460938 254.214844 L 637.460938 120.785156 C 637.460938 120.238281 637.40625 119.703125 637.300781 119.167969 C 637.195312 118.636719 637.035156 118.117188 636.828125 117.617188 C 636.621094 117.113281 636.367188 116.636719 636.0625 116.183594 C 635.761719 115.730469 635.417969 115.3125 635.035156 114.929688 C 634.648438 114.546875 634.230469 114.203125 633.78125 113.898438 C 633.328125 113.597656 632.851562 113.34375 632.347656 113.136719 C 631.847656 112.925781 631.328125 112.769531 630.796875 112.664062 C 630.261719 112.558594 629.722656 112.503906 629.179688 112.503906 Z M 629.179688 112.503906"/></g><g clip-path="url(#e)"><path fill="#FFF" d="M 591.027344 262.496094 L 591.027344 204.492188 L 610.582031 204.492188 L 613.511719 181.789062 L 591.03125 181.789062 L 591.03125 167.328125 C 591.03125 160.769531 592.847656 156.300781 602.253906 156.300781 L 614.171875 156.300781 L 614.171875 136.050781 C 612.097656 135.773438 604.984375 135.171875 596.710938 135.171875 C 579.429688 135.171875 567.59375 145.714844 567.59375 165.09375 L 567.59375 181.789062 L 548.113281 181.789062 L 548.113281 204.488281 L 567.59375 204.488281 L 567.59375 262.492188 Z M 591.027344 262.496094"/></g><g clip-path="url(#f)"><path fill="#7289DA" d="M 1259.917969 112.503906 L 1364.914062 112.503906 C 1365.648438 112.503906 1366.382812 112.539062 1367.117188 112.613281 C 1367.851562 112.683594 1368.578125 112.792969 1369.300781 112.9375 C 1370.023438 113.082031 1370.738281 113.257812 1371.445312 113.472656 C 1372.148438 113.6875 1372.839844 113.933594 1373.523438 114.21875 C 1374.203125 114.5 1374.867188 114.8125 1375.519531 115.160156 C 1376.167969 115.507812 1376.800781 115.886719 1377.410156 116.296875 C 1378.023438 116.707031 1378.617188 117.144531 1379.183594 117.613281 C 1379.753906 118.078125 1380.300781 118.574219 1380.820312 119.09375 C 1381.34375 119.617188 1381.835938 120.160156 1382.304688 120.730469 C 1382.773438 121.300781 1383.210938 121.890625 1383.621094 122.503906 C 1384.027344 123.117188 1384.40625 123.746094 1384.753906 124.398438 C 1385.101562 125.046875 1385.417969 125.710938 1385.699219 126.394531 C 1385.980469 127.074219 1386.226562 127.765625 1386.441406 128.472656 C 1386.65625 129.175781 1386.835938 129.890625 1386.980469 130.613281 C 1387.121094 131.335938 1387.230469 132.066406 1387.304688 132.796875 C 1387.375 133.53125 1387.410156 134.265625 1387.410156 135.003906 L 1387.410156 239.996094 C 1387.410156 240.734375 1387.375 241.46875 1387.304688 242.203125 C 1387.230469 242.933594 1387.121094 243.664062 1386.980469 244.386719 C 1386.835938 245.109375 1386.65625 245.824219 1386.441406 246.527344 C 1386.226562 247.234375 1385.980469 247.925781 1385.699219 248.605469 C 1385.417969 249.289062 1385.101562 249.953125 1384.753906 250.601562 C 1384.40625 251.253906 1384.027344 251.882812 1383.621094 252.496094 C 1383.210938 253.109375 1382.773438 253.699219 1382.304688 254.269531 C 1381.835938 254.839844 1381.34375 255.382812 1380.820312 255.90625 C 1380.300781 256.425781 1379.753906 256.921875 1379.183594 257.386719 C 1378.617188 257.855469 1378.023438 258.292969 1377.410156 258.703125 C 1376.800781 259.113281 1376.167969 259.492188 1375.519531 259.839844 C 1374.867188 260.1875 1374.203125 260.5 1373.523438 260.78125 C 1372.839844 261.066406 1372.148438 261.3125 1371.445312 261.527344 C 1370.738281 261.742188 1370.023438 261.917969 1369.300781 262.0625 C 1368.578125 262.207031 1367.851562 262.316406 1367.117188 262.386719 C 1366.382812 262.460938 1365.648438 262.496094 1364.914062 262.496094 L 1259.917969 262.496094 C 1259.183594 262.496094 1258.449219 262.460938 1257.714844 262.386719 C 1256.980469 262.316406 1256.253906 262.207031 1255.53125 262.0625 C 1254.808594 261.917969 1254.09375 261.742188 1253.386719 261.527344 C 1252.683594 261.3125 1251.992188 261.066406 1251.308594 260.78125 C 1250.628906 260.5 1249.964844 260.1875 1249.3125 259.839844 C 1248.664062 259.492188 1248.03125 259.113281 1247.417969 258.703125 C 1246.808594 258.292969 1246.214844 257.855469 1245.644531 257.386719 C 1245.078125 256.921875 1244.53125 256.425781 1244.011719 255.90625 C 1243.488281 255.382812 1242.996094 254.839844 1242.527344 254.269531 C 1242.058594 253.699219 1241.621094 253.109375 1241.210938 252.496094 C 1240.804688 251.882812 1240.425781 251.253906 1240.078125 250.601562 C 1239.730469 249.953125 1239.414062 249.289062 1239.132812 248.605469 C 1238.851562 247.925781 1238.601562 247.234375 1238.390625 246.527344 C 1238.175781 245.824219 1237.996094 245.109375 1237.851562 244.386719 C 1237.710938 243.664062 1237.601562 242.933594 1237.527344 242.203125 C 1237.457031 241.46875 1237.421875 240.734375 1237.421875 239.996094 L 1237.421875 135.003906 C 1237.421875 134.265625 1237.457031 133.53125 1237.527344 132.796875 C 1237.601562 132.066406 1237.710938 131.335938 1237.851562 130.613281 C 1237.996094 129.890625 1238.175781 129.175781 1238.390625 128.472656 C 1238.601562 127.765625 1238.851562 127.074219 1239.132812 126.394531 C 1239.414062 125.710938 1239.730469 125.046875 1240.078125 124.398438 C 1240.425781 123.746094 1240.804688 123.117188 1241.210938 122.503906 C 1241.621094 121.890625 1242.058594 121.300781 1242.527344 120.730469 C 1242.996094 120.160156 1243.488281 119.617188 1244.011719 119.09375 C 1244.53125 118.574219 1245.078125 118.078125 1245.644531 117.613281 C 1246.214844 117.144531 1246.808594 116.707031 1247.417969 116.296875 C 1248.03125 115.886719 1248.664062 115.507812 1249.3125 115.160156 C 1249.964844 114.8125 1250.628906 114.5 1251.308594 114.21875 C 1251.992188 113.933594 1252.683594 113.6875 1253.386719 113.472656 C 1254.09375 113.257812 1254.808594 113.082031 1255.53125 112.9375 C 1256.253906 112.792969 1256.980469 112.683594 1257.714844 112.613281 C 1258.449219 112.539062 1259.183594 112.503906 1259.917969 112.503906 Z M 1259.917969 112.503906"/></g><path fill="#FFF" d="M 1338.78125 227.339844 L 1332.628906 220.015625 C 1344.640625 216.796875 1349.328125 208.59375 1349.328125 208.59375 C 1334.09375 222.945312 1292.496094 223.53125 1276.382812 208.59375 C 1276.382812 208.59375 1280.484375 216.210938 1292.789062 220.015625 L 1286.050781 227.339844 C 1265.542969 227.046875 1257.632812 213.28125 1257.632812 213.28125 C 1257.632812 182.8125 1271.109375 158.496094 1271.109375 158.496094 C 1284.878906 148.832031 1297.476562 148.832031 1297.476562 148.832031 L 1298.355469 150.003906 C 1281.363281 154.691406 1274.039062 162.304688 1274.039062 162.304688 C 1293.960938 148.832031 1334.972656 150.003906 1351.085938 162.304688 C 1351.378906 162.011719 1341.417969 154.105469 1325.890625 150.003906 L 1327.355469 148.832031 C 1327.355469 148.832031 1339.953125 148.832031 1353.722656 158.496094 C 1367.492188 168.164062 1367.199219 182.8125 1367.199219 213.28125 C 1367.199219 213.28125 1359.289062 227.046875 1338.78125 227.339844 Z M 1338.78125 227.339844"/><path fill="#7289DA" d="M 1304.507812 194.238281 C 1304.507812 194.910156 1304.445312 195.578125 1304.320312 196.238281 C 1304.195312 196.898438 1304.011719 197.539062 1303.769531 198.160156 C 1303.527344 198.785156 1303.230469 199.375 1302.878906 199.933594 C 1302.523438 200.492188 1302.125 201.011719 1301.675781 201.488281 C 1301.226562 201.964844 1300.738281 202.390625 1300.210938 202.761719 C 1299.683594 203.136719 1299.125 203.453125 1298.539062 203.710938 C 1297.953125 203.96875 1297.347656 204.164062 1296.726562 204.292969 C 1296.101562 204.425781 1295.472656 204.492188 1294.839844 204.492188 C 1294.203125 204.492188 1293.574219 204.425781 1292.953125 204.292969 C 1292.332031 204.164062 1291.726562 203.96875 1291.140625 203.710938 C 1290.554688 203.453125 1289.996094 203.136719 1289.46875 202.761719 C 1288.941406 202.390625 1288.453125 201.964844 1288.003906 201.488281 C 1287.554688 201.011719 1287.152344 200.492188 1286.800781 199.933594 C 1286.449219 199.375 1286.148438 198.785156 1285.90625 198.160156 C 1285.664062 197.539062 1285.480469 196.898438 1285.355469 196.238281 C 1285.234375 195.578125 1285.171875 194.910156 1285.171875 194.238281 C 1285.171875 193.566406 1285.234375 192.898438 1285.355469 192.238281 C 1285.480469 191.578125 1285.664062 190.9375 1285.90625 190.3125 C 1286.148438 189.691406 1286.449219 189.101562 1286.800781 188.542969 C 1287.152344 187.980469 1287.554688 187.464844 1288.003906 186.988281 C 1288.453125 186.511719 1288.941406 186.085938 1289.46875 185.710938 C 1289.996094 185.339844 1290.554688 185.023438 1291.140625 184.765625 C 1291.726562 184.507812 1292.332031 184.3125 1292.953125 184.179688 C 1293.574219 184.050781 1294.203125 183.984375 1294.839844 183.984375 C 1295.472656 183.984375 1296.101562 184.050781 1296.726562 184.179688 C 1297.347656 184.3125 1297.953125 184.507812 1298.539062 184.765625 C 1299.125 185.023438 1299.683594 185.339844 1300.210938 185.710938 C 1300.738281 186.085938 1301.226562 186.511719 1301.675781 186.988281 C 1302.125 187.464844 1302.523438 187.980469 1302.878906 188.542969 C 1303.230469 189.101562 1303.527344 189.691406 1303.769531 190.3125 C 1304.011719 190.9375 1304.195312 191.578125 1304.320312 192.238281 C 1304.445312 192.898438 1304.507812 193.566406 1304.507812 194.238281 Z M 1304.507812 194.238281"/><path fill="#7289DA" d="M 1338.488281 194.238281 C 1338.488281 194.910156 1338.425781 195.578125 1338.300781 196.238281 C 1338.179688 196.898438 1337.996094 197.539062 1337.753906 198.160156 C 1337.507812 198.785156 1337.210938 199.375 1336.859375 199.933594 C 1336.507812 200.492188 1336.105469 201.011719 1335.65625 201.488281 C 1335.207031 201.964844 1334.71875 202.390625 1334.191406 202.761719 C 1333.664062 203.136719 1333.105469 203.453125 1332.519531 203.710938 C 1331.933594 203.96875 1331.328125 204.164062 1330.707031 204.292969 C 1330.085938 204.425781 1329.457031 204.492188 1328.820312 204.492188 C 1328.1875 204.492188 1327.558594 204.425781 1326.933594 204.292969 C 1326.3125 204.164062 1325.707031 203.96875 1325.121094 203.710938 C 1324.535156 203.453125 1323.976562 203.136719 1323.449219 202.761719 C 1322.921875 202.390625 1322.433594 201.964844 1321.984375 201.488281 C 1321.535156 201.011719 1321.136719 200.492188 1320.78125 199.933594 C 1320.429688 199.375 1320.132812 198.785156 1319.890625 198.160156 C 1319.648438 197.539062 1319.464844 196.898438 1319.339844 196.238281 C 1319.214844 195.578125 1319.152344 194.910156 1319.152344 194.238281 C 1319.152344 193.566406 1319.214844 192.898438 1319.339844 192.238281 C 1319.464844 191.578125 1319.648438 190.9375 1319.890625 190.3125 C 1320.132812 189.691406 1320.429688 189.101562 1320.78125 188.542969 C 1321.136719 187.980469 1321.535156 187.464844 1321.984375 186.988281 C 1322.433594 186.511719 1322.921875 186.085938 1323.449219 185.710938 C 1323.976562 185.339844 1324.535156 185.023438 1325.121094 184.765625 C 1325.707031 184.507812 1326.3125 184.3125 1326.933594 184.179688 C 1327.558594 184.050781 1328.1875 183.984375 1328.820312 183.984375 C 1329.457031 183.984375 1330.085938 184.050781 1330.707031 184.179688 C 1331.328125 184.3125 1331.933594 184.507812 1332.519531 184.765625 C 1333.105469 185.023438 1333.664062 185.339844 1334.191406 185.710938 C 1334.71875 186.085938 1335.207031 186.511719 1335.65625 186.988281 C 1336.105469 187.464844 1336.507812 187.980469 1336.859375 188.542969 C 1337.210938 189.101562 1337.507812 189.691406 1337.753906 190.3125 C 1337.996094 190.9375 1338.179688 191.578125 1338.300781 192.238281 C 1338.425781 192.898438 1338.488281 193.566406 1338.488281 194.238281 Z M 1338.488281 194.238281"/><g clip-path="url(#g)"><path fill="#FFF" d="M 1687.363281 112.558594 C 1645.121094 112.558594 1610.867188 146.820312 1610.867188 189.085938 C 1610.867188 222.898438 1632.785156 251.582031 1663.179688 261.699219 C 1667 262.410156 1668.40625 260.035156 1668.40625 258.015625 C 1668.40625 256.191406 1668.335938 250.167969 1668.300781 243.769531 C 1647.019531 248.402344 1642.53125 234.742188 1642.53125 234.742188 C 1639.050781 225.894531 1634.035156 223.542969 1634.035156 223.542969 C 1627.097656 218.796875 1634.558594 218.894531 1634.558594 218.894531 C 1642.242188 219.429688 1646.285156 226.777344 1646.285156 226.777344 C 1653.109375 238.476562 1664.179688 235.09375 1668.546875 233.140625 C 1669.234375 228.195312 1671.214844 224.816406 1673.402344 222.90625 C 1656.410156 220.972656 1638.550781 214.410156 1638.550781 185.089844 C 1638.550781 176.734375 1641.539062 169.90625 1646.433594 164.546875 C 1645.636719 162.621094 1643.019531 154.835938 1647.171875 144.296875 C 1647.171875 144.296875 1653.597656 142.238281 1668.214844 152.140625 C 1674.316406 150.445312 1680.859375 149.59375 1687.363281 149.566406 C 1693.863281 149.59375 1700.414062 150.445312 1706.527344 152.140625 C 1721.125 142.238281 1727.539062 144.296875 1727.539062 144.296875 C 1731.703125 154.835938 1729.085938 162.621094 1728.292969 164.546875 C 1733.191406 169.90625 1736.164062 176.734375 1736.164062 185.089844 C 1736.164062 214.480469 1718.269531 220.949219 1701.230469 222.84375 C 1703.976562 225.21875 1706.425781 229.875 1706.425781 237.019531 C 1706.425781 247.253906 1706.335938 255.5 1706.335938 258.015625 C 1706.335938 260.054688 1707.710938 262.441406 1711.589844 261.6875 C 1741.964844 251.558594 1763.855469 222.886719 1763.855469 189.085938 C 1763.855469 146.820312 1729.605469 112.558594 1687.363281 112.558594 Z M 1639.515625 221.570312 C 1639.347656 221.953125 1638.75 222.066406 1638.207031 221.804688 C 1637.648438 221.554688 1637.339844 221.039062 1637.519531 220.65625 C 1637.683594 220.261719 1638.28125 220.15625 1638.835938 220.417969 C 1639.390625 220.667969 1639.710938 221.1875 1639.515625 221.570312 Z M 1643.277344 224.929688 C 1642.914062 225.265625 1642.199219 225.109375 1641.71875 224.578125 C 1641.21875 224.039062 1641.125 223.328125 1641.492188 222.988281 C 1641.871094 222.648438 1642.5625 222.808594 1643.0625 223.339844 C 1643.5625 223.878906 1643.660156 224.589844 1643.277344 224.929688 Z M 1645.859375 229.230469 C 1645.390625 229.550781 1644.625 229.246094 1644.152344 228.566406 C 1643.683594 227.882812 1643.683594 227.070312 1644.160156 226.742188 C 1644.636719 226.414062 1645.390625 226.710938 1645.871094 227.386719 C 1646.339844 228.074219 1646.339844 228.894531 1645.859375 229.230469 Z M 1650.226562 234.203125 C 1649.808594 234.664062 1648.914062 234.542969 1648.261719 233.910156 C 1647.589844 233.296875 1647.40625 232.417969 1647.824219 231.957031 C 1648.25 231.496094 1649.148438 231.621094 1649.808594 232.25 C 1650.46875 232.863281 1650.671875 233.75 1650.226562 234.203125 Z M 1655.867188 235.882812 C 1655.683594 236.480469 1654.824219 236.757812 1653.957031 236.5 C 1653.089844 236.242188 1652.527344 235.535156 1652.699219 234.933594 C 1652.878906 234.328125 1653.746094 234.042969 1654.617188 234.316406 C 1655.480469 234.582031 1656.046875 235.273438 1655.867188 235.882812 Z M 1662.289062 236.59375 C 1662.3125 237.230469 1661.578125 237.75 1660.667969 237.761719 C 1659.753906 237.785156 1659.011719 237.269531 1659.003906 236.648438 C 1659.003906 236.015625 1659.71875 235.496094 1660.636719 235.484375 C 1661.542969 235.464844 1662.289062 235.96875 1662.289062 236.59375 Z M 1668.597656 236.355469 C 1668.707031 236.972656 1668.074219 237.605469 1667.171875 237.773438 C 1666.285156 237.933594 1665.460938 237.550781 1665.347656 236.941406 C 1665.238281 236.3125 1665.882812 235.679688 1666.769531 235.519531 C 1667.671875 235.359375 1668.480469 235.726562 1668.597656 236.355469 Z M 1668.597656 236.355469"/></g></svg>