<?xml version="1.0" encoding="UTF-8"?><svg xmlns="http://www.w3.org/2000/svg" xmlns:xlink="http://www.w3.org/1999/xlink" contentScriptType="text/ecmascript" width="375" zoomAndPan="magnify" contentStyleType="text/css" viewBox="0 0 375 374.999991" height="374.999991" preserveAspectRatio="xMidYMid meet" version="1.0"><defs><clipPath id="clip-0"><path d="M 37.5 76 L 296 76 L 296 334.296875 L 37.5 334.296875 Z M 37.5 76 " clip-rule="nonzero"/></clipPath><clipPath id="clip-1"><path d="M 267 69 L 337.5 69 L 337.5 119 L 267 119 Z M 267 69 " clip-rule="nonzero"/></clipPath><clipPath id="clip-2"><path d="M 259 41.046875 L 310 41.046875 L 310 110 L 259 110 Z M 259 41.046875 " clip-rule="nonzero"/></clipPath></defs><rect x="-37.5" width="450" fill="rgb(100%, 100%, 100%)" y="-37.499999" height="449.999989" fill-opacity="1"/><rect x="-37.5" width="450" fill="rgb(14.898682%, 68.629456%, 85.099792%)" y="-37.499999" height="449.999989" fill-opacity="1"/><g clip-path="url(#clip-0)"><path fill="rgb(2.349854%, 19.60907%, 31.759644%)" d="M 295.503906 205.148438 C 295.503906 207.261719 295.453125 209.375 295.351562 211.484375 C 295.246094 213.59375 295.089844 215.703125 294.882812 217.804688 C 294.679688 219.910156 294.417969 222.003906 294.109375 224.097656 C 293.800781 226.1875 293.4375 228.269531 293.027344 230.339844 C 292.617188 232.414062 292.152344 234.476562 291.640625 236.523438 C 291.128906 238.574219 290.566406 240.609375 289.953125 242.632812 C 289.339844 244.65625 288.675781 246.660156 287.964844 248.652344 C 287.253906 250.640625 286.496094 252.613281 285.6875 254.566406 C 284.878906 256.519531 284.023438 258.449219 283.121094 260.359375 C 282.21875 262.269531 281.269531 264.15625 280.277344 266.019531 C 279.28125 267.886719 278.242188 269.722656 277.15625 271.535156 C 276.070312 273.347656 274.941406 275.132812 273.769531 276.890625 C 272.597656 278.648438 271.382812 280.375 270.125 282.074219 C 268.867188 283.769531 267.566406 285.4375 266.230469 287.070312 C 264.890625 288.703125 263.511719 290.304688 262.09375 291.867188 C 260.675781 293.433594 259.222656 294.964844 257.730469 296.460938 C 256.234375 297.953125 254.707031 299.410156 253.144531 300.828125 C 251.578125 302.25 249.980469 303.628906 248.351562 304.96875 C 246.71875 306.308594 245.054688 307.609375 243.359375 308.871094 C 241.664062 310.128906 239.9375 311.34375 238.183594 312.519531 C 236.429688 313.691406 234.644531 314.824219 232.835938 315.910156 C 231.023438 316.996094 229.1875 318.039062 227.328125 319.035156 C 225.464844 320.03125 223.582031 320.980469 221.671875 321.882812 C 219.765625 322.789062 217.835938 323.644531 215.886719 324.453125 C 213.933594 325.261719 211.964844 326.019531 209.980469 326.734375 C 207.992188 327.445312 205.988281 328.109375 203.96875 328.722656 C 201.949219 329.335938 199.914062 329.898438 197.867188 330.410156 C 195.820312 330.925781 193.761719 331.386719 191.691406 331.800781 C 189.621094 332.210938 187.539062 332.574219 185.453125 332.882812 C 183.363281 333.195312 181.269531 333.453125 179.167969 333.660156 C 177.070312 333.867188 174.964844 334.023438 172.855469 334.125 C 170.746094 334.230469 168.636719 334.28125 166.527344 334.28125 C 164.417969 334.28125 162.308594 334.230469 160.199219 334.125 C 158.089844 334.023438 155.984375 333.867188 153.886719 333.660156 C 151.785156 333.453125 149.691406 333.195312 147.601562 332.882812 C 145.515625 332.574219 143.433594 332.210938 141.363281 331.800781 C 139.292969 331.386719 137.234375 330.925781 135.1875 330.410156 C 133.140625 329.898438 131.105469 329.335938 129.085938 328.722656 C 127.066406 328.109375 125.0625 327.445312 123.074219 326.734375 C 121.089844 326.019531 119.117188 325.261719 117.167969 324.453125 C 115.21875 323.644531 113.289062 322.789062 111.382812 321.882812 C 109.472656 320.980469 107.589844 320.03125 105.726562 319.035156 C 103.867188 318.039062 102.027344 316.996094 100.21875 315.910156 C 98.40625 314.824219 96.625 313.691406 94.871094 312.519531 C 93.113281 311.34375 91.390625 310.128906 89.695312 308.871094 C 88 307.609375 86.335938 306.308594 84.703125 304.96875 C 83.070312 303.628906 81.472656 302.25 79.910156 300.828125 C 78.347656 299.410156 76.816406 297.953125 75.324219 296.460938 C 73.832031 294.964844 72.378906 293.433594 70.960938 291.867188 C 69.542969 290.304688 68.164062 288.703125 66.824219 287.070312 C 65.484375 285.4375 64.1875 283.769531 62.929688 282.074219 C 61.671875 280.375 60.457031 278.648438 59.285156 276.890625 C 58.113281 275.132812 56.984375 273.347656 55.898438 271.535156 C 54.8125 269.722656 53.773438 267.886719 52.777344 266.019531 C 51.78125 264.15625 50.835938 262.269531 49.929688 260.359375 C 49.027344 258.449219 48.175781 256.519531 47.367188 254.566406 C 46.558594 252.613281 45.800781 250.640625 45.085938 248.652344 C 44.375 246.660156 43.714844 244.65625 43.101562 242.632812 C 42.488281 240.609375 41.925781 238.574219 41.414062 236.523438 C 40.902344 234.476562 40.4375 232.414062 40.027344 230.339844 C 39.613281 228.269531 39.253906 226.1875 38.945312 224.097656 C 38.632812 222.003906 38.375 219.910156 38.167969 217.804688 C 37.960938 215.703125 37.808594 213.59375 37.703125 211.484375 C 37.601562 209.375 37.546875 207.261719 37.546875 205.148438 C 37.546875 203.035156 37.601562 200.921875 37.703125 198.8125 C 37.808594 196.699219 37.960938 194.59375 38.167969 192.492188 C 38.375 190.386719 38.632812 188.289062 38.945312 186.199219 C 39.253906 184.109375 39.613281 182.027344 40.027344 179.957031 C 40.4375 177.882812 40.902344 175.820312 41.414062 173.769531 C 41.925781 171.722656 42.488281 169.683594 43.101562 167.664062 C 43.714844 165.640625 44.375 163.632812 45.085938 161.644531 C 45.800781 159.65625 46.558594 157.683594 47.367188 155.730469 C 48.175781 153.777344 49.027344 151.847656 49.929688 149.9375 C 50.835938 148.027344 51.78125 146.140625 52.777344 144.273438 C 53.773438 142.410156 54.8125 140.574219 55.898438 138.761719 C 56.984375 136.949219 58.113281 135.164062 59.285156 133.40625 C 60.457031 131.648438 61.671875 129.921875 62.929688 128.222656 C 64.1875 126.527344 65.484375 124.859375 66.824219 123.226562 C 68.164062 121.59375 69.542969 119.992188 70.960938 118.425781 C 72.378906 116.863281 73.832031 115.332031 75.324219 113.835938 C 76.816406 112.34375 78.347656 110.886719 79.910156 109.464844 C 81.472656 108.046875 83.070312 106.667969 84.703125 105.328125 C 86.335938 103.984375 88 102.6875 89.695312 101.425781 C 91.390625 100.167969 93.113281 98.953125 94.871094 97.777344 C 96.625 96.601562 98.40625 95.472656 100.21875 94.386719 C 102.027344 93.300781 103.867188 92.257812 105.726562 91.261719 C 107.589844 90.265625 109.472656 89.316406 111.382812 88.414062 C 113.289062 87.507812 115.21875 86.652344 117.167969 85.84375 C 119.117188 85.035156 121.089844 84.273438 123.074219 83.5625 C 125.0625 82.851562 127.066406 82.1875 129.085938 81.574219 C 131.105469 80.960938 133.140625 80.398438 135.1875 79.882812 C 137.234375 79.371094 139.292969 78.90625 141.363281 78.496094 C 143.433594 78.082031 145.515625 77.722656 147.601562 77.414062 C 149.691406 77.101562 151.785156 76.84375 153.886719 76.636719 C 155.984375 76.429688 158.089844 76.273438 160.199219 76.171875 C 162.308594 76.066406 164.417969 76.015625 166.527344 76.015625 C 168.636719 76.015625 170.746094 76.066406 172.855469 76.171875 C 174.964844 76.273438 177.070312 76.429688 179.167969 76.636719 C 181.269531 76.84375 183.363281 77.101562 185.453125 77.414062 C 187.539062 77.722656 189.621094 78.082031 191.691406 78.496094 C 193.761719 78.90625 195.820312 79.371094 197.867188 79.882812 C 199.914062 80.398438 201.949219 80.960938 203.96875 81.574219 C 205.988281 82.1875 207.992188 82.851562 209.980469 83.5625 C 211.964844 84.273438 213.933594 85.035156 215.886719 85.84375 C 217.835938 86.652344 219.765625 87.507812 221.671875 88.414062 C 223.582031 89.316406 225.464844 90.265625 227.328125 91.261719 C 229.1875 92.257812 231.023438 93.300781 232.835938 94.386719 C 234.644531 95.472656 236.429688 96.601562 238.183594 97.777344 C 239.9375 98.953125 241.664062 100.167969 243.359375 101.425781 C 245.054688 102.6875 246.71875 103.984375 248.351562 105.328125 C 249.980469 106.667969 251.578125 108.046875 253.144531 109.464844 C 254.707031 110.886719 256.234375 112.34375 257.730469 113.835938 C 259.222656 115.332031 260.675781 116.863281 262.09375 118.425781 C 263.511719 119.992188 264.890625 121.59375 266.230469 123.226562 C 267.566406 124.859375 268.867188 126.527344 270.125 128.222656 C 271.382812 129.921875 272.597656 131.648438 273.769531 133.40625 C 274.941406 135.164062 276.070312 136.949219 277.15625 138.761719 C 278.242188 140.574219 279.28125 142.410156 280.277344 144.273438 C 281.269531 146.140625 282.21875 148.027344 283.121094 149.9375 C 284.023438 151.847656 284.878906 153.777344 285.6875 155.730469 C 286.496094 157.683594 287.253906 159.65625 287.964844 161.644531 C 288.675781 163.632812 289.339844 165.640625 289.953125 167.664062 C 290.566406 169.683594 291.128906 171.722656 291.640625 173.769531 C 292.152344 175.820312 292.617188 177.882812 293.027344 179.957031 C 293.4375 182.027344 293.800781 184.109375 294.109375 186.199219 C 294.417969 188.289062 294.679688 190.386719 294.882812 192.492188 C 295.089844 194.59375 295.246094 196.699219 295.351562 198.8125 C 295.453125 200.921875 295.503906 203.035156 295.503906 205.148438 Z M 295.503906 205.148438 " fill-opacity="1" fill-rule="nonzero"/></g><path fill="rgb(63.919067%, 89.019775%, 95.289612%)" d="M 265.085938 205.148438 C 265.085938 206.761719 265.046875 208.378906 264.96875 209.988281 C 264.886719 211.601562 264.769531 213.214844 264.613281 214.820312 C 264.453125 216.425781 264.257812 218.03125 264.019531 219.628906 C 263.78125 221.222656 263.507812 222.816406 263.191406 224.398438 C 262.878906 225.984375 262.523438 227.558594 262.132812 229.125 C 261.742188 230.691406 261.308594 232.246094 260.84375 233.792969 C 260.375 235.339844 259.867188 236.871094 259.324219 238.390625 C 258.78125 239.910156 258.199219 241.417969 257.582031 242.910156 C 256.964844 244.402344 256.3125 245.878906 255.625 247.339844 C 254.933594 248.796875 254.207031 250.238281 253.449219 251.664062 C 252.6875 253.089844 251.894531 254.492188 251.0625 255.878906 C 250.234375 257.261719 249.371094 258.628906 248.476562 259.96875 C 247.578125 261.3125 246.652344 262.632812 245.691406 263.929688 C 244.730469 265.226562 243.738281 266.5 242.714844 267.75 C 241.691406 268.996094 240.636719 270.21875 239.554688 271.414062 C 238.472656 272.613281 237.359375 273.78125 236.21875 274.921875 C 235.078125 276.066406 233.910156 277.179688 232.714844 278.261719 C 231.519531 279.347656 230.300781 280.402344 229.050781 281.425781 C 227.804688 282.453125 226.535156 283.445312 225.238281 284.40625 C 223.941406 285.367188 222.625 286.296875 221.285156 287.195312 C 219.941406 288.09375 218.578125 288.957031 217.195312 289.785156 C 215.8125 290.617188 214.410156 291.414062 212.988281 292.171875 C 211.566406 292.933594 210.125 293.660156 208.667969 294.351562 C 207.207031 295.042969 205.734375 295.695312 204.242188 296.3125 C 202.753906 296.933594 201.25 297.511719 199.730469 298.058594 C 198.210938 298.601562 196.679688 299.109375 195.136719 299.578125 C 193.59375 300.046875 192.039062 300.476562 190.476562 300.867188 C 188.910156 301.261719 187.335938 301.613281 185.753906 301.929688 C 184.171875 302.246094 182.585938 302.519531 180.988281 302.757812 C 179.394531 302.996094 177.792969 303.191406 176.1875 303.351562 C 174.582031 303.507812 172.972656 303.628906 171.363281 303.707031 C 169.753906 303.785156 168.140625 303.824219 166.527344 303.824219 C 164.914062 303.824219 163.300781 303.785156 161.691406 303.707031 C 160.078125 303.628906 158.472656 303.507812 156.867188 303.351562 C 155.261719 303.191406 153.660156 302.996094 152.066406 302.757812 C 150.46875 302.519531 148.882812 302.246094 147.300781 301.929688 C 145.71875 301.613281 144.144531 301.261719 142.578125 300.867188 C 141.015625 300.476562 139.460938 300.046875 137.917969 299.578125 C 136.375 299.109375 134.84375 298.601562 133.324219 298.058594 C 131.804688 297.511719 130.300781 296.933594 128.808594 296.3125 C 127.320312 295.695312 125.847656 295.042969 124.386719 294.351562 C 122.929688 293.660156 121.488281 292.933594 120.066406 292.171875 C 118.644531 291.414062 117.242188 290.617188 115.859375 289.785156 C 114.472656 288.957031 113.113281 288.09375 111.769531 287.195312 C 110.429688 286.296875 109.109375 285.367188 107.816406 284.40625 C 106.519531 283.445312 105.25 282.453125 104 281.425781 C 102.753906 280.402344 101.535156 279.347656 100.339844 278.261719 C 99.144531 277.179688 97.976562 276.066406 96.835938 274.921875 C 95.695312 273.78125 94.582031 272.613281 93.5 271.414062 C 92.417969 270.21875 91.363281 268.996094 90.339844 267.75 C 89.316406 266.5 88.324219 265.226562 87.363281 263.929688 C 86.402344 262.632812 85.472656 261.3125 84.578125 259.96875 C 83.683594 258.628906 82.820312 257.261719 81.988281 255.878906 C 81.160156 254.492188 80.367188 253.089844 79.605469 251.664062 C 78.84375 250.238281 78.121094 248.796875 77.429688 247.339844 C 76.742188 245.878906 76.085938 244.402344 75.46875 242.910156 C 74.851562 241.417969 74.273438 239.910156 73.730469 238.390625 C 73.1875 236.871094 72.679688 235.339844 72.210938 233.792969 C 71.742188 232.246094 71.3125 230.691406 70.921875 229.125 C 70.53125 227.558594 70.175781 225.984375 69.863281 224.398438 C 69.546875 222.816406 69.269531 221.222656 69.035156 219.628906 C 68.796875 218.03125 68.601562 216.425781 68.441406 214.820312 C 68.285156 213.214844 68.164062 211.601562 68.085938 209.988281 C 68.007812 208.378906 67.96875 206.761719 67.96875 205.148438 C 67.96875 203.53125 68.007812 201.917969 68.085938 200.304688 C 68.164062 198.691406 68.285156 197.082031 68.441406 195.476562 C 68.601562 193.867188 68.796875 192.265625 69.035156 190.667969 C 69.269531 189.070312 69.546875 187.480469 69.863281 185.898438 C 70.175781 184.3125 70.53125 182.738281 70.921875 181.171875 C 71.3125 179.605469 71.742188 178.050781 72.210938 176.503906 C 72.679688 174.957031 73.1875 173.425781 73.730469 171.90625 C 74.273438 170.382812 74.851562 168.878906 75.46875 167.386719 C 76.085938 165.894531 76.742188 164.417969 77.429688 162.957031 C 78.121094 161.5 78.84375 160.054688 79.605469 158.632812 C 80.367188 157.207031 81.160156 155.804688 81.988281 154.417969 C 82.820312 153.03125 83.683594 151.667969 84.578125 150.324219 C 85.472656 148.984375 86.402344 147.664062 87.363281 146.367188 C 88.324219 145.070312 89.316406 143.796875 90.339844 142.546875 C 91.363281 141.300781 92.417969 140.078125 93.5 138.878906 C 94.582031 137.683594 95.695312 136.515625 96.835938 135.371094 C 97.976562 134.230469 99.144531 133.117188 100.339844 132.03125 C 101.535156 130.949219 102.753906 129.894531 104 128.871094 C 105.25 127.84375 106.519531 126.851562 107.816406 125.890625 C 109.109375 124.929688 110.429688 124 111.769531 123.101562 C 113.113281 122.203125 114.472656 121.339844 115.859375 120.511719 C 117.242188 119.679688 118.644531 118.882812 120.066406 118.121094 C 121.488281 117.359375 122.929688 116.636719 124.386719 115.945312 C 125.847656 115.253906 127.320312 114.601562 128.808594 113.980469 C 130.300781 113.363281 131.804688 112.78125 133.324219 112.238281 C 134.84375 111.695312 136.375 111.1875 137.917969 110.71875 C 139.460938 110.25 141.015625 109.820312 142.578125 109.429688 C 144.144531 109.035156 145.71875 108.683594 147.300781 108.367188 C 148.882812 108.050781 150.46875 107.777344 152.066406 107.539062 C 153.660156 107.300781 155.261719 107.105469 156.867188 106.945312 C 158.472656 106.789062 160.078125 106.667969 161.691406 106.589844 C 163.300781 106.511719 164.914062 106.472656 166.527344 106.472656 C 168.140625 106.472656 169.753906 106.511719 171.363281 106.589844 C 172.972656 106.667969 174.582031 106.789062 176.1875 106.945312 C 177.792969 107.105469 179.394531 107.300781 180.988281 107.539062 C 182.585938 107.777344 184.171875 108.050781 185.753906 108.367188 C 187.335938 108.683594 188.910156 109.035156 190.476562 109.429688 C 192.039062 109.820312 193.59375 110.25 195.136719 110.71875 C 196.679688 111.1875 198.210938 111.695312 199.730469 112.238281 C 201.25 112.78125 202.753906 113.363281 204.242188 113.980469 C 205.734375 114.601562 207.207031 115.253906 208.667969 115.945312 C 210.125 116.636719 211.566406 117.359375 212.988281 118.121094 C 214.410156 118.882812 215.8125 119.679688 217.195312 120.511719 C 218.578125 121.339844 219.941406 122.203125 221.285156 123.101562 C 222.625 124 223.941406 124.929688 225.238281 125.890625 C 226.535156 126.851562 227.804688 127.84375 229.050781 128.871094 C 230.300781 129.894531 231.519531 130.949219 232.714844 132.03125 C 233.910156 133.117188 235.078125 134.230469 236.21875 135.371094 C 237.359375 136.515625 238.472656 137.683594 239.554688 138.878906 C 240.636719 140.078125 241.691406 141.300781 242.714844 142.546875 C 243.738281 143.796875 244.730469 145.070312 245.691406 146.367188 C 246.652344 147.664062 247.578125 148.984375 248.476562 150.324219 C 249.371094 151.667969 250.234375 153.03125 251.0625 154.417969 C 251.894531 155.804688 252.6875 157.207031 253.449219 158.632812 C 254.207031 160.054688 254.933594 161.5 255.625 162.957031 C 256.3125 164.417969 256.964844 165.894531 257.582031 167.386719 C 258.199219 168.878906 258.78125 170.382812 259.324219 171.90625 C 259.867188 173.425781 260.375 174.957031 260.84375 176.503906 C 261.308594 178.050781 261.742188 179.605469 262.132812 181.171875 C 262.523438 182.738281 262.878906 184.3125 263.191406 185.898438 C 263.507812 187.480469 263.78125 189.070312 264.019531 190.667969 C 264.257812 192.265625 264.453125 193.867188 264.613281 195.476562 C 264.769531 197.082031 264.886719 198.691406 264.96875 200.304688 C 265.046875 201.917969 265.085938 203.53125 265.085938 205.148438 Z M 265.085938 205.148438 " fill-opacity="1" fill-rule="nonzero"/><path fill="rgb(2.349854%, 19.60907%, 31.759644%)" d="M 227.367188 205.148438 C 227.367188 207.144531 227.269531 209.132812 227.074219 211.117188 C 226.878906 213.105469 226.585938 215.074219 226.199219 217.03125 C 225.808594 218.988281 225.324219 220.921875 224.746094 222.832031 C 224.167969 224.738281 223.5 226.617188 222.734375 228.457031 C 221.972656 230.300781 221.121094 232.101562 220.183594 233.863281 C 219.242188 235.621094 218.21875 237.332031 217.113281 238.988281 C 216.007812 240.648438 214.820312 242.25 213.558594 243.789062 C 212.292969 245.332031 210.957031 246.808594 209.546875 248.21875 C 208.136719 249.628906 206.664062 250.96875 205.125 252.234375 C 203.582031 253.5 201.984375 254.6875 200.328125 255.796875 C 198.671875 256.902344 196.964844 257.929688 195.207031 258.867188 C 193.449219 259.808594 191.648438 260.660156 189.808594 261.425781 C 187.96875 262.1875 186.09375 262.859375 184.1875 263.4375 C 182.28125 264.015625 180.351562 264.5 178.394531 264.890625 C 176.441406 265.28125 174.472656 265.570312 172.492188 265.765625 C 170.507812 265.964844 168.519531 266.0625 166.527344 266.0625 C 164.535156 266.0625 162.546875 265.964844 160.5625 265.765625 C 158.582031 265.570312 156.613281 265.28125 154.65625 264.890625 C 152.703125 264.5 150.773438 264.015625 148.867188 263.4375 C 146.960938 262.859375 145.085938 262.1875 143.246094 261.425781 C 141.402344 260.660156 139.605469 259.808594 137.847656 258.867188 C 136.089844 257.929688 134.382812 256.902344 132.726562 255.796875 C 131.070312 254.6875 129.472656 253.5 127.929688 252.234375 C 126.390625 250.96875 124.914062 249.628906 123.507812 248.21875 C 122.097656 246.808594 120.761719 245.332031 119.496094 243.789062 C 118.234375 242.25 117.046875 240.648438 115.941406 238.988281 C 114.832031 237.332031 113.808594 235.621094 112.871094 233.863281 C 111.933594 232.101562 111.082031 230.300781 110.320312 228.457031 C 109.554688 226.617188 108.886719 224.738281 108.308594 222.832031 C 107.730469 220.921875 107.246094 218.988281 106.855469 217.03125 C 106.46875 215.074219 106.175781 213.105469 105.980469 211.117188 C 105.785156 209.132812 105.6875 207.144531 105.6875 205.148438 C 105.6875 203.152344 105.785156 201.164062 105.980469 199.175781 C 106.175781 197.191406 106.46875 195.222656 106.855469 193.265625 C 107.246094 191.308594 107.730469 189.375 108.308594 187.464844 C 108.886719 185.558594 109.554688 183.679688 110.320312 181.835938 C 111.082031 179.996094 111.933594 178.195312 112.871094 176.433594 C 113.808594 174.675781 114.832031 172.964844 115.941406 171.308594 C 117.046875 169.648438 118.234375 168.046875 119.496094 166.503906 C 120.761719 164.964844 122.097656 163.488281 123.507812 162.078125 C 124.914062 160.664062 126.390625 159.328125 127.929688 158.0625 C 129.472656 156.796875 131.070312 155.609375 132.726562 154.5 C 134.382812 153.394531 136.089844 152.367188 137.847656 151.429688 C 139.605469 150.488281 141.402344 149.636719 143.246094 148.871094 C 145.085938 148.109375 146.960938 147.4375 148.867188 146.859375 C 150.773438 146.277344 152.703125 145.796875 154.65625 145.40625 C 156.613281 145.015625 158.582031 144.722656 160.5625 144.527344 C 162.546875 144.332031 164.535156 144.234375 166.527344 144.234375 C 168.519531 144.234375 170.507812 144.332031 172.492188 144.527344 C 174.472656 144.722656 176.441406 145.015625 178.394531 145.40625 C 180.351562 145.796875 182.28125 146.277344 184.1875 146.859375 C 186.09375 147.4375 187.96875 148.109375 189.808594 148.871094 C 191.648438 149.636719 193.449219 150.488281 195.207031 151.429688 C 196.964844 152.367188 198.671875 153.394531 200.328125 154.5 C 201.984375 155.609375 203.582031 156.796875 205.125 158.0625 C 206.664062 159.328125 208.136719 160.664062 209.546875 162.078125 C 210.957031 163.488281 212.292969 164.964844 213.558594 166.503906 C 214.820312 168.046875 216.007812 169.648438 217.113281 171.308594 C 218.21875 172.964844 219.242188 174.675781 220.183594 176.433594 C 221.121094 178.195312 221.972656 179.996094 222.734375 181.835938 C 223.5 183.679688 224.167969 185.558594 224.746094 187.464844 C 225.324219 189.375 225.808594 191.308594 226.199219 193.265625 C 226.585938 195.222656 226.878906 197.191406 227.074219 199.175781 C 227.269531 201.164062 227.367188 203.152344 227.367188 205.148438 Z M 227.367188 205.148438 " fill-opacity="1" fill-rule="nonzero"/><path fill="rgb(63.919067%, 89.019775%, 95.289612%)" d="M 179.382812 205.148438 C 179.382812 205.992188 179.300781 206.832031 179.136719 207.660156 C 178.96875 208.488281 178.726562 209.292969 178.402344 210.074219 C 178.082031 210.855469 177.683594 211.597656 177.214844 212.296875 C 176.746094 213 176.214844 213.652344 175.617188 214.25 C 175.019531 214.847656 174.371094 215.378906 173.667969 215.847656 C 172.96875 216.320312 172.226562 216.714844 171.445312 217.039062 C 170.667969 217.363281 169.863281 217.605469 169.035156 217.769531 C 168.207031 217.9375 167.371094 218.019531 166.527344 218.019531 C 165.683594 218.019531 164.847656 217.9375 164.019531 217.769531 C 163.191406 217.605469 162.386719 217.363281 161.609375 217.039062 C 160.828125 216.714844 160.085938 216.320312 159.386719 215.847656 C 158.683594 215.378906 158.035156 214.847656 157.4375 214.25 C 156.839844 213.652344 156.308594 213 155.839844 212.296875 C 155.371094 211.597656 154.972656 210.855469 154.652344 210.074219 C 154.328125 209.292969 154.082031 208.488281 153.917969 207.660156 C 153.753906 206.832031 153.671875 205.992188 153.671875 205.148438 C 153.671875 204.304688 153.753906 203.464844 153.917969 202.636719 C 154.082031 201.808594 154.328125 201.003906 154.652344 200.222656 C 154.972656 199.441406 155.371094 198.699219 155.839844 197.996094 C 156.308594 197.296875 156.839844 196.644531 157.4375 196.046875 C 158.035156 195.449219 158.683594 194.917969 159.386719 194.445312 C 160.085938 193.976562 160.828125 193.582031 161.609375 193.257812 C 162.386719 192.933594 163.191406 192.691406 164.019531 192.523438 C 164.847656 192.359375 165.683594 192.277344 166.527344 192.277344 C 167.371094 192.277344 168.207031 192.359375 169.035156 192.523438 C 169.863281 192.691406 170.667969 192.933594 171.445312 193.257812 C 172.226562 193.582031 172.96875 193.976562 173.667969 194.445312 C 174.371094 194.917969 175.019531 195.449219 175.617188 196.046875 C 176.214844 196.644531 176.746094 197.296875 177.214844 197.996094 C 177.683594 198.699219 178.082031 199.441406 178.402344 200.222656 C 178.726562 201.003906 178.96875 201.808594 179.136719 202.636719 C 179.300781 203.464844 179.382812 204.304688 179.382812 205.148438 Z M 179.382812 205.148438 " fill-opacity="1" fill-rule="nonzero"/><path stroke-linecap="round" transform="matrix(1.176009, 0, 0, 1.177421, -62.460791, -62.590337)" fill="none" stroke-linejoin="round" d="M 191.779949 227.364407 L 277.042479 145.856813 " stroke="rgb(100%, 100%, 100%)" stroke-width="12.857" stroke-opacity="1" stroke-miterlimit="10"/><path fill="rgb(2.349854%, 19.60907%, 31.759644%)" d="M 316.113281 58.628906 L 320.597656 63.324219 L 167.558594 209.804688 L 163.074219 205.109375 Z M 316.113281 58.628906 " fill-opacity="1" fill-rule="nonzero"/><g clip-path="url(#clip-1)"><path fill="rgb(2.349854%, 19.60907%, 31.759644%)" d="M 282.152344 108.132812 L 298.40625 111.539062 L 306.910156 103.398438 L 299.5625 99.476562 L 308.953125 101.445312 L 322.351562 88.617188 L 307.9375 80.925781 L 326.355469 84.785156 L 337.570312 74.054688 L 314.148438 69.503906 L 267.824219 113.839844 L 291.25 118.390625 L 294.875 114.921875 Z M 282.152344 108.132812 " fill-opacity="1" fill-rule="nonzero"/></g><g clip-path="url(#clip-2)"><path fill="rgb(2.349854%, 19.60907%, 31.759644%)" d="M 306.179688 41.179688 L 298.425781 48.597656 L 300.996094 64.398438 L 295.023438 51.855469 L 281.019531 65.257812 L 282.109375 71.941406 L 279.582031 66.636719 L 270.476562 75.351562 L 272.6875 88.960938 L 267.542969 78.15625 L 259.859375 85.515625 L 263.34375 109.144531 L 309.664062 64.808594 Z M 306.179688 41.179688 " fill-opacity="1" fill-rule="nonzero"/></g></svg>