<?xml version="1.0" encoding="UTF-8"?><svg xmlns="http://www.w3.org/2000/svg" xmlns:xlink="http://www.w3.org/1999/xlink" contentScriptType="text/ecmascript" width="375" zoomAndPan="magnify" contentStyleType="text/css" viewBox="0 0 375 374.999991" height="374.999991" preserveAspectRatio="xMidYMid meet" version="1.0"><defs><clipPath id="clip-0"><path d="M 37.5 170 L 203 170 L 203 335.863281 L 37.5 335.863281 Z M 37.5 170 " clip-rule="nonzero"/></clipPath><clipPath id="clip-1"><path d="M 162 39 L 337.5 39 L 337.5 215 L 162 215 Z M 162 39 " clip-rule="nonzero"/></clipPath><clipPath id="clip-2"><path d="M 153 212 L 277 212 L 277 335.863281 L 153 335.863281 Z M 153 212 " clip-rule="nonzero"/></clipPath><clipPath id="clip-3"><path d="M 37.5 95 L 161 95 L 161 219 L 37.5 219 Z M 37.5 95 " clip-rule="nonzero"/></clipPath></defs><rect x="-37.5" width="450" fill="rgb(100%, 100%, 100%)" y="-37.499999" height="449.999989" fill-opacity="1"/><rect x="-37.5" width="450" fill="rgb(14.898682%, 68.629456%, 85.099792%)" y="-37.499999" height="449.999989" fill-opacity="1"/><path fill="rgb(63.919067%, 89.019775%, 95.289612%)" d="M 184.265625 257.714844 C 182.117188 257.714844 180.101562 258.230469 178.261719 259.160156 L 178.261719 259.148438 L 178.222656 259.1875 C 176.90625 259.847656 175.703125 260.726562 174.640625 261.773438 C 164.238281 268.195312 159.117188 261.023438 157.734375 258.503906 L 157.734375 215.566406 L 115.546875 215.566406 C 115.546875 215.566406 103.800781 210.679688 111.484375 198.273438 C 112.53125 197.199219 113.398438 195.996094 114.070312 194.691406 L 114.097656 194.652344 C 115.015625 192.816406 115.546875 190.789062 115.546875 188.65625 C 115.546875 180.605469 108.25 174.078125 99.246094 174.078125 C 90.230469 174.078125 82.933594 180.605469 82.933594 188.65625 C 82.933594 190.789062 83.464844 192.816406 84.394531 194.652344 L 84.382812 194.652344 L 84.40625 194.691406 C 85.082031 195.996094 85.960938 197.199219 87.007812 198.273438 C 94.679688 210.679688 82.933594 215.566406 82.933594 215.566406 L 40.753906 215.566406 L 40.753906 332.433594 L 157.734375 332.433594 L 157.734375 289.496094 C 159.117188 286.988281 164.238281 279.800781 174.640625 286.226562 C 175.703125 287.273438 176.90625 288.152344 178.222656 288.8125 L 178.261719 288.851562 L 178.261719 288.835938 C 180.101562 289.765625 182.117188 290.296875 184.265625 290.296875 C 192.324219 290.296875 198.859375 282.996094 198.859375 274 C 198.859375 265.003906 192.324219 257.714844 184.265625 257.714844 " fill-opacity="1" fill-rule="nonzero"/><g clip-path="url(#clip-0)"><path fill="rgb(2.349854%, 19.60907%, 31.759644%)" d="M 184.265625 257.714844 L 184.265625 254.484375 C 181.589844 254.46875 179.050781 255.140625 176.800781 256.277344 L 178.261719 259.160156 L 181.070312 257.558594 L 181.070312 257.546875 C 180.59375 256.71875 179.777344 256.148438 178.84375 255.96875 C 177.925781 255.800781 176.957031 256.046875 176.21875 256.640625 L 176.179688 256.679688 L 178.222656 259.1875 L 176.75 256.304688 C 175.132812 257.132812 173.65625 258.203125 172.363281 259.472656 L 174.640625 261.773438 L 172.933594 259.03125 C 170.253906 260.671875 168.261719 261.140625 166.789062 261.152344 C 165.910156 261.140625 165.171875 260.984375 164.511719 260.710938 C 163.527344 260.324219 162.6875 259.652344 162.015625 258.929688 C 161.328125 258.203125 160.835938 257.429688 160.554688 256.9375 L 157.734375 258.503906 L 160.96875 258.503906 L 160.96875 215.566406 C 160.96875 214.710938 160.617188 213.886719 160.023438 213.277344 C 159.414062 212.683594 158.585938 212.335938 157.734375 212.335938 L 115.546875 212.335938 L 115.546875 215.566406 L 116.789062 212.582031 L 116.128906 214.167969 L 116.8125 212.59375 L 116.789062 212.582031 L 116.128906 214.167969 L 116.8125 212.59375 C 116.8125 212.59375 116.738281 212.554688 116.59375 212.476562 C 116.089844 212.230469 114.835938 211.496094 113.839844 210.410156 C 113.347656 209.867188 112.921875 209.246094 112.609375 208.546875 C 112.300781 207.835938 112.117188 207.074219 112.117188 206.105469 C 112.117188 204.632812 112.570312 202.652344 114.226562 199.964844 L 111.484375 198.273438 L 113.789062 200.535156 C 115.054688 199.242188 116.128906 197.78125 116.957031 196.164062 L 114.070312 194.691406 L 116.542969 196.773438 L 116.582031 196.734375 C 117.214844 195.972656 117.472656 194.964844 117.265625 193.996094 C 117.074219 193.023438 116.4375 192.210938 115.558594 191.757812 L 115.546875 191.757812 L 114.097656 194.652344 L 116.984375 196.113281 C 118.121094 193.863281 118.792969 191.332031 118.78125 188.65625 C 118.792969 183.628906 116.492188 179.105469 112.933594 175.9375 C 109.375 172.757812 104.539062 170.84375 99.246094 170.84375 C 93.957031 170.84375 89.117188 172.757812 85.558594 175.9375 C 82 179.105469 79.699219 183.628906 79.699219 188.65625 C 79.699219 191.332031 80.371094 193.863281 81.496094 196.101562 L 84.394531 194.652344 L 82.597656 191.964844 L 82.585938 191.964844 C 81.832031 192.46875 81.34375 193.246094 81.1875 194.136719 C 81.042969 195.015625 81.277344 195.921875 81.820312 196.628906 L 81.847656 196.667969 L 84.40625 194.691406 L 81.523438 196.164062 C 82.363281 197.78125 83.4375 199.242188 84.691406 200.535156 L 87.007812 198.273438 L 84.253906 199.964844 C 85.910156 202.652344 86.375 204.632812 86.375 206.105469 C 86.375 207.242188 86.101562 208.121094 85.703125 208.910156 C 85.082031 210.097656 84.070312 211.066406 83.167969 211.714844 C 82.714844 212.023438 82.3125 212.269531 82.027344 212.410156 C 81.898438 212.476562 81.78125 212.542969 81.730469 212.566406 L 81.664062 212.59375 L 82.492188 214.507812 L 81.691406 212.582031 L 81.664062 212.59375 L 82.492188 214.507812 L 81.691406 212.578125 L 82.933594 215.566406 L 82.933594 212.335938 L 40.753906 212.335938 C 39.898438 212.335938 39.070312 212.683594 38.464844 213.277344 C 37.863281 213.886719 37.519531 214.710938 37.519531 215.566406 L 37.519531 332.433594 C 37.519531 333.285156 37.863281 334.125 38.464844 334.71875 C 39.070312 335.328125 39.898438 335.664062 40.753906 335.664062 L 157.734375 335.664062 C 158.585938 335.664062 159.414062 335.328125 160.023438 334.71875 C 160.617188 334.125 160.96875 333.285156 160.96875 332.433594 L 160.96875 289.496094 L 157.734375 289.496094 L 160.554688 291.058594 C 160.929688 290.402344 161.691406 289.25 162.738281 288.371094 C 163.269531 287.933594 163.863281 287.558594 164.511719 287.285156 C 165.171875 287.027344 165.910156 286.859375 166.789062 286.859375 C 168.261719 286.859375 170.253906 287.324219 172.933594 288.980469 L 174.640625 286.226562 L 172.363281 288.527344 C 173.65625 289.792969 175.132812 290.878906 176.75 291.691406 L 178.222656 288.8125 L 176.089844 291.253906 L 176.128906 291.28125 C 176.867188 291.925781 177.835938 292.199219 178.792969 292.042969 C 179.75 291.875 180.578125 291.292969 181.070312 290.453125 L 181.070312 290.441406 L 178.261719 288.835938 L 176.800781 291.730469 C 179.039062 292.855469 181.589844 293.527344 184.265625 293.527344 C 189.296875 293.527344 193.824219 291.226562 196.996094 287.671875 C 200.179688 284.121094 202.09375 279.285156 202.09375 274 C 202.09375 268.710938 200.179688 263.878906 196.996094 260.324219 C 193.824219 256.769531 189.285156 254.46875 184.265625 254.484375 L 184.265625 260.945312 C 187.292969 260.945312 190.0625 262.289062 192.171875 264.628906 C 194.265625 266.96875 195.625 270.277344 195.625 274 C 195.625 277.707031 194.265625 281.03125 192.171875 283.371094 C 190.0625 285.710938 187.292969 287.066406 184.265625 287.066406 C 182.660156 287.066406 181.136719 286.679688 179.726562 285.953125 C 178.1875 285.179688 176.308594 285.746094 175.457031 287.234375 L 175.457031 287.246094 L 178.261719 288.851562 L 180.386719 286.421875 L 180.347656 286.382812 C 180.140625 286.199219 179.933594 286.058594 179.6875 285.941406 C 178.675781 285.425781 177.746094 284.753906 176.90625 283.925781 C 176.738281 283.757812 176.542969 283.601562 176.335938 283.472656 C 172.894531 281.351562 169.699219 280.382812 166.789062 280.398438 C 165.054688 280.382812 163.464844 280.734375 162.09375 281.300781 C 160.023438 282.140625 158.445312 283.421875 157.292969 284.648438 C 156.128906 285.890625 155.367188 287.09375 154.898438 287.933594 C 154.640625 288.410156 154.5 288.941406 154.5 289.496094 L 154.5 329.203125 L 43.980469 329.203125 L 43.980469 218.796875 L 82.933594 218.796875 C 83.359375 218.796875 83.773438 218.707031 84.175781 218.550781 C 84.382812 218.460938 86.347656 217.648438 88.457031 215.722656 C 89.503906 214.765625 90.59375 213.511719 91.433594 211.894531 C 92.273438 210.292969 92.84375 208.316406 92.84375 206.105469 C 92.84375 203.210938 91.886719 200.003906 89.75 196.566406 C 89.632812 196.371094 89.480469 196.179688 89.3125 195.996094 C 88.484375 195.15625 87.808594 194.226562 87.292969 193.21875 C 87.203125 193.050781 87.085938 192.871094 86.96875 192.714844 L 86.929688 192.675781 L 84.382812 194.652344 L 86.167969 197.339844 L 86.179688 197.339844 C 87.550781 196.425781 88.015625 194.652344 87.28125 193.191406 C 86.554688 191.769531 86.167969 190.257812 86.167969 188.65625 C 86.167969 185.617188 87.527344 182.867188 89.867188 180.746094 C 92.207031 178.652344 95.519531 177.308594 99.246094 177.308594 C 102.960938 177.308594 106.269531 178.652344 108.613281 180.746094 C 110.953125 182.867188 112.3125 185.617188 112.3125 188.65625 C 112.3125 190.257812 111.925781 191.769531 111.210938 193.191406 C 110.824219 193.957031 110.746094 194.847656 111.03125 195.660156 C 111.289062 196.488281 111.871094 197.148438 112.648438 197.535156 L 112.660156 197.546875 L 114.097656 194.652344 L 111.625 192.585938 L 111.601562 192.609375 C 111.445312 192.792969 111.304688 193.011719 111.1875 193.21875 C 110.683594 194.226562 109.996094 195.171875 109.183594 195.996094 C 109.011719 196.164062 108.859375 196.371094 108.730469 196.566406 C 106.59375 200.003906 105.636719 203.210938 105.636719 206.105469 C 105.636719 208.316406 106.207031 210.292969 107.046875 211.894531 C 108.316406 214.3125 110.113281 215.914062 111.5625 216.960938 C 113.011719 217.996094 114.148438 218.472656 114.304688 218.550781 C 114.707031 218.707031 115.121094 218.796875 115.546875 218.796875 L 154.5 218.796875 L 154.5 258.503906 C 154.5 259.058594 154.640625 259.585938 154.898438 260.066406 C 155.519531 261.175781 156.671875 262.960938 158.585938 264.578125 C 159.542969 265.390625 160.707031 266.140625 162.09375 266.710938 C 163.464844 267.265625 165.054688 267.613281 166.789062 267.613281 C 169.699219 267.613281 172.90625 266.644531 176.335938 264.523438 C 176.542969 264.394531 176.738281 264.242188 176.90625 264.074219 C 177.746094 263.246094 178.691406 262.574219 179.6875 262.054688 C 179.894531 261.953125 180.074219 261.835938 180.253906 261.695312 L 180.292969 261.65625 L 178.261719 259.148438 L 175.457031 260.75 L 175.457031 260.765625 C 176.308594 262.25 178.1875 262.820312 179.726562 262.042969 C 181.136719 261.332031 182.660156 260.945312 184.265625 260.945312 L 184.265625 257.714844 " fill-opacity="1" fill-rule="nonzero"/></g><path fill="rgb(63.919067%, 89.019775%, 95.289612%)" d="M 191.03125 72.421875 L 202.054688 113.925781 C 201.355469 116.703125 198.261719 124.960938 186.570312 121.421875 C 185.261719 120.683594 183.878906 120.140625 182.429688 119.832031 L 182.390625 119.816406 C 180.371094 119.390625 178.277344 119.40625 176.21875 119.960938 C 168.417969 122.027344 163.996094 130.753906 166.296875 139.449219 C 168.613281 148.148438 176.800781 153.511719 184.589844 151.457031 C 186.660156 150.902344 188.484375 149.882812 190.007812 148.511719 L 190.023438 148.511719 L 190.046875 148.472656 C 191.148438 147.492188 192.078125 146.339844 192.84375 145.058594 C 201.238281 136.179688 208.03125 141.804688 210.023438 143.871094 L 221.058594 185.386719 L 261.832031 174.554688 C 261.832031 174.554688 274.445312 176.261719 270.203125 190.234375 C 269.464844 191.527344 268.921875 192.921875 268.625 194.355469 L 268.601562 194.394531 C 268.1875 196.410156 268.1875 198.492188 268.742188 200.574219 C 270.8125 208.355469 279.542969 212.785156 288.25 210.472656 C 296.957031 208.160156 302.324219 199.976562 300.269531 192.210938 C 299.710938 190.128906 298.675781 188.320312 297.320312 186.78125 L 297.28125 186.742188 C 296.296875 185.65625 295.144531 184.714844 293.851562 183.953125 C 283.242188 173.933594 293.347656 166.191406 293.347656 166.191406 L 334.109375 155.375 L 304.085938 42.425781 L 191.03125 72.421875 " fill-opacity="1" fill-rule="nonzero"/><g clip-path="url(#clip-1)"><path fill="rgb(2.349854%, 19.60907%, 31.759644%)" d="M 191.03125 72.421875 L 187.902344 73.25 L 198.9375 114.765625 L 202.054688 113.925781 L 198.921875 113.136719 C 198.714844 114.003906 198.132812 115.644531 197.058594 116.859375 C 196.53125 117.480469 195.894531 118.007812 195.09375 118.398438 C 194.277344 118.785156 193.269531 119.054688 191.859375 119.054688 C 190.683594 119.054688 189.246094 118.863281 187.5 118.332031 L 186.570312 121.421875 L 188.160156 118.617188 C 186.59375 117.722656 184.898438 117.050781 183.113281 116.675781 L 182.429688 119.832031 L 183.695312 116.859375 L 183.65625 116.832031 C 182.660156 116.417969 181.511719 116.523438 180.605469 117.117188 C 179.699219 117.710938 179.15625 118.734375 179.15625 119.816406 L 182.390625 119.816406 L 183.050781 116.664062 C 181.910156 116.417969 180.746094 116.289062 179.558594 116.289062 C 178.171875 116.289062 176.777344 116.46875 175.378906 116.832031 C 171.40625 117.890625 168.121094 120.359375 165.894531 123.554688 C 163.671875 126.757812 162.453125 130.6875 162.453125 134.8125 C 162.453125 136.609375 162.675781 138.441406 163.167969 140.277344 C 164.332031 144.648438 166.761719 148.34375 169.933594 150.953125 C 173.101562 153.566406 177.046875 155.128906 181.199219 155.128906 C 182.597656 155.128906 184.019531 154.949219 185.417969 154.574219 C 188.003906 153.886719 190.28125 152.597656 192.171875 150.929688 L 190.007812 148.511719 L 187.71875 150.800781 L 187.734375 150.800781 C 188.394531 151.457031 189.3125 151.808594 190.242188 151.742188 C 191.1875 151.679688 192.039062 151.199219 192.609375 150.449219 L 192.636719 150.410156 L 190.046875 148.472656 L 192.207031 150.875 C 193.566406 149.675781 194.707031 148.253906 195.625 146.703125 L 192.84375 145.058594 L 195.199219 147.269531 C 196.710938 145.679688 198.054688 144.722656 199.207031 144.167969 C 200.359375 143.613281 201.304688 143.445312 202.171875 143.433594 C 203.398438 143.433594 204.511719 143.820312 205.480469 144.386719 C 206.464844 144.945312 207.253906 145.667969 207.695312 146.109375 L 210.023438 143.871094 L 206.890625 144.699219 L 217.941406 186.214844 C 218.394531 187.933594 220.164062 188.964844 221.886719 188.5 L 262.660156 177.683594 L 261.832031 174.554688 L 261.394531 177.761719 C 261.625 177.785156 263.515625 178.1875 265.042969 179.273438 C 265.804688 179.800781 266.476562 180.460938 266.984375 181.339844 C 267.472656 182.21875 267.835938 183.304688 267.835938 184.945312 C 267.835938 186.097656 267.640625 187.542969 267.113281 189.300781 L 270.203125 190.234375 L 267.398438 188.628906 C 266.492188 190.207031 265.832031 191.898438 265.457031 193.671875 L 268.625 194.355469 L 265.636719 193.089844 L 265.625 193.140625 C 265.222656 194.058594 265.289062 195.09375 265.765625 195.957031 C 266.246094 196.824219 267.085938 197.417969 268.070312 197.585938 L 268.601562 194.394531 L 265.441406 193.734375 C 265.199219 194.871094 265.066406 196.050781 265.066406 197.226562 C 265.066406 198.609375 265.25 200.015625 265.609375 201.398438 C 266.671875 205.382812 269.144531 208.652344 272.339844 210.875 C 275.546875 213.097656 279.480469 214.324219 283.605469 214.324219 C 285.40625 214.324219 287.242188 214.09375 289.078125 213.601562 C 293.449219 212.4375 297.152344 210.007812 299.765625 206.839844 C 302.378906 203.675781 303.941406 199.734375 303.941406 195.582031 C 303.941406 194.1875 303.761719 192.765625 303.386719 191.382812 C 302.699219 188.785156 301.40625 186.511719 299.738281 184.636719 L 297.320312 186.78125 L 299.609375 189.070312 L 299.609375 189.058594 C 300.253906 188.410156 300.59375 187.519531 300.554688 186.613281 C 300.5 185.695312 300.074219 184.84375 299.363281 184.273438 L 299.324219 184.234375 L 297.28125 186.742188 L 299.6875 184.585938 C 298.46875 183.242188 297.058594 182.089844 295.507812 181.171875 L 293.851562 183.953125 L 296.078125 181.613281 C 294.484375 180.101562 293.527344 178.753906 292.972656 177.605469 C 292.414062 176.453125 292.246094 175.5 292.234375 174.632812 C 292.234375 173.820312 292.414062 173.054688 292.6875 172.34375 C 293.113281 171.285156 293.800781 170.316406 294.382812 169.667969 C 294.679688 169.347656 294.9375 169.085938 295.121094 168.933594 L 295.300781 168.765625 L 295.339844 168.738281 L 294.539062 167.742188 L 295.3125 168.765625 L 295.339844 168.738281 L 294.539062 167.742188 L 295.3125 168.765625 L 293.347656 166.191406 L 294.175781 169.320312 L 334.953125 158.503906 C 335.78125 158.28125 336.492188 157.726562 336.917969 156.988281 C 337.34375 156.253906 337.460938 155.375 337.242188 154.546875 L 307.214844 41.589844 C 306.996094 40.769531 306.4375 40.050781 305.714844 39.621094 C 304.976562 39.199219 304.085938 39.078125 303.257812 39.292969 L 190.191406 69.292969 C 188.46875 69.761719 187.449219 71.53125 187.902344 73.25 L 191.03125 72.421875 L 191.859375 75.550781 L 301.796875 46.367188 L 330.164062 153.085938 L 292.519531 163.078125 C 292.105469 163.179688 291.71875 163.363281 291.382812 163.632812 C 291.226562 163.761719 289.933594 164.746094 288.574219 166.582031 C 287.902344 167.496094 287.214844 168.621094 286.671875 169.964844 C 286.140625 171.324219 285.765625 172.902344 285.765625 174.632812 C 285.765625 176.453125 286.195312 178.445312 287.152344 180.421875 C 288.109375 182.386719 289.570312 184.363281 291.625 186.304688 C 291.808594 186.457031 292.003906 186.613281 292.210938 186.730469 C 293.230469 187.335938 294.125 188.0625 294.875 188.902344 C 295.003906 189.042969 295.09375 189.132812 295.234375 189.25 L 295.273438 189.289062 L 297.320312 186.78125 L 295.027344 184.496094 C 293.8125 185.710938 293.761719 187.648438 294.898438 188.925781 C 295.960938 190.117188 296.722656 191.472656 297.136719 193.023438 C 297.359375 193.890625 297.472656 194.742188 297.472656 195.582031 C 297.472656 198.089844 296.53125 200.597656 294.769531 202.730469 C 293.023438 204.839844 290.488281 206.542969 287.421875 207.359375 C 286.128906 207.695312 284.847656 207.863281 283.605469 207.863281 C 280.746094 207.863281 278.09375 207.007812 276.039062 205.574219 C 273.980469 204.128906 272.507812 202.148438 271.859375 199.734375 C 271.640625 198.90625 271.535156 198.078125 271.535156 197.226562 C 271.535156 196.5 271.613281 195.789062 271.769531 195.066406 C 271.949219 194.199219 271.78125 193.308594 271.277344 192.585938 C 270.773438 191.847656 270.007812 191.355469 269.128906 191.214844 L 268.601562 194.394531 L 271.574219 195.648438 L 271.601562 195.609375 C 271.664062 195.429688 271.742188 195.207031 271.78125 195.027344 C 272.015625 193.929688 272.429688 192.855469 273.011719 191.835938 C 273.128906 191.628906 273.230469 191.382812 273.308594 191.164062 C 273.980469 188.902344 274.304688 186.832031 274.304688 184.945312 C 274.316406 182.117188 273.566406 179.671875 272.378906 177.761719 C 271.496094 176.339844 270.398438 175.226562 269.285156 174.375 C 267.617188 173.082031 265.921875 172.371094 264.613281 171.929688 C 263.320312 171.519531 262.402344 171.375 262.261719 171.363281 C 261.832031 171.296875 261.40625 171.324219 260.992188 171.441406 L 223.359375 181.429688 L 213.152344 143.042969 C 213.011719 142.515625 212.726562 142.035156 212.351562 141.636719 C 211.613281 140.871094 210.410156 139.75 208.703125 138.777344 C 207.019531 137.808594 204.796875 136.96875 202.171875 136.96875 C 200.347656 136.96875 198.367188 137.394531 196.386719 138.351562 C 194.40625 139.308594 192.441406 140.78125 190.488281 142.835938 C 190.332031 143.003906 190.191406 143.199219 190.074219 143.40625 C 189.453125 144.425781 188.730469 145.320312 187.886719 146.070312 C 187.746094 146.199219 187.578125 146.378906 187.460938 146.535156 L 187.433594 146.574219 L 190.023438 148.511719 L 192.300781 146.238281 L 192.300781 146.222656 C 191.082031 145.007812 189.144531 144.957031 187.863281 146.09375 C 186.671875 147.152344 185.3125 147.917969 183.75 148.332031 L 183.761719 148.332031 C 182.894531 148.550781 182.039062 148.667969 181.199219 148.667969 C 178.691406 148.667969 176.179688 147.722656 174.058594 145.964844 C 171.9375 144.21875 170.242188 141.6875 169.425781 138.625 C 169.078125 137.332031 168.921875 136.050781 168.921875 134.8125 C 168.921875 131.953125 169.765625 129.304688 171.199219 127.25 C 172.648438 125.195312 174.628906 123.722656 177.046875 123.074219 C 177.875 122.855469 178.714844 122.753906 179.558594 122.753906 C 180.269531 122.753906 180.992188 122.828125 181.71875 122.984375 C 182.660156 123.179688 183.671875 122.945312 184.421875 122.324219 C 185.183594 121.730469 185.625 120.789062 185.625 119.816406 L 182.390625 119.816406 L 181.121094 122.789062 L 181.175781 122.816406 C 181.34375 122.882812 181.574219 122.945312 181.757812 122.996094 C 182.855469 123.230469 183.929688 123.644531 184.964844 124.226562 C 185.160156 124.34375 185.390625 124.445312 185.625 124.523438 C 187.886719 125.195312 189.957031 125.519531 191.859375 125.519531 C 194.148438 125.519531 196.179688 125.039062 197.886719 124.226562 C 200.460938 122.984375 202.183594 121.058594 203.28125 119.289062 C 204.382812 117.492188 204.925781 115.796875 205.195312 114.710938 C 205.328125 114.183594 205.328125 113.628906 205.183594 113.097656 L 194.148438 71.59375 L 191.03125 72.421875 L 191.859375 75.550781 L 191.03125 72.421875 " fill-opacity="1" fill-rule="nonzero"/></g><path fill="rgb(63.919067%, 89.019775%, 95.289612%)" d="M 231.097656 215.746094 C 231.097656 215.746094 219.363281 220.621094 227.035156 233.015625 C 228.082031 234.074219 228.949219 235.277344 229.621094 236.582031 L 229.648438 236.621094 C 230.566406 238.441406 231.097656 240.472656 231.097656 242.617188 C 231.097656 250.65625 223.800781 257.171875 214.808594 257.171875 C 205.816406 257.171875 198.535156 250.65625 198.535156 242.617188 C 198.535156 240.472656 199.066406 238.441406 199.984375 236.621094 L 199.972656 236.621094 L 200.007812 236.582031 C 200.667969 235.277344 201.550781 234.074219 202.597656 233.015625 C 210.253906 220.621094 198.535156 215.746094 198.535156 215.746094 L 156.414062 215.746094 L 156.414062 257.816406 C 156.414062 257.816406 161.289062 269.539062 173.695312 261.875 C 174.757812 260.828125 175.960938 259.960938 177.265625 259.289062 L 177.304688 259.265625 L 177.304688 259.277344 C 179.144531 258.347656 181.160156 257.816406 183.308594 257.816406 C 191.355469 257.816406 197.875 265.105469 197.875 274.089844 C 197.875 283.074219 191.355469 290.363281 183.308594 290.363281 C 181.160156 290.363281 179.144531 289.832031 177.304688 288.902344 L 177.304688 288.914062 L 177.265625 288.886719 C 175.960938 288.214844 174.757812 287.351562 173.695312 286.304688 C 161.289062 278.640625 156.414062 290.363281 156.414062 290.363281 L 156.414062 332.433594 L 273.203125 332.433594 L 273.203125 215.746094 L 231.097656 215.746094 " fill-opacity="1" fill-rule="nonzero"/><g clip-path="url(#clip-2)"><path fill="rgb(2.349854%, 19.60907%, 31.759644%)" d="M 231.097656 215.746094 L 229.855469 212.761719 C 229.648438 212.851562 227.679688 213.664062 225.574219 215.578125 C 224.523438 216.535156 223.4375 217.789062 222.609375 219.40625 C 221.757812 221.007812 221.1875 222.972656 221.199219 225.183594 C 221.199219 228.078125 222.144531 231.28125 224.277344 234.707031 C 224.40625 234.914062 224.5625 235.109375 224.71875 235.277344 C 225.546875 236.117188 226.230469 237.046875 226.738281 238.042969 C 226.839844 238.261719 226.957031 238.441406 227.113281 238.625 L 227.136719 238.664062 L 229.648438 236.621094 L 228.625 233.558594 C 227.734375 233.855469 227.007812 234.527344 226.644531 235.390625 C 226.296875 236.257812 226.335938 237.242188 226.761719 238.082031 C 227.472656 239.503906 227.863281 241 227.863281 242.617188 C 227.863281 245.640625 226.503906 248.394531 224.175781 250.488281 C 221.832031 252.59375 218.523438 253.941406 214.808594 253.941406 C 211.097656 253.941406 207.796875 252.59375 205.457031 250.488281 C 203.113281 248.394531 201.769531 245.640625 201.769531 242.617188 C 201.769531 241.015625 202.15625 239.503906 202.867188 238.082031 C 203.308594 237.203125 203.335938 236.167969 202.921875 235.277344 C 202.519531 234.382812 201.71875 233.726562 200.773438 233.492188 L 200.761719 233.480469 L 199.972656 236.621094 L 202.480469 238.664062 L 202.519531 238.625 C 202.660156 238.441406 202.777344 238.261719 202.882812 238.054688 C 203.398438 237.046875 204.070312 236.117188 204.898438 235.277344 C 205.066406 235.109375 205.222656 234.914062 205.339844 234.707031 C 207.472656 231.28125 208.429688 228.078125 208.417969 225.183594 C 208.429688 222.972656 207.863281 221.007812 207.019531 219.40625 C 205.753906 216.988281 203.96875 215.386719 202.519531 214.351562 C 201.070312 213.304688 199.933594 212.824219 199.765625 212.761719 C 199.363281 212.59375 198.960938 212.515625 198.535156 212.515625 L 156.414062 212.515625 C 155.558594 212.515625 154.730469 212.851562 154.125 213.457031 C 153.527344 214.054688 153.179688 214.894531 153.179688 215.746094 L 153.179688 257.816406 C 153.179688 258.242188 153.257812 258.65625 153.425781 259.058594 C 153.515625 259.277344 154.332031 261.230469 156.246094 263.335938 C 157.203125 264.382812 158.457031 265.46875 160.074219 266.308594 C 161.679688 267.148438 163.644531 267.71875 165.855469 267.703125 C 168.753906 267.71875 171.964844 266.761719 175.390625 264.628906 C 175.597656 264.511719 175.792969 264.355469 175.960938 264.1875 C 176.800781 263.363281 177.734375 262.691406 178.742188 262.171875 C 178.949219 262.070312 179.128906 261.953125 179.3125 261.796875 L 179.351562 261.773438 L 177.304688 259.265625 L 174.238281 260.285156 L 174.238281 260.296875 C 174.539062 261.175781 175.210938 261.902344 176.078125 262.261719 C 176.945312 262.613281 177.925781 262.574219 178.769531 262.160156 C 180.191406 261.4375 181.703125 261.0625 183.308594 261.046875 C 186.335938 261.0625 189.089844 262.40625 191.199219 264.746094 C 193.28125 267.085938 194.640625 270.378906 194.640625 274.089844 C 194.640625 277.800781 193.28125 281.109375 191.199219 283.445312 C 189.089844 285.785156 186.335938 287.117188 183.308594 287.128906 C 181.703125 287.128906 180.191406 286.742188 178.769531 286.019531 C 177.902344 285.59375 176.890625 285.566406 176.011719 285.941406 C 175.132812 286.328125 174.460938 287.09375 174.203125 288.023438 L 177.304688 288.914062 L 179.351562 286.40625 L 179.3125 286.382812 C 179.128906 286.226562 178.949219 286.109375 178.742188 286.007812 C 177.746094 285.503906 176.800781 284.816406 175.960938 283.988281 C 175.792969 283.835938 175.597656 283.667969 175.390625 283.550781 C 171.964844 281.417969 168.753906 280.472656 165.855469 280.472656 C 163.644531 280.460938 161.679688 281.03125 160.074219 281.882812 C 157.65625 283.136719 156.050781 284.933594 155.015625 286.367188 C 153.96875 287.816406 153.488281 288.964844 153.425781 289.121094 C 153.257812 289.523438 153.179688 289.933594 153.179688 290.363281 L 153.179688 332.433594 C 153.179688 333.285156 153.527344 334.125 154.125 334.71875 C 154.730469 335.328125 155.558594 335.664062 156.414062 335.664062 L 273.203125 335.664062 C 274.058594 335.664062 274.898438 335.328125 275.496094 334.71875 C 276.101562 334.125 276.4375 333.285156 276.4375 332.433594 L 276.4375 215.746094 C 276.4375 214.894531 276.101562 214.066406 275.496094 213.457031 C 274.898438 212.851562 274.058594 212.515625 273.203125 212.515625 L 231.097656 212.515625 C 230.667969 212.515625 230.253906 212.59375 229.855469 212.761719 L 231.097656 215.746094 L 231.097656 218.976562 L 269.972656 218.976562 L 269.972656 329.203125 L 159.648438 329.203125 L 159.648438 290.363281 L 156.414062 290.363281 L 159.402344 291.601562 L 157.796875 290.929688 L 159.390625 291.617188 L 159.402344 291.601562 L 157.796875 290.929688 L 159.390625 291.617188 C 159.390625 291.617188 159.425781 291.550781 159.492188 291.410156 C 159.75 290.890625 160.476562 289.652344 161.574219 288.667969 C 162.105469 288.164062 162.738281 287.738281 163.4375 287.429688 C 164.136719 287.117188 164.898438 286.9375 165.855469 286.9375 C 167.320312 286.9375 169.3125 287.402344 171.988281 289.042969 L 173.695312 286.304688 L 171.417969 288.605469 C 172.714844 289.871094 174.1875 290.945312 175.804688 291.757812 L 177.265625 288.886719 L 175.222656 291.394531 L 175.273438 291.421875 C 176.101562 292.105469 177.253906 292.328125 178.277344 292.003906 C 179.3125 291.679688 180.125 290.839844 180.421875 289.804688 L 180.421875 289.792969 L 177.304688 288.902344 L 175.855469 291.796875 C 178.09375 292.921875 180.628906 293.59375 183.308594 293.59375 C 188.328125 293.59375 192.855469 291.292969 196.011719 287.75 C 199.195312 284.195312 201.109375 279.363281 201.109375 274.089844 C 201.109375 268.816406 199.195312 263.980469 196.011719 260.441406 C 192.855469 256.886719 188.328125 254.585938 183.308594 254.585938 C 180.628906 254.585938 178.09375 255.257812 175.84375 256.382812 L 177.304688 259.277344 L 180.371094 258.242188 C 180.035156 257.234375 179.234375 256.460938 178.210938 256.164062 C 177.191406 255.867188 176.089844 256.085938 175.273438 256.757812 L 175.222656 256.796875 L 177.265625 259.289062 L 175.792969 256.421875 C 174.1875 257.234375 172.714844 258.308594 171.433594 259.574219 L 173.695312 261.875 L 171.988281 259.136719 C 169.3125 260.789062 167.320312 261.242188 165.855469 261.242188 C 164.730469 261.242188 163.851562 260.984375 163.0625 260.570312 C 161.886719 259.960938 160.914062 258.941406 160.269531 258.050781 C 159.957031 257.597656 159.710938 257.195312 159.570312 256.925781 C 159.492188 256.785156 159.441406 256.679688 159.414062 256.613281 L 159.390625 256.5625 L 157.472656 257.378906 L 159.402344 256.578125 L 159.390625 256.5625 L 157.472656 257.378906 L 159.402344 256.578125 L 156.414062 257.816406 L 159.648438 257.816406 L 159.648438 218.976562 L 198.535156 218.976562 L 198.535156 215.746094 L 197.28125 218.730469 L 197.925781 217.179688 L 197.265625 218.71875 L 197.28125 218.730469 L 197.925781 217.179688 L 197.265625 218.71875 C 197.265625 218.71875 197.34375 218.757812 197.488281 218.824219 C 197.992188 219.082031 199.246094 219.804688 200.214844 220.890625 C 200.722656 221.433594 201.148438 222.054688 201.457031 222.753906 C 201.769531 223.464844 201.949219 224.226562 201.949219 225.183594 C 201.949219 226.65625 201.484375 228.632812 199.839844 231.308594 L 202.597656 233.015625 L 200.28125 230.753906 C 199.011719 232.03125 197.953125 233.503906 197.125 235.109375 L 200.007812 236.582031 L 197.5 234.539062 L 197.460938 234.589844 C 196.761719 235.445312 196.554688 236.59375 196.90625 237.640625 C 197.253906 238.6875 198.121094 239.488281 199.183594 239.761719 L 199.195312 239.761719 L 199.984375 236.621094 L 197.097656 235.171875 C 195.960938 237.410156 195.289062 239.941406 195.300781 242.617188 C 195.289062 247.632812 197.589844 252.15625 201.148438 255.308594 C 204.691406 258.488281 209.53125 260.390625 214.808594 260.402344 C 220.085938 260.390625 224.925781 258.488281 228.484375 255.308594 C 232.027344 252.15625 234.332031 247.632812 234.332031 242.617188 C 234.332031 239.941406 233.671875 237.410156 232.53125 235.171875 L 229.648438 236.621094 L 230.667969 239.695312 L 230.667969 239.683594 C 231.679688 239.347656 232.453125 238.535156 232.753906 237.523438 C 233.050781 236.503906 232.828125 235.40625 232.15625 234.589844 L 232.132812 234.539062 L 229.621094 236.582031 L 232.507812 235.121094 C 231.679688 233.503906 230.605469 232.03125 229.335938 230.753906 L 227.035156 233.015625 L 229.777344 231.308594 C 228.121094 228.632812 227.667969 226.65625 227.667969 225.183594 C 227.667969 224.058594 227.925781 223.179688 228.339844 222.390625 C 228.949219 221.214844 229.972656 220.230469 230.875 219.597656 C 231.316406 219.273438 231.730469 219.042969 232.003906 218.902344 C 232.132812 218.824219 232.234375 218.769531 232.300781 218.746094 L 232.351562 218.71875 L 231.550781 216.832031 L 232.339844 218.730469 L 232.351562 218.71875 L 231.550781 216.832031 L 232.339844 218.730469 L 231.097656 215.746094 L 231.097656 218.976562 L 231.097656 215.746094 " fill-opacity="1" fill-rule="nonzero"/></g><path fill="rgb(63.919067%, 89.019775%, 95.289612%)" d="M 82.960938 215.566406 C 82.960938 215.566406 94.691406 210.691406 87.019531 198.296875 C 85.988281 197.226562 85.105469 196.035156 84.433594 194.730469 L 84.40625 194.679688 C 83.488281 192.855469 82.960938 190.828125 82.960938 188.695312 C 82.960938 180.65625 90.253906 174.140625 99.246094 174.140625 C 108.238281 174.140625 115.535156 180.65625 115.535156 188.695312 C 115.535156 190.828125 115.003906 192.855469 114.070312 194.679688 L 114.046875 194.730469 C 113.386719 196.035156 112.507812 197.226562 111.457031 198.296875 C 103.789062 210.691406 115.535156 215.566406 115.535156 215.566406 L 157.640625 215.566406 L 157.640625 173.480469 C 157.640625 173.480469 152.765625 161.757812 140.359375 169.425781 C 139.296875 170.472656 138.09375 171.335938 136.789062 172.007812 L 136.75 172.046875 L 136.738281 172.035156 C 134.914062 172.953125 132.894531 173.480469 130.746094 173.480469 C 122.699219 173.480469 116.179688 166.207031 116.179688 157.222656 C 116.179688 148.226562 122.699219 140.949219 130.746094 140.949219 C 132.894531 140.949219 134.914062 141.480469 136.738281 142.398438 L 136.75 142.386719 L 136.789062 142.425781 C 138.09375 143.082031 139.296875 143.960938 140.359375 145.007812 C 152.765625 152.671875 157.640625 140.949219 157.640625 140.949219 L 157.640625 98.867188 L 40.839844 98.867188 L 40.839844 215.566406 L 82.960938 215.566406 " fill-opacity="1" fill-rule="nonzero"/><g clip-path="url(#clip-3)"><path fill="rgb(2.349854%, 19.60907%, 31.759644%)" d="M 82.960938 215.566406 L 84.199219 218.550781 C 84.40625 218.460938 86.375 217.648438 88.484375 215.734375 C 89.519531 214.765625 90.605469 213.511719 91.445312 211.90625 C 92.285156 210.304688 92.867188 208.328125 92.855469 206.128906 C 92.855469 203.222656 91.898438 200.03125 89.777344 196.605469 C 89.660156 196.398438 89.492188 196.203125 89.335938 196.035156 C 88.496094 195.195312 87.824219 194.253906 87.320312 193.257812 C 87.226562 193.089844 87.152344 192.960938 87.035156 192.804688 L 86.996094 192.753906 L 84.40625 194.679688 L 84.9375 197.871094 L 84.953125 197.871094 C 85.960938 197.703125 86.839844 197.058594 87.292969 196.140625 C 87.757812 195.222656 87.757812 194.136719 87.304688 193.230469 C 86.582031 191.808594 86.195312 190.296875 86.195312 188.695312 C 86.195312 185.671875 87.539062 182.917969 89.894531 180.8125 C 92.222656 178.71875 95.535156 177.371094 99.246094 177.371094 C 102.960938 177.371094 106.269531 178.71875 108.597656 180.8125 C 110.941406 182.917969 112.285156 185.671875 112.300781 188.695312 C 112.300781 190.296875 111.898438 191.808594 111.1875 193.230469 C 110.722656 194.136719 110.722656 195.222656 111.1875 196.140625 C 111.652344 197.058594 112.53125 197.703125 113.542969 197.871094 L 114.070312 194.679688 L 111.417969 192.855469 L 111.382812 192.910156 C 111.304688 193.011719 111.238281 193.140625 111.175781 193.257812 C 110.65625 194.253906 109.984375 195.195312 109.15625 196.035156 C 108.988281 196.203125 108.832031 196.398438 108.714844 196.605469 C 106.582031 200.03125 105.625 203.222656 105.625 206.117188 C 105.625 208.328125 106.195312 210.304688 107.035156 211.90625 C 108.300781 214.324219 110.085938 215.925781 111.535156 216.960938 C 112.984375 217.996094 114.125 218.472656 114.277344 218.550781 C 114.679688 218.707031 115.09375 218.796875 115.535156 218.796875 L 157.640625 218.796875 C 158.496094 218.796875 159.324219 218.449219 159.933594 217.851562 C 160.527344 217.246094 160.875 216.417969 160.875 215.566406 L 160.875 173.480469 C 160.875 173.054688 160.796875 172.640625 160.628906 172.242188 C 160.527344 172.035156 159.726562 170.070312 157.808594 167.976562 C 156.839844 166.929688 155.585938 165.84375 153.980469 165.003906 C 152.378906 164.164062 150.398438 163.59375 148.199219 163.59375 C 145.289062 163.59375 142.09375 164.550781 138.652344 166.671875 C 138.457031 166.800781 138.25 166.957031 138.082031 167.125 C 137.253906 167.949219 136.324219 168.621094 135.3125 169.140625 C 135.144531 169.21875 134.953125 169.347656 134.796875 169.460938 L 134.757812 169.5 L 136.75 172.046875 L 139.816406 171.027344 L 139.816406 171.015625 C 139.519531 170.121094 138.84375 169.398438 137.980469 169.050781 C 137.113281 168.6875 136.117188 168.726562 135.289062 169.152344 C 133.863281 169.863281 132.351562 170.25 130.746094 170.25 C 127.71875 170.25 124.964844 168.90625 122.855469 166.566406 C 120.761719 164.226562 119.414062 160.917969 119.414062 157.222656 C 119.414062 153.511719 120.761719 150.203125 122.855469 147.863281 C 124.964844 145.527344 127.71875 144.179688 130.746094 144.179688 C 132.351562 144.179688 133.863281 144.570312 135.289062 145.28125 C 136.140625 145.707031 137.164062 145.746094 138.042969 145.359375 C 138.921875 144.96875 139.59375 144.207031 139.855469 143.289062 L 139.855469 143.277344 L 136.75 142.386719 L 134.613281 144.816406 L 134.652344 144.855469 C 134.859375 145.035156 135.082031 145.175781 135.328125 145.304688 C 136.324219 145.808594 137.253906 146.496094 138.09375 147.308594 C 138.261719 147.476562 138.457031 147.632812 138.652344 147.761719 C 142.09375 149.882812 145.289062 150.839844 148.199219 150.839844 C 150.398438 150.839844 152.378906 150.269531 153.980469 149.429688 C 156.398438 148.164062 158.003906 146.378906 159.039062 144.929688 C 160.074219 143.484375 160.554688 142.347656 160.628906 142.191406 C 160.785156 141.789062 160.875 141.378906 160.875 140.949219 L 160.875 98.867188 C 160.875 98.027344 160.527344 97.1875 159.933594 96.578125 C 159.324219 95.984375 158.496094 95.636719 157.640625 95.636719 L 40.839844 95.636719 C 39.992188 95.636719 39.15625 95.984375 38.554688 96.578125 C 37.953125 97.1875 37.605469 98.027344 37.605469 98.867188 L 37.605469 215.566406 C 37.605469 216.417969 37.953125 217.246094 38.554688 217.851562 C 39.15625 218.449219 39.992188 218.796875 40.839844 218.796875 L 82.960938 218.796875 C 83.386719 218.796875 83.800781 218.707031 84.199219 218.550781 L 82.960938 215.566406 L 82.960938 212.335938 L 44.070312 212.335938 L 44.070312 102.097656 L 154.40625 102.097656 L 154.40625 140.949219 L 157.640625 140.949219 L 154.652344 139.710938 L 156.230469 140.355469 L 154.667969 139.683594 L 154.652344 139.710938 L 156.230469 140.355469 L 154.667969 139.683594 C 154.667969 139.683594 154.628906 139.761719 154.5625 139.902344 C 154.304688 140.40625 153.582031 141.660156 152.480469 142.644531 C 151.9375 143.148438 151.316406 143.574219 150.617188 143.882812 C 149.917969 144.179688 149.144531 144.375 148.199219 144.375 C 146.722656 144.375 144.730469 143.910156 142.054688 142.253906 L 140.359375 145.007812 L 142.621094 142.707031 C 141.34375 141.441406 139.867188 140.367188 138.25 139.542969 L 136.789062 142.425781 L 138.910156 139.992188 L 138.871094 139.957031 C 138.042969 139.230469 136.890625 138.972656 135.832031 139.296875 C 134.769531 139.605469 133.941406 140.445312 133.644531 141.507812 L 133.632812 141.507812 L 136.738281 142.398438 L 138.199219 139.515625 C 135.960938 138.378906 133.425781 137.71875 130.746094 137.71875 C 125.726562 137.71875 121.199219 140.007812 118.042969 143.5625 C 114.859375 147.117188 112.945312 151.9375 112.945312 157.222656 C 112.945312 162.496094 114.859375 167.316406 118.042969 170.871094 C 121.199219 174.425781 125.726562 176.726562 130.746094 176.714844 C 133.425781 176.714844 135.960938 176.054688 138.199219 174.917969 L 136.738281 172.035156 L 133.671875 173.054688 L 133.683594 173.054688 C 134.007812 174.050781 134.808594 174.839844 135.816406 175.136719 C 136.8125 175.433594 137.914062 175.226562 138.742188 174.582031 L 138.78125 174.554688 L 136.789062 172.007812 L 138.261719 174.890625 C 139.867188 174.0625 141.328125 172.992188 142.621094 171.722656 L 140.359375 169.425781 L 142.054688 172.175781 C 144.730469 170.523438 146.722656 170.058594 148.199219 170.058594 C 149.324219 170.058594 150.191406 170.328125 150.992188 170.730469 C 152.171875 171.335938 153.140625 172.359375 153.789062 173.261719 C 154.109375 173.703125 154.34375 174.117188 154.484375 174.386719 C 154.5625 174.53125 154.613281 174.632812 154.640625 174.699219 L 154.667969 174.75 L 156.570312 173.933594 L 154.652344 174.722656 L 154.667969 174.75 L 156.570312 173.933594 L 154.652344 174.722656 L 157.640625 173.480469 L 154.40625 173.480469 L 154.40625 212.335938 L 115.535156 212.335938 L 115.535156 215.566406 L 116.777344 212.582031 L 116.117188 214.15625 L 116.789062 212.59375 L 116.777344 212.582031 L 116.117188 214.15625 L 116.789062 212.59375 C 116.789062 212.59375 116.710938 212.554688 116.570312 212.476562 C 116.0625 212.230469 114.808594 211.507812 113.824219 210.410156 C 113.335938 209.867188 112.894531 209.246094 112.597656 208.546875 C 112.285156 207.851562 112.09375 207.074219 112.09375 206.117188 C 112.09375 204.65625 112.558594 202.667969 114.214844 199.992188 L 111.457031 198.296875 L 113.761719 200.558594 C 115.027344 199.265625 116.101562 197.808594 116.929688 196.203125 L 114.046875 194.730469 L 116.710938 196.554688 L 116.75 196.515625 C 117.371094 195.609375 117.488281 194.433594 117.058594 193.414062 C 116.621094 192.40625 115.703125 191.679688 114.613281 191.5 L 114.601562 191.5 L 114.070312 194.679688 L 116.957031 196.140625 C 118.09375 193.902344 118.769531 191.371094 118.769531 188.695312 C 118.769531 183.679688 116.464844 179.15625 112.921875 175.988281 C 109.363281 172.824219 104.523438 170.910156 99.246094 170.910156 C 93.957031 170.910156 89.128906 172.824219 85.574219 175.988281 C 82.015625 179.15625 79.726562 183.679688 79.726562 188.695312 C 79.726562 191.371094 80.398438 193.902344 81.523438 196.140625 L 84.40625 194.679688 L 83.878906 191.5 C 82.765625 191.679688 81.820312 192.429688 81.40625 193.476562 C 80.980469 194.523438 81.136719 195.714844 81.808594 196.605469 L 81.847656 196.65625 L 84.433594 194.730469 L 81.550781 196.191406 C 82.378906 197.808594 83.449219 199.265625 84.71875 200.558594 L 87.019531 198.296875 L 84.277344 199.992188 C 85.921875 202.667969 86.386719 204.65625 86.386719 206.128906 C 86.386719 207.253906 86.128906 208.121094 85.714844 208.921875 C 85.105469 210.097656 84.085938 211.066406 83.191406 211.714844 C 82.738281 212.023438 82.339844 212.269531 82.054688 212.414062 C 81.925781 212.476562 81.808594 212.542969 81.757812 212.566406 L 81.691406 212.59375 L 82.519531 214.507812 L 81.71875 212.582031 L 81.691406 212.59375 L 82.519531 214.507812 L 81.71875 212.582031 L 82.960938 215.566406 L 82.960938 212.335938 L 82.960938 215.566406 " fill-opacity="1" fill-rule="nonzero"/></g></svg>