<?xml version="1.0" encoding="UTF-8"?><svg xmlns="http://www.w3.org/2000/svg" xmlns:xlink="http://www.w3.org/1999/xlink" contentScriptType="text/ecmascript" width="375" zoomAndPan="magnify" contentStyleType="text/css" viewBox="0 0 375 374.999991" height="374.999991" preserveAspectRatio="xMidYMid meet" version="1.0"><defs><clipPath id="clip-0"><path d="M 37.5 37.5 L 337.5 37.5 L 337.5 337.5 L 37.5 337.5 Z M 37.5 37.5 " clip-rule="nonzero"/></clipPath></defs><rect x="-37.5" width="450" fill="rgb(100%, 100%, 100%)" y="-37.499999" height="449.999989" fill-opacity="1"/><rect x="-37.5" width="450" fill="rgb(100%, 100%, 100%)" y="-37.499999" height="449.999989" fill-opacity="1"/><rect x="-37.5" width="450" fill="rgb(14.898682%, 68.629456%, 85.099792%)" y="-37.499999" height="449.999989" fill-opacity="1"/><g clip-path="url(#clip-0)"><path fill="rgb(3.529358%, 28.62854%, 47.059631%)" d="M 337.4375 187.453125 C 337.4375 270.289062 270.289062 337.441406 187.453125 337.441406 C 104.617188 337.441406 37.464844 270.289062 37.464844 187.453125 C 37.464844 104.617188 104.617188 37.46875 187.453125 37.46875 C 270.289062 37.46875 337.4375 104.617188 337.4375 187.453125 " fill-opacity="1" fill-rule="nonzero"/></g><path fill="rgb(2.349854%, 19.60907%, 31.759644%)" d="M 336.578125 203.542969 C 302.816406 169.777344 269.050781 136.011719 235.285156 102.25 L 163.011719 102.25 C 163.011719 102.25 296.101562 127.671875 163.511719 229.027344 C 163.371094 229.132812 169.816406 245.582031 169.648438 245.574219 L 183.160156 260.082031 L 167.703125 265.1875 L 163.011719 294.164062 C 177.085938 308.238281 191.164062 322.3125 205.238281 336.386719 C 274.417969 328.214844 329.175781 272.957031 336.578125 203.542969 " fill-opacity="1" fill-rule="nonzero"/><path fill="rgb(63.919067%, 89.019775%, 95.289612%)" d="M 182.394531 256.792969 C 175.816406 256.792969 170.175781 259.042969 165.632812 263.480469 C 161.074219 267.933594 158.765625 273.492188 158.765625 280.003906 C 158.765625 287.316406 161.179688 293.121094 165.945312 297.25 C 170.609375 301.304688 176.144531 303.359375 182.394531 303.359375 C 188.46875 303.359375 193.890625 301.273438 198.519531 297.164062 C 203.222656 292.984375 205.613281 287.210938 205.613281 280.003906 C 205.613281 273.507812 203.351562 267.957031 198.902344 263.5 C 194.445312 259.050781 188.890625 256.792969 182.394531 256.792969 " fill-opacity="1" fill-rule="nonzero"/><path fill="rgb(63.919067%, 89.019775%, 95.289612%)" d="M 247.503906 115.835938 C 241.652344 106.933594 233.265625 99.8125 222.574219 94.660156 C 211.949219 89.539062 199.558594 86.941406 185.75 86.941406 C 170.878906 86.941406 157.652344 90.050781 146.445312 96.179688 C 135.226562 102.320312 126.558594 110.195312 120.683594 119.585938 C 114.78125 129.011719 111.792969 138.492188 111.792969 147.761719 C 111.792969 152.671875 113.832031 157.253906 117.851562 161.375 C 121.882812 165.519531 126.90625 167.621094 132.773438 167.621094 C 142.757812 167.621094 149.59375 161.734375 153.066406 150.191406 C 156.292969 140.503906 160.257812 133.105469 164.84375 128.210938 C 169.199219 123.566406 176.234375 121.210938 185.75 121.210938 C 193.847656 121.210938 200.527344 123.582031 205.589844 128.261719 C 210.671875 132.964844 213.144531 138.5625 213.144531 145.386719 C 213.144531 148.777344 212.328125 151.960938 210.71875 154.851562 C 209.023438 157.902344 206.898438 160.707031 204.40625 163.203125 C 201.808594 165.800781 197.5 169.738281 191.589844 174.90625 C 184.746094 180.90625 179.230469 186.160156 175.195312 190.523438 C 171.015625 195.042969 167.625 200.355469 165.101562 206.316406 C 162.5625 212.3125 161.28125 219.46875 161.28125 227.585938 C 161.28125 234.476562 163.199219 239.808594 166.980469 243.425781 C 170.726562 247.015625 175.394531 248.839844 180.859375 248.839844 C 191.285156 248.839844 197.847656 243.152344 199.828125 232.390625 C 200.832031 227.914062 201.597656 224.75 202.09375 222.988281 C 202.5625 221.332031 203.234375 219.644531 204.089844 217.976562 C 204.925781 216.34375 206.25 214.484375 208.027344 212.445312 C 209.867188 210.339844 212.367188 207.835938 215.4375 205.039062 C 226.855469 194.828125 234.898438 187.445312 239.351562 183.082031 C 243.933594 178.601562 247.933594 173.214844 251.246094 167.066406 C 254.636719 160.78125 256.355469 153.394531 256.355469 145.105469 C 256.355469 134.617188 253.378906 124.769531 247.503906 115.835938 " fill-opacity="1" fill-rule="nonzero"/></svg>