<?xml version="1.0" encoding="UTF-8"?><svg xmlns="http://www.w3.org/2000/svg" xmlns:xlink="http://www.w3.org/1999/xlink" contentScriptType="text/ecmascript" width="375" zoomAndPan="magnify" contentStyleType="text/css" viewBox="0 0 375 374.999991" height="374.999991" preserveAspectRatio="xMidYMid meet" version="1.0"><defs><clipPath id="clip-0"><path d="M 64 48 L 309 48 L 309 337.5 L 64 337.5 Z M 64 48 " clip-rule="nonzero"/></clipPath></defs><rect x="-37.5" width="450" fill="rgb(100%, 100%, 100%)" y="-37.499999" height="449.999989" fill-opacity="1"/><rect x="-37.5" width="450" fill="rgb(100%, 100%, 100%)" y="-37.499999" height="449.999989" fill-opacity="1"/><rect x="-37.5" width="450" fill="rgb(14.898682%, 68.629456%, 85.099792%)" y="-37.499999" height="449.999989" fill-opacity="1"/><g clip-path="url(#clip-0)"><path fill="rgb(2.349854%, 31.369019%, 47.839355%)" d="M 95.824219 163.039062 C 95.824219 163.039062 68.238281 202.894531 64.792969 213.839844 C 62.191406 222.085938 95.824219 228.472656 95.824219 228.472656 C 95.824219 228.472656 98.523438 265.050781 101.558594 279.847656 C 104.132812 292.417969 97.132812 297.15625 122.503906 303.136719 C 127.332031 304.273438 154.5 301.738281 154.5 301.738281 L 154.5 337.425781 L 254.933594 337.425781 L 254.933594 280.847656 C 254.933594 280.847656 296.746094 258.171875 308.914062 163.109375 C 308.914062 163.109375 313.089844 83.910156 245.402344 57.226562 C 207.902344 42.445312 108.558594 37.484375 97.425781 111.910156 C 95.53125 124.570312 95.824219 163.039062 95.824219 163.039062 " fill-opacity="1" fill-rule="nonzero"/></g><path stroke-linecap="round" transform="matrix(0.147062, 0, 0, -0.146843, -125.848084, 505.047687)" fill="none" stroke-linejoin="round" d="M 2421.791372 2145.448341 C 2421.791372 2145.448341 2197.741076 2149.305568 2173.277493 2144.570489 C 2114.097404 2133.211621 2118.427006 2051.59802 2118.427006 2051.59802 C 2113.008362 1967.749887 1997.118447 1967.11145 1997.118447 2057.317356 C 1997.118447 2085.860836 1996.879389 2171.597679 1996.879389 2171.597679 L 1996.879389 2265.155383 " stroke="rgb(22.349548%, 20.779419%, 21.179199%)" stroke-width="40" stroke-opacity="1" stroke-miterlimit="10"/><path fill="rgb(3.919983%, 7.839966%, 12.159729%)" d="M 223.867188 142.511719 L 223.867188 134.125 L 233.660156 134.125 C 234.222656 131.261719 235.347656 128.601562 236.921875 126.261719 L 229.996094 119.347656 L 235.933594 113.421875 L 242.859375 120.335938 C 245.203125 118.765625 247.867188 117.640625 250.734375 117.078125 L 250.734375 107.296875 L 259.132812 107.296875 L 259.132812 117.078125 C 262 117.640625 264.664062 118.765625 267.007812 120.335938 L 273.929688 113.421875 L 279.871094 119.347656 L 272.941406 126.261719 C 274.515625 128.601562 275.648438 131.261719 276.210938 134.125 L 286 134.125 L 286 142.511719 L 276.210938 142.511719 C 275.648438 145.375 274.515625 148.035156 272.949219 150.375 L 279.871094 157.285156 L 273.929688 163.21875 L 267.007812 156.300781 C 264.664062 157.871094 262 159.003906 259.132812 159.5625 L 259.132812 169.339844 L 250.734375 169.339844 L 250.734375 159.5625 C 247.867188 159.003906 245.203125 157.871094 242.859375 156.300781 L 235.933594 163.21875 L 229.996094 157.285156 L 236.921875 150.375 C 235.347656 148.035156 234.222656 145.375 233.660156 142.511719 L 223.867188 142.511719 " fill-opacity="1" fill-rule="nonzero"/><path fill="rgb(14.898682%, 68.629456%, 85.099792%)" d="M 238.136719 138.316406 C 238.136719 147.582031 245.65625 155.097656 254.933594 155.097656 C 264.210938 155.097656 271.730469 147.582031 271.730469 138.316406 C 271.730469 129.054688 264.210938 121.546875 254.933594 121.546875 C 245.65625 121.546875 238.136719 129.054688 238.136719 138.316406 " fill-opacity="1" fill-rule="nonzero"/><path fill="rgb(3.919983%, 7.839966%, 12.159729%)" d="M 222.527344 193.234375 L 222.527344 186.792969 L 230.046875 186.792969 C 230.476562 184.597656 231.34375 182.546875 232.550781 180.753906 L 227.238281 175.441406 L 231.792969 170.894531 L 237.113281 176.203125 C 238.910156 174.996094 240.957031 174.128906 243.160156 173.699219 L 243.160156 166.1875 L 249.605469 166.1875 L 249.605469 173.699219 C 251.8125 174.128906 253.859375 174.996094 255.65625 176.203125 L 260.976562 170.894531 L 265.539062 175.441406 L 260.21875 180.753906 C 261.429688 182.546875 262.292969 184.597656 262.722656 186.792969 L 270.242188 186.792969 L 270.242188 193.234375 L 262.722656 193.234375 C 262.292969 195.433594 261.429688 197.472656 260.21875 199.273438 L 265.539062 204.582031 L 260.976562 209.136719 L 255.65625 203.824219 C 253.859375 205.035156 251.8125 205.894531 249.605469 206.332031 L 249.605469 213.839844 L 243.160156 213.839844 L 243.160156 206.332031 C 240.957031 205.894531 238.910156 205.035156 237.113281 203.824219 L 231.792969 209.136719 L 227.238281 204.582031 L 232.550781 199.273438 C 231.34375 197.472656 230.476562 195.433594 230.046875 193.234375 L 222.527344 193.234375 " fill-opacity="1" fill-rule="nonzero"/><path fill="rgb(14.898682%, 68.629456%, 85.099792%)" d="M 233.480469 190.011719 C 233.480469 197.128906 239.261719 202.894531 246.382812 202.894531 C 253.515625 202.894531 259.285156 197.128906 259.285156 190.011719 C 259.285156 182.898438 253.515625 177.132812 246.382812 177.132812 C 239.261719 177.132812 233.480469 182.898438 233.480469 190.011719 " fill-opacity="1" fill-rule="nonzero"/><path fill="rgb(3.919983%, 7.839966%, 12.159729%)" d="M 114.648438 117.425781 L 121.117188 102.789062 L 130.6875 107.003906 C 134.296875 101.683594 138.945312 97.324219 144.226562 94.09375 L 140.441406 84.347656 L 155.378906 78.558594 L 159.171875 88.304688 C 165.253906 87.136719 171.625 87.222656 177.886719 88.722656 L 182.109375 79.167969 L 196.769531 85.621094 L 192.546875 95.175781 C 197.878906 98.78125 202.238281 103.417969 205.476562 108.695312 L 215.238281 104.917969 L 221.035156 119.835938 L 211.273438 123.617188 C 212.445312 129.691406 212.359375 136.050781 210.855469 142.304688 L 220.425781 146.519531 L 213.960938 161.160156 L 204.386719 156.941406 C 200.777344 162.265625 196.132812 166.621094 190.851562 169.855469 L 194.636719 179.601562 L 179.695312 185.386719 L 175.910156 175.640625 C 169.828125 176.8125 163.449219 176.726562 157.195312 175.222656 L 152.972656 184.78125 L 138.304688 178.328125 L 142.527344 168.769531 C 137.195312 165.164062 132.835938 160.523438 129.597656 155.25 L 119.84375 159.03125 L 114.046875 144.113281 L 123.804688 140.332031 C 122.632812 134.257812 122.71875 127.894531 124.226562 121.644531 L 114.648438 117.425781 " fill-opacity="1" fill-rule="nonzero"/><path fill="rgb(14.898682%, 68.629456%, 85.099792%)" d="M 133.433594 116.957031 C 125.128906 135.765625 133.664062 157.734375 152.496094 166.027344 C 171.332031 174.324219 193.332031 165.800781 201.644531 146.992188 C 209.953125 128.183594 201.414062 106.214844 182.578125 97.917969 C 163.742188 89.625 141.742188 98.148438 133.433594 116.957031 " fill-opacity="1" fill-rule="nonzero"/></svg>