<?xml version="1.0" encoding="UTF-8"?><svg xmlns="http://www.w3.org/2000/svg" xmlns:xlink="http://www.w3.org/1999/xlink" contentScriptType="text/ecmascript" width="375" zoomAndPan="magnify" contentStyleType="text/css" viewBox="0 0 375 374.999991" height="374.999991" preserveAspectRatio="xMidYMid meet" version="1.0"><defs><clipPath id="clip-0"><path d="M 124 105.683594 L 246 105.683594 L 246 163 L 124 163 Z M 124 105.683594 " clip-rule="nonzero"/></clipPath><clipPath id="clip-1"><path d="M 129 185 L 193 185 L 193 269.183594 L 129 269.183594 Z M 129 185 " clip-rule="nonzero"/></clipPath><clipPath id="clip-2"><path d="M 191 188 L 251 188 L 251 269.183594 L 191 269.183594 Z M 191 188 " clip-rule="nonzero"/></clipPath></defs><rect x="-37.5" width="450" fill="rgb(100%, 100%, 100%)" y="-37.499999" height="449.999989" fill-opacity="1"/><rect x="-37.5" width="450" fill="rgb(14.898682%, 68.629456%, 85.099792%)" y="-37.499999" height="449.999989" fill-opacity="1"/><path fill="rgb(0%, 0%, 0%)" d="M 277.347656 264.246094 L 214.460938 230.328125 L 214.460938 181.449219 L 277.355469 211.375 Z M 277.347656 264.246094 " fill-opacity="1" fill-rule="evenodd"/><path fill="rgb(3.529358%, 48.239136%, 67.83905%)" d="M 275.359375 256.269531 L 219.453125 226.347656 L 219.453125 187.433594 L 275.359375 214.371094 Z M 275.359375 256.269531 " fill-opacity="1" fill-rule="evenodd"/><path fill="rgb(0%, 0%, 0%)" d="M 280.339844 213.367188 L 214.460938 181.449219 L 274.359375 155.511719 L 335.253906 184.441406 Z M 280.339844 213.367188 " fill-opacity="1" fill-rule="evenodd"/><path fill="rgb(3.529358%, 48.239136%, 67.83905%)" d="M 278.347656 209.378906 L 224.4375 182.449219 L 273.359375 161.5 L 325.269531 185.445312 Z M 278.347656 209.378906 " fill-opacity="1" fill-rule="evenodd"/><path fill="rgb(0%, 0%, 0%)" d="M 335.253906 184.441406 L 276.355469 212.375 L 277.351562 264.25 L 336.253906 235.320312 Z M 335.253906 184.441406 " fill-opacity="1" fill-rule="evenodd"/><path fill="rgb(3.529358%, 48.239136%, 67.83905%)" d="M 330.257812 189.429688 L 282.332031 214.371094 L 282.332031 256.269531 L 330.257812 232.328125 Z M 330.257812 189.429688 " fill-opacity="1" fill-rule="evenodd"/><path fill="rgb(0%, 0%, 0%)" d="M 187.5 213.367188 L 124.605469 179.453125 L 124.605469 130.578125 L 187.5 160.5 Z M 187.5 213.367188 " fill-opacity="1" fill-rule="evenodd"/><path fill="rgb(2.349854%, 31.369019%, 47.839355%)" d="M 185.5 206.382812 L 129.597656 175.457031 L 129.597656 136.550781 L 185.5 163.492188 Z M 185.5 206.382812 " fill-opacity="1" fill-rule="evenodd"/><g clip-path="url(#clip-0)"><path fill="rgb(0%, 0%, 0%)" d="M 190.492188 162.488281 L 124.605469 130.578125 L 184.496094 105.636719 L 245.394531 133.570312 Z M 190.492188 162.488281 " fill-opacity="1" fill-rule="evenodd"/></g><path fill="rgb(2.349854%, 31.369019%, 47.839355%)" d="M 188.5 158.503906 L 134.585938 131.5625 L 183.507812 110.660156 L 235.421875 134.601562 Z M 188.5 158.503906 " fill-opacity="1" fill-rule="evenodd"/><path fill="rgb(0%, 0%, 0%)" d="M 245.402344 133.570312 L 186.503906 161.5 L 187.5 213.367188 L 246.40625 184.441406 Z M 245.402344 133.570312 " fill-opacity="1" fill-rule="evenodd"/><path fill="rgb(2.349854%, 31.369019%, 47.839355%)" d="M 240.410156 139.550781 L 192.484375 163.496094 L 192.484375 205.394531 L 240.410156 181.453125 Z M 240.410156 139.550781 " fill-opacity="1" fill-rule="evenodd"/><path fill="rgb(0%, 0%, 0%)" d="M 101.640625 261.257812 L 38.746094 227.332031 L 38.746094 178.457031 L 100.640625 208.332031 Z M 101.640625 261.257812 " fill-opacity="1" fill-rule="evenodd"/><path fill="rgb(14.898682%, 68.629456%, 85.099792%)" d="M 99.640625 253.277344 L 43.738281 223.347656 L 43.738281 184.441406 L 99.648438 211.378906 Z M 99.640625 253.277344 " fill-opacity="1" fill-rule="evenodd"/><path fill="rgb(0%, 0%, 0%)" d="M 103.640625 210.378906 L 38.746094 178.457031 L 98.644531 152.519531 L 159.539062 181.449219 Z M 103.640625 210.378906 " fill-opacity="1" fill-rule="evenodd"/><path fill="rgb(14.898682%, 68.629456%, 85.099792%)" d="M 102.636719 206.382812 L 47.726562 179.441406 L 97.644531 158.496094 L 149.558594 182.433594 Z M 102.636719 206.382812 " fill-opacity="1" fill-rule="evenodd"/><path fill="rgb(0%, 0%, 0%)" d="M 159.542969 181.449219 L 100.648438 209.378906 L 101.644531 261.261719 L 160.550781 232.324219 Z M 159.542969 181.449219 " fill-opacity="1" fill-rule="evenodd"/><path fill="rgb(14.898682%, 68.629456%, 85.099792%)" d="M 153.554688 186.433594 L 105.628906 211.375 L 106.628906 253.273438 L 154.554688 229.328125 Z M 153.554688 186.433594 " fill-opacity="1" fill-rule="evenodd"/><g clip-path="url(#clip-1)"><path fill="rgb(0%, 0%, 0%)" d="M 192.492188 269.183594 L 129.597656 234.269531 L 129.597656 185.433594 L 191.488281 215.363281 Z M 192.492188 269.183594 " fill-opacity="1" fill-rule="evenodd"/></g><path fill="rgb(63.919067%, 89.019775%, 95.289612%)" d="M 190.492188 261.257812 L 134.585938 231.324219 L 134.585938 191.425781 L 190.5 218.367188 Z M 190.492188 261.257812 " fill-opacity="1" fill-rule="evenodd"/><path fill="rgb(0%, 0%, 0%)" d="M 194.488281 217.359375 L 129.59375 185.4375 L 189.488281 160.496094 L 250.386719 188.425781 Z M 194.488281 217.359375 " fill-opacity="1" fill-rule="evenodd"/><path fill="rgb(63.919067%, 89.019775%, 95.289612%)" d="M 192.492188 213.367188 L 138.578125 187.433594 L 188.496094 166.53125 L 240.410156 190.46875 Z M 192.492188 213.367188 " fill-opacity="1" fill-rule="evenodd"/><g clip-path="url(#clip-2)"><path fill="rgb(0%, 0%, 0%)" d="M 250.394531 188.429688 L 191.496094 216.359375 L 192.496094 269.226562 L 250.398438 239.304688 Z M 250.394531 188.429688 " fill-opacity="1" fill-rule="evenodd"/></g><path fill="rgb(63.919067%, 89.019775%, 95.289612%)" d="M 244.398438 194.417969 L 196.472656 218.363281 L 197.464844 260.257812 L 245.394531 237.3125 Z M 244.398438 194.417969 " fill-opacity="1" fill-rule="evenodd"/></svg>