<?xml version="1.0" encoding="UTF-8"?><svg xmlns="http://www.w3.org/2000/svg" xmlns:xlink="http://www.w3.org/1999/xlink" contentScriptType="text/ecmascript" width="375" zoomAndPan="magnify" contentStyleType="text/css" viewBox="0 0 375 374.999991" height="374.999991" preserveAspectRatio="xMidYMid meet" version="1.0"><defs><clipPath id="clip-0"><path d="M 66 52.621094 L 308.941406 52.621094 L 308.941406 322.621094 L 66 322.621094 Z M 66 52.621094 " clip-rule="nonzero"/></clipPath></defs><rect x="-37.5" width="450" fill="rgb(100%, 100%, 100%)" y="-37.499999" height="449.999989" fill-opacity="1"/><rect x="-37.5" width="450" fill="rgb(14.898682%, 68.629456%, 85.099792%)" y="-37.499999" height="449.999989" fill-opacity="1"/><g clip-path="url(#clip-0)"><path fill="rgb(3.919983%, 7.839966%, 12.159729%)" d="M 102.058594 61.621094 L 299.785156 61.621094 L 299.785156 277.621094 L 102.058594 277.621094 Z M 299.785156 295.621094 L 151.492188 295.621094 L 151.492188 286.621094 L 299.785156 286.621094 Z M 115.539062 301.84375 L 115.539062 286.621094 L 142.503906 286.621094 L 142.503906 301.84375 L 131.039062 296.097656 C 130.390625 295.78125 129.707031 295.621094 129.023438 295.621094 C 128.335938 295.621094 127.652344 295.78125 127.003906 296.097656 Z M 299.785156 313.621094 L 88.578125 313.621094 C 81.136719 313.621094 75.097656 307.574219 75.097656 300.121094 C 75.097656 299.085938 75.253906 298.046875 75.484375 297.046875 C 76.886719 291.085938 82.207031 286.621094 88.578125 286.621094 L 106.554688 286.621094 L 106.554688 295.621094 L 84.085938 295.621094 L 84.085938 304.621094 L 106.554688 304.621094 L 106.554688 309.121094 C 106.554688 310.6875 107.359375 312.128906 108.675781 312.953125 C 110.011719 313.761719 111.660156 313.832031 113.066406 313.148438 L 129.023438 305.148438 L 144.976562 313.148438 C 145.628906 313.464844 146.3125 313.621094 146.996094 313.621094 C 147.820312 313.621094 148.628906 313.394531 149.367188 312.953125 C 150.683594 312.128906 151.492188 310.6875 151.492188 309.121094 L 151.492188 304.621094 L 299.785156 304.621094 Z M 75.097656 255.121094 C 75.097656 253.609375 75.535156 246.121094 84.085938 246.121094 L 84.085938 237.121094 C 80.46875 237.121094 77.539062 237.984375 75.097656 239.300781 L 75.097656 232.621094 C 75.097656 231.109375 75.535156 223.621094 84.085938 223.621094 L 84.085938 214.621094 C 80.46875 214.621094 77.539062 215.484375 75.097656 216.800781 L 75.097656 115.621094 C 75.097656 114.109375 75.535156 106.621094 84.085938 106.621094 L 84.085938 97.621094 C 80.46875 97.621094 77.539062 98.484375 75.097656 99.800781 L 75.097656 84.121094 C 75.097656 73.257812 82.820312 64.171875 93.070312 62.078125 L 93.070312 277.621094 L 88.578125 277.621094 C 83.503906 277.621094 78.855469 279.378906 75.097656 282.246094 Z M 66.109375 84.121094 L 66.109375 300.121094 C 66.109375 312.53125 76.1875 322.621094 88.578125 322.621094 L 304.277344 322.621094 C 306.753906 322.621094 308.769531 320.601562 308.769531 318.121094 L 308.769531 57.121094 C 308.769531 54.644531 306.753906 52.621094 304.277344 52.621094 L 97.566406 52.621094 C 80.222656 52.621094 66.109375 66.753906 66.109375 84.121094 " fill-opacity="1" fill-rule="nonzero"/></g><path fill="rgb(3.919983%, 7.839966%, 12.159729%)" d="M 120.035156 79.621094 L 138.007812 79.621094 L 138.007812 70.621094 L 111.046875 70.621094 L 111.046875 97.621094 L 120.035156 97.621094 L 120.035156 79.621094 " fill-opacity="1" fill-rule="nonzero"/><path fill="rgb(3.919983%, 7.839966%, 12.159729%)" d="M 138.007812 259.621094 L 120.035156 259.621094 L 120.035156 241.621094 L 111.046875 241.621094 L 111.046875 268.621094 L 138.007812 268.621094 L 138.007812 259.621094 " fill-opacity="1" fill-rule="nonzero"/><path fill="rgb(3.919983%, 7.839966%, 12.159729%)" d="M 281.808594 97.621094 L 290.796875 97.621094 L 290.796875 70.621094 L 263.832031 70.621094 L 263.832031 79.621094 L 281.808594 79.621094 L 281.808594 97.621094 " fill-opacity="1" fill-rule="nonzero"/><path fill="rgb(3.919983%, 7.839966%, 12.159729%)" d="M 281.808594 259.621094 L 263.832031 259.621094 L 263.832031 268.621094 L 290.796875 268.621094 L 290.796875 241.621094 L 281.808594 241.621094 L 281.808594 259.621094 " fill-opacity="1" fill-rule="nonzero"/><path fill="rgb(3.919983%, 7.839966%, 12.159729%)" d="M 259.199219 223.621094 C 260.957031 222.304688 262.515625 220.738281 263.832031 218.980469 C 265.152344 220.738281 266.710938 222.304688 268.46875 223.621094 C 266.710938 224.941406 265.152344 226.503906 263.832031 228.261719 C 262.515625 226.503906 260.957031 224.941406 259.199219 223.621094 Z M 268.328125 241.621094 C 268.328125 234.167969 274.367188 228.121094 281.808594 228.121094 C 284.285156 228.121094 286.300781 226.101562 286.300781 223.621094 C 286.300781 221.144531 284.285156 219.121094 281.808594 219.121094 C 274.367188 219.121094 268.328125 213.074219 268.328125 205.621094 C 268.328125 203.144531 266.308594 201.121094 263.832031 201.121094 C 261.359375 201.121094 259.339844 203.144531 259.339844 205.621094 C 259.339844 213.074219 253.300781 219.121094 245.859375 219.121094 C 243.382812 219.121094 241.367188 221.144531 241.367188 223.621094 C 241.367188 226.101562 243.382812 228.121094 245.859375 228.121094 C 253.300781 228.121094 259.339844 234.167969 259.339844 241.621094 C 259.339844 244.101562 261.359375 246.121094 263.832031 246.121094 C 266.308594 246.121094 268.328125 244.101562 268.328125 241.621094 " fill-opacity="1" fill-rule="nonzero"/><path fill="rgb(3.919983%, 7.839966%, 12.159729%)" d="M 133.515625 214.480469 C 134.832031 216.238281 136.394531 217.804688 138.148438 219.121094 C 136.394531 220.441406 134.832031 222.003906 133.515625 223.761719 C 132.199219 222.003906 130.636719 220.441406 128.882812 219.121094 C 130.636719 217.804688 132.199219 216.238281 133.515625 214.480469 Z M 115.539062 223.621094 C 122.984375 223.621094 129.023438 229.667969 129.023438 237.121094 C 129.023438 239.601562 131.039062 241.621094 133.515625 241.621094 C 135.992188 241.621094 138.007812 239.601562 138.007812 237.121094 C 138.007812 229.667969 144.046875 223.621094 151.492188 223.621094 C 153.964844 223.621094 155.984375 221.601562 155.984375 219.121094 C 155.984375 216.644531 153.964844 214.621094 151.492188 214.621094 C 144.046875 214.621094 138.007812 208.574219 138.007812 201.121094 C 138.007812 198.644531 135.992188 196.621094 133.515625 196.621094 C 131.039062 196.621094 129.023438 198.644531 129.023438 201.121094 C 129.023438 208.574219 122.984375 214.621094 115.539062 214.621094 C 113.066406 214.621094 111.046875 216.644531 111.046875 219.121094 C 111.046875 221.601562 113.066406 223.621094 115.539062 223.621094 " fill-opacity="1" fill-rule="nonzero"/><path fill="rgb(3.919983%, 7.839966%, 12.159729%)" d="M 241.367188 88.480469 C 242.683594 90.238281 244.242188 91.804688 246 93.121094 C 244.242188 94.441406 242.683594 96.003906 241.367188 97.761719 C 240.046875 96.003906 238.488281 94.441406 236.730469 93.121094 C 238.488281 91.804688 240.046875 90.238281 241.367188 88.480469 Z M 223.390625 97.621094 C 230.832031 97.621094 236.871094 103.667969 236.871094 111.121094 C 236.871094 113.601562 238.890625 115.621094 241.367188 115.621094 C 243.839844 115.621094 245.859375 113.601562 245.859375 111.121094 C 245.859375 103.667969 251.898438 97.621094 259.339844 97.621094 C 261.816406 97.621094 263.832031 95.601562 263.832031 93.121094 C 263.832031 90.644531 261.816406 88.621094 259.339844 88.621094 C 251.898438 88.621094 245.859375 82.574219 245.859375 75.121094 C 245.859375 72.644531 243.839844 70.621094 241.367188 70.621094 C 238.890625 70.621094 236.871094 72.644531 236.871094 75.121094 C 236.871094 82.574219 230.832031 88.621094 223.390625 88.621094 C 220.914062 88.621094 218.898438 90.644531 218.898438 93.121094 C 218.898438 95.601562 220.914062 97.621094 223.390625 97.621094 " fill-opacity="1" fill-rule="nonzero"/><path fill="rgb(3.919983%, 7.839966%, 12.159729%)" d="M 142.503906 111.121094 C 144.976562 111.121094 146.996094 113.144531 146.996094 115.621094 C 146.996094 118.101562 144.976562 120.121094 142.503906 120.121094 C 140.027344 120.121094 138.007812 118.101562 138.007812 115.621094 C 138.007812 113.144531 140.027344 111.121094 142.503906 111.121094 Z M 129.023438 115.621094 C 129.023438 123.074219 135.058594 129.121094 142.503906 129.121094 C 149.945312 129.121094 155.984375 123.074219 155.984375 115.621094 C 155.984375 108.167969 149.945312 102.121094 142.503906 102.121094 C 135.058594 102.121094 129.023438 108.167969 129.023438 115.621094 " fill-opacity="1" fill-rule="nonzero"/><path fill="rgb(3.919983%, 7.839966%, 12.159729%)" d="M 196.429688 259.621094 C 193.953125 259.621094 191.933594 257.601562 191.933594 255.121094 C 191.933594 252.644531 193.953125 250.621094 196.429688 250.621094 C 198.902344 250.621094 200.921875 252.644531 200.921875 255.121094 C 200.921875 257.601562 198.902344 259.621094 196.429688 259.621094 Z M 196.429688 241.621094 C 188.984375 241.621094 182.945312 247.667969 182.945312 255.121094 C 182.945312 262.574219 188.984375 268.621094 196.429688 268.621094 C 203.871094 268.621094 209.910156 262.574219 209.910156 255.121094 C 209.910156 247.667969 203.871094 241.621094 196.429688 241.621094 " fill-opacity="1" fill-rule="nonzero"/><path fill="rgb(3.919983%, 7.839966%, 12.159729%)" d="M 277.316406 156.121094 C 274.839844 156.121094 272.820312 154.101562 272.820312 151.621094 C 272.820312 149.144531 274.839844 147.121094 277.316406 147.121094 C 279.789062 147.121094 281.808594 149.144531 281.808594 151.621094 C 281.808594 154.101562 279.789062 156.121094 277.316406 156.121094 Z M 277.316406 138.121094 C 269.871094 138.121094 263.832031 144.167969 263.832031 151.621094 C 263.832031 159.074219 269.871094 165.121094 277.316406 165.121094 C 284.757812 165.121094 290.796875 159.074219 290.796875 151.621094 C 290.796875 144.167969 284.757812 138.121094 277.316406 138.121094 " fill-opacity="1" fill-rule="nonzero"/><path fill="rgb(3.919983%, 7.839966%, 12.159729%)" d="M 187.441406 93.121094 L 178.453125 93.121094 L 178.453125 102.121094 L 187.441406 102.121094 L 187.441406 93.121094 " fill-opacity="1" fill-rule="nonzero"/><path fill="rgb(3.919983%, 7.839966%, 12.159729%)" d="M 263.832031 120.121094 L 254.847656 120.121094 L 254.847656 129.121094 L 263.832031 129.121094 L 263.832031 120.121094 " fill-opacity="1" fill-rule="nonzero"/><path fill="rgb(3.919983%, 7.839966%, 12.159729%)" d="M 286.300781 192.121094 L 277.316406 192.121094 L 277.316406 201.121094 L 286.300781 201.121094 L 286.300781 192.121094 " fill-opacity="1" fill-rule="nonzero"/><path fill="rgb(3.919983%, 7.839966%, 12.159729%)" d="M 142.503906 255.121094 L 151.492188 255.121094 L 151.492188 246.121094 L 142.503906 246.121094 L 142.503906 255.121094 " fill-opacity="1" fill-rule="nonzero"/><path fill="rgb(3.919983%, 7.839966%, 12.159729%)" d="M 223.390625 268.621094 L 232.378906 268.621094 L 232.378906 259.621094 L 223.390625 259.621094 L 223.390625 268.621094 " fill-opacity="1" fill-rule="nonzero"/><path fill="rgb(3.919983%, 7.839966%, 12.159729%)" d="M 124.527344 160.621094 L 133.515625 160.621094 L 133.515625 151.621094 L 124.527344 151.621094 L 124.527344 160.621094 " fill-opacity="1" fill-rule="nonzero"/><path fill="rgb(3.919983%, 7.839966%, 12.159729%)" d="M 200.921875 133.621094 C 217.859375 133.621094 232.359375 144.117188 238.382812 158.917969 C 230.515625 151.691406 218.828125 143.941406 204.414062 142.832031 C 203.257812 142.691406 202.097656 142.621094 200.921875 142.621094 C 199.746094 142.621094 198.585938 142.691406 197.429688 142.832031 C 183.015625 143.941406 171.328125 151.691406 163.460938 158.917969 C 169.484375 144.117188 183.984375 133.621094 200.921875 133.621094 Z M 228.917969 188.414062 C 231.113281 184.125 232.378906 179.273438 232.378906 174.121094 C 232.378906 170.675781 231.796875 167.355469 230.78125 164.242188 C 235.539062 168.375 238.941406 172.433594 240.714844 174.71875 C 239.257812 177.726562 235.730469 183.527344 228.917969 188.414062 Z M 200.921875 160.621094 C 203.398438 160.621094 205.414062 162.644531 205.414062 165.121094 C 205.414062 167.601562 203.398438 169.621094 200.921875 169.621094 C 198.445312 169.621094 196.429688 167.601562 196.429688 165.121094 C 196.429688 162.644531 198.445312 160.621094 200.921875 160.621094 Z M 187.441406 165.121094 C 187.441406 172.574219 193.480469 178.621094 200.921875 178.621094 C 208.363281 178.621094 214.402344 172.574219 214.402344 165.121094 C 214.402344 158.601562 209.769531 153.152344 203.625 151.902344 C 214.738281 153.257812 223.390625 162.644531 223.390625 174.121094 C 223.390625 186.53125 213.316406 196.621094 200.921875 196.621094 C 188.527344 196.621094 178.453125 186.53125 178.453125 174.121094 C 178.453125 162.644531 187.105469 153.257812 198.21875 151.902344 C 192.074219 153.152344 187.441406 158.601562 187.441406 165.121094 Z M 200.921875 214.621094 C 186.125 214.621094 173.1875 206.605469 166.148438 194.6875 C 173.695312 200.613281 184.789062 205.621094 200.921875 205.621094 C 217.054688 205.621094 228.148438 200.613281 235.695312 194.6875 C 228.65625 206.605469 215.71875 214.621094 200.921875 214.621094 Z M 172.976562 188.535156 C 166.078125 183.613281 162.585938 177.761719 161.128906 174.738281 C 162.882812 172.433594 166.304688 168.375 171.0625 164.242188 C 170.042969 167.355469 169.464844 170.675781 169.464844 174.121094 C 169.464844 179.308594 170.746094 184.210938 172.976562 188.535156 Z M 155.667969 154.277344 L 148.417969 151.851562 L 145.574219 160.394531 L 152.84375 162.820312 C 151.980469 166.457031 151.492188 170.238281 151.492188 174.121094 C 151.492188 178.007812 151.980469 181.785156 152.84375 185.425781 L 145.574219 187.851562 L 148.417969 196.394531 L 155.667969 193.96875 C 159.882812 203.582031 167.078125 211.582031 176.066406 216.835938 L 170.21875 225.625 L 177.699219 230.617188 L 184.316406 220.6875 C 189.511719 222.550781 195.09375 223.621094 200.921875 223.621094 C 206.75 223.621094 212.332031 222.550781 217.527344 220.6875 L 224.144531 230.617188 L 231.621094 225.625 L 225.777344 216.835938 C 235.976562 210.859375 243.839844 201.351562 247.703125 189.976562 L 253.425781 191.894531 L 256.269531 183.351562 L 249.789062 181.1875 C 250.125 178.867188 250.351562 176.53125 250.351562 174.121094 C 250.351562 168.726562 249.457031 163.558594 247.859375 158.707031 L 256.269531 155.894531 L 253.425781 147.351562 L 244.296875 150.410156 C 239.960938 142.5 233.535156 135.941406 225.777344 131.40625 L 231.621094 122.617188 L 224.144531 117.625 L 217.527344 127.558594 C 212.332031 125.695312 206.75 124.621094 200.921875 124.621094 C 195.09375 124.621094 189.511719 125.695312 184.316406 127.558594 L 177.699219 117.625 L 170.21875 122.617188 L 176.066406 131.40625 C 167.078125 136.664062 159.882812 144.660156 155.667969 154.277344 " fill-opacity="1" fill-rule="nonzero"/></svg>