<?xml version="1.0" encoding="UTF-8"?><svg xmlns="http://www.w3.org/2000/svg" xmlns:xlink="http://www.w3.org/1999/xlink" contentScriptType="text/ecmascript" width="375" zoomAndPan="magnify" contentStyleType="text/css" viewBox="0 0 375 374.999991" height="374.999991" preserveAspectRatio="xMidYMid meet" version="1.0"><defs><clipPath id="clip-0"><path d="M 56.34375 56.34375 L 318.84375 56.34375 L 318.84375 318.84375 L 56.34375 318.84375 Z M 56.34375 56.34375 " clip-rule="nonzero"/></clipPath></defs><rect x="-37.5" width="450" fill="rgb(100%, 100%, 100%)" y="-37.499999" height="449.999989" fill-opacity="1"/><rect x="-37.5" width="450" fill="rgb(100%, 100%, 100%)" y="-37.499999" height="449.999989" fill-opacity="1"/><rect x="-37.5" width="450" fill="rgb(14.898682%, 68.629456%, 85.099792%)" y="-37.499999" height="449.999989" fill-opacity="1"/><path fill="rgb(63.919067%, 89.019775%, 95.289612%)" d="M 314.609375 94.445312 C 314.609375 95.554688 314.554688 96.664062 314.445312 97.765625 C 314.335938 98.871094 314.171875 99.964844 313.957031 101.054688 C 313.742188 102.144531 313.472656 103.21875 313.148438 104.277344 C 312.828125 105.339844 312.453125 106.382812 312.03125 107.410156 C 311.605469 108.433594 311.132812 109.433594 310.609375 110.414062 C 310.085938 111.390625 309.515625 112.34375 308.898438 113.265625 C 308.285156 114.1875 307.625 115.078125 306.917969 115.933594 C 306.214844 116.792969 305.472656 117.613281 304.6875 118.398438 C 303.902344 119.179688 303.082031 119.925781 302.222656 120.628906 C 301.367188 121.332031 300.476562 121.992188 299.554688 122.609375 C 298.632812 123.226562 297.683594 123.796875 296.703125 124.316406 C 295.726562 124.839844 294.722656 125.316406 293.699219 125.738281 C 292.675781 126.164062 291.628906 126.539062 290.570312 126.859375 C 289.507812 127.179688 288.433594 127.449219 287.34375 127.667969 C 286.257812 127.882812 285.160156 128.046875 284.058594 128.15625 C 282.953125 128.261719 281.847656 128.316406 280.738281 128.316406 C 279.628906 128.316406 278.519531 128.261719 277.417969 128.15625 C 276.3125 128.046875 275.21875 127.882812 274.128906 127.667969 C 273.042969 127.449219 271.964844 127.179688 270.90625 126.859375 C 269.84375 126.539062 268.800781 126.164062 267.773438 125.738281 C 266.75 125.316406 265.75 124.839844 264.769531 124.316406 C 263.792969 123.796875 262.839844 123.226562 261.917969 122.609375 C 260.996094 121.992188 260.105469 121.332031 259.25 120.628906 C 258.390625 119.925781 257.570312 119.179688 256.785156 118.398438 C 256.003906 117.613281 255.257812 116.792969 254.554688 115.933594 C 253.851562 115.078125 253.191406 114.1875 252.574219 113.265625 C 251.957031 112.34375 251.386719 111.390625 250.867188 110.414062 C 250.34375 109.433594 249.867188 108.433594 249.445312 107.410156 C 249.019531 106.382812 248.648438 105.339844 248.324219 104.277344 C 248.003906 103.21875 247.734375 102.144531 247.515625 101.054688 C 247.300781 99.964844 247.136719 98.871094 247.027344 97.765625 C 246.921875 96.664062 246.867188 95.554688 246.867188 94.445312 C 246.867188 93.335938 246.921875 92.230469 247.027344 91.125 C 247.136719 90.023438 247.300781 88.925781 247.515625 87.839844 C 247.734375 86.75 248.003906 85.675781 248.324219 84.613281 C 248.648438 83.554688 249.019531 82.507812 249.445312 81.484375 C 249.867188 80.460938 250.34375 79.457031 250.867188 78.480469 C 251.386719 77.5 251.957031 76.550781 252.574219 75.628906 C 253.191406 74.707031 253.851562 73.816406 254.554688 72.960938 C 255.257812 72.101562 256.003906 71.28125 256.785156 70.496094 C 257.570312 69.710938 258.390625 68.96875 259.25 68.265625 C 260.105469 67.558594 260.996094 66.898438 261.917969 66.285156 C 262.839844 65.667969 263.792969 65.097656 264.769531 64.574219 C 265.75 64.050781 266.75 63.578125 267.773438 63.152344 C 268.800781 62.730469 269.84375 62.355469 270.90625 62.035156 C 271.964844 61.710938 273.042969 61.441406 274.128906 61.226562 C 275.21875 61.011719 276.3125 60.847656 277.417969 60.738281 C 278.519531 60.628906 279.628906 60.574219 280.738281 60.574219 C 281.847656 60.574219 282.953125 60.628906 284.058594 60.738281 C 285.160156 60.847656 286.257812 61.011719 287.34375 61.226562 C 288.433594 61.441406 289.507812 61.710938 290.570312 62.035156 C 291.628906 62.355469 292.675781 62.730469 293.699219 63.152344 C 294.722656 63.578125 295.726562 64.050781 296.703125 64.574219 C 297.683594 65.097656 298.632812 65.667969 299.554688 66.285156 C 300.476562 66.898438 301.367188 67.558594 302.222656 68.265625 C 303.082031 68.96875 303.902344 69.710938 304.6875 70.496094 C 305.472656 71.28125 306.214844 72.101562 306.917969 72.960938 C 307.625 73.816406 308.285156 74.707031 308.898438 75.628906 C 309.515625 76.550781 310.085938 77.5 310.609375 78.480469 C 311.132812 79.457031 311.605469 80.460938 312.03125 81.484375 C 312.453125 82.507812 312.828125 83.554688 313.148438 84.613281 C 313.472656 85.675781 313.742188 86.75 313.957031 87.839844 C 314.171875 88.925781 314.335938 90.023438 314.445312 91.125 C 314.554688 92.230469 314.609375 93.335938 314.609375 94.445312 Z M 314.609375 94.445312 " fill-opacity="1" fill-rule="nonzero"/><path fill="rgb(63.919067%, 89.019775%, 95.289612%)" d="M 314.609375 187.59375 C 314.609375 188.703125 314.554688 189.808594 314.445312 190.910156 C 314.335938 192.015625 314.171875 193.113281 313.957031 194.199219 C 313.742188 195.289062 313.472656 196.363281 313.148438 197.425781 C 312.828125 198.484375 312.453125 199.527344 312.03125 200.554688 C 311.605469 201.578125 311.132812 202.582031 310.609375 203.558594 C 310.085938 204.535156 309.515625 205.488281 308.898438 206.410156 C 308.285156 207.332031 307.625 208.222656 306.917969 209.078125 C 306.214844 209.9375 305.472656 210.757812 304.6875 211.542969 C 303.902344 212.328125 303.082031 213.070312 302.222656 213.773438 C 301.367188 214.476562 300.476562 215.136719 299.554688 215.753906 C 298.632812 216.371094 297.683594 216.941406 296.703125 217.464844 C 295.726562 217.988281 294.722656 218.460938 293.699219 218.882812 C 292.675781 219.308594 291.628906 219.683594 290.570312 220.003906 C 289.507812 220.328125 288.433594 220.59375 287.34375 220.8125 C 286.257812 221.027344 285.160156 221.191406 284.058594 221.300781 C 282.953125 221.410156 281.847656 221.460938 280.738281 221.460938 C 279.628906 221.460938 278.519531 221.410156 277.417969 221.300781 C 276.3125 221.191406 275.21875 221.027344 274.128906 220.8125 C 273.042969 220.59375 271.964844 220.328125 270.90625 220.003906 C 269.84375 219.683594 268.800781 219.308594 267.773438 218.882812 C 266.75 218.460938 265.75 217.984375 264.769531 217.464844 C 263.792969 216.941406 262.839844 216.371094 261.917969 215.753906 C 260.996094 215.136719 260.105469 214.476562 259.25 213.773438 C 258.390625 213.070312 257.570312 212.328125 256.785156 211.542969 C 256.003906 210.757812 255.257812 209.9375 254.554688 209.078125 C 253.851562 208.222656 253.191406 207.332031 252.574219 206.410156 C 251.957031 205.488281 251.386719 204.535156 250.867188 203.558594 C 250.34375 202.582031 249.867188 201.578125 249.445312 200.554688 C 249.019531 199.527344 248.648438 198.484375 248.324219 197.425781 C 248.003906 196.363281 247.734375 195.289062 247.515625 194.199219 C 247.300781 193.113281 247.136719 192.015625 247.027344 190.910156 C 246.921875 189.808594 246.867188 188.703125 246.867188 187.59375 C 246.867188 186.484375 246.921875 185.375 247.027344 184.273438 C 247.136719 183.167969 247.300781 182.070312 247.515625 180.984375 C 247.734375 179.894531 248.003906 178.820312 248.324219 177.757812 C 248.648438 176.699219 249.019531 175.65625 249.445312 174.628906 C 249.867188 173.605469 250.34375 172.605469 250.867188 171.625 C 251.386719 170.648438 251.957031 169.695312 252.574219 168.773438 C 253.191406 167.851562 253.851562 166.960938 254.554688 166.105469 C 255.257812 165.246094 256.003906 164.425781 256.785156 163.640625 C 257.570312 162.855469 258.390625 162.113281 259.25 161.410156 C 260.105469 160.707031 260.996094 160.046875 261.917969 159.429688 C 262.839844 158.8125 263.792969 158.242188 264.769531 157.71875 C 265.75 157.199219 266.75 156.722656 267.773438 156.300781 C 268.800781 155.875 269.84375 155.5 270.90625 155.179688 C 271.964844 154.855469 273.042969 154.589844 274.128906 154.371094 C 275.21875 154.15625 276.3125 153.992188 277.417969 153.882812 C 278.519531 153.773438 279.628906 153.722656 280.738281 153.722656 C 281.847656 153.722656 282.953125 153.773438 284.058594 153.882812 C 285.160156 153.992188 286.257812 154.15625 287.34375 154.371094 C 288.433594 154.589844 289.507812 154.855469 290.570312 155.179688 C 291.628906 155.5 292.675781 155.875 293.699219 156.300781 C 294.722656 156.722656 295.726562 157.199219 296.703125 157.71875 C 297.683594 158.242188 298.632812 158.8125 299.554688 159.429688 C 300.476562 160.046875 301.367188 160.707031 302.222656 161.410156 C 303.082031 162.113281 303.902344 162.855469 304.6875 163.640625 C 305.472656 164.425781 306.214844 165.246094 306.917969 166.105469 C 307.625 166.960938 308.285156 167.851562 308.898438 168.773438 C 309.515625 169.695312 310.085938 170.648438 310.609375 171.625 C 311.132812 172.605469 311.605469 173.605469 312.03125 174.628906 C 312.453125 175.65625 312.828125 176.699219 313.148438 177.757812 C 313.472656 178.820312 313.742188 179.894531 313.957031 180.984375 C 314.171875 182.070312 314.335938 183.167969 314.445312 184.273438 C 314.554688 185.375 314.609375 186.484375 314.609375 187.59375 Z M 314.609375 187.59375 " fill-opacity="1" fill-rule="nonzero"/><path fill="rgb(63.919067%, 89.019775%, 95.289612%)" d="M 314.609375 280.738281 C 314.609375 281.847656 314.554688 282.953125 314.445312 284.058594 C 314.335938 285.160156 314.171875 286.257812 313.957031 287.34375 C 313.742188 288.433594 313.472656 289.507812 313.148438 290.570312 C 312.828125 291.628906 312.453125 292.675781 312.03125 293.699219 C 311.605469 294.722656 311.132812 295.726562 310.609375 296.703125 C 310.085938 297.683594 309.515625 298.632812 308.898438 299.554688 C 308.285156 300.476562 307.625 301.367188 306.917969 302.222656 C 306.214844 303.082031 305.472656 303.902344 304.6875 304.6875 C 303.902344 305.472656 303.082031 306.214844 302.222656 306.917969 C 301.367188 307.625 300.476562 308.285156 299.554688 308.898438 C 298.632812 309.515625 297.683594 310.085938 296.703125 310.609375 C 295.726562 311.132812 294.722656 311.605469 293.699219 312.03125 C 292.675781 312.453125 291.628906 312.828125 290.570312 313.148438 C 289.507812 313.472656 288.433594 313.742188 287.34375 313.957031 C 286.257812 314.171875 285.160156 314.335938 284.058594 314.445312 C 282.953125 314.554688 281.847656 314.609375 280.738281 314.609375 C 279.628906 314.609375 278.519531 314.554688 277.417969 314.445312 C 276.3125 314.335938 275.21875 314.171875 274.128906 313.957031 C 273.042969 313.742188 271.964844 313.472656 270.90625 313.148438 C 269.84375 312.828125 268.800781 312.453125 267.773438 312.03125 C 266.75 311.605469 265.75 311.132812 264.769531 310.609375 C 263.792969 310.085938 262.839844 309.515625 261.917969 308.898438 C 260.996094 308.285156 260.105469 307.625 259.25 306.917969 C 258.390625 306.214844 257.570312 305.472656 256.785156 304.6875 C 256.003906 303.902344 255.257812 303.082031 254.554688 302.222656 C 253.851562 301.367188 253.191406 300.476562 252.574219 299.554688 C 251.957031 298.632812 251.386719 297.683594 250.867188 296.703125 C 250.34375 295.726562 249.867188 294.722656 249.445312 293.699219 C 249.019531 292.675781 248.648438 291.628906 248.324219 290.570312 C 248.003906 289.507812 247.734375 288.433594 247.515625 287.34375 C 247.300781 286.257812 247.136719 285.160156 247.027344 284.058594 C 246.921875 282.953125 246.867188 281.847656 246.867188 280.738281 C 246.867188 279.628906 246.921875 278.519531 247.027344 277.417969 C 247.136719 276.3125 247.300781 275.21875 247.515625 274.128906 C 247.734375 273.042969 248.003906 271.964844 248.324219 270.90625 C 248.648438 269.84375 249.019531 268.800781 249.445312 267.773438 C 249.867188 266.75 250.34375 265.75 250.867188 264.769531 C 251.386719 263.792969 251.957031 262.839844 252.574219 261.917969 C 253.191406 260.996094 253.851562 260.105469 254.554688 259.25 C 255.257812 258.390625 256.003906 257.570312 256.785156 256.785156 C 257.570312 256.003906 258.390625 255.257812 259.25 254.554688 C 260.105469 253.851562 260.996094 253.191406 261.917969 252.574219 C 262.839844 251.957031 263.792969 251.386719 264.769531 250.867188 C 265.75 250.34375 266.75 249.867188 267.773438 249.445312 C 268.800781 249.019531 269.84375 248.648438 270.90625 248.324219 C 271.964844 248.003906 273.042969 247.734375 274.128906 247.515625 C 275.21875 247.300781 276.3125 247.136719 277.417969 247.027344 C 278.519531 246.921875 279.628906 246.867188 280.738281 246.867188 C 281.847656 246.867188 282.953125 246.921875 284.058594 247.027344 C 285.160156 247.136719 286.257812 247.300781 287.34375 247.515625 C 288.433594 247.734375 289.507812 248.003906 290.570312 248.324219 C 291.628906 248.648438 292.675781 249.019531 293.699219 249.445312 C 294.722656 249.867188 295.726562 250.34375 296.703125 250.867188 C 297.683594 251.386719 298.632812 251.957031 299.554688 252.574219 C 300.476562 253.191406 301.367188 253.851562 302.222656 254.554688 C 303.082031 255.257812 303.902344 256.003906 304.6875 256.785156 C 305.472656 257.570312 306.214844 258.390625 306.917969 259.25 C 307.625 260.105469 308.285156 260.996094 308.898438 261.917969 C 309.515625 262.839844 310.085938 263.792969 310.609375 264.769531 C 311.132812 265.75 311.605469 266.75 312.03125 267.773438 C 312.453125 268.800781 312.828125 269.84375 313.148438 270.90625 C 313.472656 271.964844 313.742188 273.042969 313.957031 274.128906 C 314.171875 275.21875 314.335938 276.3125 314.445312 277.417969 C 314.554688 278.519531 314.609375 279.628906 314.609375 280.738281 Z M 314.609375 280.738281 " fill-opacity="1" fill-rule="nonzero"/><path fill="rgb(2.349854%, 19.60907%, 31.759644%)" d="M 271.027344 110.140625 L 280.738281 100.433594 L 290.445312 110.140625 L 296.433594 104.15625 L 286.722656 94.445312 L 296.433594 84.738281 L 290.445312 78.75 L 280.738281 88.460938 L 271.027344 78.75 L 265.042969 84.738281 L 274.75 94.445312 L 265.042969 104.15625 Z M 271.027344 110.140625 " fill-opacity="1" fill-rule="nonzero"/><path fill="rgb(2.349854%, 19.60907%, 31.759644%)" d="M 271.027344 203.285156 L 280.738281 193.578125 L 290.445312 203.285156 L 296.433594 197.300781 L 286.722656 187.59375 L 296.433594 177.882812 L 290.445312 171.898438 L 280.738281 181.605469 L 271.027344 171.898438 L 265.042969 177.882812 L 274.75 187.59375 L 265.042969 197.300781 Z M 271.027344 203.285156 " fill-opacity="1" fill-rule="nonzero"/><path fill="rgb(2.349854%, 19.60907%, 31.759644%)" d="M 271.027344 296.433594 L 280.738281 286.722656 L 290.445312 296.433594 L 296.433594 290.445312 L 286.722656 280.738281 L 296.433594 271.027344 L 290.445312 265.042969 L 280.738281 274.75 L 271.027344 265.042969 L 265.042969 271.027344 L 274.75 280.738281 L 265.042969 290.445312 Z M 271.027344 296.433594 " fill-opacity="1" fill-rule="nonzero"/><g clip-path="url(#clip-0)"><path fill="rgb(2.349854%, 19.60907%, 31.759644%)" d="M 242.882812 191.824219 C 245 210.847656 261.160156 225.695312 280.738281 225.695312 C 301.746094 225.695312 318.84375 208.605469 318.84375 187.59375 C 318.84375 166.578125 301.746094 149.488281 280.738281 149.488281 C 261.160156 149.488281 244.996094 164.335938 242.882812 183.359375 L 225.410156 183.359375 C 224.523438 176.144531 221.40625 169.597656 216.703125 164.464844 L 256.980469 124.191406 C 263.5 129.410156 271.753906 132.550781 280.738281 132.550781 C 301.746094 132.550781 318.84375 115.460938 318.84375 94.445312 C 318.84375 73.433594 301.746094 56.34375 280.738281 56.34375 C 259.730469 56.34375 242.632812 73.433594 242.632812 94.445312 C 242.632812 103.429688 245.773438 111.683594 250.992188 118.203125 L 210.230469 158.964844 C 207.230469 157.007812 203.898438 155.480469 200.296875 154.523438 L 200.296875 107.148438 C 200.296875 105.644531 199.5 104.253906 198.203125 103.496094 C 196.90625 102.742188 195.300781 102.722656 193.988281 103.460938 L 127.207031 141.019531 L 90.210938 141.019531 C 71.539062 141.019531 56.34375 156.214844 56.34375 174.890625 L 56.34375 200.292969 C 56.34375 217.535156 69.296875 231.777344 85.980469 233.871094 L 85.980469 284.972656 C 85.980469 287.3125 87.875 289.203125 90.210938 289.203125 L 128.316406 289.203125 C 130.65625 289.203125 132.550781 287.3125 132.550781 284.972656 C 132.550781 267.035156 127.867188 249.617188 118.992188 234.164062 L 127.207031 234.164062 L 193.980469 271.722656 C 194.628906 272.085938 195.34375 272.269531 196.058594 272.269531 C 196.796875 272.269531 197.539062 272.074219 198.199219 271.6875 C 199.496094 270.929688 200.292969 269.539062 200.292969 268.035156 L 200.292969 220.652344 C 203.898438 219.703125 207.222656 218.171875 210.226562 216.210938 L 250.992188 256.980469 C 245.773438 263.5 242.632812 271.753906 242.632812 280.738281 C 242.632812 301.75 259.730469 318.84375 280.738281 318.84375 C 301.746094 318.84375 318.84375 301.75 318.84375 280.738281 C 318.84375 259.722656 301.746094 242.632812 280.738281 242.632812 C 271.753906 242.632812 263.5 245.773438 256.980469 250.992188 L 216.703125 210.71875 C 221.40625 205.585938 224.519531 199.039062 225.410156 191.824219 Z M 64.808594 200.292969 L 64.808594 174.890625 C 64.808594 160.878906 76.203125 149.488281 90.210938 149.488281 L 124.082031 149.488281 L 124.082031 225.695312 L 90.210938 225.695312 C 76.203125 225.695312 64.808594 214.304688 64.808594 200.292969 Z M 123.992188 280.738281 L 94.445312 280.738281 L 94.445312 234.164062 L 109.0625 234.164062 C 118.105469 248.15625 123.246094 264.140625 123.992188 280.738281 Z M 191.824219 260.796875 L 132.550781 227.457031 L 132.550781 147.726562 L 191.824219 114.386719 Z M 280.738281 157.953125 C 297.078125 157.953125 310.375 171.253906 310.375 187.59375 C 310.375 203.929688 297.078125 217.230469 280.738281 217.230469 C 264.394531 217.230469 251.101562 203.929688 251.101562 187.59375 C 251.101562 171.253906 264.394531 157.953125 280.738281 157.953125 Z M 280.738281 64.808594 C 297.078125 64.808594 310.375 78.109375 310.375 94.445312 C 310.375 110.785156 297.078125 124.082031 280.738281 124.082031 C 264.394531 124.082031 251.101562 110.785156 251.101562 94.445312 C 251.101562 78.109375 264.394531 64.808594 280.738281 64.808594 Z M 280.738281 251.101562 C 297.078125 251.101562 310.375 264.398438 310.375 280.738281 C 310.375 297.074219 297.078125 310.375 280.738281 310.375 C 264.394531 310.375 251.101562 297.074219 251.101562 280.738281 C 251.101562 264.398438 264.394531 251.101562 280.738281 251.101562 Z M 200.292969 211.722656 L 200.292969 163.394531 C 210.332031 167.027344 217.230469 176.5625 217.230469 187.59375 C 217.230469 198.53125 210.429688 207.988281 200.292969 211.722656 Z M 200.292969 211.722656 " fill-opacity="1" fill-rule="nonzero"/></g></svg>