<?xml version="1.0" encoding="UTF-8"?><svg xmlns="http://www.w3.org/2000/svg" xmlns:xlink="http://www.w3.org/1999/xlink" contentScriptType="text/ecmascript" width="375" zoomAndPan="magnify" contentStyleType="text/css" viewBox="0 0 375 374.999991" height="374.999991" preserveAspectRatio="xMidYMid meet" version="1.0"><rect x="-37.5" width="450" fill="rgb(100%, 100%, 100%)" y="-37.499999" height="449.999989" fill-opacity="1"/><rect x="-37.5" width="450" fill="rgb(14.898682%, 68.629456%, 85.099792%)" y="-37.499999" height="449.999989" fill-opacity="1"/><path fill="rgb(3.919983%, 7.839966%, 12.159729%)" d="M 281.996094 302.554688 C 277.105469 302.554688 273.128906 298.582031 273.128906 293.695312 C 273.128906 288.792969 277.105469 284.832031 281.996094 284.832031 C 286.886719 284.832031 290.863281 288.792969 290.863281 293.695312 C 290.863281 298.582031 286.886719 302.554688 281.996094 302.554688 Z M 299.226562 283.4375 C 299.226562 283.4375 159.976562 141.75 161.8125 137.945312 C 167.269531 126.6875 169.03125 109.726562 157.058594 97.101562 L 133.003906 71.738281 C 122.375 60.515625 105.425781 56.261719 91.699219 60.988281 C 91.699219 60.988281 125.839844 95.308594 126.808594 101.550781 C 127.476562 105.773438 101.679688 130.074219 97.289062 129.023438 C 92.492188 127.886719 58.941406 93.140625 58.941406 93.140625 C 52.691406 106.867188 56.390625 122.234375 67.40625 133.859375 L 92.011719 159.816406 C 104.015625 172.472656 123.898438 168.875 133.566406 166.386719 C 136.6875 165.582031 270.636719 310.507812 270.636719 310.507812 C 278.117188 318.410156 290.582031 318.746094 298.476562 311.261719 C 306.371094 303.785156 306.707031 291.328125 299.226562 283.4375 " fill-opacity="1" fill-rule="nonzero"/><path fill="rgb(3.529358%, 48.239136%, 67.83905%)" d="M 91.3125 301.292969 C 86.410156 301.429688 82.332031 297.5625 82.207031 292.671875 C 82.070312 287.785156 85.929688 283.707031 90.832031 283.582031 C 95.726562 283.445312 99.804688 287.304688 99.929688 292.203125 C 100.0625 297.09375 96.203125 301.160156 91.3125 301.292969 Z M 317.429688 97.570312 C 317.429688 97.570312 284.019531 132.609375 277.804688 133.746094 C 273.597656 134.527344 248.585938 109.402344 249.527344 104.980469 C 250.546875 100.164062 284.386719 65.703125 284.386719 65.703125 C 270.492188 59.832031 255.210938 63.941406 243.882812 75.261719 L 218.589844 100.539062 C 206.25 112.875 210.390625 132.640625 213.144531 142.230469 C 214.019531 145.328125 72.664062 283.050781 72.664062 283.050781 C 64.96875 290.742188 64.972656 303.203125 72.664062 310.894531 C 80.359375 318.578125 92.824219 318.578125 100.523438 310.894531 C 100.523438 310.894531 238.488281 167.960938 242.339844 169.691406 C 253.75 174.839844 270.75 176.144531 283.070312 163.839844 L 307.78125 139.132812 C 318.722656 128.199219 322.519531 111.152344 317.429688 97.570312 " fill-opacity="1" fill-rule="nonzero"/></svg>