<?xml version="1.0" encoding="UTF-8"?><svg xmlns="http://www.w3.org/2000/svg" xmlns:xlink="http://www.w3.org/1999/xlink" contentScriptType="text/ecmascript" width="375" zoomAndPan="magnify" contentStyleType="text/css" viewBox="0 0 375 374.999991" height="374.999991" preserveAspectRatio="xMidYMid meet" version="1.0"><rect x="-37.5" width="450" fill="rgb(100%, 100%, 100%)" y="-37.499999" height="449.999989" fill-opacity="1"/><rect x="-37.5" width="450" fill="rgb(14.898682%, 68.629456%, 85.099792%)" y="-37.499999" height="449.999989" fill-opacity="1"/><path fill="rgb(3.919983%, 7.839966%, 12.159729%)" d="M 285.738281 307.453125 C 280.644531 307.453125 276.503906 303.3125 276.503906 298.214844 C 276.503906 293.105469 280.644531 288.972656 285.738281 288.972656 C 290.835938 288.972656 294.976562 293.105469 294.976562 298.214844 C 294.976562 303.3125 290.835938 307.453125 285.738281 307.453125 Z M 303.691406 287.515625 C 303.691406 287.515625 158.636719 139.757812 160.550781 135.789062 C 166.230469 124.046875 168.070312 106.359375 155.59375 93.195312 L 130.539062 66.742188 C 119.46875 55.042969 101.8125 50.605469 87.511719 55.535156 C 87.511719 55.535156 123.074219 91.324219 124.085938 97.835938 C 124.78125 102.238281 97.910156 127.582031 93.335938 126.484375 C 88.339844 125.296875 53.390625 89.0625 53.390625 89.0625 C 46.878906 103.382812 50.734375 119.40625 62.207031 131.527344 L 87.839844 158.597656 C 100.34375 171.796875 121.054688 168.046875 131.125 165.449219 C 134.375 164.609375 273.90625 315.75 273.90625 315.75 C 281.699219 323.988281 294.683594 324.339844 302.90625 316.53125 C 311.132812 308.738281 311.480469 295.746094 303.691406 287.515625 " fill-opacity="1" fill-rule="nonzero"/><path fill="rgb(3.529358%, 48.239136%, 67.83905%)" d="M 87.109375 306.140625 C 82.003906 306.28125 77.757812 302.246094 77.625 297.148438 C 77.484375 292.050781 81.503906 287.796875 86.609375 287.667969 C 91.707031 287.527344 95.957031 291.550781 96.085938 296.660156 C 96.226562 301.757812 92.207031 305.996094 87.109375 306.140625 Z M 322.648438 93.683594 C 322.648438 93.683594 287.847656 130.222656 281.371094 131.410156 C 276.992188 132.222656 250.9375 106.023438 251.917969 101.414062 C 252.980469 96.390625 288.226562 60.453125 288.226562 60.453125 C 273.753906 54.328125 257.835938 58.613281 246.039062 70.417969 L 219.691406 96.78125 C 206.835938 109.644531 211.148438 130.257812 214.019531 140.257812 C 214.929688 143.488281 67.683594 287.113281 67.683594 287.113281 C 59.671875 295.136719 59.675781 308.128906 67.683594 316.152344 C 75.703125 324.164062 88.6875 324.164062 96.707031 316.152344 C 96.707031 316.152344 240.421875 167.089844 244.429688 168.894531 C 256.316406 174.265625 274.027344 175.625 286.859375 162.796875 L 312.597656 137.027344 C 323.996094 125.625 327.953125 107.847656 322.648438 93.683594 " fill-opacity="1" fill-rule="nonzero"/></svg>