<?xml version="1.0" encoding="UTF-8"?><svg xmlns="http://www.w3.org/2000/svg" xmlns:xlink="http://www.w3.org/1999/xlink" contentScriptType="text/ecmascript" width="375" zoomAndPan="magnify" contentStyleType="text/css" viewBox="0 0 375 374.999991" height="374.999991" preserveAspectRatio="xMidYMid meet" version="1.0"><defs><clipPath id="clip-0"><path d="M 75.734375 52.640625 L 299.234375 52.640625 L 299.234375 322.640625 L 75.734375 322.640625 Z M 75.734375 52.640625 " clip-rule="nonzero"/></clipPath></defs><rect x="-37.5" width="450" fill="rgb(100%, 100%, 100%)" y="-37.499999" height="449.999989" fill-opacity="1"/><rect x="-37.5" width="450" fill="rgb(14.898682%, 68.629456%, 85.099792%)" y="-37.499999" height="449.999989" fill-opacity="1"/><path fill="rgb(3.919983%, 7.839966%, 12.159729%)" d="M 171.398438 294.511719 C 171.398438 285.199219 163.851562 277.636719 154.546875 277.636719 C 145.238281 277.636719 137.691406 285.199219 137.691406 294.511719 C 137.691406 303.835938 145.238281 311.386719 154.546875 311.386719 C 163.851562 311.386719 171.398438 303.835938 171.398438 294.511719 Z M 154.546875 300.136719 C 151.445312 300.136719 148.929688 297.617188 148.929688 294.511719 C 148.929688 291.410156 151.445312 288.890625 154.546875 288.890625 C 157.644531 288.890625 160.160156 291.410156 160.160156 294.511719 C 160.160156 297.617188 157.644531 300.136719 154.546875 300.136719 Z M 154.546875 300.136719 " fill-opacity="1" fill-rule="nonzero"/><g clip-path="url(#clip-0)"><path fill="rgb(3.919983%, 7.839966%, 12.159729%)" d="M 280.730469 216.464844 L 278.210938 217.582031 C 265.375 150.320312 252.410156 125.289062 250.808594 122.371094 C 248.402344 117.1875 243.960938 113.457031 238.824219 112.105469 L 238.824219 75.140625 C 238.824219 62.714844 228.757812 52.640625 216.347656 52.640625 L 98.363281 52.640625 C 85.953125 52.640625 75.886719 62.714844 75.886719 75.140625 L 75.886719 300.136719 C 75.886719 312.5625 85.953125 322.640625 98.363281 322.640625 L 216.347656 322.640625 C 228.757812 322.640625 238.824219 312.5625 238.824219 300.136719 L 238.824219 284.523438 L 299.082031 257.546875 Z M 231.945312 123.382812 C 232.800781 122.996094 233.679688 122.800781 234.550781 122.800781 C 237.113281 122.800781 239.449219 124.492188 240.667969 127.210938 L 240.78125 127.46875 L 240.921875 127.710938 C 241.0625 127.953125 254.445312 151.851562 267.679688 222.3125 L 199.699219 252.75 L 196.292969 248.96875 L 132.296875 214.269531 C 130.175781 213.117188 128.636719 211.222656 127.960938 208.914062 C 127.285156 206.609375 127.554688 204.167969 128.722656 202.042969 C 130.335938 199.101562 133.425781 197.28125 136.789062 197.28125 C 138.308594 197.28125 139.757812 197.644531 141.101562 198.367188 L 169.15625 213.59375 L 122.886719 110.023438 C 121.921875 107.859375 122.546875 105.742188 123.003906 104.675781 C 123.832031 102.753906 125.351562 101.179688 127.183594 100.359375 C 128.210938 99.902344 129.382812 99.660156 130.578125 99.660156 C 133.136719 99.660156 136.25 100.851562 137.433594 103.507812 L 157.175781 147.691406 L 166.632812 168.859375 L 166.636719 168.855469 C 166.648438 168.886719 166.660156 168.914062 166.671875 168.949219 C 167.941406 171.78125 171.261719 173.050781 174.097656 171.78125 C 176.925781 170.519531 178.199219 167.1875 176.929688 164.355469 C 176.914062 164.320312 176.898438 164.296875 176.886719 164.265625 L 176.890625 164.265625 L 167.320312 142.835938 C 166.414062 140.804688 167.140625 138.628906 167.660156 137.523438 C 168.609375 135.488281 170.308594 133.765625 172.203125 132.917969 C 172.367188 132.847656 172.535156 132.78125 172.699219 132.71875 L 172.972656 132.613281 C 174.03125 132.164062 175.261719 131.921875 176.53125 131.921875 C 179.242188 131.921875 182.488281 133.050781 183.609375 135.574219 L 193.171875 156.972656 L 193.175781 156.972656 C 193.1875 157 193.199219 157.035156 193.210938 157.0625 C 194.476562 159.898438 197.804688 161.171875 200.636719 159.902344 C 203.46875 158.632812 204.734375 155.308594 203.46875 152.46875 C 203.453125 152.441406 203.4375 152.410156 203.417969 152.382812 L 203.425781 152.378906 L 197.722656 139.609375 C 196.277344 136.359375 198.726562 131.429688 202.679688 129.660156 C 203.765625 129.175781 205.03125 128.921875 206.347656 128.921875 C 209.03125 128.921875 212.257812 130.058594 213.394531 132.59375 L 215.929688 138.285156 L 219.089844 145.363281 L 219.097656 145.363281 C 219.105469 145.390625 219.121094 145.425781 219.136719 145.453125 C 220.40625 148.292969 223.722656 149.5625 226.5625 148.292969 C 229.394531 147.023438 230.660156 143.699219 229.394531 140.859375 C 229.375 140.832031 229.359375 140.800781 229.34375 140.773438 L 229.351562 140.773438 L 226.183594 133.691406 C 224.816406 130.617188 227.828125 125.226562 231.945312 123.382812 Z M 126.945312 224.160156 L 143.304688 233.035156 L 143.304688 243.886719 L 109.597656 243.886719 L 109.597656 210.136719 L 116.710938 210.136719 C 116.835938 210.792969 116.992188 211.445312 117.179688 212.097656 C 118.707031 217.289062 122.175781 221.582031 126.945312 224.160156 Z M 109.597656 182.011719 L 109.597656 148.261719 L 127.660156 148.261719 L 142.738281 182.011719 Z M 112.628906 114.617188 L 115.097656 120.140625 L 109.597656 120.140625 L 109.597656 86.390625 L 143.308594 86.390625 L 143.308594 93.039062 C 139.949219 90.121094 135.433594 88.410156 130.578125 88.410156 C 127.8125 88.410156 125.054688 88.992188 122.597656 90.089844 C 118.222656 92.050781 114.605469 95.746094 112.679688 100.234375 C 110.632812 105 110.617188 110.109375 112.628906 114.617188 Z M 171.398438 120.140625 L 171.398438 86.390625 L 205.113281 86.390625 L 205.113281 117.710938 C 202.652344 117.855469 200.242188 118.425781 198.085938 119.390625 C 197.582031 119.617188 197.097656 119.875 196.613281 120.140625 Z M 87.125 75.140625 C 87.125 68.933594 92.167969 63.886719 98.363281 63.886719 L 216.347656 63.886719 C 222.546875 63.886719 227.582031 68.933594 227.582031 75.140625 L 227.582031 113.015625 C 227.507812 113.050781 227.433594 113.078125 227.351562 113.117188 C 223.671875 114.761719 220.355469 117.703125 218.035156 121.265625 C 217.492188 120.882812 216.929688 120.527344 216.347656 120.203125 L 216.347656 80.761719 C 216.347656 77.65625 213.835938 75.140625 210.726562 75.140625 L 165.78125 75.140625 C 162.679688 75.140625 160.160156 77.65625 160.160156 80.761719 L 160.160156 125.765625 C 160.160156 126.300781 160.238281 126.816406 160.378906 127.308594 L 154.542969 114.25 L 154.542969 80.761719 C 154.542969 77.65625 152.03125 75.140625 148.929688 75.140625 L 103.980469 75.140625 C 100.878906 75.140625 98.363281 77.65625 98.363281 80.761719 L 98.363281 125.765625 C 98.363281 128.871094 100.878906 131.386719 103.980469 131.386719 L 120.125 131.386719 L 122.636719 137.015625 L 103.980469 137.015625 C 100.878906 137.015625 98.363281 139.53125 98.363281 142.640625 L 98.363281 187.640625 C 98.363281 190.746094 100.878906 193.265625 103.980469 193.265625 L 121.179688 193.265625 C 120.3125 194.289062 119.539062 195.410156 118.875 196.621094 C 118.46875 197.363281 118.117188 198.121094 117.808594 198.886719 L 103.980469 198.886719 C 100.878906 198.886719 98.363281 201.410156 98.363281 204.515625 L 98.363281 249.511719 C 98.363281 252.621094 100.878906 255.140625 103.980469 255.140625 L 148.929688 255.140625 C 152.03125 255.140625 154.546875 252.621094 154.546875 249.511719 L 154.546875 239.121094 L 160.160156 242.171875 L 160.160156 249.511719 C 160.160156 252.621094 162.679688 255.140625 165.78125 255.140625 L 184.074219 255.140625 L 188.730469 257.660156 L 187.765625 258.089844 L 191.46875 266.386719 L 87.125 266.386719 Z M 227.582031 300.136719 C 227.582031 306.34375 222.546875 311.386719 216.347656 311.386719 L 98.363281 311.386719 C 92.167969 311.386719 87.125 306.34375 87.125 300.136719 L 87.125 277.636719 L 196.496094 277.636719 L 206.117188 299.175781 L 227.582031 289.558594 Z M 211.78125 284.308594 L 202.613281 263.769531 L 275.050781 231.328125 L 284.238281 251.859375 Z M 211.78125 284.308594 " fill-opacity="1" fill-rule="nonzero"/></g></svg>