<?xml version="1.0" encoding="UTF-8"?><svg xmlns="http://www.w3.org/2000/svg" xmlns:xlink="http://www.w3.org/1999/xlink" contentScriptType="text/ecmascript" width="375" zoomAndPan="magnify" contentStyleType="text/css" viewBox="0 0 375 374.999991" height="374.999991" preserveAspectRatio="xMidYMid meet" version="1.0"><defs><clipPath id="clip-0"><path d="M 56.269531 56.269531 L 318.769531 56.269531 L 318.769531 318.769531 L 56.269531 318.769531 Z M 56.269531 56.269531 " clip-rule="nonzero"/></clipPath></defs><rect x="-37.5" width="450" fill="rgb(100%, 100%, 100%)" y="-37.499999" height="449.999989" fill-opacity="1"/><rect x="-37.5" width="450" fill="rgb(14.898682%, 68.629456%, 85.099792%)" y="-37.499999" height="449.999989" fill-opacity="1"/><g clip-path="url(#clip-0)"><path fill="rgb(3.919983%, 7.839966%, 12.159729%)" d="M 264.027344 283.441406 L 244.3125 263.726562 L 263.726562 244.3125 L 283.441406 264.027344 C 277.703125 271.203125 271.203125 277.703125 264.027344 283.441406 Z M 64.734375 187.519531 C 64.734375 172.15625 67.664062 156.972656 73.203125 142.796875 L 73.203125 225.625 L 133.171875 225.625 C 144.914062 245.832031 166.746094 259.496094 191.753906 259.496094 C 205.660156 259.496094 218.59375 255.277344 229.359375 248.050781 L 238.6875 257.378906 L 232.339844 263.726562 L 257.164062 288.550781 C 237.367188 302.246094 213.367188 310.300781 187.519531 310.300781 C 119.828125 310.300781 64.734375 255.226562 64.734375 187.519531 Z M 267.960938 64.738281 L 267.960938 90.140625 L 81.671875 90.140625 L 81.671875 64.738281 Z M 132.476562 191.753906 C 132.476562 159.074219 159.070312 132.476562 191.753906 132.476562 C 224.433594 132.476562 251.027344 159.074219 251.027344 191.753906 C 251.027344 224.433594 224.433594 251.027344 191.753906 251.027344 C 159.070312 251.027344 132.476562 224.433594 132.476562 191.753906 Z M 81.671875 98.605469 L 267.960938 98.605469 L 267.960938 217.15625 L 254.515625 217.15625 C 257.707031 209.300781 259.496094 200.734375 259.496094 191.753906 C 259.496094 154.390625 229.113281 124.011719 191.753906 124.011719 C 154.390625 124.011719 124.011719 154.390625 124.011719 191.753906 C 124.011719 200.734375 125.796875 209.300781 128.988281 217.15625 L 81.671875 217.15625 Z M 244.675781 251.390625 L 236.109375 242.824219 C 238.507812 240.757812 240.757812 238.507812 242.824219 236.109375 L 251.390625 244.675781 Z M 310.300781 187.519531 C 310.300781 213.367188 302.246094 237.367188 288.550781 257.164062 L 263.726562 232.339844 L 257.378906 238.6875 L 248.050781 229.359375 C 248.859375 228.152344 249.585938 226.878906 250.332031 225.625 L 276.429688 225.625 L 276.429688 102.90625 C 298.027344 125.632812 310.300781 155.980469 310.300781 187.519531 Z M 276.429688 91 L 276.429688 56.269531 L 73.203125 56.269531 L 73.203125 123.050781 C 62.140625 142.632812 56.269531 164.894531 56.269531 187.519531 C 56.269531 259.890625 115.144531 318.769531 187.519531 318.769531 C 259.890625 318.769531 318.769531 259.890625 318.769531 187.519531 C 318.769531 150.917969 303.339844 115.808594 276.429688 91 " fill-opacity="1" fill-rule="nonzero"/></g><path fill="rgb(3.919983%, 7.839966%, 12.159729%)" d="M 98.605469 73.203125 L 90.140625 73.203125 L 90.140625 81.671875 L 98.605469 81.671875 L 98.605469 73.203125 " fill-opacity="1" fill-rule="nonzero"/><path fill="rgb(3.919983%, 7.839966%, 12.159729%)" d="M 115.542969 73.203125 L 107.074219 73.203125 L 107.074219 81.671875 L 115.542969 81.671875 L 115.542969 73.203125 " fill-opacity="1" fill-rule="nonzero"/><path fill="rgb(3.919983%, 7.839966%, 12.159729%)" d="M 132.476562 73.203125 L 124.011719 73.203125 L 124.011719 81.671875 L 132.476562 81.671875 L 132.476562 73.203125 " fill-opacity="1" fill-rule="nonzero"/><path fill="rgb(3.919983%, 7.839966%, 12.159729%)" d="M 191.769531 149.414062 C 215.105469 149.414062 234.109375 168.417969 234.109375 191.769531 C 234.109375 215.105469 215.105469 234.109375 191.769531 234.109375 C 168.417969 234.109375 149.414062 215.105469 149.414062 191.769531 C 149.414062 168.417969 168.417969 149.414062 191.769531 149.414062 Z M 191.769531 242.574219 C 219.785156 242.574219 242.574219 219.785156 242.574219 191.769531 C 242.574219 163.734375 219.785156 140.945312 191.769531 140.945312 C 163.734375 140.945312 140.945312 163.734375 140.945312 191.769531 C 140.945312 219.785156 163.734375 242.574219 191.769531 242.574219 " fill-opacity="1" fill-rule="nonzero"/><path fill="rgb(3.919983%, 7.839966%, 12.159729%)" d="M 98.605469 107.074219 L 90.140625 107.074219 L 90.140625 115.542969 L 98.605469 115.542969 L 98.605469 107.074219 " fill-opacity="1" fill-rule="nonzero"/><path fill="rgb(3.919983%, 7.839966%, 12.159729%)" d="M 259.496094 107.074219 L 107.074219 107.074219 L 107.074219 115.542969 L 259.496094 115.542969 L 259.496094 107.074219 " fill-opacity="1" fill-rule="nonzero"/><path fill="rgb(3.919983%, 7.839966%, 12.159729%)" d="M 149.414062 124.011719 L 90.140625 124.011719 L 90.140625 132.476562 L 149.414062 132.476562 L 149.414062 124.011719 " fill-opacity="1" fill-rule="nonzero"/><path fill="rgb(3.919983%, 7.839966%, 12.159729%)" d="M 90.140625 149.414062 L 115.542969 149.414062 L 115.542969 140.945312 L 90.140625 140.945312 L 90.140625 149.414062 " fill-opacity="1" fill-rule="nonzero"/><path fill="rgb(3.919983%, 7.839966%, 12.159729%)" d="M 90.140625 166.347656 L 115.542969 166.347656 L 115.542969 157.882812 L 90.140625 157.882812 L 90.140625 166.347656 " fill-opacity="1" fill-rule="nonzero"/><path fill="rgb(3.919983%, 7.839966%, 12.159729%)" d="M 90.140625 183.285156 L 115.542969 183.285156 L 115.542969 174.816406 L 90.140625 174.816406 L 90.140625 183.285156 " fill-opacity="1" fill-rule="nonzero"/><path fill="rgb(3.919983%, 7.839966%, 12.159729%)" d="M 90.140625 200.21875 L 115.542969 200.21875 L 115.542969 191.753906 L 90.140625 191.753906 L 90.140625 200.21875 " fill-opacity="1" fill-rule="nonzero"/></svg>