<?xml version="1.0" encoding="UTF-8"?><svg xmlns="http://www.w3.org/2000/svg" xmlns:xlink="http://www.w3.org/1999/xlink" contentScriptType="text/ecmascript" width="375" zoomAndPan="magnify" contentStyleType="text/css" viewBox="0 0 375 374.999991" height="374.999991" preserveAspectRatio="xMidYMid meet" version="1.0"><defs><clipPath id="clip-0"><path d="M 56.34375 56.34375 L 318.84375 56.34375 L 318.84375 318.84375 L 56.34375 318.84375 Z M 56.34375 56.34375 " clip-rule="nonzero"/></clipPath></defs><rect x="-37.5" width="450" fill="rgb(100%, 100%, 100%)" y="-37.499999" height="449.999989" fill-opacity="1"/><rect x="-37.5" width="450" fill="rgb(14.898682%, 68.629456%, 85.099792%)" y="-37.499999" height="449.999989" fill-opacity="1"/><path fill="rgb(63.919067%, 89.019775%, 95.289612%)" d="M 314.609375 187.59375 C 314.609375 257.75 257.75 314.609375 187.59375 314.609375 C 117.433594 314.609375 60.574219 257.75 60.574219 187.59375 C 60.574219 117.433594 117.433594 60.574219 187.59375 60.574219 C 257.75 60.574219 314.609375 117.433594 314.609375 187.59375 " fill-opacity="1" fill-rule="nonzero"/><path fill="rgb(96.078491%, 96.859741%, 98.039246%)" d="M 257.449219 244.75 L 244.75 257.449219 L 229.929688 242.632812 C 234.761719 238.992188 238.992188 234.761719 242.632812 229.929688 L 257.449219 244.75 " fill-opacity="1" fill-rule="nonzero"/><path fill="rgb(3.529358%, 28.62854%, 47.059631%)" d="M 263.800781 238.398438 L 289.203125 263.800781 C 282.011719 273.410156 273.410156 282.011719 263.800781 289.203125 L 238.398438 263.800781 L 263.800781 238.398438 " fill-opacity="1" fill-rule="nonzero"/><path fill="rgb(96.078491%, 96.859741%, 98.039246%)" d="M 77.511719 94.445312 L 77.511719 221.460938 L 135.644531 221.460938 C 130.980469 212.613281 128.316406 202.542969 128.316406 191.824219 C 128.316406 156.765625 156.765625 128.316406 191.824219 128.316406 C 226.886719 128.316406 255.332031 156.765625 255.332031 191.824219 C 255.332031 202.542969 252.671875 212.613281 248.007812 221.460938 L 272.269531 221.460938 L 272.269531 94.445312 L 77.511719 94.445312 " fill-opacity="1" fill-rule="nonzero"/><path fill="rgb(7.839966%, 48.629761%, 68.238831%)" d="M 238.398438 191.824219 C 238.398438 166.125 217.578125 145.253906 191.824219 145.253906 C 166.125 145.253906 145.253906 166.125 145.253906 191.824219 C 145.253906 217.578125 166.125 238.398438 191.824219 238.398438 C 217.578125 238.398438 238.398438 217.578125 238.398438 191.824219 Z M 242.632812 229.929688 C 238.992188 234.761719 234.761719 238.992188 229.929688 242.632812 C 219.347656 250.585938 206.132812 255.332031 191.824219 255.332031 C 167.480469 255.332031 146.3125 241.625 135.644531 221.460938 C 130.980469 212.613281 128.316406 202.542969 128.316406 191.824219 C 128.316406 156.765625 156.765625 128.316406 191.824219 128.316406 C 226.886719 128.316406 255.332031 156.765625 255.332031 191.824219 C 255.332031 202.542969 252.671875 212.613281 248.007812 221.460938 C 246.402344 224.421875 244.617188 227.269531 242.632812 229.929688 " fill-opacity="1" fill-rule="nonzero"/><path fill="rgb(96.078491%, 96.859741%, 98.039246%)" d="M 191.824219 145.253906 C 217.578125 145.253906 238.398438 166.125 238.398438 191.824219 C 238.398438 217.578125 217.578125 238.398438 191.824219 238.398438 C 166.125 238.398438 145.253906 217.578125 145.253906 191.824219 C 145.253906 166.125 166.125 145.253906 191.824219 145.253906 " fill-opacity="1" fill-rule="nonzero"/><path fill="rgb(7.839966%, 48.629761%, 68.238831%)" d="M 77.511719 94.445312 L 77.511719 60.574219 L 272.269531 60.574219 L 272.269531 94.445312 L 77.511719 94.445312 " fill-opacity="1" fill-rule="nonzero"/><g clip-path="url(#clip-0)"><path fill="rgb(3.919983%, 7.839966%, 12.159729%)" d="M 264.097656 283.515625 L 244.386719 263.800781 L 263.800781 244.386719 L 283.515625 264.097656 C 277.777344 271.277344 271.277344 277.777344 264.097656 283.515625 Z M 64.808594 187.59375 C 64.808594 172.226562 67.738281 157.046875 73.277344 142.871094 L 73.277344 225.695312 L 133.246094 225.695312 C 144.988281 245.90625 166.820312 259.566406 191.824219 259.566406 C 205.734375 259.566406 218.667969 255.351562 229.433594 248.121094 L 238.761719 257.449219 L 232.410156 263.800781 L 257.234375 288.625 C 237.4375 302.320312 213.441406 310.375 187.59375 310.375 C 119.898438 310.375 64.808594 255.300781 64.808594 187.59375 Z M 268.035156 64.808594 L 268.035156 90.210938 L 81.746094 90.210938 L 81.746094 64.808594 Z M 132.550781 191.824219 C 132.550781 159.144531 159.144531 132.550781 191.824219 132.550781 C 224.507812 132.550781 251.101562 159.144531 251.101562 191.824219 C 251.101562 224.507812 224.507812 251.101562 191.824219 251.101562 C 159.144531 251.101562 132.550781 224.507812 132.550781 191.824219 Z M 81.746094 98.679688 L 268.035156 98.679688 L 268.035156 217.230469 L 254.589844 217.230469 C 257.78125 209.375 259.566406 200.804688 259.566406 191.824219 C 259.566406 154.464844 229.1875 124.082031 191.824219 124.082031 C 154.464844 124.082031 124.082031 154.464844 124.082031 191.824219 C 124.082031 200.804688 125.871094 209.375 129.0625 217.230469 L 81.746094 217.230469 Z M 244.75 251.464844 L 236.183594 242.898438 C 238.582031 240.828125 240.828125 238.582031 242.898438 236.183594 L 251.464844 244.75 Z M 310.375 187.59375 C 310.375 213.441406 302.320312 237.4375 288.625 257.234375 L 263.800781 232.410156 L 257.449219 238.761719 L 248.121094 229.433594 C 248.933594 228.226562 249.660156 226.953125 250.40625 225.695312 L 276.503906 225.695312 L 276.503906 102.980469 C 298.101562 125.703125 310.375 156.054688 310.375 187.59375 Z M 276.503906 91.074219 L 276.503906 56.34375 L 73.277344 56.34375 L 73.277344 123.125 C 62.214844 142.707031 56.34375 164.96875 56.34375 187.59375 C 56.34375 259.964844 115.21875 318.84375 187.59375 318.84375 C 259.964844 318.84375 318.84375 259.964844 318.84375 187.59375 C 318.84375 150.992188 303.410156 115.878906 276.503906 91.074219 " fill-opacity="1" fill-rule="nonzero"/></g><path fill="rgb(3.919983%, 7.839966%, 12.159729%)" d="M 98.679688 73.277344 L 90.210938 73.277344 L 90.210938 81.746094 L 98.679688 81.746094 L 98.679688 73.277344 " fill-opacity="1" fill-rule="nonzero"/><path fill="rgb(3.919983%, 7.839966%, 12.159729%)" d="M 115.617188 73.277344 L 107.148438 73.277344 L 107.148438 81.746094 L 115.617188 81.746094 L 115.617188 73.277344 " fill-opacity="1" fill-rule="nonzero"/><path fill="rgb(3.919983%, 7.839966%, 12.159729%)" d="M 132.550781 73.277344 L 124.082031 73.277344 L 124.082031 81.746094 L 132.550781 81.746094 L 132.550781 73.277344 " fill-opacity="1" fill-rule="nonzero"/><path fill="rgb(3.919983%, 7.839966%, 12.159729%)" d="M 191.84375 149.488281 C 215.179688 149.488281 234.179688 168.488281 234.179688 191.84375 C 234.179688 215.179688 215.179688 234.179688 191.84375 234.179688 C 168.488281 234.179688 149.488281 215.179688 149.488281 191.84375 C 149.488281 168.488281 168.488281 149.488281 191.84375 149.488281 Z M 191.84375 242.648438 C 219.859375 242.648438 242.648438 219.859375 242.648438 191.84375 C 242.648438 163.808594 219.859375 141.019531 191.84375 141.019531 C 163.808594 141.019531 141.019531 163.808594 141.019531 191.84375 C 141.019531 219.859375 163.808594 242.648438 191.84375 242.648438 " fill-opacity="1" fill-rule="nonzero"/><path fill="rgb(3.919983%, 7.839966%, 12.159729%)" d="M 98.679688 107.148438 L 90.210938 107.148438 L 90.210938 115.617188 L 98.679688 115.617188 L 98.679688 107.148438 " fill-opacity="1" fill-rule="nonzero"/><path fill="rgb(3.919983%, 7.839966%, 12.159729%)" d="M 259.566406 107.148438 L 107.148438 107.148438 L 107.148438 115.617188 L 259.566406 115.617188 L 259.566406 107.148438 " fill-opacity="1" fill-rule="nonzero"/><path fill="rgb(3.919983%, 7.839966%, 12.159729%)" d="M 149.488281 124.082031 L 90.210938 124.082031 L 90.210938 132.550781 L 149.488281 132.550781 L 149.488281 124.082031 " fill-opacity="1" fill-rule="nonzero"/><path fill="rgb(3.919983%, 7.839966%, 12.159729%)" d="M 90.210938 149.488281 L 115.617188 149.488281 L 115.617188 141.019531 L 90.210938 141.019531 L 90.210938 149.488281 " fill-opacity="1" fill-rule="nonzero"/><path fill="rgb(3.919983%, 7.839966%, 12.159729%)" d="M 90.210938 166.421875 L 115.617188 166.421875 L 115.617188 157.953125 L 90.210938 157.953125 L 90.210938 166.421875 " fill-opacity="1" fill-rule="nonzero"/><path fill="rgb(3.919983%, 7.839966%, 12.159729%)" d="M 90.210938 183.359375 L 115.617188 183.359375 L 115.617188 174.890625 L 90.210938 174.890625 L 90.210938 183.359375 " fill-opacity="1" fill-rule="nonzero"/><path fill="rgb(3.919983%, 7.839966%, 12.159729%)" d="M 90.210938 200.292969 L 115.617188 200.292969 L 115.617188 191.824219 L 90.210938 191.824219 L 90.210938 200.292969 " fill-opacity="1" fill-rule="nonzero"/></svg>